<?xml version="1.0" encoding="UTF-8" standalone="no"?><svg xmlns="http://www.w3.org/2000/svg" xmlns:xlink="http://www.w3.org/1999/xlink" contentScriptType="application/ecmascript" contentStyleType="text/css" height="232px" preserveAspectRatio="none" style="width:387px;height:232px;" version="1.1" viewBox="0 0 387 232" width="387px" zoomAndPan="magnify"><defs/><g><line style="stroke: #000000; stroke-width: 1.7;" x1="10" x2="10" y1="10" y2="201.8125"/><line style="stroke: #000000; stroke-width: 1.7;" x1="370" x2="370" y1="10" y2="201.8125"/><line style="stroke: #AAAAAA; stroke-width: 0.5; stroke-dasharray: 3.0,5.0;" x1="15" x2="15" y1="10" y2="201.8125"/><line style="stroke: #AAAAAA; stroke-width: 0.5; stroke-dasharray: 3.0,5.0;" x1="65" x2="65" y1="10" y2="201.8125"/><line style="stroke: #AAAAAA; stroke-width: 0.5; stroke-dasharray: 3.0,5.0;" x1="115" x2="115" y1="10" y2="201.8125"/><line style="stroke: #AAAAAA; stroke-width: 0.5; stroke-dasharray: 3.0,5.0;" x1="165" x2="165" y1="10" y2="201.8125"/><line style="stroke: #AAAAAA; stroke-width: 0.5; stroke-dasharray: 3.0,5.0;" x1="215" x2="215" y1="10" y2="201.8125"/><line style="stroke: #AAAAAA; stroke-width: 0.5; stroke-dasharray: 3.0,5.0;" x1="265" x2="265" y1="10" y2="201.8125"/><line style="stroke: #AAAAAA; stroke-width: 0.5; stroke-dasharray: 3.0,5.0;" x1="315" x2="315" y1="10" y2="201.8125"/><line style="stroke: #AAAAAA; stroke-width: 0.5; stroke-dasharray: 3.0,5.0;" x1="365" x2="365" y1="10" y2="201.8125"/><text fill="#000000" font-family="sans-serif" font-size="12" lengthAdjust="spacingAndGlyphs" textLength="103" x="15" y="21.1387">twentyfourseven</text><line style="stroke: #000000; stroke-width: 1.0;" x1="10" x2="119" y1="24.9688" y2="24.9688"/><line style="stroke: #000000; stroke-width: 1.0;" x1="119" x2="129" y1="24.9688" y2="10"/><polygon fill="#D7E0F2" points="27,31.9375,365,31.9375,365,55.9375,27,55.9375,15,43.9375" style="stroke: #D7E0F2; stroke-width: 1.5;"/><path d="M365,31.9375 L27,31.9375 L15,43.9375 L27,55.9375 L365,55.9375 " fill="#D7E0F2" style="stroke: #038048; stroke-width: 1.5;"/><text fill="#000000" font-family="sans-serif" font-size="12" lengthAdjust="spacingAndGlyphs" textLength="33" x="27" y="48.0918">Open</text><line style="stroke: #000000; stroke-width: 1.7;" x1="10" x2="370" y1="10" y2="10"/><text fill="#000000" font-family="sans-serif" font-size="12" lengthAdjust="spacingAndGlyphs" textLength="122" x="15" y="85.0762">exceptional_closing</text><line style="stroke: #000000; stroke-width: 1.0;" x1="10" x2="138" y1="88.9063" y2="88.9063"/><line style="stroke: #000000; stroke-width: 1.0;" x1="138" x2="148" y1="88.9063" y2="73.9375"/><line style="stroke: #038048; stroke-width: 1.5;" x1="15" x2="165" y1="107.875" y2="107.875"/><polygon fill="#D7E0F2" points="177,95.875,253,95.875,265,107.875,253,119.875,177,119.875,165,107.875" style="stroke: #038048; stroke-width: 1.5;"/><line style="stroke: #038048; stroke-width: 1.5;" x1="265" x2="365" y1="107.875" y2="107.875"/><text fill="#000000" font-family="sans-serif" font-size="12" lengthAdjust="spacingAndGlyphs" textLength="42" x="194" y="112.0293">Closed</text><line style="stroke: #000000; stroke-width: 1.7;" x1="10" x2="370" y1="73.9375" y2="73.9375"/><text fill="#000000" font-family="sans-serif" font-size="12" lengthAdjust="spacingAndGlyphs" textLength="131" x="15" y="149.0137">result opening hours</text><line style="stroke: #000000; stroke-width: 1.0;" x1="10" x2="147" y1="152.8438" y2="152.8438"/><line style="stroke: #000000; stroke-width: 1.0;" x1="147" x2="157" y1="152.8438" y2="137.875"/><polygon fill="#D7E0F2" points="27,159.8125,153,159.8125,165,171.8125,153,183.8125,27,183.8125,15,171.8125" style="stroke: #038048; stroke-width: 1.5;"/><line style="stroke: #038048; stroke-width: 1.5;" x1="165" x2="265" y1="171.8125" y2="171.8125"/><polygon fill="#D7E0F2" points="277,159.8125,365,159.8125,365,183.8125,277,183.8125,265,171.8125" style="stroke: #D7E0F2; stroke-width: 1.5;"/><path d="M365,159.8125 L277,159.8125 L265,171.8125 L277,183.8125 L365,183.8125 " fill="#D7E0F2" style="stroke: #038048; stroke-width: 1.5;"/><text fill="#000000" font-family="sans-serif" font-size="12" lengthAdjust="spacingAndGlyphs" textLength="33" x="73.5" y="175.9668">Open</text><text fill="#000000" font-family="sans-serif" font-size="12" lengthAdjust="spacingAndGlyphs" textLength="33" x="277" y="175.9668">Open</text><line style="stroke: #000000; stroke-width: 1.7;" x1="10" x2="370" y1="137.875" y2="137.875"/><line style="stroke: #000000; stroke-width: 2.0;" x1="15" x2="15" y1="201.8125" y2="206.8125"/><line style="stroke: #000000; stroke-width: 2.0;" x1="65" x2="65" y1="201.8125" y2="206.8125"/><line style="stroke: #000000; stroke-width: 2.0;" x1="115" x2="115" y1="201.8125" y2="206.8125"/><line style="stroke: #000000; stroke-width: 2.0;" x1="165" x2="165" y1="201.8125" y2="206.8125"/><line style="stroke: #000000; stroke-width: 2.0;" x1="215" x2="215" y1="201.8125" y2="206.8125"/><line style="stroke: #000000; stroke-width: 2.0;" x1="265" x2="265" y1="201.8125" y2="206.8125"/><line style="stroke: #000000; stroke-width: 2.0;" x1="315" x2="315" y1="201.8125" y2="206.8125"/><line style="stroke: #000000; stroke-width: 2.0;" x1="365" x2="365" y1="201.8125" y2="206.8125"/><line style="stroke: #000000; stroke-width: 2.0;" x1="15" x2="365" y1="201.8125" y2="201.8125"/><text fill="#000000" font-family="sans-serif" font-size="12" lengthAdjust="spacingAndGlyphs" textLength="8" x="11" y="218.9512">0</text><text fill="#000000" font-family="sans-serif" font-size="12" lengthAdjust="spacingAndGlyphs" textLength="8" x="61" y="218.9512">1</text><text fill="#000000" font-family="sans-serif" font-size="12" lengthAdjust="spacingAndGlyphs" textLength="8" x="111" y="218.9512">2</text><text fill="#000000" font-family="sans-serif" font-size="12" lengthAdjust="spacingAndGlyphs" textLength="8" x="161" y="218.9512">3</text><text fill="#000000" font-family="sans-serif" font-size="12" lengthAdjust="spacingAndGlyphs" textLength="8" x="211" y="218.9512">4</text><text fill="#000000" font-family="sans-serif" font-size="12" lengthAdjust="spacingAndGlyphs" textLength="8" x="261" y="218.9512">5</text><text fill="#000000" font-family="sans-serif" font-size="12" lengthAdjust="spacingAndGlyphs" textLength="8" x="311" y="218.9512">6</text></g></svg>