<?xml version="1.0" encoding="UTF-8" standalone="no"?><svg xmlns="http://www.w3.org/2000/svg" xmlns:xlink="http://www.w3.org/1999/xlink" contentScriptType="application/ecmascript" contentStyleType="text/css" height="291px" preserveAspectRatio="none" style="width:1068px;height:291px;" version="1.1" viewBox="0 0 1068 291" width="1068px" zoomAndPan="magnify"><defs><filter height="300%" id="f16t7fe63c56qy" width="300%" x="-1" y="-1"><feGaussianBlur result="blurOut" stdDeviation="2.0"/><feColorMatrix in="blurOut" result="blurOut2" type="matrix" values="0 0 0 0 0 0 0 0 0 0 0 0 0 0 0 0 0 0 .4 0"/><feOffset dx="4.0" dy="4.0" in="blurOut2" result="blurOut3"/><feBlend in="SourceGraphic" in2="blurOut3" mode="normal"/></filter></defs><g><text fill="#000000" font-family="sans-serif" font-size="14" font-weight="bold" lengthAdjust="spacingAndGlyphs" textLength="554" x="264.25" y="22.9951">OCPI Command START_SESSION -&gt; ACCEPTED but EV never plugged in</text><rect fill="#FFFFFF" filter="url(#f16t7fe63c56qy)" height="29.1328" style="stroke: #A80036; stroke-width: 1.0;" width="10" x="31.5" y="99.5938"/><rect fill="#FFFFFF" filter="url(#f16t7fe63c56qy)" height="14.1328" style="stroke: #A80036; stroke-width: 1.0;" width="10" x="31.5" y="216.125"/><rect fill="#FFFFFF" filter="url(#f16t7fe63c56qy)" height="58.2656" style="stroke: #A80036; stroke-width: 1.0;" width="10" x="535.5" y="99.5938"/><rect fill="#FFFFFF" filter="url(#f16t7fe63c56qy)" height="43.2656" style="stroke: #A80036; stroke-width: 1.0;" width="10" x="535.5" y="186.9922"/><rect fill="#FFFFFF" filter="url(#f16t7fe63c56qy)" height="107.3984" style="stroke: #A80036; stroke-width: 1.0;" width="10" x="828.5" y="157.8594"/><line style="stroke: #A80036; stroke-width: 1.0; stroke-dasharray: 5.0,5.0;" x1="36" x2="36" y1="68.5938" y2="290.3906"/><line style="stroke: #A80036; stroke-width: 1.0; stroke-dasharray: 5.0,5.0;" x1="540.5" x2="540.5" y1="68.5938" y2="290.3906"/><line style="stroke: #A80036; stroke-width: 1.0; stroke-dasharray: 5.0,5.0;" x1="833" x2="833" y1="68.5938" y2="290.3906"/><rect fill="#FEFECE" filter="url(#f16t7fe63c56qy)" height="30.2969" style="stroke: #A80036; stroke-width: 1.5;" width="53" x="8" y="33.2969"/><text fill="#000000" font-family="sans-serif" font-size="14" lengthAdjust="spacingAndGlyphs" textLength="39" x="15" y="53.292">eMSP</text><rect fill="#FEFECE" filter="url(#f16t7fe63c56qy)" height="30.2969" style="stroke: #A80036; stroke-width: 1.5;" width="44" x="516.5" y="33.2969"/><text fill="#000000" font-family="sans-serif" font-size="14" lengthAdjust="spacingAndGlyphs" textLength="30" x="523.5" y="53.292">CPO</text><rect fill="#FEFECE" filter="url(#f16t7fe63c56qy)" height="30.2969" style="stroke: #A80036; stroke-width: 1.5;" width="103" x="780" y="33.2969"/><text fill="#000000" font-family="sans-serif" font-size="14" lengthAdjust="spacingAndGlyphs" textLength="89" x="787" y="53.292">Charge Point</text><rect fill="#FFFFFF" filter="url(#f16t7fe63c56qy)" height="29.1328" style="stroke: #A80036; stroke-width: 1.0;" width="10" x="31.5" y="99.5938"/><rect fill="#FFFFFF" filter="url(#f16t7fe63c56qy)" height="14.1328" style="stroke: #A80036; stroke-width: 1.0;" width="10" x="31.5" y="216.125"/><rect fill="#FFFFFF" filter="url(#f16t7fe63c56qy)" height="58.2656" style="stroke: #A80036; stroke-width: 1.0;" width="10" x="535.5" y="99.5938"/><rect fill="#FFFFFF" filter="url(#f16t7fe63c56qy)" height="43.2656" style="stroke: #A80036; stroke-width: 1.0;" width="10" x="535.5" y="186.9922"/><rect fill="#FFFFFF" filter="url(#f16t7fe63c56qy)" height="107.3984" style="stroke: #A80036; stroke-width: 1.0;" width="10" x="828.5" y="157.8594"/><polygon fill="#A80036" points="523.5,95.5938,533.5,99.5938,523.5,103.5938,527.5,99.5938" style="stroke: #A80036; stroke-width: 1.0;"/><line style="stroke: #A80036; stroke-width: 1.0;" x1="41.5" x2="529.5" y1="99.5938" y2="99.5938"/><text fill="#000000" font-family="sans-serif" font-size="13" lengthAdjust="spacingAndGlyphs" textLength="380" x="48.5" y="94.6606">Command(START_SESSION, location_id=1234, token=200)</text><polygon fill="#A80036" points="47.5,124.7266,37.5,128.7266,47.5,132.7266,43.5,128.7266" style="stroke: #A80036; stroke-width: 1.0;"/><line style="stroke: #A80036; stroke-width: 1.0; stroke-dasharray: 2.0,2.0;" x1="41.5" x2="534.5" y1="128.7266" y2="128.7266"/><text fill="#000000" font-family="sans-serif" font-size="13" lengthAdjust="spacingAndGlyphs" textLength="470" x="53.5" y="123.7935">status_code = 1000, data: {CommandResponse { result = ACCEPTED }}</text><polygon fill="#A80036" points="816.5,153.8594,826.5,157.8594,816.5,161.8594,820.5,157.8594" style="stroke: #A80036; stroke-width: 1.0;"/><line style="stroke: #A80036; stroke-width: 1.0;" x1="540.5" x2="822.5" y1="157.8594" y2="157.8594"/><text fill="#000000" font-family="sans-serif" font-size="13" lengthAdjust="spacingAndGlyphs" textLength="264" x="547.5" y="152.9263">RemoteStartTransaction.req(Token=200)</text><polygon fill="#A80036" points="556.5,182.9922,546.5,186.9922,556.5,190.9922,552.5,186.9922" style="stroke: #A80036; stroke-width: 1.0;"/><line style="stroke: #A80036; stroke-width: 1.0;" x1="550.5" x2="827.5" y1="186.9922" y2="186.9922"/><text fill="#000000" font-family="sans-serif" font-size="13" lengthAdjust="spacingAndGlyphs" textLength="257" x="562.5" y="182.0591">RemoteStartTransaction.conf(Accepted)</text><polygon fill="#A80036" points="52.5,212.125,42.5,216.125,52.5,220.125,48.5,216.125" style="stroke: #A80036; stroke-width: 1.0;"/><line style="stroke: #A80036; stroke-width: 1.0;" x1="46.5" x2="534.5" y1="216.125" y2="216.125"/><text fill="#000000" font-family="sans-serif" font-size="13" lengthAdjust="spacingAndGlyphs" textLength="215" x="58.5" y="211.1919">CommandResult(result = FAILED)</text><polygon fill="#A80036" points="528.5,226.2578,538.5,230.2578,528.5,234.2578,532.5,230.2578" style="stroke: #A80036; stroke-width: 1.0;"/><line style="stroke: #A80036; stroke-width: 1.0; stroke-dasharray: 2.0,2.0;" x1="36.5" x2="534.5" y1="230.2578" y2="230.2578"/><line style="stroke: #A80036; stroke-width: 1.0; stroke-dasharray: 2.0,2.0;" x1="838.5" x2="880.5" y1="264.3906" y2="264.3906"/><line style="stroke: #A80036; stroke-width: 1.0; stroke-dasharray: 2.0,2.0;" x1="880.5" x2="880.5" y1="264.3906" y2="277.3906"/><line style="stroke: #A80036; stroke-width: 1.0; stroke-dasharray: 2.0,2.0;" x1="833.5" x2="880.5" y1="277.3906" y2="277.3906"/><polygon fill="#A80036" points="843.5,273.3906,833.5,277.3906,843.5,281.3906,839.5,277.3906" style="stroke: #A80036; stroke-width: 1.0;"/><text fill="#000000" font-family="sans-serif" font-size="13" lengthAdjust="spacingAndGlyphs" textLength="222" x="845.5" y="259.3247">EV NOT Plugged in before time-out</text></g></svg>