<?xml version="1.0" encoding="UTF-8" standalone="no"?><svg xmlns="http://www.w3.org/2000/svg" xmlns:xlink="http://www.w3.org/1999/xlink" contentScriptType="application/ecmascript" contentStyleType="text/css" height="229px" preserveAspectRatio="none" style="width:982px;height:229px;" version="1.1" viewBox="0 0 982 229" width="982px" zoomAndPan="magnify"><defs><filter height="300%" id="f10svwmuaicvel" width="300%" x="-1" y="-1"><feGaussianBlur result="blurOut" stdDeviation="2.0"/><feColorMatrix in="blurOut" result="blurOut2" type="matrix" values="0 0 0 0 0 0 0 0 0 0 0 0 0 0 0 0 0 0 .4 0"/><feOffset dx="4.0" dy="4.0" in="blurOut2" result="blurOut3"/><feBlend in="SourceGraphic" in2="blurOut3" mode="normal"/></filter></defs><g><rect fill="#FFFFFF" filter="url(#f10svwmuaicvel)" height="29.1328" style="stroke: #A80036; stroke-width: 1.0;" width="10" x="31.5" y="69.4297"/><rect fill="#FFFFFF" filter="url(#f10svwmuaicvel)" height="14" style="stroke: #A80036; stroke-width: 1.0;" width="10" x="31.5" y="185.9609"/><rect fill="#FFFFFF" filter="url(#f10svwmuaicvel)" height="58.2656" style="stroke: #A80036; stroke-width: 1.0;" width="10" x="579.5" y="69.4297"/><rect fill="#FFFFFF" filter="url(#f10svwmuaicvel)" height="43.1328" style="stroke: #A80036; stroke-width: 1.0;" width="10" x="579.5" y="156.8281"/><rect fill="#FFFFFF" filter="url(#f10svwmuaicvel)" height="29.1328" style="stroke: #A80036; stroke-width: 1.0;" width="10" x="916.5" y="127.6953"/><line style="stroke: #A80036; stroke-width: 1.0; stroke-dasharray: 5.0,5.0;" x1="36" x2="36" y1="38.2969" y2="217.9609"/><line style="stroke: #A80036; stroke-width: 1.0; stroke-dasharray: 5.0,5.0;" x1="584.5" x2="584.5" y1="38.2969" y2="217.9609"/><line style="stroke: #A80036; stroke-width: 1.0; stroke-dasharray: 5.0,5.0;" x1="921" x2="921" y1="38.2969" y2="217.9609"/><rect fill="#FEFECE" filter="url(#f10svwmuaicvel)" height="30.2969" style="stroke: #A80036; stroke-width: 1.5;" width="53" x="8" y="3"/><text fill="#000000" font-family="sans-serif" font-size="14" lengthAdjust="spacingAndGlyphs" textLength="39" x="15" y="22.9951">eMSP</text><rect fill="#FEFECE" filter="url(#f10svwmuaicvel)" height="30.2969" style="stroke: #A80036; stroke-width: 1.5;" width="44" x="560.5" y="3"/><text fill="#000000" font-family="sans-serif" font-size="14" lengthAdjust="spacingAndGlyphs" textLength="30" x="567.5" y="22.9951">CPO</text><rect fill="#FEFECE" filter="url(#f10svwmuaicvel)" height="30.2969" style="stroke: #A80036; stroke-width: 1.5;" width="103" x="868" y="3"/><text fill="#000000" font-family="sans-serif" font-size="14" lengthAdjust="spacingAndGlyphs" textLength="89" x="875" y="22.9951">Charge Point</text><rect fill="#FFFFFF" filter="url(#f10svwmuaicvel)" height="29.1328" style="stroke: #A80036; stroke-width: 1.0;" width="10" x="31.5" y="69.4297"/><rect fill="#FFFFFF" filter="url(#f10svwmuaicvel)" height="14" style="stroke: #A80036; stroke-width: 1.0;" width="10" x="31.5" y="185.9609"/><rect fill="#FFFFFF" filter="url(#f10svwmuaicvel)" height="58.2656" style="stroke: #A80036; stroke-width: 1.0;" width="10" x="579.5" y="69.4297"/><rect fill="#FFFFFF" filter="url(#f10svwmuaicvel)" height="43.1328" style="stroke: #A80036; stroke-width: 1.0;" width="10" x="579.5" y="156.8281"/><rect fill="#FFFFFF" filter="url(#f10svwmuaicvel)" height="29.1328" style="stroke: #A80036; stroke-width: 1.0;" width="10" x="916.5" y="127.6953"/><polygon fill="#A80036" points="567.5,65.4297,577.5,69.4297,567.5,73.4297,571.5,69.4297" style="stroke: #A80036; stroke-width: 1.0;"/><line style="stroke: #A80036; stroke-width: 1.0;" x1="41.5" x2="573.5" y1="69.4297" y2="69.4297"/><text fill="#000000" font-family="sans-serif" font-size="13" lengthAdjust="spacingAndGlyphs" textLength="524" x="48.5" y="64.3638">Command(RESERVE_NOW, location_id=1234, token=200, reservationId=ABC123)</text><polygon fill="#A80036" points="47.5,94.5625,37.5,98.5625,47.5,102.5625,43.5,98.5625" style="stroke: #A80036; stroke-width: 1.0;"/><line style="stroke: #A80036; stroke-width: 1.0; stroke-dasharray: 2.0,2.0;" x1="41.5" x2="578.5" y1="98.5625" y2="98.5625"/><text fill="#000000" font-family="sans-serif" font-size="13" lengthAdjust="spacingAndGlyphs" textLength="470" x="53.5" y="93.4966">status_code = 1000, data: {CommandResponse { result = ACCEPTED }}</text><polygon fill="#A80036" points="904.5,123.6953,914.5,127.6953,904.5,131.6953,908.5,127.6953" style="stroke: #A80036; stroke-width: 1.0;"/><line style="stroke: #A80036; stroke-width: 1.0;" x1="584.5" x2="910.5" y1="127.6953" y2="127.6953"/><text fill="#000000" font-family="sans-serif" font-size="13" lengthAdjust="spacingAndGlyphs" textLength="308" x="591.5" y="122.6294">ReserveNow.req(idTag=200, reservationId=456)</text><polygon fill="#A80036" points="600.5,152.8281,590.5,156.8281,600.5,160.8281,596.5,156.8281" style="stroke: #A80036; stroke-width: 1.0;"/><line style="stroke: #A80036; stroke-width: 1.0;" x1="594.5" x2="920.5" y1="156.8281" y2="156.8281"/><text fill="#000000" font-family="sans-serif" font-size="13" lengthAdjust="spacingAndGlyphs" textLength="174" x="606.5" y="151.7622">ReserveNow.conf(Rejected)</text><polygon fill="#A80036" points="52.5,181.9609,42.5,185.9609,52.5,189.9609,48.5,185.9609" style="stroke: #A80036; stroke-width: 1.0;"/><line style="stroke: #A80036; stroke-width: 1.0;" x1="46.5" x2="578.5" y1="185.9609" y2="185.9609"/><text fill="#000000" font-family="sans-serif" font-size="13" lengthAdjust="spacingAndGlyphs" textLength="232" x="58.5" y="180.895">CommandResult(result = REJECTED)</text><polygon fill="#A80036" points="572.5,195.9609,582.5,199.9609,572.5,203.9609,576.5,199.9609" style="stroke: #A80036; stroke-width: 1.0;"/><line style="stroke: #A80036; stroke-width: 1.0; stroke-dasharray: 2.0,2.0;" x1="36.5" x2="578.5" y1="199.9609" y2="199.9609"/></g></svg>