<?xml version="1.0" encoding="UTF-8" standalone="no"?><svg xmlns="http://www.w3.org/2000/svg" xmlns:xlink="http://www.w3.org/1999/xlink" contentScriptType="application/ecmascript" contentStyleType="text/css" height="275px" preserveAspectRatio="none" style="width:938px;height:275px;" version="1.1" viewBox="0 0 938 275" width="938px" zoomAndPan="magnify"><defs><filter height="300%" id="f1l6yc8ct7icb3" width="300%" x="-1" y="-1"><feGaussianBlur result="blurOut" stdDeviation="2.0"/><feColorMatrix in="blurOut" result="blurOut2" type="matrix" values="0 0 0 0 0 0 0 0 0 0 0 0 0 0 0 0 0 0 .4 0"/><feOffset dx="4.0" dy="4.0" in="blurOut2" result="blurOut3"/><feBlend in="SourceGraphic" in2="blurOut3" mode="normal"/></filter></defs><g><rect fill="#FFFFFF" filter="url(#f1l6yc8ct7icb3)" height="29.1328" style="stroke: #A80036; stroke-width: 1.0;" width="10" x="31.5" y="99.6953"/><rect fill="#FFFFFF" filter="url(#f1l6yc8ct7icb3)" height="14" style="stroke: #A80036; stroke-width: 1.0;" width="10" x="31.5" y="231.3594"/><rect fill="#FFFFFF" filter="url(#f1l6yc8ct7icb3)" height="58.2656" style="stroke: #A80036; stroke-width: 1.0;" width="10" x="535.5" y="99.6953"/><rect fill="#FFFFFF" filter="url(#f1l6yc8ct7icb3)" height="58.2656" style="stroke: #A80036; stroke-width: 1.0;" width="10" x="535.5" y="187.0938"/><rect fill="#FFFFFF" filter="url(#f1l6yc8ct7icb3)" height="29.1328" style="stroke: #A80036; stroke-width: 1.0;" width="10" x="872.5" y="157.9609"/><line style="stroke: #A80036; stroke-width: 1.0; stroke-dasharray: 5.0,5.0;" x1="36" x2="36" y1="38.2969" y2="263.3594"/><line style="stroke: #A80036; stroke-width: 1.0; stroke-dasharray: 5.0,5.0;" x1="540.5" x2="540.5" y1="38.2969" y2="263.3594"/><line style="stroke: #A80036; stroke-width: 1.0; stroke-dasharray: 5.0,5.0;" x1="877" x2="877" y1="38.2969" y2="263.3594"/><rect fill="#FEFECE" filter="url(#f1l6yc8ct7icb3)" height="30.2969" style="stroke: #A80036; stroke-width: 1.5;" width="53" x="8" y="3"/><text fill="#000000" font-family="sans-serif" font-size="14" lengthAdjust="spacingAndGlyphs" textLength="39" x="15" y="22.9951">eMSP</text><rect fill="#FEFECE" filter="url(#f1l6yc8ct7icb3)" height="30.2969" style="stroke: #A80036; stroke-width: 1.5;" width="44" x="516.5" y="3"/><text fill="#000000" font-family="sans-serif" font-size="14" lengthAdjust="spacingAndGlyphs" textLength="30" x="523.5" y="22.9951">CPO</text><rect fill="#FEFECE" filter="url(#f1l6yc8ct7icb3)" height="30.2969" style="stroke: #A80036; stroke-width: 1.5;" width="103" x="824" y="3"/><text fill="#000000" font-family="sans-serif" font-size="14" lengthAdjust="spacingAndGlyphs" textLength="89" x="831" y="22.9951">Charge Point</text><rect fill="#FFFFFF" filter="url(#f1l6yc8ct7icb3)" height="29.1328" style="stroke: #A80036; stroke-width: 1.0;" width="10" x="31.5" y="99.6953"/><rect fill="#FFFFFF" filter="url(#f1l6yc8ct7icb3)" height="14" style="stroke: #A80036; stroke-width: 1.0;" width="10" x="31.5" y="231.3594"/><rect fill="#FFFFFF" filter="url(#f1l6yc8ct7icb3)" height="58.2656" style="stroke: #A80036; stroke-width: 1.0;" width="10" x="535.5" y="99.6953"/><rect fill="#FFFFFF" filter="url(#f1l6yc8ct7icb3)" height="58.2656" style="stroke: #A80036; stroke-width: 1.0;" width="10" x="535.5" y="187.0938"/><rect fill="#FFFFFF" filter="url(#f1l6yc8ct7icb3)" height="29.1328" style="stroke: #A80036; stroke-width: 1.0;" width="10" x="872.5" y="157.9609"/><polygon fill="#A80036" points="523.5,95.6953,533.5,99.6953,523.5,103.6953,527.5,99.6953" style="stroke: #A80036; stroke-width: 1.0;"/><line style="stroke: #A80036; stroke-width: 1.0;" x1="41.5" x2="529.5" y1="99.6953" y2="99.6953"/><text fill="#000000" font-family="sans-serif" font-size="13" lengthAdjust="spacingAndGlyphs" textLength="370" x="48.5" y="64.3638">Command(RESERVE_NOW, location_id=1234, token=200,</text><text fill="#000000" font-family="sans-serif" font-size="13" lengthAdjust="spacingAndGlyphs" textLength="149" x="120.5" y="79.4966">reservationId=ABC123,</text><text fill="#000000" font-family="sans-serif" font-size="13" lengthAdjust="spacingAndGlyphs" textLength="346" x="120.5" y="94.6294">response_url=https://server.com/reservation/ABC123)</text><polygon fill="#A80036" points="47.5,124.8281,37.5,128.8281,47.5,132.8281,43.5,128.8281" style="stroke: #A80036; stroke-width: 1.0;"/><line style="stroke: #A80036; stroke-width: 1.0; stroke-dasharray: 2.0,2.0;" x1="41.5" x2="534.5" y1="128.8281" y2="128.8281"/><text fill="#000000" font-family="sans-serif" font-size="13" lengthAdjust="spacingAndGlyphs" textLength="470" x="53.5" y="123.7622">status_code = 1000, data: {CommandResponse { result = ACCEPTED }}</text><polygon fill="#A80036" points="860.5,153.9609,870.5,157.9609,860.5,161.9609,864.5,157.9609" style="stroke: #A80036; stroke-width: 1.0;"/><line style="stroke: #A80036; stroke-width: 1.0;" x1="540.5" x2="866.5" y1="157.9609" y2="157.9609"/><text fill="#000000" font-family="sans-serif" font-size="13" lengthAdjust="spacingAndGlyphs" textLength="308" x="547.5" y="152.895">ReserveNow.req(idTag=200, reservationId=456)</text><polygon fill="#A80036" points="556.5,183.0938,546.5,187.0938,556.5,191.0938,552.5,187.0938" style="stroke: #A80036; stroke-width: 1.0;"/><line style="stroke: #A80036; stroke-width: 1.0;" x1="550.5" x2="876.5" y1="187.0938" y2="187.0938"/><text fill="#000000" font-family="sans-serif" font-size="13" lengthAdjust="spacingAndGlyphs" textLength="179" x="562.5" y="182.0278">ReserveNow.conf(Accepted)</text><polygon fill="#A80036" points="52.5,227.3594,42.5,231.3594,52.5,235.3594,48.5,231.3594" style="stroke: #A80036; stroke-width: 1.0;"/><line style="stroke: #A80036; stroke-width: 1.0;" x1="46.5" x2="534.5" y1="231.3594" y2="231.3594"/><text fill="#000000" font-family="sans-serif" font-size="13" lengthAdjust="spacingAndGlyphs" textLength="290" x="58.5" y="211.1606">POST: https://server.com/reservation/ABC123</text><text fill="#000000" font-family="sans-serif" font-size="13" lengthAdjust="spacingAndGlyphs" textLength="239" x="78.5" y="226.2935">CommandResult(result = ACCEPTED)</text><polygon fill="#A80036" points="528.5,241.3594,538.5,245.3594,528.5,249.3594,532.5,245.3594" style="stroke: #A80036; stroke-width: 1.0;"/><line style="stroke: #A80036; stroke-width: 1.0; stroke-dasharray: 2.0,2.0;" x1="36.5" x2="534.5" y1="245.3594" y2="245.3594"/></g></svg>