<?xml version="1.0" encoding="UTF-8" standalone="no"?><svg xmlns="http://www.w3.org/2000/svg" xmlns:xlink="http://www.w3.org/1999/xlink" contentScriptType="application/ecmascript" contentStyleType="text/css" height="170px" preserveAspectRatio="none" style="width:622px;height:170px;" version="1.1" viewBox="0 0 622 170" width="622px" zoomAndPan="magnify"><defs><filter height="300%" id="fkvjrzgpz9n0w" width="300%" x="-1" y="-1"><feGaussianBlur result="blurOut" stdDeviation="2.0"/><feColorMatrix in="blurOut" result="blurOut2" type="matrix" values="0 0 0 0 0 0 0 0 0 0 0 0 0 0 0 0 0 0 .4 0"/><feOffset dx="4.0" dy="4.0" in="blurOut2" result="blurOut3"/><feBlend in="SourceGraphic" in2="blurOut3" mode="normal"/></filter></defs><g><rect fill="#FFFFFF" filter="url(#fkvjrzgpz9n0w)" height="14" style="stroke: #A80036; stroke-width: 1.0;" width="10" x="31.5" y="126.6953"/><rect fill="#FFFFFF" filter="url(#fkvjrzgpz9n0w)" height="92.3984" style="stroke: #A80036; stroke-width: 1.0;" width="10" x="417.5" y="48.2969"/><line style="stroke: #A80036; stroke-width: 1.0; stroke-dasharray: 5.0,5.0;" x1="36" x2="36" y1="38.2969" y2="158.6953"/><line style="stroke: #A80036; stroke-width: 1.0; stroke-dasharray: 5.0,5.0;" x1="422.5" x2="422.5" y1="38.2969" y2="158.6953"/><rect fill="#FEFECE" filter="url(#fkvjrzgpz9n0w)" height="30.2969" style="stroke: #A80036; stroke-width: 1.5;" width="53" x="8" y="3"/><text fill="#000000" font-family="sans-serif" font-size="14" lengthAdjust="spacingAndGlyphs" textLength="39" x="15" y="22.9951">eMSP</text><rect fill="#FEFECE" filter="url(#fkvjrzgpz9n0w)" height="30.2969" style="stroke: #A80036; stroke-width: 1.5;" width="44" x="398.5" y="3"/><text fill="#000000" font-family="sans-serif" font-size="14" lengthAdjust="spacingAndGlyphs" textLength="30" x="405.5" y="22.9951">CPO</text><rect fill="#FFFFFF" filter="url(#fkvjrzgpz9n0w)" height="14" style="stroke: #A80036; stroke-width: 1.0;" width="10" x="31.5" y="126.6953"/><rect fill="#FFFFFF" filter="url(#fkvjrzgpz9n0w)" height="92.3984" style="stroke: #A80036; stroke-width: 1.0;" width="10" x="417.5" y="48.2969"/><line style="stroke: #A80036; stroke-width: 1.0; stroke-dasharray: 2.0,2.0;" x1="427.5" x2="469.5" y1="69.4297" y2="69.4297"/><line style="stroke: #A80036; stroke-width: 1.0; stroke-dasharray: 2.0,2.0;" x1="469.5" x2="469.5" y1="69.4297" y2="82.4297"/><line style="stroke: #A80036; stroke-width: 1.0; stroke-dasharray: 2.0,2.0;" x1="428.5" x2="469.5" y1="82.4297" y2="82.4297"/><polygon fill="#A80036" points="438.5,78.4297,428.5,82.4297,438.5,86.4297,434.5,82.4297" style="stroke: #A80036; stroke-width: 1.0;"/><text fill="#000000" font-family="sans-serif" font-size="13" lengthAdjust="spacingAndGlyphs" textLength="176" x="434.5" y="64.3638">Problem with Location 1234</text><polygon fill="#A80036" points="52.5,122.6953,42.5,126.6953,52.5,130.6953,48.5,126.6953" style="stroke: #A80036; stroke-width: 1.0;"/><line style="stroke: #A80036; stroke-width: 1.0;" x1="46.5" x2="416.5" y1="126.6953" y2="126.6953"/><text fill="#000000" font-family="sans-serif" font-size="13" lengthAdjust="spacingAndGlyphs" textLength="290" x="58.5" y="106.4966">POST: https://server.com/reservation/ABC123</text><text fill="#000000" font-family="sans-serif" font-size="13" lengthAdjust="spacingAndGlyphs" textLength="337" x="78.5" y="121.6294">CommandResult(result = CANCELED_RESERVATION)</text><polygon fill="#A80036" points="410.5,136.6953,420.5,140.6953,410.5,144.6953,414.5,140.6953" style="stroke: #A80036; stroke-width: 1.0;"/><line style="stroke: #A80036; stroke-width: 1.0; stroke-dasharray: 2.0,2.0;" x1="36.5" x2="416.5" y1="140.6953" y2="140.6953"/></g></svg>