<?xml version="1.0" encoding="UTF-8" standalone="no"?><svg xmlns="http://www.w3.org/2000/svg" xmlns:xlink="http://www.w3.org/1999/xlink" contentScriptType="application/ecmascript" contentStyleType="text/css" height="508px" preserveAspectRatio="none" style="width:939px;height:508px;" version="1.1" viewBox="0 0 939 508" width="939px" zoomAndPan="magnify"><defs><filter height="300%" id="fs40qrqq1bgjg" width="300%" x="-1" y="-1"><feGaussianBlur result="blurOut" stdDeviation="2.0"/><feColorMatrix in="blurOut" result="blurOut2" type="matrix" values="0 0 0 0 0 0 0 0 0 0 0 0 0 0 0 0 0 0 .4 0"/><feOffset dx="4.0" dy="4.0" in="blurOut2" result="blurOut3"/><feBlend in="SourceGraphic" in2="blurOut3" mode="normal"/></filter></defs><g><rect fill="#FFFFFF" filter="url(#fs40qrqq1bgjg)" height="29.1328" style="stroke: #A80036; stroke-width: 1.0;" width="10" x="31.5" y="141.8281"/><rect fill="#FFFFFF" filter="url(#fs40qrqq1bgjg)" height="14" style="stroke: #A80036; stroke-width: 1.0;" width="10" x="31.5" y="258.3594"/><rect fill="#FFFFFF" filter="url(#fs40qrqq1bgjg)" height="14" style="stroke: #A80036; stroke-width: 1.0;" width="10" x="31.5" y="464.2891"/><rect fill="#FFFFFF" filter="url(#fs40qrqq1bgjg)" height="58.2656" style="stroke: #A80036; stroke-width: 1.0;" width="10" x="535.5" y="141.8281"/><rect fill="#FFFFFF" filter="url(#fs40qrqq1bgjg)" height="43.1328" style="stroke: #A80036; stroke-width: 1.0;" width="10" x="535.5" y="229.2266"/><rect fill="#FFFFFF" filter="url(#fs40qrqq1bgjg)" height="29.1328" style="stroke: #A80036; stroke-width: 1.0;" width="10" x="535.5" y="325.625"/><rect fill="#FFFFFF" filter="url(#fs40qrqq1bgjg)" height="87.3984" style="stroke: #A80036; stroke-width: 1.0;" width="10" x="535.5" y="390.8906"/><rect fill="#FFFFFF" filter="url(#fs40qrqq1bgjg)" height="219.9297" style="stroke: #A80036; stroke-width: 1.0;" width="10" x="828.5" y="200.0938"/><rect fill="#FFFFFF" filter="url(#fs40qrqq1bgjg)" height="75.3984" style="stroke: #000000; stroke-width: 2.0;" width="390.5" x="506.5" y="287.3594"/><line style="stroke: #A80036; stroke-width: 1.0; stroke-dasharray: 5.0,5.0;" x1="36" x2="36" y1="38.2969" y2="496.2891"/><line style="stroke: #A80036; stroke-width: 1.0; stroke-dasharray: 5.0,5.0;" x1="540.5" x2="540.5" y1="38.2969" y2="496.2891"/><line style="stroke: #A80036; stroke-width: 1.0; stroke-dasharray: 5.0,5.0;" x1="833" x2="833" y1="38.2969" y2="496.2891"/><rect fill="#FEFECE" filter="url(#fs40qrqq1bgjg)" height="30.2969" style="stroke: #A80036; stroke-width: 1.5;" width="53" x="8" y="3"/><text fill="#000000" font-family="sans-serif" font-size="14" lengthAdjust="spacingAndGlyphs" textLength="39" x="15" y="22.9951">eMSP</text><rect fill="#FEFECE" filter="url(#fs40qrqq1bgjg)" height="30.2969" style="stroke: #A80036; stroke-width: 1.5;" width="44" x="516.5" y="3"/><text fill="#000000" font-family="sans-serif" font-size="14" lengthAdjust="spacingAndGlyphs" textLength="30" x="523.5" y="22.9951">CPO</text><rect fill="#FEFECE" filter="url(#fs40qrqq1bgjg)" height="30.2969" style="stroke: #A80036; stroke-width: 1.5;" width="103" x="780" y="3"/><text fill="#000000" font-family="sans-serif" font-size="14" lengthAdjust="spacingAndGlyphs" textLength="89" x="787" y="22.9951">Charge Point</text><rect fill="#FFFFFF" filter="url(#fs40qrqq1bgjg)" height="29.1328" style="stroke: #A80036; stroke-width: 1.0;" width="10" x="31.5" y="141.8281"/><rect fill="#FFFFFF" filter="url(#fs40qrqq1bgjg)" height="14" style="stroke: #A80036; stroke-width: 1.0;" width="10" x="31.5" y="258.3594"/><rect fill="#FFFFFF" filter="url(#fs40qrqq1bgjg)" height="14" style="stroke: #A80036; stroke-width: 1.0;" width="10" x="31.5" y="464.2891"/><rect fill="#FFFFFF" filter="url(#fs40qrqq1bgjg)" height="58.2656" style="stroke: #A80036; stroke-width: 1.0;" width="10" x="535.5" y="141.8281"/><rect fill="#FFFFFF" filter="url(#fs40qrqq1bgjg)" height="43.1328" style="stroke: #A80036; stroke-width: 1.0;" width="10" x="535.5" y="229.2266"/><rect fill="#FFFFFF" filter="url(#fs40qrqq1bgjg)" height="29.1328" style="stroke: #A80036; stroke-width: 1.0;" width="10" x="535.5" y="325.625"/><rect fill="#FFFFFF" filter="url(#fs40qrqq1bgjg)" height="87.3984" style="stroke: #A80036; stroke-width: 1.0;" width="10" x="535.5" y="390.8906"/><rect fill="#FFFFFF" filter="url(#fs40qrqq1bgjg)" height="219.9297" style="stroke: #A80036; stroke-width: 1.0;" width="10" x="828.5" y="200.0938"/><line style="stroke: #A80036; stroke-width: 1.0; stroke-dasharray: 2.0,2.0;" x1="833.5" x2="875.5" y1="69.4297" y2="69.4297"/><line style="stroke: #A80036; stroke-width: 1.0; stroke-dasharray: 2.0,2.0;" x1="875.5" x2="875.5" y1="69.4297" y2="82.4297"/><line style="stroke: #A80036; stroke-width: 1.0; stroke-dasharray: 2.0,2.0;" x1="834.5" x2="875.5" y1="82.4297" y2="82.4297"/><polygon fill="#A80036" points="844.5,78.4297,834.5,82.4297,844.5,86.4297,840.5,82.4297" style="stroke: #A80036; stroke-width: 1.0;"/><text fill="#000000" font-family="sans-serif" font-size="13" lengthAdjust="spacingAndGlyphs" textLength="87" x="840.5" y="64.3638">EV Plugged in</text><polygon fill="#A80036" points="523.5,137.8281,533.5,141.8281,523.5,145.8281,527.5,141.8281" style="stroke: #A80036; stroke-width: 1.0;"/><line style="stroke: #A80036; stroke-width: 1.0;" x1="41.5" x2="529.5" y1="141.8281" y2="141.8281"/><text fill="#000000" font-family="sans-serif" font-size="13" lengthAdjust="spacingAndGlyphs" textLength="402" x="48.5" y="106.4966">Command(START_SESSION, location_id=1234, token.uid=123,</text><text fill="#000000" font-family="sans-serif" font-size="13" lengthAdjust="spacingAndGlyphs" textLength="303" x="116.5" y="121.6294">token.type=APP_USER, token.whitelist=NEVER,</text><text fill="#000000" font-family="sans-serif" font-size="13" lengthAdjust="spacingAndGlyphs" textLength="256" x="116.5" y="136.7622">token.authorization_reference=567890)</text><polygon fill="#A80036" points="47.5,166.9609,37.5,170.9609,47.5,174.9609,43.5,170.9609" style="stroke: #A80036; stroke-width: 1.0;"/><line style="stroke: #A80036; stroke-width: 1.0; stroke-dasharray: 2.0,2.0;" x1="41.5" x2="534.5" y1="170.9609" y2="170.9609"/><text fill="#000000" font-family="sans-serif" font-size="13" lengthAdjust="spacingAndGlyphs" textLength="470" x="53.5" y="165.895">status_code = 1000, data: {CommandResponse { result = ACCEPTED }}</text><polygon fill="#A80036" points="816.5,196.0938,826.5,200.0938,816.5,204.0938,820.5,200.0938" style="stroke: #A80036; stroke-width: 1.0;"/><line style="stroke: #A80036; stroke-width: 1.0;" x1="540.5" x2="822.5" y1="200.0938" y2="200.0938"/><text fill="#000000" font-family="sans-serif" font-size="13" lengthAdjust="spacingAndGlyphs" textLength="264" x="547.5" y="195.0278">RemoteStartTransaction.req(Token=123)</text><polygon fill="#A80036" points="556.5,225.2266,546.5,229.2266,556.5,233.2266,552.5,229.2266" style="stroke: #A80036; stroke-width: 1.0;"/><line style="stroke: #A80036; stroke-width: 1.0;" x1="550.5" x2="827.5" y1="229.2266" y2="229.2266"/><text fill="#000000" font-family="sans-serif" font-size="13" lengthAdjust="spacingAndGlyphs" textLength="257" x="562.5" y="224.1606">RemoteStartTransaction.conf(Accepted)</text><polygon fill="#A80036" points="52.5,254.3594,42.5,258.3594,52.5,262.3594,48.5,258.3594" style="stroke: #A80036; stroke-width: 1.0;"/><line style="stroke: #A80036; stroke-width: 1.0;" x1="46.5" x2="534.5" y1="258.3594" y2="258.3594"/><text fill="#000000" font-family="sans-serif" font-size="13" lengthAdjust="spacingAndGlyphs" textLength="239" x="58.5" y="253.2935">CommandResult(result = ACCEPTED)</text><polygon fill="#A80036" points="528.5,268.3594,538.5,272.3594,528.5,276.3594,532.5,272.3594" style="stroke: #A80036; stroke-width: 1.0;"/><line style="stroke: #A80036; stroke-width: 1.0; stroke-dasharray: 2.0,2.0;" x1="36.5" x2="534.5" y1="272.3594" y2="272.3594"/><path d="M506.5,287.3594 L576.5,287.3594 L576.5,294.3594 L566.5,304.3594 L506.5,304.3594 L506.5,287.3594 " fill="#EEEEEE" style="stroke: #000000; stroke-width: 1.0;"/><rect fill="none" height="75.3984" style="stroke: #000000; stroke-width: 2.0;" width="390.5" x="506.5" y="287.3594"/><text fill="#000000" font-family="sans-serif" font-size="13" font-weight="bold" lengthAdjust="spacingAndGlyphs" textLength="25" x="521.5" y="300.4263">opt</text><polygon fill="#A80036" points="556.5,321.625,546.5,325.625,556.5,329.625,552.5,325.625" style="stroke: #A80036; stroke-width: 1.0;"/><line style="stroke: #A80036; stroke-width: 1.0;" x1="550.5" x2="827.5" y1="325.625" y2="325.625"/><text fill="#000000" font-family="sans-serif" font-size="13" lengthAdjust="spacingAndGlyphs" textLength="169" x="562.5" y="320.5591">Authorize.req(Token=123)</text><polygon fill="#A80036" points="816.5,350.7578,826.5,354.7578,816.5,358.7578,820.5,354.7578" style="stroke: #A80036; stroke-width: 1.0;"/><line style="stroke: #A80036; stroke-width: 1.0;" x1="540.5" x2="822.5" y1="354.7578" y2="354.7578"/><text fill="#000000" font-family="sans-serif" font-size="13" lengthAdjust="spacingAndGlyphs" textLength="162" x="547.5" y="349.6919">Authorize.conf(Accepted)</text><polygon fill="#A80036" points="556.5,386.8906,546.5,390.8906,556.5,394.8906,552.5,390.8906" style="stroke: #A80036; stroke-width: 1.0;"/><line style="stroke: #A80036; stroke-width: 1.0;" x1="550.5" x2="827.5" y1="390.8906" y2="390.8906"/><text fill="#000000" font-family="sans-serif" font-size="13" lengthAdjust="spacingAndGlyphs" textLength="214" x="562.5" y="385.8247">StartTransaction.req(Token=123)</text><polygon fill="#A80036" points="821.5,416.0234,831.5,420.0234,821.5,424.0234,825.5,420.0234" style="stroke: #A80036; stroke-width: 1.0;"/><line style="stroke: #A80036; stroke-width: 1.0;" x1="545.5" x2="827.5" y1="420.0234" y2="420.0234"/><text fill="#000000" font-family="sans-serif" font-size="13" lengthAdjust="spacingAndGlyphs" textLength="259" x="552.5" y="414.9575">StartTransaction.conf(TransactionId=15)</text><polygon fill="#A80036" points="52.5,460.2891,42.5,464.2891,52.5,468.2891,48.5,464.2891" style="stroke: #A80036; stroke-width: 1.0;"/><line style="stroke: #A80036; stroke-width: 1.0;" x1="46.5" x2="534.5" y1="464.2891" y2="464.2891"/><text fill="#000000" font-family="sans-serif" font-size="13" lengthAdjust="spacingAndGlyphs" textLength="295" x="58.5" y="444.0903">Session(id=15, token=123, location_id=1234,</text><text fill="#000000" font-family="sans-serif" font-size="13" lengthAdjust="spacingAndGlyphs" textLength="216" x="114.5" y="459.2231">authorization_reference=567890)</text><polygon fill="#A80036" points="528.5,474.2891,538.5,478.2891,528.5,482.2891,532.5,478.2891" style="stroke: #A80036; stroke-width: 1.0;"/><line style="stroke: #A80036; stroke-width: 1.0; stroke-dasharray: 2.0,2.0;" x1="36.5" x2="534.5" y1="478.2891" y2="478.2891"/></g></svg>