<?xml version="1.0" encoding="UTF-8" standalone="no"?><svg xmlns="http://www.w3.org/2000/svg" xmlns:xlink="http://www.w3.org/1999/xlink" contentScriptType="application/ecmascript" contentStyleType="text/css" height="600px" preserveAspectRatio="none" style="width:627px;height:600px;" version="1.1" viewBox="0 0 627 600" width="627px" zoomAndPan="magnify"><defs><filter height="300%" id="fasxzko0sdwr2" width="300%" x="-1" y="-1"><feGaussianBlur result="blurOut" stdDeviation="2.0"/><feColorMatrix in="blurOut" result="blurOut2" type="matrix" values="0 0 0 0 0 0 0 0 0 0 0 0 0 0 0 0 0 0 .4 0"/><feOffset dx="4.0" dy="4.0" in="blurOut2" result="blurOut3"/><feBlend in="SourceGraphic" in2="blurOut3" mode="normal"/></filter></defs><g><text fill="#000000" font-family="sans-serif" font-size="14" font-weight="bold" lengthAdjust="spacingAndGlyphs" textLength="167" x="230" y="22.9951">OCPI Update process</text><rect fill="#FFFFFF" filter="url(#fasxzko0sdwr2)" height="29.1328" style="stroke: #A80036; stroke-width: 1.0;" width="10" x="27" y="99.7266"/><rect fill="#FFFFFF" filter="url(#fasxzko0sdwr2)" height="29.1328" style="stroke: #A80036; stroke-width: 1.0;" width="10" x="27" y="200.125"/><rect fill="#FFFFFF" filter="url(#fasxzko0sdwr2)" height="228.0625" style="stroke: #A80036; stroke-width: 1.0;" width="10" x="27" y="300.5234"/><rect fill="#FFFFFF" filter="url(#fasxzko0sdwr2)" height="463.9922" style="stroke: #A80036; stroke-width: 1.0;" width="10" x="295" y="99.7266"/><line style="stroke: #A80036; stroke-width: 1.0; stroke-dasharray: 5.0,5.0;" x1="32" x2="32" y1="68.5938" y2="588.7188"/><line style="stroke: #A80036; stroke-width: 1.0; stroke-dasharray: 5.0,5.0;" x1="299.5" x2="299.5" y1="68.5938" y2="588.7188"/><rect fill="#FEFECE" filter="url(#fasxzko0sdwr2)" height="30.2969" style="stroke: #A80036; stroke-width: 1.5;" width="44" x="8" y="33.2969"/><text fill="#000000" font-family="sans-serif" font-size="14" lengthAdjust="spacingAndGlyphs" textLength="30" x="15" y="53.292">CPO</text><rect fill="#FEFECE" filter="url(#fasxzko0sdwr2)" height="30.2969" style="stroke: #A80036; stroke-width: 1.5;" width="53" x="271.5" y="33.2969"/><text fill="#000000" font-family="sans-serif" font-size="14" lengthAdjust="spacingAndGlyphs" textLength="39" x="278.5" y="53.292">eMSP</text><rect fill="#FFFFFF" filter="url(#fasxzko0sdwr2)" height="29.1328" style="stroke: #A80036; stroke-width: 1.0;" width="10" x="27" y="99.7266"/><rect fill="#FFFFFF" filter="url(#fasxzko0sdwr2)" height="29.1328" style="stroke: #A80036; stroke-width: 1.0;" width="10" x="27" y="200.125"/><rect fill="#FFFFFF" filter="url(#fasxzko0sdwr2)" height="228.0625" style="stroke: #A80036; stroke-width: 1.0;" width="10" x="27" y="300.5234"/><rect fill="#FFFFFF" filter="url(#fasxzko0sdwr2)" height="463.9922" style="stroke: #A80036; stroke-width: 1.0;" width="10" x="295" y="99.7266"/><polygon fill="#A80036" points="48,95.7266,38,99.7266,48,103.7266,44,99.7266" style="stroke: #A80036; stroke-width: 1.0;"/><line style="stroke: #A80036; stroke-width: 1.0;" x1="42" x2="294" y1="99.7266" y2="99.7266"/><text fill="#000000" font-family="sans-serif" font-size="13" lengthAdjust="spacingAndGlyphs" textLength="143" x="54" y="94.6606">GET /ocpi/cpo/versions</text><polygon fill="#A80036" points="283,124.8594,293,128.8594,283,132.8594,287,128.8594" style="stroke: #A80036; stroke-width: 1.0;"/><line style="stroke: #A80036; stroke-width: 1.0; stroke-dasharray: 2.0,2.0;" x1="32" x2="289" y1="128.8594" y2="128.8594"/><text fill="#000000" font-family="sans-serif" font-size="13" lengthAdjust="spacingAndGlyphs" textLength="114" x="39" y="123.7935">Available versions</text><line style="stroke: #A80036; stroke-width: 1.0;" x1="305" x2="347" y1="157.9922" y2="157.9922"/><line style="stroke: #A80036; stroke-width: 1.0;" x1="347" x2="347" y1="157.9922" y2="170.9922"/><line style="stroke: #A80036; stroke-width: 1.0;" x1="306" x2="347" y1="170.9922" y2="170.9922"/><polygon fill="#A80036" points="316,166.9922,306,170.9922,316,174.9922,312,170.9922" style="stroke: #A80036; stroke-width: 1.0;"/><text fill="#000000" font-family="sans-serif" font-size="13" lengthAdjust="spacingAndGlyphs" textLength="230" x="312" y="152.9263">Pick latest mutual version (e.g. 2.0).</text><polygon fill="#A80036" points="48,196.125,38,200.125,48,204.125,44,200.125" style="stroke: #A80036; stroke-width: 1.0;"/><line style="stroke: #A80036; stroke-width: 1.0;" x1="42" x2="294" y1="200.125" y2="200.125"/><text fill="#000000" font-family="sans-serif" font-size="13" lengthAdjust="spacingAndGlyphs" textLength="114" x="54" y="195.0591">GET /ocpi/cpo/2.0/</text><polygon fill="#A80036" points="283,225.2578,293,229.2578,283,233.2578,287,229.2578" style="stroke: #A80036; stroke-width: 1.0;"/><line style="stroke: #A80036; stroke-width: 1.0; stroke-dasharray: 2.0,2.0;" x1="32" x2="289" y1="229.2578" y2="229.2578"/><text fill="#000000" font-family="sans-serif" font-size="13" lengthAdjust="spacingAndGlyphs" textLength="176" x="39" y="224.1919">Available endpoints for v2.0</text><line style="stroke: #A80036; stroke-width: 1.0;" x1="305" x2="347" y1="258.3906" y2="258.3906"/><line style="stroke: #A80036; stroke-width: 1.0;" x1="347" x2="347" y1="258.3906" y2="271.3906"/><line style="stroke: #A80036; stroke-width: 1.0;" x1="306" x2="347" y1="271.3906" y2="271.3906"/><polygon fill="#A80036" points="316,267.3906,306,271.3906,316,275.3906,312,271.3906" style="stroke: #A80036; stroke-width: 1.0;"/><text fill="#000000" font-family="sans-serif" font-size="13" lengthAdjust="spacingAndGlyphs" textLength="180" x="312" y="253.3247">Store version and endpoints</text><polygon fill="#A80036" points="48,296.5234,38,300.5234,48,304.5234,44,300.5234" style="stroke: #A80036; stroke-width: 1.0;"/><line style="stroke: #A80036; stroke-width: 1.0;" x1="42" x2="294" y1="300.5234" y2="300.5234"/><text fill="#000000" font-family="sans-serif" font-size="13" lengthAdjust="spacingAndGlyphs" textLength="184" x="54" y="295.4575">PUT /ocpi/cpo/2.0/credentials</text><polygon fill="#A80036" points="283,325.6563,293,329.6563,283,333.6563,287,329.6563" style="stroke: #A80036; stroke-width: 1.0;"/><line style="stroke: #A80036; stroke-width: 1.0;" x1="37" x2="289" y1="329.6563" y2="329.6563"/><text fill="#000000" font-family="sans-serif" font-size="13" lengthAdjust="spacingAndGlyphs" textLength="156" x="44" y="324.5903">GET /ocpi/emsp/versions</text><polygon fill="#A80036" points="48,354.7891,38,358.7891,48,362.7891,44,358.7891" style="stroke: #A80036; stroke-width: 1.0;"/><line style="stroke: #A80036; stroke-width: 1.0; stroke-dasharray: 2.0,2.0;" x1="42" x2="294" y1="358.7891" y2="358.7891"/><text fill="#000000" font-family="sans-serif" font-size="13" lengthAdjust="spacingAndGlyphs" textLength="114" x="54" y="353.7231">Available versions</text><polygon fill="#A80036" points="283,383.9219,293,387.9219,283,391.9219,287,387.9219" style="stroke: #A80036; stroke-width: 1.0;"/><line style="stroke: #A80036; stroke-width: 1.0;" x1="37" x2="289" y1="387.9219" y2="387.9219"/><text fill="#000000" font-family="sans-serif" font-size="13" lengthAdjust="spacingAndGlyphs" textLength="127" x="44" y="382.856">GET /ocpi/emsp/2.0/</text><polygon fill="#A80036" points="48,433.1875,38,437.1875,48,441.1875,44,437.1875" style="stroke: #A80036; stroke-width: 1.0;"/><line style="stroke: #A80036; stroke-width: 1.0; stroke-dasharray: 2.0,2.0;" x1="42" x2="294" y1="437.1875" y2="437.1875"/><text fill="#000000" font-family="sans-serif" font-size="13" lengthAdjust="spacingAndGlyphs" textLength="176" x="54" y="432.1216">Available endpoints for v2.0</text><path d="M310,400.9219 L310,455.9219 L615,455.9219 L615,410.9219 L605,400.9219 L310,400.9219 " fill="#FBFB77" filter="url(#fasxzko0sdwr2)" style="stroke: #A80036; stroke-width: 1.0;"/><path d="M605,400.9219 L605,410.9219 L615,410.9219 L605,400.9219 " fill="#FBFB77" style="stroke: #A80036; stroke-width: 1.0;"/><text fill="#000000" font-family="sans-serif" font-size="13" lengthAdjust="spacingAndGlyphs" textLength="251" x="316" y="417.9888">The CPO knows it's version 2.0 because</text><text fill="#000000" font-family="sans-serif" font-size="13" lengthAdjust="spacingAndGlyphs" textLength="284" x="316" y="433.1216">of the endpoint the eMSP has used. The URL</text><text fill="#000000" font-family="sans-serif" font-size="13" lengthAdjust="spacingAndGlyphs" textLength="251" x="316" y="448.2544">is retrieved from the available versions.</text><line style="stroke: #A80036; stroke-width: 1.0;" x1="37" x2="79" y1="486.4531" y2="486.4531"/><line style="stroke: #A80036; stroke-width: 1.0;" x1="79" x2="79" y1="486.4531" y2="499.4531"/><line style="stroke: #A80036; stroke-width: 1.0;" x1="38" x2="79" y1="499.4531" y2="499.4531"/><polygon fill="#A80036" points="48,495.4531,38,499.4531,48,503.4531,44,499.4531" style="stroke: #A80036; stroke-width: 1.0;"/><text fill="#000000" font-family="sans-serif" font-size="13" lengthAdjust="spacingAndGlyphs" textLength="180" x="44" y="481.3872">Store version and endpoints</text><polygon fill="#A80036" points="283,524.5859,293,528.5859,283,532.5859,287,528.5859" style="stroke: #A80036; stroke-width: 1.0;"/><line style="stroke: #A80036; stroke-width: 1.0; stroke-dasharray: 2.0,2.0;" x1="32" x2="289" y1="528.5859" y2="528.5859"/><text fill="#000000" font-family="sans-serif" font-size="13" lengthAdjust="spacingAndGlyphs" textLength="234" x="39" y="523.52">Return updated credentials for eMSP</text><line style="stroke: #A80036; stroke-width: 1.0;" x1="305" x2="347" y1="562.7188" y2="562.7188"/><line style="stroke: #A80036; stroke-width: 1.0;" x1="347" x2="347" y1="562.7188" y2="575.7188"/><line style="stroke: #A80036; stroke-width: 1.0;" x1="300" x2="347" y1="575.7188" y2="575.7188"/><polygon fill="#A80036" points="310,571.7188,300,575.7188,310,579.7188,306,575.7188" style="stroke: #A80036; stroke-width: 1.0;"/><text fill="#000000" font-family="sans-serif" font-size="13" lengthAdjust="spacingAndGlyphs" textLength="166" x="312" y="557.6528">Store updated credentials</text></g></svg>