<?xml version="1.0" encoding="UTF-8" standalone="no"?><svg xmlns="http://www.w3.org/2000/svg" xmlns:xlink="http://www.w3.org/1999/xlink" contentScriptType="application/ecmascript" contentStyleType="text/css" height="631px" preserveAspectRatio="none" style="width:533px;height:631px;" version="1.1" viewBox="0 0 533 631" width="533px" zoomAndPan="magnify"><defs><filter height="300%" id="fbilh7ibzg56i" width="300%" x="-1" y="-1"><feGaussianBlur result="blurOut" stdDeviation="2.0"/><feColorMatrix in="blurOut" result="blurOut2" type="matrix" values="0 0 0 0 0 0 0 0 0 0 0 0 0 0 0 0 0 0 .4 0"/><feOffset dx="4.0" dy="4.0" in="blurOut2" result="blurOut3"/><feBlend in="SourceGraphic" in2="blurOut3" mode="normal"/></filter></defs><g><!--cluster MSP1--><rect fill="#FFFFFF" filter="url(#fbilh7ibzg56i)" height="193" rx="4" ry="4" style="stroke: #000000; stroke-width: 1.5;" width="116" x="30" y="427"/><text fill="#000000" font-family="sans-serif" font-size="14" font-weight="bold" lengthAdjust="spacingAndGlyphs" textLength="84" x="46" y="441.9951">PLATFORM</text><!--cluster MSP2--><rect fill="#FFFFFF" filter="url(#fbilh7ibzg56i)" height="193" rx="4" ry="4" style="stroke: #000000; stroke-width: 1.5;" width="116" x="30" y="194"/><text fill="#000000" font-family="sans-serif" font-size="14" font-weight="bold" lengthAdjust="spacingAndGlyphs" textLength="84" x="46" y="208.9951">PLATFORM</text><!--cluster MSP3--><rect fill="#FFFFFF" filter="url(#fbilh7ibzg56i)" height="122" rx="4" ry="4" style="stroke: #000000; stroke-width: 1.5;" width="116" x="30" y="32"/><text fill="#000000" font-family="sans-serif" font-size="14" font-weight="bold" lengthAdjust="spacingAndGlyphs" textLength="84" x="46" y="46.9951">PLATFORM</text><!--cluster CPOP1--><rect fill="#FFFFFF" filter="url(#fbilh7ibzg56i)" height="193" rx="4" ry="4" style="stroke: #000000; stroke-width: 1.5;" width="116" x="406" y="427"/><text fill="#000000" font-family="sans-serif" font-size="14" font-weight="bold" lengthAdjust="spacingAndGlyphs" textLength="84" x="422" y="441.9951">PLATFORM</text><!--cluster CPOP2--><rect fill="#FFFFFF" filter="url(#fbilh7ibzg56i)" height="193" rx="4" ry="4" style="stroke: #000000; stroke-width: 1.5;" width="107" x="410.5" y="194"/><text fill="#000000" font-family="sans-serif" font-size="14" font-weight="bold" lengthAdjust="spacingAndGlyphs" textLength="84" x="422" y="208.9951">PLATFORM</text><!--cluster CPOP3--><rect fill="#FFFFFF" filter="url(#fbilh7ibzg56i)" height="122" rx="4" ry="4" style="stroke: #000000; stroke-width: 1.5;" width="107" x="410.5" y="32"/><text fill="#000000" font-family="sans-serif" font-size="14" font-weight="bold" lengthAdjust="spacingAndGlyphs" textLength="84" x="422" y="46.9951">PLATFORM</text><!--cluster HUB_PLATFORM--><rect fill="#FFFFFF" filter="url(#fbilh7ibzg56i)" height="122" rx="4" ry="4" style="stroke: #000000; stroke-width: 1.5;" width="100" x="226" y="265"/><text fill="#000000" font-family="sans-serif" font-size="14" font-weight="bold" lengthAdjust="spacingAndGlyphs" textLength="84" x="234" y="279.9951">PLATFORM</text><!--entity CPO2--><rect fill="#FEFECE" filter="url(#fbilh7ibzg56i)" height="36.2969" rx="4" ry="4" style="stroke: #A80036; stroke-width: 1.5;" width="59" x="58.5" y="470"/><text fill="#000000" font-family="sans-serif" font-size="14" lengthAdjust="spacingAndGlyphs" textLength="39" x="68.5" y="492.9951">CPO2</text><!--entity eMSP2--><rect fill="#FEFECE" filter="url(#fbilh7ibzg56i)" height="36.2969" rx="4" ry="4" style="stroke: #A80036; stroke-width: 1.5;" width="68" x="54" y="541"/><text fill="#000000" font-family="sans-serif" font-size="14" lengthAdjust="spacingAndGlyphs" textLength="48" x="64" y="563.9951">eMSP2</text><!--entity eMSP3--><rect fill="#FEFECE" filter="url(#fbilh7ibzg56i)" height="36.2969" rx="4" ry="4" style="stroke: #A80036; stroke-width: 1.5;" width="68" x="54" y="237"/><text fill="#000000" font-family="sans-serif" font-size="14" lengthAdjust="spacingAndGlyphs" textLength="48" x="64" y="259.9951">eMSP3</text><!--entity eMSP4--><rect fill="#FEFECE" filter="url(#fbilh7ibzg56i)" height="36.2969" rx="4" ry="4" style="stroke: #A80036; stroke-width: 1.5;" width="68" x="54" y="308"/><text fill="#000000" font-family="sans-serif" font-size="14" lengthAdjust="spacingAndGlyphs" textLength="48" x="64" y="330.9951">eMSP4</text><!--entity eMSP5--><rect fill="#FEFECE" filter="url(#fbilh7ibzg56i)" height="36.2969" rx="4" ry="4" style="stroke: #A80036; stroke-width: 1.5;" width="68" x="54" y="75"/><text fill="#000000" font-family="sans-serif" font-size="14" lengthAdjust="spacingAndGlyphs" textLength="48" x="64" y="97.9951">eMSP5</text><!--entity CPO1--><rect fill="#FEFECE" filter="url(#fbilh7ibzg56i)" height="36.2969" rx="4" ry="4" style="stroke: #A80036; stroke-width: 1.5;" width="59" x="434.5" y="470"/><text fill="#000000" font-family="sans-serif" font-size="14" lengthAdjust="spacingAndGlyphs" textLength="39" x="444.5" y="492.9951">CPO1</text><!--entity eMSP1--><rect fill="#FEFECE" filter="url(#fbilh7ibzg56i)" height="36.2969" rx="4" ry="4" style="stroke: #A80036; stroke-width: 1.5;" width="68" x="430" y="541"/><text fill="#000000" font-family="sans-serif" font-size="14" lengthAdjust="spacingAndGlyphs" textLength="48" x="440" y="563.9951">eMSP1</text><!--entity CPO3--><rect fill="#FEFECE" filter="url(#fbilh7ibzg56i)" height="36.2969" rx="4" ry="4" style="stroke: #A80036; stroke-width: 1.5;" width="59" x="434.5" y="237"/><text fill="#000000" font-family="sans-serif" font-size="14" lengthAdjust="spacingAndGlyphs" textLength="39" x="444.5" y="259.9951">CPO3</text><!--entity CPO4--><rect fill="#FEFECE" filter="url(#fbilh7ibzg56i)" height="36.2969" rx="4" ry="4" style="stroke: #A80036; stroke-width: 1.5;" width="59" x="434.5" y="308"/><text fill="#000000" font-family="sans-serif" font-size="14" lengthAdjust="spacingAndGlyphs" textLength="39" x="444.5" y="330.9951">CPO4</text><!--entity CPO5--><rect fill="#FEFECE" filter="url(#fbilh7ibzg56i)" height="36.2969" rx="4" ry="4" style="stroke: #A80036; stroke-width: 1.5;" width="59" x="434.5" y="75"/><text fill="#000000" font-family="sans-serif" font-size="14" lengthAdjust="spacingAndGlyphs" textLength="39" x="444.5" y="97.9951">CPO5</text><!--entity Hub--><rect fill="#FEFECE" filter="url(#fbilh7ibzg56i)" height="36.2969" rx="4" ry="4" style="stroke: #A80036; stroke-width: 1.5;" width="48" x="252" y="308"/><text fill="#000000" font-family="sans-serif" font-size="14" lengthAdjust="spacingAndGlyphs" textLength="28" x="262" y="330.9951">Hub</text><!--link MSP1 to HUB_PLATFORM--><path d="M146.0579,602.2486 C147.9646,601.4373 149.841,600.5593 151.6724,599.6092 C155.3351,597.709 158.8174,595.5204 162,593 C182.7505,576.5674 210.4488,524.4694 233.2288,475.7949 C244.6187,451.4577 254.7792,427.9763 262.2268,410.237 C265.9506,401.3673 268.9962,393.9331 271.1782,388.5452 C271.3146,388.2084 271.4476,387.8797 271.5772,387.5591 C271.642,387.3988 271.7059,387.2405 271.769,387.0843 " fill="none" id="MSP1-HUB_PLATFORM" style="stroke: #A80036; stroke-width: 1.0;"/><text fill="#000000" font-family="sans-serif" font-size="13" lengthAdjust="spacingAndGlyphs" textLength="30" x="171" y="533.0669">OCPI</text><!--link MSP2 to HUB_PLATFORM--><path d="M146.9188,379 C147.5763,379 148.2365,379 148.8993,379 C159.5042,379 170.7694,379 182.0339,379 C193.2984,379 204.5623,379 215.1644,379 C217.815,379 220.4242,379 222.9817,379 C223.621,379 224.2572,379 224.8899,379 C225.2063,379 225.5218,379 225.8365,379 " fill="none" id="MSP2-HUB_PLATFORM" style="stroke: #A80036; stroke-width: 1.0;"/><text fill="#000000" font-family="sans-serif" font-size="13" lengthAdjust="spacingAndGlyphs" textLength="30" x="171" y="375.0669">OCPI</text><!--link MSP3 to HUB_PLATFORM--><path d="M99.392,154.0935 C99.7248,154.3634 100.0639,154.6394 100.4091,154.9213 C101.0995,155.4851 101.8142,156.0726 102.5511,156.6831 C104.025,157.904 105.5879,159.2165 107.2236,160.6137 C110.4952,163.408 114.0582,166.5409 117.7835,169.957 C132.6845,183.6215 150.181,201.8175 162,221 C196.284,276.644 162.687,314.91 210,360 C212.6384,362.5144 215.5909,364.6984 218.7428,366.5952 C220.3188,367.5436 221.9446,368.4202 223.6059,369.2304 C224.0212,369.433 224.4388,369.6314 224.8583,369.8257 C225.0681,369.9229 225.2783,370.019 225.4891,370.1142 C225.5944,370.1618 225.6999,370.2091 225.8055,370.2561 " fill="none" id="MSP3-HUB_PLATFORM" style="stroke: #A80036; stroke-width: 1.0;"/><text fill="#000000" font-family="sans-serif" font-size="13" lengthAdjust="spacingAndGlyphs" textLength="30" x="171" y="234.0669">OCPI</text><!--link HUB_PLATFORM to CPOP1--><path d="M280.231,387.0843 C280.2941,387.2405 280.358,387.3988 280.4228,387.5591 C280.5524,387.8797 280.6854,388.2084 280.8218,388.5452 C283.0038,393.9331 286.0494,401.3673 289.7732,410.237 C297.2208,427.9763 307.3813,451.4577 318.7713,475.7949 C341.5513,524.4694 369.2495,576.5674 390,593 C393.1826,595.5204 396.6649,597.709 400.3276,599.6092 C402.1589,600.5593 404.0354,601.4373 405.942,602.2486 " fill="none" id="HUB_PLATFORM-CPOP1" style="stroke: #A80036; stroke-width: 1.0;"/><text fill="#000000" font-family="sans-serif" font-size="13" lengthAdjust="spacingAndGlyphs" textLength="30" x="351" y="533.0669">OCPI</text><!--link HUB_PLATFORM to CPOP2--><path d="M326.2241,379 C326.5389,379 326.8545,379 327.171,379 C327.804,379 328.4403,379 329.0799,379 C331.6382,379 334.2481,379 336.8993,379 C347.5041,379 358.7693,379 370.0339,379 C381.2984,379 392.5623,379 403.1644,379 C404.4897,379 405.8046,379 407.1079,379 C407.7596,379 408.4083,379 409.054,379 C409.3768,379 409.6989,379 410.0202,379 " fill="none" id="HUB_PLATFORM-CPOP2" style="stroke: #A80036; stroke-width: 1.0;"/><text fill="#000000" font-family="sans-serif" font-size="13" lengthAdjust="spacingAndGlyphs" textLength="30" x="351" y="375.0669">OCPI</text><!--link HUB_PLATFORM to CPOP3--><path d="M326.1945,370.2561 C326.3001,370.2091 326.4056,370.1618 326.5109,370.1142 C326.7217,370.019 326.9319,369.9229 327.1417,369.8257 C327.5612,369.6314 327.9788,369.433 328.3941,369.2304 C330.0554,368.4202 331.6812,367.5436 333.2572,366.5952 C336.4091,364.6984 339.3616,362.5144 342,360 C389.313,314.91 355.716,276.644 390,221 C401.819,201.8175 419.3155,183.6215 434.2165,169.957 C437.9418,166.5409 441.5048,163.408 444.7763,160.6137 C446.4121,159.2165 447.975,157.904 449.4489,156.6831 C450.1858,156.0726 450.9005,155.4851 451.5909,154.9213 C451.9361,154.6394 452.2752,154.3634 452.608,154.0935 " fill="none" id="HUB_PLATFORM-CPOP3" style="stroke: #A80036; stroke-width: 1.0;"/><text fill="#000000" font-family="sans-serif" font-size="13" lengthAdjust="spacingAndGlyphs" textLength="30" x="351" y="234.0669">OCPI</text><!--link MSP1 to CPOP1--><path d="M147.4695,612 C148.0089,612 148.5511,612 149.096,612 C183.9709,612 229.9946,612 276.017,612 C322.0394,612 368.0604,612 402.9298,612 C403.4746,612 404.0167,612 404.5561,612 C404.8257,612 405.0947,612 405.363,612 " fill="none" id="MSP1-CPOP1" style="stroke: #A80036; stroke-width: 1.0;"/><!--link MSP3 to CPOP3--><path d="M147.4695,146 C148.0089,146 148.5511,146 149.096,146 C183.9709,146 229.9946,146 276.017,146 C322.0394,146 368.0604,146 402.9298,146 C405.1091,146 407.2449,146 409.3344,146 C409.5956,146 409.856,146 410.1158,146 " fill="none" id="MSP3-CPOP3" style="stroke: #A80036; stroke-width: 1.0;"/></g></svg>