<?xml version="1.0" encoding="UTF-8" standalone="no"?><svg xmlns="http://www.w3.org/2000/svg" xmlns:xlink="http://www.w3.org/1999/xlink" contentScriptType="application/ecmascript" contentStyleType="text/css" height="165px" preserveAspectRatio="none" style="width:328px;height:165px;" version="1.1" viewBox="0 0 328 165" width="328px" zoomAndPan="magnify"><defs><filter height="300%" id="fli3oj92s0rlv" width="300%" x="-1" y="-1"><feGaussianBlur result="blurOut" stdDeviation="2.0"/><feColorMatrix in="blurOut" result="blurOut2" type="matrix" values="0 0 0 0 0 0 0 0 0 0 0 0 0 0 0 0 0 0 .4 0"/><feOffset dx="4.0" dy="4.0" in="blurOut2" result="blurOut3"/><feBlend in="SourceGraphic" in2="blurOut3" mode="normal"/></filter></defs><g><!--cluster eMSPP--><rect fill="#FFFFFF" filter="url(#fli3oj92s0rlv)" height="122" rx="4" ry="4" style="stroke: #000000; stroke-width: 1.5;" width="107" x="30" y="32"/><text fill="#000000" font-family="sans-serif" font-size="14" font-weight="bold" lengthAdjust="spacingAndGlyphs" textLength="84" x="41.5" y="46.9951">PLATFORM</text><!--cluster CPOP--><rect fill="#FFFFFF" filter="url(#fli3oj92s0rlv)" height="122" rx="4" ry="4" style="stroke: #000000; stroke-width: 1.5;" width="100" x="217" y="32"/><text fill="#000000" font-family="sans-serif" font-size="14" font-weight="bold" lengthAdjust="spacingAndGlyphs" textLength="84" x="225" y="46.9951">PLATFORM</text><!--entity eMSP--><rect fill="#FEFECE" filter="url(#fli3oj92s0rlv)" height="36.2969" rx="4" ry="4" style="stroke: #A80036; stroke-width: 1.5;" width="59" x="54" y="75"/><text fill="#000000" font-family="sans-serif" font-size="14" lengthAdjust="spacingAndGlyphs" textLength="39" x="64" y="97.9951">eMSP</text><!--entity CPO--><rect fill="#FEFECE" filter="url(#fli3oj92s0rlv)" height="36.2969" rx="4" ry="4" style="stroke: #A80036; stroke-width: 1.5;" width="50" x="242" y="75"/><text fill="#000000" font-family="sans-serif" font-size="14" lengthAdjust="spacingAndGlyphs" textLength="30" x="252" y="97.9951">CPO</text><!--link eMSPP to CPOP--><path d="M137.2017,146 C137.8319,146 138.4652,146 139.1012,146 C140.3734,146 141.6569,146 142.9504,146 C153.2987,146 164.2914,146 175.2835,146 C186.2755,146 197.2669,146 207.6126,146 C210.199,146 212.7451,146 215.2407,146 C215.5527,146 215.8638,146 216.1742,146 C216.3294,146 216.4844,146 216.6391,146 " fill="none" id="eMSPP-CPOP" style="stroke: #A80036; stroke-width: 1.0;"/><text fill="#000000" font-family="sans-serif" font-size="13" lengthAdjust="spacingAndGlyphs" textLength="30" x="162" y="142.0669">OCPI</text></g></svg>