<?xml version="1.0" encoding="UTF-8" standalone="no"?><svg xmlns="http://www.w3.org/2000/svg" xmlns:xlink="http://www.w3.org/1999/xlink" contentScriptType="application/ecmascript" contentStyleType="text/css" height="319px" preserveAspectRatio="none" style="width:616px;height:319px;" version="1.1" viewBox="0 0 616 319" width="616px" zoomAndPan="magnify"><defs><filter height="300%" id="fmwma03bu4mcb" width="300%" x="-1" y="-1"><feGaussianBlur result="blurOut" stdDeviation="2.0"/><feColorMatrix in="blurOut" result="blurOut2" type="matrix" values="0 0 0 0 0 0 0 0 0 0 0 0 0 0 0 0 0 0 .4 0"/><feOffset dx="4.0" dy="4.0" in="blurOut2" result="blurOut3"/><feBlend in="SourceGraphic" in2="blurOut3" mode="normal"/></filter></defs><g><!--cluster MSPP1--><rect fill="#FFFFFF" filter="url(#fmwma03bu4mcb)" height="193" rx="4" ry="4" style="stroke: #000000; stroke-width: 1.5;" width="116" x="30" y="94"/><text fill="#000000" font-family="sans-serif" font-size="14" font-weight="bold" lengthAdjust="spacingAndGlyphs" textLength="84" x="46" y="108.9951">PLATFORM</text><!--cluster CPOP1--><rect fill="#FFFFFF" filter="url(#fmwma03bu4mcb)" height="193" rx="4" ry="4" style="stroke: #000000; stroke-width: 1.5;" width="107" x="186" y="94"/><text fill="#000000" font-family="sans-serif" font-size="14" font-weight="bold" lengthAdjust="spacingAndGlyphs" textLength="84" x="197.5" y="108.9951">PLATFORM</text><!--cluster CPOMSP1--><rect fill="#FFFFFF" filter="url(#fmwma03bu4mcb)" height="193" rx="4" ry="4" style="stroke: #000000; stroke-width: 1.5;" width="116" x="333" y="32"/><text fill="#000000" font-family="sans-serif" font-size="14" font-weight="bold" lengthAdjust="spacingAndGlyphs" textLength="84" x="349" y="46.9951">PLATFORM</text><!--cluster CPOMSP2--><rect fill="#FFFFFF" filter="url(#fmwma03bu4mcb)" height="193" rx="4" ry="4" style="stroke: #000000; stroke-width: 1.5;" width="116" x="489" y="85"/><text fill="#000000" font-family="sans-serif" font-size="14" font-weight="bold" lengthAdjust="spacingAndGlyphs" textLength="84" x="505" y="99.9951">PLATFORM</text><!--entity eMSP1--><rect fill="#FEFECE" filter="url(#fmwma03bu4mcb)" height="36.2969" rx="4" ry="4" style="stroke: #A80036; stroke-width: 1.5;" width="68" x="54" y="137"/><text fill="#000000" font-family="sans-serif" font-size="14" lengthAdjust="spacingAndGlyphs" textLength="48" x="64" y="159.9951">eMSP1</text><!--entity eMSP2--><rect fill="#FEFECE" filter="url(#fmwma03bu4mcb)" height="36.2969" rx="4" ry="4" style="stroke: #A80036; stroke-width: 1.5;" width="68" x="54" y="208"/><text fill="#000000" font-family="sans-serif" font-size="14" lengthAdjust="spacingAndGlyphs" textLength="48" x="64" y="230.9951">eMSP2</text><!--entity CPO1--><rect fill="#FEFECE" filter="url(#fmwma03bu4mcb)" height="36.2969" rx="4" ry="4" style="stroke: #A80036; stroke-width: 1.5;" width="59" x="210" y="137"/><text fill="#000000" font-family="sans-serif" font-size="14" lengthAdjust="spacingAndGlyphs" textLength="39" x="220" y="159.9951">CPO1</text><!--entity CPO2--><rect fill="#FEFECE" filter="url(#fmwma03bu4mcb)" height="36.2969" rx="4" ry="4" style="stroke: #A80036; stroke-width: 1.5;" width="59" x="210" y="208"/><text fill="#000000" font-family="sans-serif" font-size="14" lengthAdjust="spacingAndGlyphs" textLength="39" x="220" y="230.9951">CPO2</text><!--entity eMSP3--><rect fill="#FEFECE" filter="url(#fmwma03bu4mcb)" height="36.2969" rx="4" ry="4" style="stroke: #A80036; stroke-width: 1.5;" width="68" x="357" y="75"/><text fill="#000000" font-family="sans-serif" font-size="14" lengthAdjust="spacingAndGlyphs" textLength="48" x="367" y="97.9951">eMSP3</text><!--entity CPO3--><rect fill="#FEFECE" filter="url(#fmwma03bu4mcb)" height="36.2969" rx="4" ry="4" style="stroke: #A80036; stroke-width: 1.5;" width="59" x="361.5" y="146"/><text fill="#000000" font-family="sans-serif" font-size="14" lengthAdjust="spacingAndGlyphs" textLength="39" x="371.5" y="168.9951">CPO3</text><!--entity eMSP4--><rect fill="#FEFECE" filter="url(#fmwma03bu4mcb)" height="36.2969" rx="4" ry="4" style="stroke: #A80036; stroke-width: 1.5;" width="68" x="513" y="128"/><text fill="#000000" font-family="sans-serif" font-size="14" lengthAdjust="spacingAndGlyphs" textLength="48" x="523" y="150.9951">eMSP4</text><!--entity CPO4--><rect fill="#FEFECE" filter="url(#fmwma03bu4mcb)" height="36.2969" rx="4" ry="4" style="stroke: #A80036; stroke-width: 1.5;" width="59" x="517.5" y="199"/><text fill="#000000" font-family="sans-serif" font-size="14" lengthAdjust="spacingAndGlyphs" textLength="39" x="527.5" y="221.9951">CPO4</text><!--link MSPP1 to CPOP1--><path d="M146.1016,279 C146.3774,279 146.6536,279 146.9301,279 C148.036,279 149.147,279 150.2622,279 C154.7231,279 159.2503,279 163.7773,279 C168.3043,279 172.8312,279 177.2915,279 C179.5217,279 181.7352,279 183.9238,279 C184.4709,279 185.0165,279 185.5604,279 C185.6964,279 185.8323,279 185.968,279 " fill="none" id="MSPP1-CPOP1" style="stroke: #A80036; stroke-width: 1.0;"/><!--link MSPP1 to CPOMSP1--><path d="M146.194,271.9549 C146.3082,271.9006 146.4222,271.846 146.536,271.791 C146.9912,271.571 147.4431,271.3452 147.8914,271.1135 C149.6848,270.187 151.4211,269.1665 153.0823,268.0433 C156.4045,265.7968 159.4258,263.1392 162,260 C171.809,248.0377 158.751,131.62 170,121 C214.921,78.59 263.115,79.635 309,121 C321.778,132.519 305.788,184.952 317,198 C319.6458,201.0791 322.7212,203.6912 326.0835,205.904 C327.7646,207.0105 329.5174,208.0171 331.3241,208.9325 C331.7758,209.1613 332.2308,209.3845 332.6889,209.602 " fill="none" id="MSPP1-CPOMSP1" style="stroke: #A80036; stroke-width: 1.0;"/><!--link MSPP1 to CPOMSP2--><path d="M122.1205,287.059 C122.2473,287.0864 122.3744,287.1139 122.5016,287.1413 C122.7561,287.1962 123.0115,287.2511 123.2676,287.306 C125.317,287.7453 127.4186,288.1852 129.561,288.621 C133.8456,289.4926 138.2928,290.3477 142.8097,291.1485 C151.8433,292.7502 161.155,294.1348 170,295 C300.579,307.7733 334.753,299.8071 465,284 C473.7835,282.934 483.0635,281.5632 492.0843,280.0977 C494.3395,279.7313 496.5785,279.359 498.7895,278.9841 C499.895,278.7967 500.9935,278.6086 502.0836,278.4202 C502.6286,278.326 503.1715,278.2318 503.7121,278.1375 C503.8472,278.114 503.9822,278.0904 504.1171,278.0668 " fill="none" id="MSPP1-CPOMSP2" style="stroke: #A80036; stroke-width: 1.0;"/><!--link CPOP1 to CPOMSP1--><path d="M293.1344,269.4225 C293.2465,269.3742 293.3585,269.3258 293.4704,269.2771 C293.6941,269.1797 293.9175,269.0813 294.1403,268.982 C295.9233,268.1871 297.6765,267.3295 299.3857,266.4041 C302.8041,264.5535 306.0466,262.4319 309,260 C315.138,254.9462 311.079,249.3061 317,244 C323.239,238.4087 330.7378,233.9419 338.5203,230.3831 C342.4115,228.6036 346.3736,227.0511 350.2847,225.6985 C350.7735,225.5295 351.2616,225.3635 351.7487,225.2006 C351.8704,225.1599 351.9921,225.1194 352.1137,225.079 " fill="none" id="CPOP1-CPOMSP1" style="stroke: #A80036; stroke-width: 1.0;"/><!--link CPOP1 to CPOMSP2--><path d="M293.6544,277.4341 C294.1125,277.4206 294.5728,277.407 295.0352,277.3934 C296.8845,277.3389 298.7673,277.2835 300.6811,277.2271 C304.5089,277.1143 308.4611,276.9979 312.52,276.8783 C320.6379,276.6392 329.1827,276.3874 338.012,276.1273 C355.6706,275.6071 374.4674,275.0533 393.264,274.4996 C412.0606,273.9458 430.8568,273.3921 448.5143,272.8719 C457.3431,272.6118 465.8871,272.3601 474.0042,272.121 C478.0627,272.0014 482.0145,271.885 485.8417,271.7722 C486.7985,271.7441 487.7475,271.7161 488.6885,271.6884 " fill="none" id="CPOP1-CPOMSP2" style="stroke: #A80036; stroke-width: 1.0;"/><!--link CPOMSP1 to CPOMSP2--><path d="M421.0981,225.0631 C421.2124,225.1003 421.327,225.1376 421.4417,225.175 C422.3593,225.4744 423.2882,225.7818 424.2268,226.0973 C426.1039,226.7282 428.0196,227.3913 429.9613,228.0863 C433.8449,229.4764 437.8325,230.9942 441.8233,232.638 C449.8049,235.9257 457.7995,239.7175 465,244 C469.061,246.415 468.824,248.7902 473,251 C476.5883,252.8989 480.3779,254.6165 484.2676,256.1689 C485.24,256.557 486.2187,256.9347 487.2021,257.3024 C487.6937,257.4863 488.1866,257.6676 488.6804,257.8464 " fill="none" id="CPOMSP1-CPOMSP2" style="stroke: #A80036; stroke-width: 1.0;"/></g></svg>