<?xml version="1.0" encoding="UTF-8" standalone="no"?><svg xmlns="http://www.w3.org/2000/svg" xmlns:xlink="http://www.w3.org/1999/xlink" contentScriptType="application/ecmascript" contentStyleType="text/css" height="269px" preserveAspectRatio="none" style="width:913px;height:269px;" version="1.1" viewBox="0 0 913 269" width="913px" zoomAndPan="magnify"><defs><filter height="300%" id="f1phzcy7xrvxii" width="300%" x="-1" y="-1"><feGaussianBlur result="blurOut" stdDeviation="2.0"/><feColorMatrix in="blurOut" result="blurOut2" type="matrix" values="0 0 0 0 0 0 0 0 0 0 0 0 0 0 0 0 0 0 .4 0"/><feOffset dx="4.0" dy="4.0" in="blurOut2" result="blurOut3"/><feBlend in="SourceGraphic" in2="blurOut3" mode="normal"/></filter></defs><g><rect fill="#FFFFFF" filter="url(#f1phzcy7xrvxii)" height="29.1328" style="stroke: #A80036; stroke-width: 1.0;" width="10" x="31.5" y="108.5625"/><rect fill="#FFFFFF" filter="url(#f1phzcy7xrvxii)" height="14" style="stroke: #A80036; stroke-width: 1.0;" width="10" x="31.5" y="225.0938"/><rect fill="#FFFFFF" filter="url(#f1phzcy7xrvxii)" height="58.2656" style="stroke: #A80036; stroke-width: 1.0;" width="10" x="535.5" y="108.5625"/><rect fill="#FFFFFF" filter="url(#f1phzcy7xrvxii)" height="43.1328" style="stroke: #A80036; stroke-width: 1.0;" width="10" x="535.5" y="195.9609"/><rect fill="#FFFFFF" filter="url(#f1phzcy7xrvxii)" height="72.2656" style="stroke: #A80036; stroke-width: 1.0;" width="10" x="828.5" y="166.8281"/><line style="stroke: #A80036; stroke-width: 1.0; stroke-dasharray: 5.0,5.0;" x1="36" x2="36" y1="38.2969" y2="257.0938"/><line style="stroke: #A80036; stroke-width: 1.0; stroke-dasharray: 5.0,5.0;" x1="540.5" x2="540.5" y1="38.2969" y2="257.0938"/><line style="stroke: #A80036; stroke-width: 1.0; stroke-dasharray: 5.0,5.0;" x1="833" x2="833" y1="38.2969" y2="257.0938"/><rect fill="#FEFECE" filter="url(#f1phzcy7xrvxii)" height="30.2969" style="stroke: #A80036; stroke-width: 1.5;" width="53" x="8" y="3"/><text fill="#000000" font-family="sans-serif" font-size="14" lengthAdjust="spacingAndGlyphs" textLength="39" x="15" y="22.9951">eMSP</text><rect fill="#FEFECE" filter="url(#f1phzcy7xrvxii)" height="30.2969" style="stroke: #A80036; stroke-width: 1.5;" width="44" x="516.5" y="3"/><text fill="#000000" font-family="sans-serif" font-size="14" lengthAdjust="spacingAndGlyphs" textLength="30" x="523.5" y="22.9951">CPO</text><rect fill="#FEFECE" filter="url(#f1phzcy7xrvxii)" height="30.2969" style="stroke: #A80036; stroke-width: 1.5;" width="103" x="780" y="3"/><text fill="#000000" font-family="sans-serif" font-size="14" lengthAdjust="spacingAndGlyphs" textLength="89" x="787" y="22.9951">Charge Point</text><rect fill="#FFFFFF" filter="url(#f1phzcy7xrvxii)" height="29.1328" style="stroke: #A80036; stroke-width: 1.0;" width="10" x="31.5" y="108.5625"/><rect fill="#FFFFFF" filter="url(#f1phzcy7xrvxii)" height="14" style="stroke: #A80036; stroke-width: 1.0;" width="10" x="31.5" y="225.0938"/><rect fill="#FFFFFF" filter="url(#f1phzcy7xrvxii)" height="58.2656" style="stroke: #A80036; stroke-width: 1.0;" width="10" x="535.5" y="108.5625"/><rect fill="#FFFFFF" filter="url(#f1phzcy7xrvxii)" height="43.1328" style="stroke: #A80036; stroke-width: 1.0;" width="10" x="535.5" y="195.9609"/><rect fill="#FFFFFF" filter="url(#f1phzcy7xrvxii)" height="72.2656" style="stroke: #A80036; stroke-width: 1.0;" width="10" x="828.5" y="166.8281"/><path d="M762,53.2969 L762,78.2969 L901,78.2969 L901,63.2969 L891,53.2969 L762,53.2969 " fill="#FBFB77" filter="url(#f1phzcy7xrvxii)" style="stroke: #A80036; stroke-width: 1.0;"/><path d="M891,53.2969 L891,63.2969 L901,63.2969 L891,53.2969 " fill="#FBFB77" style="stroke: #A80036; stroke-width: 1.0;"/><text fill="#000000" font-family="sans-serif" font-size="13" lengthAdjust="spacingAndGlyphs" textLength="118" x="768" y="70.3638">EV NOT Plugged in</text><polygon fill="#A80036" points="523.5,104.5625,533.5,108.5625,523.5,112.5625,527.5,108.5625" style="stroke: #A80036; stroke-width: 1.0;"/><line style="stroke: #A80036; stroke-width: 1.0;" x1="41.5" x2="529.5" y1="108.5625" y2="108.5625"/><text fill="#000000" font-family="sans-serif" font-size="13" lengthAdjust="spacingAndGlyphs" textLength="380" x="48.5" y="103.4966">Command(START_SESSION, location_id=1234, token=200)</text><polygon fill="#A80036" points="47.5,133.6953,37.5,137.6953,47.5,141.6953,43.5,137.6953" style="stroke: #A80036; stroke-width: 1.0;"/><line style="stroke: #A80036; stroke-width: 1.0; stroke-dasharray: 2.0,2.0;" x1="41.5" x2="534.5" y1="137.6953" y2="137.6953"/><text fill="#000000" font-family="sans-serif" font-size="13" lengthAdjust="spacingAndGlyphs" textLength="470" x="53.5" y="132.6294">status_code = 1000, data: {CommandResponse { result = ACCEPTED }}</text><polygon fill="#A80036" points="816.5,162.8281,826.5,166.8281,816.5,170.8281,820.5,166.8281" style="stroke: #A80036; stroke-width: 1.0;"/><line style="stroke: #A80036; stroke-width: 1.0;" x1="540.5" x2="822.5" y1="166.8281" y2="166.8281"/><text fill="#000000" font-family="sans-serif" font-size="13" lengthAdjust="spacingAndGlyphs" textLength="264" x="547.5" y="161.7622">RemoteStartTransaction.req(Token=200)</text><polygon fill="#A80036" points="556.5,191.9609,546.5,195.9609,556.5,199.9609,552.5,195.9609" style="stroke: #A80036; stroke-width: 1.0;"/><line style="stroke: #A80036; stroke-width: 1.0;" x1="550.5" x2="827.5" y1="195.9609" y2="195.9609"/><text fill="#000000" font-family="sans-serif" font-size="13" lengthAdjust="spacingAndGlyphs" textLength="252" x="562.5" y="190.895">RemoteStartTransaction.conf(Rejected)</text><polygon fill="#A80036" points="52.5,221.0938,42.5,225.0938,52.5,229.0938,48.5,225.0938" style="stroke: #A80036; stroke-width: 1.0;"/><line style="stroke: #A80036; stroke-width: 1.0;" x1="46.5" x2="534.5" y1="225.0938" y2="225.0938"/><text fill="#000000" font-family="sans-serif" font-size="13" lengthAdjust="spacingAndGlyphs" textLength="215" x="58.5" y="220.0278">CommandResult(result = FAILED)</text><polygon fill="#A80036" points="528.5,235.0938,538.5,239.0938,528.5,243.0938,532.5,239.0938" style="stroke: #A80036; stroke-width: 1.0;"/><line style="stroke: #A80036; stroke-width: 1.0; stroke-dasharray: 2.0,2.0;" x1="36.5" x2="534.5" y1="239.0938" y2="239.0938"/></g></svg>