<?xml version="1.0" encoding="UTF-8" standalone="no"?><svg xmlns="http://www.w3.org/2000/svg" xmlns:xlink="http://www.w3.org/1999/xlink" contentScriptType="application/ecmascript" contentStyleType="text/css" height="510px" preserveAspectRatio="none" style="width:1044px;height:510px;" version="1.1" viewBox="0 0 1044 510" width="1044px" zoomAndPan="magnify"><defs><filter height="300%" id="flleutsf2nds2" width="300%" x="-1" y="-1"><feGaussianBlur result="blurOut" stdDeviation="2.0"/><feColorMatrix in="blurOut" result="blurOut2" type="matrix" values="0 0 0 0 0 0 0 0 0 0 0 0 0 0 0 0 0 0 .4 0"/><feOffset dx="4.0" dy="4.0" in="blurOut2" result="blurOut3"/><feBlend in="SourceGraphic" in2="blurOut3" mode="normal"/></filter></defs><g><rect fill="#FFFFFF" filter="url(#flleutsf2nds2)" height="132.7969" style="stroke: #A80036; stroke-width: 1.0;" width="10" x="40.5" y="172.5859"/><rect fill="#FFFFFF" filter="url(#flleutsf2nds2)" height="14" style="stroke: #A80036; stroke-width: 1.0;" width="10" x="40.5" y="466.1797"/><rect fill="#FFFFFF" filter="url(#flleutsf2nds2)" height="132.7969" style="stroke: #A80036; stroke-width: 1.0;" width="10" x="412.5" y="172.5859"/><rect fill="#FFFFFF" filter="url(#flleutsf2nds2)" height="72.2656" style="stroke: #A80036; stroke-width: 1.0;" width="10" x="412.5" y="407.9141"/><rect fill="#FFFFFF" filter="url(#flleutsf2nds2)" height="117.6641" style="stroke: #A80036; stroke-width: 1.0;" width="10" x="789.5" y="216.8516"/><rect fill="#FFFFFF" filter="url(#flleutsf2nds2)" height="58.2656" style="stroke: #A80036; stroke-width: 1.0;" width="10" x="789.5" y="363.6484"/><rect fill="#FFFFFF" filter="url(#flleutsf2nds2)" height="29.1328" style="stroke: #A80036; stroke-width: 1.0;" width="10" x="978.5" y="334.5156"/><line style="stroke: #A80036; stroke-width: 1.0; stroke-dasharray: 5.0,5.0;" x1="45" x2="45" y1="87.1875" y2="498.1797"/><line style="stroke: #A80036; stroke-width: 1.0; stroke-dasharray: 5.0,5.0;" x1="417.5" x2="417.5" y1="87.1875" y2="498.1797"/><line style="stroke: #A80036; stroke-width: 1.0; stroke-dasharray: 5.0,5.0;" x1="794.5" x2="794.5" y1="87.1875" y2="498.1797"/><line style="stroke: #A80036; stroke-width: 1.0; stroke-dasharray: 5.0,5.0;" x1="983" x2="983" y1="87.1875" y2="498.1797"/><rect fill="#FEFECE" filter="url(#flleutsf2nds2)" height="30.2969" style="stroke: #A80036; stroke-width: 1.5;" width="51" x="18" y="51.8906"/><text fill="#000000" font-family="sans-serif" font-size="14" lengthAdjust="spacingAndGlyphs" textLength="37" x="25" y="71.8857">SCSP</text><rect fill="#FEFECE" filter="url(#flleutsf2nds2)" height="79.1875" style="stroke: #A80036; stroke-width: 1.5;" width="74" x="378.5" y="3"/><text fill="#000000" font-family="sans-serif" font-size="14" lengthAdjust="spacingAndGlyphs" textLength="39" x="396" y="22.9951">eMSP</text><text fill="#000000" font-family="sans-serif" font-size="14" lengthAdjust="spacingAndGlyphs" textLength="50" x="390.5" y="39.292">Sender</text><text fill="#000000" font-family="sans-serif" font-size="14" lengthAdjust="spacingAndGlyphs" textLength="12" x="409.5" y="55.5889">&amp;</text><text fill="#000000" font-family="sans-serif" font-size="14" lengthAdjust="spacingAndGlyphs" textLength="60" x="385.5" y="71.8857">Receiver</text><rect fill="#FEFECE" filter="url(#flleutsf2nds2)" height="46.5938" style="stroke: #A80036; stroke-width: 1.5;" width="74" x="755.5" y="35.5938"/><text fill="#000000" font-family="sans-serif" font-size="14" lengthAdjust="spacingAndGlyphs" textLength="30" x="777.5" y="55.5889">CPO</text><text fill="#000000" font-family="sans-serif" font-size="14" lengthAdjust="spacingAndGlyphs" textLength="60" x="762.5" y="71.8857">Receiver</text><rect fill="#FEFECE" filter="url(#flleutsf2nds2)" height="30.2969" style="stroke: #A80036; stroke-width: 1.5;" width="103" x="930" y="51.8906"/><text fill="#000000" font-family="sans-serif" font-size="14" lengthAdjust="spacingAndGlyphs" textLength="89" x="937" y="71.8857">Charge Point</text><rect fill="#FFFFFF" filter="url(#flleutsf2nds2)" height="132.7969" style="stroke: #A80036; stroke-width: 1.0;" width="10" x="40.5" y="172.5859"/><rect fill="#FFFFFF" filter="url(#flleutsf2nds2)" height="14" style="stroke: #A80036; stroke-width: 1.0;" width="10" x="40.5" y="466.1797"/><rect fill="#FFFFFF" filter="url(#flleutsf2nds2)" height="132.7969" style="stroke: #A80036; stroke-width: 1.0;" width="10" x="412.5" y="172.5859"/><rect fill="#FFFFFF" filter="url(#flleutsf2nds2)" height="72.2656" style="stroke: #A80036; stroke-width: 1.0;" width="10" x="412.5" y="407.9141"/><rect fill="#FFFFFF" filter="url(#flleutsf2nds2)" height="117.6641" style="stroke: #A80036; stroke-width: 1.0;" width="10" x="789.5" y="216.8516"/><rect fill="#FFFFFF" filter="url(#flleutsf2nds2)" height="58.2656" style="stroke: #A80036; stroke-width: 1.0;" width="10" x="789.5" y="363.6484"/><rect fill="#FFFFFF" filter="url(#flleutsf2nds2)" height="29.1328" style="stroke: #A80036; stroke-width: 1.0;" width="10" x="978.5" y="334.5156"/><path d="M8,102.1875 L8,127.1875 L1022,127.1875 L1022,112.1875 L1012,102.1875 L8,102.1875 " fill="#FBFB77" filter="url(#flleutsf2nds2)" style="stroke: #A80036; stroke-width: 1.0;"/><path d="M1012,102.1875 L1012,112.1875 L1022,112.1875 L1012,102.1875 " fill="#FBFB77" style="stroke: #A80036; stroke-width: 1.0;"/><text fill="#000000" font-family="sans-serif" font-size="13" lengthAdjust="spacingAndGlyphs" textLength="178" x="419.5" y="119.2544">Ongoing Session with id=15</text><polygon fill="#A80036" points="400.5,168.5859,410.5,172.5859,400.5,176.5859,404.5,172.5859" style="stroke: #A80036; stroke-width: 1.0;"/><line style="stroke: #A80036; stroke-width: 1.0;" x1="50.5" x2="406.5" y1="172.5859" y2="172.5859"/><text fill="#000000" font-family="sans-serif" font-size="13" lengthAdjust="spacingAndGlyphs" textLength="348" x="57.5" y="152.3872">DELETE https://server.com/ocpi/2.2/chargingprofiles/15</text><text fill="#000000" font-family="sans-serif" font-size="13" lengthAdjust="spacingAndGlyphs" textLength="250" x="141.5" y="167.52">?response_url=https://scsp.com/12345</text><polygon fill="#A80036" points="777.5,212.8516,787.5,216.8516,777.5,220.8516,781.5,216.8516" style="stroke: #A80036; stroke-width: 1.0;"/><line style="stroke: #A80036; stroke-width: 1.0;" x1="422.5" x2="783.5" y1="216.8516" y2="216.8516"/><text fill="#000000" font-family="sans-serif" font-size="13" lengthAdjust="spacingAndGlyphs" textLength="348" x="429.5" y="196.6528">DELETE https://server.com/ocpi/2.2/chargingprofiles/15</text><text fill="#000000" font-family="sans-serif" font-size="13" lengthAdjust="spacingAndGlyphs" textLength="259" x="513.5" y="211.7856">?response_url=https://emsp.com/789AB</text><polygon fill="#A80036" points="433.5,257.1172,423.5,261.1172,433.5,265.1172,429.5,261.1172" style="stroke: #A80036; stroke-width: 1.0;"/><line style="stroke: #A80036; stroke-width: 1.0; stroke-dasharray: 2.0,2.0;" x1="427.5" x2="788.5" y1="261.1172" y2="261.1172"/><text fill="#000000" font-family="sans-serif" font-size="13" lengthAdjust="spacingAndGlyphs" textLength="170" x="439.5" y="240.9185">status_code = 1000, data:</text><text fill="#000000" font-family="sans-serif" font-size="13" lengthAdjust="spacingAndGlyphs" textLength="325" x="451.5" y="256.0513">{ChargingProfileResponse { result = ACCEPTED }}</text><polygon fill="#A80036" points="56.5,301.3828,46.5,305.3828,56.5,309.3828,52.5,305.3828" style="stroke: #A80036; stroke-width: 1.0;"/><line style="stroke: #A80036; stroke-width: 1.0; stroke-dasharray: 2.0,2.0;" x1="50.5" x2="416.5" y1="305.3828" y2="305.3828"/><text fill="#000000" font-family="sans-serif" font-size="13" lengthAdjust="spacingAndGlyphs" textLength="170" x="62.5" y="285.1841">status_code = 1000, data:</text><text fill="#000000" font-family="sans-serif" font-size="13" lengthAdjust="spacingAndGlyphs" textLength="325" x="74.5" y="300.3169">{ChargingProfileResponse { result = ACCEPTED }}</text><polygon fill="#A80036" points="966.5,330.5156,976.5,334.5156,966.5,338.5156,970.5,334.5156" style="stroke: #A80036; stroke-width: 1.0;"/><line style="stroke: #A80036; stroke-width: 1.0;" x1="794.5" x2="972.5" y1="334.5156" y2="334.5156"/><text fill="#000000" font-family="sans-serif" font-size="13" lengthAdjust="spacingAndGlyphs" textLength="154" x="801.5" y="329.4497">ClearChargingProfile.req</text><polygon fill="#A80036" points="810.5,359.6484,800.5,363.6484,810.5,367.6484,806.5,363.6484" style="stroke: #A80036; stroke-width: 1.0;"/><line style="stroke: #A80036; stroke-width: 1.0;" x1="804.5" x2="982.5" y1="363.6484" y2="363.6484"/><text fill="#000000" font-family="sans-serif" font-size="13" lengthAdjust="spacingAndGlyphs" textLength="160" x="816.5" y="358.5825">ClearChargingProfile.conf</text><polygon fill="#A80036" points="433.5,403.9141,423.5,407.9141,433.5,411.9141,429.5,407.9141" style="stroke: #A80036; stroke-width: 1.0;"/><line style="stroke: #A80036; stroke-width: 1.0;" x1="427.5" x2="788.5" y1="407.9141" y2="407.9141"/><text fill="#000000" font-family="sans-serif" font-size="13" lengthAdjust="spacingAndGlyphs" textLength="197" x="439.5" y="387.7153">POST https://emsp.com/789AB</text><text fill="#000000" font-family="sans-serif" font-size="13" lengthAdjust="spacingAndGlyphs" textLength="244" x="439.5" y="402.8481">ClearProfileResult(result = ACCEPTED)</text><polygon fill="#A80036" points="782.5,417.9141,792.5,421.9141,782.5,425.9141,786.5,421.9141" style="stroke: #A80036; stroke-width: 1.0;"/><line style="stroke: #A80036; stroke-width: 1.0; stroke-dasharray: 2.0,2.0;" x1="422.5" x2="788.5" y1="421.9141" y2="421.9141"/><polygon fill="#A80036" points="61.5,462.1797,51.5,466.1797,61.5,470.1797,57.5,466.1797" style="stroke: #A80036; stroke-width: 1.0;"/><line style="stroke: #A80036; stroke-width: 1.0;" x1="55.5" x2="411.5" y1="466.1797" y2="466.1797"/><text fill="#000000" font-family="sans-serif" font-size="13" lengthAdjust="spacingAndGlyphs" textLength="188" x="67.5" y="445.981">POST https://scsp.com/12345</text><text fill="#000000" font-family="sans-serif" font-size="13" lengthAdjust="spacingAndGlyphs" textLength="244" x="67.5" y="461.1138">ClearProfileResult(result = ACCEPTED)</text><polygon fill="#A80036" points="405.5,476.1797,415.5,480.1797,405.5,484.1797,409.5,480.1797" style="stroke: #A80036; stroke-width: 1.0;"/><line style="stroke: #A80036; stroke-width: 1.0; stroke-dasharray: 2.0,2.0;" x1="45.5" x2="411.5" y1="480.1797" y2="480.1797"/></g></svg>