<?xml version="1.0" encoding="UTF-8" standalone="no"?><svg xmlns="http://www.w3.org/2000/svg" xmlns:xlink="http://www.w3.org/1999/xlink" contentScriptType="application/ecmascript" contentStyleType="text/css" height="510px" preserveAspectRatio="none" style="width:1164px;height:510px;" version="1.1" viewBox="0 0 1164 510" width="1164px" zoomAndPan="magnify"><defs><filter height="300%" id="fn22kwlj70ld7" width="300%" x="-1" y="-1"><feGaussianBlur result="blurOut" stdDeviation="2.0"/><feColorMatrix in="blurOut" result="blurOut2" type="matrix" values="0 0 0 0 0 0 0 0 0 0 0 0 0 0 0 0 0 0 .4 0"/><feOffset dx="4.0" dy="4.0" in="blurOut2" result="blurOut3"/><feBlend in="SourceGraphic" in2="blurOut3" mode="normal"/></filter></defs><g><rect fill="#FFFFFF" filter="url(#fn22kwlj70ld7)" height="208.1953" style="stroke: #A80036; stroke-width: 1.0;" width="10" x="44" y="97.1875"/><rect fill="#FFFFFF" filter="url(#fn22kwlj70ld7)" height="14" style="stroke: #A80036; stroke-width: 1.0;" width="10" x="44" y="466.1797"/><rect fill="#FFFFFF" filter="url(#fn22kwlj70ld7)" height="132.7969" style="stroke: #A80036; stroke-width: 1.0;" width="10" x="466" y="172.5859"/><rect fill="#FFFFFF" filter="url(#fn22kwlj70ld7)" height="72.2656" style="stroke: #A80036; stroke-width: 1.0;" width="10" x="466" y="407.9141"/><rect fill="#FFFFFF" filter="url(#fn22kwlj70ld7)" height="117.6641" style="stroke: #A80036; stroke-width: 1.0;" width="10" x="888" y="216.8516"/><rect fill="#FFFFFF" filter="url(#fn22kwlj70ld7)" height="58.2656" style="stroke: #A80036; stroke-width: 1.0;" width="10" x="888" y="363.6484"/><rect fill="#FFFFFF" filter="url(#fn22kwlj70ld7)" height="29.1328" style="stroke: #A80036; stroke-width: 1.0;" width="10" x="1099" y="334.5156"/><line style="stroke: #A80036; stroke-width: 1.0; stroke-dasharray: 5.0,5.0;" x1="49" x2="49" y1="87.1875" y2="498.1797"/><line style="stroke: #A80036; stroke-width: 1.0; stroke-dasharray: 5.0,5.0;" x1="471" x2="471" y1="87.1875" y2="498.1797"/><line style="stroke: #A80036; stroke-width: 1.0; stroke-dasharray: 5.0,5.0;" x1="893" x2="893" y1="87.1875" y2="498.1797"/><line style="stroke: #A80036; stroke-width: 1.0; stroke-dasharray: 5.0,5.0;" x1="1103.5" x2="1103.5" y1="87.1875" y2="498.1797"/><rect fill="#FEFECE" filter="url(#fn22kwlj70ld7)" height="46.5938" style="stroke: #A80036; stroke-width: 1.5;" width="64" x="15" y="35.5938"/><text fill="#000000" font-family="sans-serif" font-size="14" lengthAdjust="spacingAndGlyphs" textLength="37" x="28.5" y="55.5889">SCSP</text><text fill="#000000" font-family="sans-serif" font-size="14" lengthAdjust="spacingAndGlyphs" textLength="50" x="22" y="71.8857">Sender</text><rect fill="#FEFECE" filter="url(#fn22kwlj70ld7)" height="79.1875" style="stroke: #A80036; stroke-width: 1.5;" width="74" x="432" y="3"/><text fill="#000000" font-family="sans-serif" font-size="14" lengthAdjust="spacingAndGlyphs" textLength="39" x="449.5" y="22.9951">eMSP</text><text fill="#000000" font-family="sans-serif" font-size="14" lengthAdjust="spacingAndGlyphs" textLength="50" x="444" y="39.292">Sender</text><text fill="#000000" font-family="sans-serif" font-size="14" lengthAdjust="spacingAndGlyphs" textLength="12" x="463" y="55.5889">&amp;</text><text fill="#000000" font-family="sans-serif" font-size="14" lengthAdjust="spacingAndGlyphs" textLength="60" x="439" y="71.8857">Receiver</text><rect fill="#FEFECE" filter="url(#fn22kwlj70ld7)" height="46.5938" style="stroke: #A80036; stroke-width: 1.5;" width="74" x="854" y="35.5938"/><text fill="#000000" font-family="sans-serif" font-size="14" lengthAdjust="spacingAndGlyphs" textLength="30" x="876" y="55.5889">CPO</text><text fill="#000000" font-family="sans-serif" font-size="14" lengthAdjust="spacingAndGlyphs" textLength="60" x="861" y="71.8857">Receiver</text><rect fill="#FEFECE" filter="url(#fn22kwlj70ld7)" height="30.2969" style="stroke: #A80036; stroke-width: 1.5;" width="103" x="1050.5" y="51.8906"/><text fill="#000000" font-family="sans-serif" font-size="14" lengthAdjust="spacingAndGlyphs" textLength="89" x="1057.5" y="71.8857">Charge Point</text><rect fill="#FFFFFF" filter="url(#fn22kwlj70ld7)" height="208.1953" style="stroke: #A80036; stroke-width: 1.0;" width="10" x="44" y="97.1875"/><rect fill="#FFFFFF" filter="url(#fn22kwlj70ld7)" height="14" style="stroke: #A80036; stroke-width: 1.0;" width="10" x="44" y="466.1797"/><rect fill="#FFFFFF" filter="url(#fn22kwlj70ld7)" height="132.7969" style="stroke: #A80036; stroke-width: 1.0;" width="10" x="466" y="172.5859"/><rect fill="#FFFFFF" filter="url(#fn22kwlj70ld7)" height="72.2656" style="stroke: #A80036; stroke-width: 1.0;" width="10" x="466" y="407.9141"/><rect fill="#FFFFFF" filter="url(#fn22kwlj70ld7)" height="117.6641" style="stroke: #A80036; stroke-width: 1.0;" width="10" x="888" y="216.8516"/><rect fill="#FFFFFF" filter="url(#fn22kwlj70ld7)" height="58.2656" style="stroke: #A80036; stroke-width: 1.0;" width="10" x="888" y="363.6484"/><rect fill="#FFFFFF" filter="url(#fn22kwlj70ld7)" height="29.1328" style="stroke: #A80036; stroke-width: 1.0;" width="10" x="1099" y="334.5156"/><path d="M8,102.1875 L8,127.1875 L1145,127.1875 L1145,112.1875 L1135,102.1875 L8,102.1875 " fill="#FBFB77" filter="url(#fn22kwlj70ld7)" style="stroke: #A80036; stroke-width: 1.0;"/><path d="M1135,102.1875 L1135,112.1875 L1145,112.1875 L1135,102.1875 " fill="#FBFB77" style="stroke: #A80036; stroke-width: 1.0;"/><text fill="#000000" font-family="sans-serif" font-size="13" lengthAdjust="spacingAndGlyphs" textLength="178" x="481.25" y="119.2544">Ongoing Session with id=15</text><polygon fill="#A80036" points="454,168.5859,464,172.5859,454,176.5859,458,172.5859" style="stroke: #A80036; stroke-width: 1.0;"/><line style="stroke: #A80036; stroke-width: 1.0;" x1="54" x2="460" y1="172.5859" y2="172.5859"/><text fill="#000000" font-family="sans-serif" font-size="13" lengthAdjust="spacingAndGlyphs" textLength="325" x="61" y="152.3872">GET https://server.com/ocpi/2.2/chargingprofiles/15</text><text fill="#000000" font-family="sans-serif" font-size="13" lengthAdjust="spacingAndGlyphs" textLength="250" x="145" y="167.52">?response_url=https://scsp.com/12345</text><polygon fill="#A80036" points="876,212.8516,886,216.8516,876,220.8516,880,216.8516" style="stroke: #A80036; stroke-width: 1.0;"/><line style="stroke: #A80036; stroke-width: 1.0;" x1="476" x2="882" y1="216.8516" y2="216.8516"/><text fill="#000000" font-family="sans-serif" font-size="13" lengthAdjust="spacingAndGlyphs" textLength="325" x="483" y="196.6528">GET https://server.com/ocpi/2.2/chargingprofiles/15</text><text fill="#000000" font-family="sans-serif" font-size="13" lengthAdjust="spacingAndGlyphs" textLength="259" x="567" y="211.7856">?response_url=https://emsp.com/789AB</text><polygon fill="#A80036" points="487,257.1172,477,261.1172,487,265.1172,483,261.1172" style="stroke: #A80036; stroke-width: 1.0;"/><line style="stroke: #A80036; stroke-width: 1.0; stroke-dasharray: 2.0,2.0;" x1="481" x2="887" y1="261.1172" y2="261.1172"/><text fill="#000000" font-family="sans-serif" font-size="13" lengthAdjust="spacingAndGlyphs" textLength="170" x="493" y="240.9185">status_code = 1000, data:</text><text fill="#000000" font-family="sans-serif" font-size="13" lengthAdjust="spacingAndGlyphs" textLength="325" x="505" y="256.0513">{ChargingProfileResponse { result = ACCEPTED }}</text><polygon fill="#A80036" points="60,301.3828,50,305.3828,60,309.3828,56,305.3828" style="stroke: #A80036; stroke-width: 1.0;"/><line style="stroke: #A80036; stroke-width: 1.0; stroke-dasharray: 2.0,2.0;" x1="54" x2="470" y1="305.3828" y2="305.3828"/><text fill="#000000" font-family="sans-serif" font-size="13" lengthAdjust="spacingAndGlyphs" textLength="170" x="66" y="285.1841">status_code = 1000, data:</text><text fill="#000000" font-family="sans-serif" font-size="13" lengthAdjust="spacingAndGlyphs" textLength="325" x="78" y="300.3169">{ChargingProfileResponse { result = ACCEPTED }}</text><polygon fill="#A80036" points="1087,330.5156,1097,334.5156,1087,338.5156,1091,334.5156" style="stroke: #A80036; stroke-width: 1.0;"/><line style="stroke: #A80036; stroke-width: 1.0;" x1="893" x2="1093" y1="334.5156" y2="334.5156"/><text fill="#000000" font-family="sans-serif" font-size="13" lengthAdjust="spacingAndGlyphs" textLength="176" x="900" y="329.4497">GetCompositeSchedule.req</text><polygon fill="#A80036" points="909,359.6484,899,363.6484,909,367.6484,905,363.6484" style="stroke: #A80036; stroke-width: 1.0;"/><line style="stroke: #A80036; stroke-width: 1.0;" x1="903" x2="1103" y1="363.6484" y2="363.6484"/><text fill="#000000" font-family="sans-serif" font-size="13" lengthAdjust="spacingAndGlyphs" textLength="182" x="915" y="358.5825">GetCompositeSchedule.conf</text><polygon fill="#A80036" points="487,403.9141,477,407.9141,487,411.9141,483,407.9141" style="stroke: #A80036; stroke-width: 1.0;"/><line style="stroke: #A80036; stroke-width: 1.0;" x1="481" x2="887" y1="407.9141" y2="407.9141"/><text fill="#000000" font-family="sans-serif" font-size="13" lengthAdjust="spacingAndGlyphs" textLength="197" x="493" y="387.7153">POST https://emsp.com/789AB</text><text fill="#000000" font-family="sans-serif" font-size="13" lengthAdjust="spacingAndGlyphs" textLength="393" x="493" y="402.8481">ActiveProfileResult(result = ACCEPTED, ActiveChargingProfile)</text><polygon fill="#A80036" points="881,417.9141,891,421.9141,881,425.9141,885,421.9141" style="stroke: #A80036; stroke-width: 1.0;"/><line style="stroke: #A80036; stroke-width: 1.0; stroke-dasharray: 2.0,2.0;" x1="476" x2="887" y1="421.9141" y2="421.9141"/><polygon fill="#A80036" points="65,462.1797,55,466.1797,65,470.1797,61,466.1797" style="stroke: #A80036; stroke-width: 1.0;"/><line style="stroke: #A80036; stroke-width: 1.0;" x1="59" x2="465" y1="466.1797" y2="466.1797"/><text fill="#000000" font-family="sans-serif" font-size="13" lengthAdjust="spacingAndGlyphs" textLength="188" x="71" y="445.981">POST https://scsp.com/12345</text><text fill="#000000" font-family="sans-serif" font-size="13" lengthAdjust="spacingAndGlyphs" textLength="393" x="71" y="461.1138">ActiveProfileResult(result = ACCEPTED, ActiveChargingProfile)</text><polygon fill="#A80036" points="459,476.1797,469,480.1797,459,484.1797,463,480.1797" style="stroke: #A80036; stroke-width: 1.0;"/><line style="stroke: #A80036; stroke-width: 1.0; stroke-dasharray: 2.0,2.0;" x1="49" x2="465" y1="480.1797" y2="480.1797"/></g></svg>