<?xml version="1.0" encoding="UTF-8" standalone="no"?><svg xmlns="http://www.w3.org/2000/svg" xmlns:xlink="http://www.w3.org/1999/xlink" contentScriptType="application/ecmascript" contentStyleType="text/css" height="634px" preserveAspectRatio="none" style="width:489px;height:634px;" version="1.1" viewBox="0 0 489 634" width="489px" zoomAndPan="magnify"><defs><filter height="300%" id="f18vu5oad6znjj" width="300%" x="-1" y="-1"><feGaussianBlur result="blurOut" stdDeviation="2.0"/><feColorMatrix in="blurOut" result="blurOut2" type="matrix" values="0 0 0 0 0 0 0 0 0 0 0 0 0 0 0 0 0 0 .4 0"/><feOffset dx="4.0" dy="4.0" in="blurOut2" result="blurOut3"/><feBlend in="SourceGraphic" in2="blurOut3" mode="normal"/></filter></defs><g><!--cluster MSP1--><rect fill="#FFFFFF" filter="url(#f18vu5oad6znjj)" height="194" rx="4" ry="4" style="stroke: #000000; stroke-width: 1.5;" width="116" x="30" y="32"/><text fill="#000000" font-family="sans-serif" font-size="14" font-weight="bold" lengthAdjust="spacingAndGlyphs" textLength="84" x="46" y="46.9951">PLATFORM</text><!--cluster MSP2--><rect fill="#FFFFFF" filter="url(#f18vu5oad6znjj)" height="194" rx="4" ry="4" style="stroke: #000000; stroke-width: 1.5;" width="116" x="30" y="266"/><text fill="#000000" font-family="sans-serif" font-size="14" font-weight="bold" lengthAdjust="spacingAndGlyphs" textLength="84" x="46" y="280.9951">PLATFORM</text><!--cluster MSP3--><rect fill="#FFFFFF" filter="url(#f18vu5oad6znjj)" height="123" rx="4" ry="4" style="stroke: #000000; stroke-width: 1.5;" width="116" x="30" y="500"/><text fill="#000000" font-family="sans-serif" font-size="14" font-weight="bold" lengthAdjust="spacingAndGlyphs" textLength="84" x="46" y="514.9951">PLATFORM</text><!--cluster CPOP1--><rect fill="#FFFFFF" filter="url(#f18vu5oad6znjj)" height="194" rx="4" ry="4" style="stroke: #000000; stroke-width: 1.5;" width="108" x="370" y="32"/><text fill="#000000" font-family="sans-serif" font-size="14" font-weight="bold" lengthAdjust="spacingAndGlyphs" textLength="84" x="382" y="46.9951">PLATFORM</text><!--cluster CPOP2--><rect fill="#FFFFFF" filter="url(#f18vu5oad6znjj)" height="194" rx="4" ry="4" style="stroke: #000000; stroke-width: 1.5;" width="108" x="370" y="266"/><text fill="#000000" font-family="sans-serif" font-size="14" font-weight="bold" lengthAdjust="spacingAndGlyphs" textLength="84" x="382" y="280.9951">PLATFORM</text><!--cluster CPOP3--><rect fill="#FFFFFF" filter="url(#f18vu5oad6znjj)" height="123" rx="4" ry="4" style="stroke: #000000; stroke-width: 1.5;" width="108" x="370" y="500"/><text fill="#000000" font-family="sans-serif" font-size="14" font-weight="bold" lengthAdjust="spacingAndGlyphs" textLength="84" x="382" y="514.9951">PLATFORM</text><!--entity eMSP1--><rect fill="#FEFECE" filter="url(#f18vu5oad6znjj)" height="36.2969" rx="4" ry="4" style="stroke: #A80036; stroke-width: 1.5;" width="68" x="54" y="76"/><text fill="#000000" font-family="sans-serif" font-size="14" lengthAdjust="spacingAndGlyphs" textLength="48" x="64" y="98.9951">eMSP1</text><!--entity eMSP2--><rect fill="#FEFECE" filter="url(#f18vu5oad6znjj)" height="36.2969" rx="4" ry="4" style="stroke: #A80036; stroke-width: 1.5;" width="68" x="54" y="147"/><text fill="#000000" font-family="sans-serif" font-size="14" lengthAdjust="spacingAndGlyphs" textLength="48" x="64" y="169.9951">eMSP2</text><!--entity eMSP3--><rect fill="#FEFECE" filter="url(#f18vu5oad6znjj)" height="36.2969" rx="4" ry="4" style="stroke: #A80036; stroke-width: 1.5;" width="68" x="54" y="310"/><text fill="#000000" font-family="sans-serif" font-size="14" lengthAdjust="spacingAndGlyphs" textLength="48" x="64" y="332.9951">eMSP3</text><!--entity eMSP4--><rect fill="#FEFECE" filter="url(#f18vu5oad6znjj)" height="36.2969" rx="4" ry="4" style="stroke: #A80036; stroke-width: 1.5;" width="68" x="54" y="381"/><text fill="#000000" font-family="sans-serif" font-size="14" lengthAdjust="spacingAndGlyphs" textLength="48" x="64" y="403.9951">eMSP4</text><!--entity eMSP5--><rect fill="#FEFECE" filter="url(#f18vu5oad6znjj)" height="36.2969" rx="4" ry="4" style="stroke: #A80036; stroke-width: 1.5;" width="68" x="54" y="544"/><text fill="#000000" font-family="sans-serif" font-size="14" lengthAdjust="spacingAndGlyphs" textLength="48" x="64" y="566.9951">eMSP5</text><!--entity CPO1--><rect fill="#FEFECE" filter="url(#f18vu5oad6znjj)" height="36.2969" rx="4" ry="4" style="stroke: #A80036; stroke-width: 1.5;" width="59" x="394.5" y="76"/><text fill="#000000" font-family="sans-serif" font-size="14" lengthAdjust="spacingAndGlyphs" textLength="39" x="404.5" y="98.9951">CPO1</text><!--entity CPO2--><rect fill="#FEFECE" filter="url(#f18vu5oad6znjj)" height="36.2969" rx="4" ry="4" style="stroke: #A80036; stroke-width: 1.5;" width="59" x="394.5" y="147"/><text fill="#000000" font-family="sans-serif" font-size="14" lengthAdjust="spacingAndGlyphs" textLength="39" x="404.5" y="169.9951">CPO2</text><!--entity CPO3--><rect fill="#FEFECE" filter="url(#f18vu5oad6znjj)" height="36.2969" rx="4" ry="4" style="stroke: #A80036; stroke-width: 1.5;" width="59" x="394.5" y="310"/><text fill="#000000" font-family="sans-serif" font-size="14" lengthAdjust="spacingAndGlyphs" textLength="39" x="404.5" y="332.9951">CPO3</text><!--entity CPO4--><rect fill="#FEFECE" filter="url(#f18vu5oad6znjj)" height="36.2969" rx="4" ry="4" style="stroke: #A80036; stroke-width: 1.5;" width="59" x="394.5" y="381"/><text fill="#000000" font-family="sans-serif" font-size="14" lengthAdjust="spacingAndGlyphs" textLength="39" x="404.5" y="403.9951">CPO4</text><!--entity CPO5--><rect fill="#FEFECE" filter="url(#f18vu5oad6znjj)" height="36.2969" rx="4" ry="4" style="stroke: #A80036; stroke-width: 1.5;" width="59" x="394.5" y="544"/><text fill="#000000" font-family="sans-serif" font-size="14" lengthAdjust="spacingAndGlyphs" textLength="39" x="404.5" y="566.9951">CPO5</text><!--entity Hub--><rect fill="#FEFECE" filter="url(#f18vu5oad6znjj)" height="36.2969" rx="4" ry="4" style="stroke: #A80036; stroke-width: 1.5;" width="48" x="234" y="434"/><text fill="#000000" font-family="sans-serif" font-size="14" lengthAdjust="spacingAndGlyphs" textLength="28" x="244" y="456.9951">Hub</text><!--link MSP1 to Hub--><path d="M97.9762,226.0861 C98.052,226.1558 98.1282,226.2259 98.2048,226.2963 C98.358,226.4372 98.5128,226.5797 98.6691,226.7238 C98.9818,227.0118 99.3006,227.3061 99.6255,227.6065 C100.2751,228.2073 100.9488,228.8324 101.6447,229.4806 C103.0364,230.7772 104.5173,232.1665 106.0737,233.6396 C109.1866,236.5859 112.602,239.8673 116.2122,243.4121 C130.6529,257.5915 148.211,275.9855 162,294 C198.185,341.274 231.939,403.26 247.692,433.624 " fill="none" id="MSP1-Hub" style="stroke: #A80036; stroke-width: 1.0;"/><text fill="#000000" font-family="sans-serif" font-size="13" lengthAdjust="spacingAndGlyphs" textLength="30" x="171.5" y="301.0669">OCPI</text><!--link MSP2 to Hub--><path d="M146.086,452 C176.1722,452 211.409,452 233.954,452 " fill="none" id="MSP2-Hub" style="stroke: #A80036; stroke-width: 1.0;"/><text fill="#000000" font-family="sans-serif" font-size="13" lengthAdjust="spacingAndGlyphs" textLength="30" x="171.5" y="447.0669">OCPI</text><!--link MSP3 to Hub--><path d="M146.061,604.6256 C146.1814,604.5762 146.3016,604.5267 146.4218,604.4768 C146.6621,604.3772 146.9019,604.2767 147.1414,604.1752 C147.6202,603.9721 148.0973,603.7653 148.5724,603.5546 C149.5225,603.1332 150.4646,602.6963 151.3969,602.2434 C155.1261,600.4315 158.6985,598.3625 162,596 C185.687,579.0498 228.219,504.733 247.287,470.004 " fill="none" id="MSP3-Hub" style="stroke: #A80036; stroke-width: 1.0;"/><text fill="#000000" font-family="sans-serif" font-size="13" lengthAdjust="spacingAndGlyphs" textLength="30" x="171.5" y="538.0669">OCPI</text><!--link Hub to CPOP1--><path d="M268.458,433.737 C284.427,403.536 318.483,341.778 354,294 C367.184,276.2655 383.7848,257.8803 397.399,243.6355 C400.8026,240.0743 404.0195,236.7719 406.9497,233.8031 C408.4148,232.3188 409.8082,230.9178 411.1174,229.6096 C411.7721,228.9555 412.4056,228.3246 413.0166,227.718 C413.3221,227.4148 413.6219,227.1176 413.9159,226.8266 C414.0629,226.6812 414.2084,226.5373 414.3524,226.3949 C414.4245,226.3237 414.4961,226.253 414.5674,226.1826 " fill="none" id="Hub-CPOP1" style="stroke: #A80036; stroke-width: 1.0;"/><text fill="#000000" font-family="sans-serif" font-size="13" lengthAdjust="spacingAndGlyphs" textLength="30" x="313.5" y="302.0669">OCPI</text><!--link Hub to CPOP2--><path d="M282.149,452 C304.3995,452 338.868,452 368.1374,452 C368.5947,452 369.0508,452 369.5055,452 " fill="none" id="Hub-CPOP2" style="stroke: #A80036; stroke-width: 1.0;"/><text fill="#000000" font-family="sans-serif" font-size="13" lengthAdjust="spacingAndGlyphs" textLength="30" x="313.5" y="447.0669">OCPI</text><!--link Hub to CPOP3--><path d="M268.881,470.244 C288.058,505.034 330.494,578.9275 354,596 C357.1165,598.2635 360.49,600.2574 364.0126,602.0139 C365.7739,602.8921 367.5725,603.711 369.3948,604.4744 C369.5087,604.5222 369.6227,604.5697 369.7368,604.617 " fill="none" id="Hub-CPOP3" style="stroke: #A80036; stroke-width: 1.0;"/><text fill="#000000" font-family="sans-serif" font-size="13" lengthAdjust="spacingAndGlyphs" textLength="30" x="313.5" y="538.0669">OCPI</text><!--link MSP1 to CPOP1--><path d="M147.113,218 C147.6139,218 148.1171,218 148.6225,218 C150.6444,218 152.7028,218 154.7952,218 C158.98,218 163.301,218 167.7386,218 C176.6138,218 185.9557,218 195.6087,218 C214.9147,218 235.4651,218 256.0152,218 C297.1154,218 338.2143,218 369.3544,218 " fill="none" id="MSP1-CPOP1" style="stroke: #A80036; stroke-width: 1.0;"/><!--link MSP3 to CPOP3--><path d="M147.113,615 C147.6139,615 148.1171,615 148.6225,615 C150.6444,615 152.7028,615 154.7952,615 C158.98,615 163.301,615 167.7386,615 C176.6138,615 185.9557,615 195.6087,615 C214.9147,615 235.4651,615 256.0152,615 C297.1154,615 338.2143,615 369.3544,615 " fill="none" id="MSP3-CPOP3" style="stroke: #A80036; stroke-width: 1.0;"/></g></svg>