<?xml version="1.0" encoding="UTF-8" standalone="no"?><svg xmlns="http://www.w3.org/2000/svg" xmlns:xlink="http://www.w3.org/1999/xlink" contentScriptType="application/ecmascript" contentStyleType="text/css" height="320px" preserveAspectRatio="none" style="width:617px;height:320px;" version="1.1" viewBox="0 0 617 320" width="617px" zoomAndPan="magnify"><defs><filter height="300%" id="fmwma03bu4mcb" width="300%" x="-1" y="-1"><feGaussianBlur result="blurOut" stdDeviation="2.0"/><feColorMatrix in="blurOut" result="blurOut2" type="matrix" values="0 0 0 0 0 0 0 0 0 0 0 0 0 0 0 0 0 0 .4 0"/><feOffset dx="4.0" dy="4.0" in="blurOut2" result="blurOut3"/><feBlend in="SourceGraphic" in2="blurOut3" mode="normal"/></filter></defs><g><!--cluster MSPP1--><rect fill="#FFFFFF" filter="url(#fmwma03bu4mcb)" height="194" rx="4" ry="4" style="stroke: #000000; stroke-width: 1.5;" width="116" x="30" y="94"/><text fill="#000000" font-family="sans-serif" font-size="14" font-weight="bold" lengthAdjust="spacingAndGlyphs" textLength="84" x="46" y="108.9951">PLATFORM</text><!--cluster CPOP1--><rect fill="#FFFFFF" filter="url(#fmwma03bu4mcb)" height="194" rx="4" ry="4" style="stroke: #000000; stroke-width: 1.5;" width="108" x="186" y="94"/><text fill="#000000" font-family="sans-serif" font-size="14" font-weight="bold" lengthAdjust="spacingAndGlyphs" textLength="84" x="198" y="108.9951">PLATFORM</text><!--cluster CPOMSP1--><rect fill="#FFFFFF" filter="url(#fmwma03bu4mcb)" height="194" rx="4" ry="4" style="stroke: #000000; stroke-width: 1.5;" width="116" x="334" y="32"/><text fill="#000000" font-family="sans-serif" font-size="14" font-weight="bold" lengthAdjust="spacingAndGlyphs" textLength="84" x="350" y="46.9951">PLATFORM</text><!--cluster CPOMSP2--><rect fill="#FFFFFF" filter="url(#fmwma03bu4mcb)" height="194" rx="4" ry="4" style="stroke: #000000; stroke-width: 1.5;" width="116" x="490" y="85"/><text fill="#000000" font-family="sans-serif" font-size="14" font-weight="bold" lengthAdjust="spacingAndGlyphs" textLength="84" x="506" y="99.9951">PLATFORM</text><!--entity eMSP1--><rect fill="#FEFECE" filter="url(#fmwma03bu4mcb)" height="36.2969" rx="4" ry="4" style="stroke: #A80036; stroke-width: 1.5;" width="68" x="54" y="138"/><text fill="#000000" font-family="sans-serif" font-size="14" lengthAdjust="spacingAndGlyphs" textLength="48" x="64" y="160.9951">eMSP1</text><!--entity eMSP2--><rect fill="#FEFECE" filter="url(#fmwma03bu4mcb)" height="36.2969" rx="4" ry="4" style="stroke: #A80036; stroke-width: 1.5;" width="68" x="54" y="209"/><text fill="#000000" font-family="sans-serif" font-size="14" lengthAdjust="spacingAndGlyphs" textLength="48" x="64" y="231.9951">eMSP2</text><!--entity CPO1--><rect fill="#FEFECE" filter="url(#fmwma03bu4mcb)" height="36.2969" rx="4" ry="4" style="stroke: #A80036; stroke-width: 1.5;" width="59" x="210.5" y="138"/><text fill="#000000" font-family="sans-serif" font-size="14" lengthAdjust="spacingAndGlyphs" textLength="39" x="220.5" y="160.9951">CPO1</text><!--entity CPO2--><rect fill="#FEFECE" filter="url(#fmwma03bu4mcb)" height="36.2969" rx="4" ry="4" style="stroke: #A80036; stroke-width: 1.5;" width="59" x="210.5" y="209"/><text fill="#000000" font-family="sans-serif" font-size="14" lengthAdjust="spacingAndGlyphs" textLength="39" x="220.5" y="231.9951">CPO2</text><!--entity eMSP3--><rect fill="#FEFECE" filter="url(#fmwma03bu4mcb)" height="36.2969" rx="4" ry="4" style="stroke: #A80036; stroke-width: 1.5;" width="68" x="358" y="76"/><text fill="#000000" font-family="sans-serif" font-size="14" lengthAdjust="spacingAndGlyphs" textLength="48" x="368" y="98.9951">eMSP3</text><!--entity CPO3--><rect fill="#FEFECE" filter="url(#fmwma03bu4mcb)" height="36.2969" rx="4" ry="4" style="stroke: #A80036; stroke-width: 1.5;" width="59" x="362.5" y="147"/><text fill="#000000" font-family="sans-serif" font-size="14" lengthAdjust="spacingAndGlyphs" textLength="39" x="372.5" y="169.9951">CPO3</text><!--entity eMSP4--><rect fill="#FEFECE" filter="url(#fmwma03bu4mcb)" height="36.2969" rx="4" ry="4" style="stroke: #A80036; stroke-width: 1.5;" width="68" x="514" y="129"/><text fill="#000000" font-family="sans-serif" font-size="14" lengthAdjust="spacingAndGlyphs" textLength="48" x="524" y="151.9951">eMSP4</text><!--entity CPO4--><rect fill="#FEFECE" filter="url(#fmwma03bu4mcb)" height="36.2969" rx="4" ry="4" style="stroke: #A80036; stroke-width: 1.5;" width="59" x="518.5" y="200"/><text fill="#000000" font-family="sans-serif" font-size="14" lengthAdjust="spacingAndGlyphs" textLength="39" x="528.5" y="222.9951">CPO4</text><!--link MSPP1 to CPOP1--><path d="M146.2926,280 C146.5694,280 146.8464,280 147.1238,280 C148.2334,280 149.3482,280 150.4672,280 C154.943,280 159.4853,280 164.0274,280 C168.5696,280 173.1116,280 177.5869,280 C179.8245,280 182.0454,280 184.2414,280 C184.7903,280 185.3377,280 185.8835,280 " fill="none" id="MSPP1-CPOP1" style="stroke: #A80036; stroke-width: 1.0;"/><!--link MSPP1 to CPOMSP1--><path d="M146.194,272.9549 C146.3082,272.9006 146.4222,272.846 146.536,272.791 C146.9912,272.571 147.4431,272.3452 147.8914,272.1135 C149.6848,271.187 151.4211,270.1665 153.0823,269.0433 C156.4045,266.7968 159.4258,264.1392 162,261 C171.809,249.0377 158.751,132.62 170,122 C215.244,79.285 263.785,80.338 310,122 C322.778,133.519 306.788,185.952 318,199 C320.6458,202.0791 323.7212,204.6912 327.0835,206.904 C328.7646,208.0105 330.5174,209.0171 332.3241,209.9325 C332.7758,210.1613 333.2308,210.3845 333.6889,210.602 " fill="none" id="MSPP1-CPOMSP1" style="stroke: #A80036; stroke-width: 1.0;"/><!--link MSPP1 to CPOMSP2--><path d="M122.1205,288.059 C122.2473,288.0864 122.3744,288.1139 122.5016,288.1413 C122.7561,288.1962 123.0115,288.2511 123.2676,288.306 C125.317,288.7453 127.4186,289.1852 129.561,289.621 C133.8456,290.4926 138.2928,291.3477 142.8097,292.1485 C151.8433,293.7502 161.155,295.1348 170,296 C301.021,308.8165 335.313,300.8606 466,285 C474.7835,283.934 484.0635,282.5632 493.0843,281.0977 C495.3395,280.7313 497.5785,280.359 499.7895,279.9841 C500.895,279.7967 501.9935,279.6086 503.0836,279.4202 C503.6286,279.326 504.1715,279.2318 504.7121,279.1375 C504.8472,279.114 504.9822,279.0904 505.1171,279.0668 " fill="none" id="MSPP1-CPOMSP2" style="stroke: #A80036; stroke-width: 1.0;"/><!--link CPOP1 to CPOMSP1--><path d="M294.016,270.4652 C294.1289,270.4168 294.2417,270.3682 294.3544,270.3193 C294.5799,270.2216 294.8048,270.123 295.0294,270.0233 C296.8255,269.2259 298.5916,268.3651 300.3136,267.4359 C303.7574,265.5776 307.0243,263.4456 310,261 C316.142,255.952 312.079,250.3061 318,245 C324.239,239.4087 331.7378,234.9419 339.5203,231.3831 C343.4115,229.6036 347.3736,228.0511 351.2847,226.6985 C351.7735,226.5295 352.2616,226.3635 352.7487,226.2006 C352.8704,226.1599 352.9921,226.1194 353.1137,226.079 " fill="none" id="CPOP1-CPOMSP1" style="stroke: #A80036; stroke-width: 1.0;"/><!--link CPOP1 to CPOMSP2--><path d="M294.2414,278.4341 C294.7003,278.4206 295.1613,278.407 295.6244,278.3934 C297.4769,278.3389 299.3627,278.2835 301.2797,278.2271 C305.1136,278.1143 309.0723,277.9979 313.1379,277.8783 C321.2691,277.6392 329.8278,277.3874 338.6716,277.1273 C356.3591,276.6071 375.1867,276.0533 394.014,275.4996 C412.8413,274.9458 431.6683,274.3921 449.3547,273.8719 C458.1979,273.6118 466.756,273.3601 474.8863,273.121 C478.9514,273.0014 482.9097,272.885 486.7432,272.7722 C487.7015,272.7441 488.6521,272.7161 489.5946,272.6884 " fill="none" id="CPOP1-CPOMSP2" style="stroke: #A80036; stroke-width: 1.0;"/><!--link CPOMSP1 to CPOMSP2--><path d="M422.0981,226.0631 C422.2124,226.1003 422.327,226.1376 422.4417,226.175 C423.3593,226.4744 424.2882,226.7818 425.2268,227.0973 C427.1039,227.7282 429.0196,228.3913 430.9613,229.0863 C434.8449,230.4764 438.8325,231.9942 442.8233,233.638 C450.8049,236.9257 458.7995,240.7175 466,245 C470.061,247.415 469.824,249.7902 474,252 C477.5883,253.8989 481.3779,255.6165 485.2676,257.1689 C486.24,257.557 487.2187,257.9347 488.2021,258.3024 C488.6937,258.4863 489.1866,258.6676 489.6804,258.8464 " fill="none" id="CPOMSP1-CPOMSP2" style="stroke: #A80036; stroke-width: 1.0;"/></g></svg>