<?xml version="1.0" encoding="UTF-8" standalone="no"?><svg xmlns="http://www.w3.org/2000/svg" xmlns:xlink="http://www.w3.org/1999/xlink" contentScriptType="application/ecmascript" contentStyleType="text/css" height="213px" preserveAspectRatio="none" style="width:685px;height:213px;" version="1.1" viewBox="0 0 685 213" width="685px" zoomAndPan="magnify"><defs><filter height="300%" id="fbncuf5312izx" width="300%" x="-1" y="-1"><feGaussianBlur result="blurOut" stdDeviation="2.0"/><feColorMatrix in="blurOut" result="blurOut2" type="matrix" values="0 0 0 0 0 0 0 0 0 0 0 0 0 0 0 0 0 0 .4 0"/><feOffset dx="4.0" dy="4.0" in="blurOut2" result="blurOut3"/><feBlend in="SourceGraphic" in2="blurOut3" mode="normal"/></filter></defs><g><rect fill="#FFFFFF" filter="url(#fbncuf5312izx)" height="60.2656" style="stroke: #A80036; stroke-width: 1.0;" width="10" x="56.5" y="64.5938"/><rect fill="#FFFFFF" filter="url(#fbncuf5312izx)" height="58.2656" style="stroke: #A80036; stroke-width: 1.0;" width="10" x="230.5" y="124.8594"/><rect fill="#FFFFFF" filter="url(#fbncuf5312izx)" height="14" style="stroke: #A80036; stroke-width: 1.0;" width="10" x="615.5" y="169.125"/><line style="stroke: #A80036; stroke-width: 1.0; stroke-dasharray: 5.0,5.0;" x1="61" x2="61" y1="54.5938" y2="201.125"/><line style="stroke: #A80036; stroke-width: 1.0; stroke-dasharray: 5.0,5.0;" x1="235.5" x2="235.5" y1="54.5938" y2="201.125"/><line style="stroke: #A80036; stroke-width: 1.0; stroke-dasharray: 5.0,5.0;" x1="620.5" x2="620.5" y1="54.5938" y2="201.125"/><rect fill="#FEFECE" filter="url(#fbncuf5312izx)" height="30.2969" style="stroke: #A80036; stroke-width: 1.5;" width="103" x="8" y="19.2969"/><text fill="#000000" font-family="sans-serif" font-size="14" lengthAdjust="spacingAndGlyphs" textLength="89" x="15" y="39.292">Charge Point</text><rect fill="#FEFECE" filter="url(#fbncuf5312izx)" height="46.5938" style="stroke: #A80036; stroke-width: 1.5;" width="74" x="196.5" y="3"/><text fill="#000000" font-family="sans-serif" font-size="14" lengthAdjust="spacingAndGlyphs" textLength="30" x="218.5" y="22.9951">CPO</text><text fill="#000000" font-family="sans-serif" font-size="14" lengthAdjust="spacingAndGlyphs" textLength="60" x="203.5" y="39.292">Receiver</text><rect fill="#FEFECE" filter="url(#fbncuf5312izx)" height="46.5938" style="stroke: #A80036; stroke-width: 1.5;" width="112" x="562.5" y="3"/><text fill="#000000" font-family="sans-serif" font-size="14" lengthAdjust="spacingAndGlyphs" textLength="50" x="593.5" y="22.9951">Sender</text><text fill="#000000" font-family="sans-serif" font-size="14" lengthAdjust="spacingAndGlyphs" textLength="98" x="569.5" y="39.292">eMSP or SCSP</text><rect fill="#FFFFFF" filter="url(#fbncuf5312izx)" height="60.2656" style="stroke: #A80036; stroke-width: 1.0;" width="10" x="56.5" y="64.5938"/><rect fill="#FFFFFF" filter="url(#fbncuf5312izx)" height="58.2656" style="stroke: #A80036; stroke-width: 1.0;" width="10" x="230.5" y="124.8594"/><rect fill="#FFFFFF" filter="url(#fbncuf5312izx)" height="14" style="stroke: #A80036; stroke-width: 1.0;" width="10" x="615.5" y="169.125"/><path d="M8,69.5938 L8,94.5938 L673,94.5938 L673,79.5938 L663,69.5938 L8,69.5938 " fill="#FBFB77" filter="url(#fbncuf5312izx)" style="stroke: #A80036; stroke-width: 1.0;"/><path d="M663,69.5938 L663,79.5938 L673,79.5938 L663,69.5938 " fill="#FBFB77" style="stroke: #A80036; stroke-width: 1.0;"/><text fill="#000000" font-family="sans-serif" font-size="13" lengthAdjust="spacingAndGlyphs" textLength="178" x="245.25" y="86.6606">Ongoing Session with id=15</text><polygon fill="#A80036" points="218.5,120.8594,228.5,124.8594,218.5,128.8594,222.5,124.8594" style="stroke: #A80036; stroke-width: 1.0;"/><line style="stroke: #A80036; stroke-width: 1.0;" x1="61.5" x2="224.5" y1="124.8594" y2="124.8594"/><text fill="#000000" font-family="sans-serif" font-size="13" lengthAdjust="spacingAndGlyphs" textLength="145" x="68.5" y="119.7935">update ChargingProfile</text><polygon fill="#A80036" points="603.5,165.125,613.5,169.125,603.5,173.125,607.5,169.125" style="stroke: #A80036; stroke-width: 1.0;"/><line style="stroke: #A80036; stroke-width: 1.0;" x1="240.5" x2="609.5" y1="169.125" y2="169.125"/><text fill="#000000" font-family="sans-serif" font-size="13" lengthAdjust="spacingAndGlyphs" textLength="356" x="247.5" y="148.9263">PUT https://www.server.com/ocpi/2.2/chargingprofiles/15</text><text fill="#000000" font-family="sans-serif" font-size="13" lengthAdjust="spacingAndGlyphs" textLength="145" x="279.5" y="164.0591">ActiveChargingProfile()</text><polygon fill="#A80036" points="246.5,179.125,236.5,183.125,246.5,187.125,242.5,183.125" style="stroke: #A80036; stroke-width: 1.0;"/><line style="stroke: #A80036; stroke-width: 1.0; stroke-dasharray: 2.0,2.0;" x1="240.5" x2="619.5" y1="183.125" y2="183.125"/></g></svg>