<?xml version="1.0" encoding="UTF-8" standalone="no"?><svg xmlns="http://www.w3.org/2000/svg" xmlns:xlink="http://www.w3.org/1999/xlink" contentScriptType="application/ecmascript" contentStyleType="text/css" height="510px" preserveAspectRatio="none" style="width:768px;height:510px;" version="1.1" viewBox="0 0 768 510" width="768px" zoomAndPan="magnify"><defs><filter height="300%" id="f5mk4i7pb31au" width="300%" x="-1" y="-1"><feGaussianBlur result="blurOut" stdDeviation="2.0"/><feColorMatrix in="blurOut" result="blurOut2" type="matrix" values="0 0 0 0 0 0 0 0 0 0 0 0 0 0 0 0 0 0 .4 0"/><feOffset dx="4.0" dy="4.0" in="blurOut2" result="blurOut3"/><feBlend in="SourceGraphic" in2="blurOut3" mode="normal"/></filter></defs><g><rect fill="#FFFFFF" filter="url(#f5mk4i7pb31au)" height="163.9297" style="stroke: #A80036; stroke-width: 1.0;" width="10" x="42" y="97.1875"/><rect fill="#FFFFFF" filter="url(#f5mk4i7pb31au)" height="72.2656" style="stroke: #A80036; stroke-width: 1.0;" width="10" x="42" y="407.9141"/><rect fill="#FFFFFF" filter="url(#f5mk4i7pb31au)" height="117.6641" style="stroke: #A80036; stroke-width: 1.0;" width="10" x="419" y="216.8516"/><rect fill="#FFFFFF" filter="url(#f5mk4i7pb31au)" height="58.2656" style="stroke: #A80036; stroke-width: 1.0;" width="10" x="419" y="363.6484"/><rect fill="#FFFFFF" filter="url(#f5mk4i7pb31au)" height="29.1328" style="stroke: #A80036; stroke-width: 1.0;" width="10" x="608" y="334.5156"/><rect fill="#FFFFFF" filter="url(#f5mk4i7pb31au)" height="316.5938" style="stroke: #A80036; stroke-width: 1.0;" width="10" x="699" y="172.5859"/><rect fill="#FFFFFF" filter="url(#f5mk4i7pb31au)" height="14" style="stroke: #A80036; stroke-width: 1.0;" width="10" x="704" y="466.1797"/><line style="stroke: #A80036; stroke-width: 1.0; stroke-dasharray: 5.0,5.0;" x1="47" x2="47" y1="87.1875" y2="498.1797"/><line style="stroke: #A80036; stroke-width: 1.0; stroke-dasharray: 5.0,5.0;" x1="424" x2="424" y1="87.1875" y2="498.1797"/><line style="stroke: #A80036; stroke-width: 1.0; stroke-dasharray: 5.0,5.0;" x1="612.5" x2="612.5" y1="87.1875" y2="498.1797"/><line style="stroke: #A80036; stroke-width: 1.0; stroke-dasharray: 5.0,5.0;" x1="703.5" x2="703.5" y1="87.1875" y2="498.1797"/><rect fill="#FEFECE" filter="url(#f5mk4i7pb31au)" height="79.1875" style="stroke: #A80036; stroke-width: 1.5;" width="74" x="8" y="3"/><text fill="#000000" font-family="sans-serif" font-size="14" lengthAdjust="spacingAndGlyphs" textLength="39" x="25.5" y="22.9951">eMSP</text><text fill="#000000" font-family="sans-serif" font-size="14" lengthAdjust="spacingAndGlyphs" textLength="50" x="20" y="39.292">Sender</text><text fill="#000000" font-family="sans-serif" font-size="14" lengthAdjust="spacingAndGlyphs" textLength="12" x="39" y="55.5889">&amp;</text><text fill="#000000" font-family="sans-serif" font-size="14" lengthAdjust="spacingAndGlyphs" textLength="60" x="15" y="71.8857">Receiver</text><rect fill="#FEFECE" filter="url(#f5mk4i7pb31au)" height="46.5938" style="stroke: #A80036; stroke-width: 1.5;" width="74" x="385" y="35.5938"/><text fill="#000000" font-family="sans-serif" font-size="14" lengthAdjust="spacingAndGlyphs" textLength="30" x="407" y="55.5889">CPO</text><text fill="#000000" font-family="sans-serif" font-size="14" lengthAdjust="spacingAndGlyphs" textLength="60" x="392" y="71.8857">Receiver</text><rect fill="#FEFECE" filter="url(#f5mk4i7pb31au)" height="30.2969" style="stroke: #A80036; stroke-width: 1.5;" width="103" x="559.5" y="51.8906"/><text fill="#000000" font-family="sans-serif" font-size="14" lengthAdjust="spacingAndGlyphs" textLength="89" x="566.5" y="71.8857">Charge Point</text><rect fill="#FEFECE" filter="url(#f5mk4i7pb31au)" height="30.2969" style="stroke: #A80036; stroke-width: 1.5;" width="51" x="676.5" y="51.8906"/><text fill="#000000" font-family="sans-serif" font-size="14" lengthAdjust="spacingAndGlyphs" textLength="37" x="683.5" y="71.8857">SCSP</text><rect fill="#FFFFFF" filter="url(#f5mk4i7pb31au)" height="163.9297" style="stroke: #A80036; stroke-width: 1.0;" width="10" x="42" y="97.1875"/><rect fill="#FFFFFF" filter="url(#f5mk4i7pb31au)" height="72.2656" style="stroke: #A80036; stroke-width: 1.0;" width="10" x="42" y="407.9141"/><rect fill="#FFFFFF" filter="url(#f5mk4i7pb31au)" height="117.6641" style="stroke: #A80036; stroke-width: 1.0;" width="10" x="419" y="216.8516"/><rect fill="#FFFFFF" filter="url(#f5mk4i7pb31au)" height="58.2656" style="stroke: #A80036; stroke-width: 1.0;" width="10" x="419" y="363.6484"/><rect fill="#FFFFFF" filter="url(#f5mk4i7pb31au)" height="29.1328" style="stroke: #A80036; stroke-width: 1.0;" width="10" x="608" y="334.5156"/><rect fill="#FFFFFF" filter="url(#f5mk4i7pb31au)" height="316.5938" style="stroke: #A80036; stroke-width: 1.0;" width="10" x="699" y="172.5859"/><rect fill="#FFFFFF" filter="url(#f5mk4i7pb31au)" height="14" style="stroke: #A80036; stroke-width: 1.0;" width="10" x="704" y="466.1797"/><path d="M557,102.1875 L557,127.1875 L756,127.1875 L756,112.1875 L746,102.1875 L557,102.1875 " fill="#FBFB77" filter="url(#f5mk4i7pb31au)" style="stroke: #A80036; stroke-width: 1.0;"/><path d="M746,102.1875 L746,112.1875 L756,112.1875 L746,102.1875 " fill="#FBFB77" style="stroke: #A80036; stroke-width: 1.0;"/><text fill="#000000" font-family="sans-serif" font-size="13" lengthAdjust="spacingAndGlyphs" textLength="178" x="563" y="119.2544">Ongoing Session with id=15</text><polygon fill="#A80036" points="63,168.5859,53,172.5859,63,176.5859,59,172.5859" style="stroke: #A80036; stroke-width: 1.0;"/><line style="stroke: #A80036; stroke-width: 1.0;" x1="57" x2="698" y1="172.5859" y2="172.5859"/><text fill="#000000" font-family="sans-serif" font-size="13" lengthAdjust="spacingAndGlyphs" textLength="348" x="69" y="152.3872">DELETE https://server.com/ocpi/2.2/chargingprofiles/15</text><text fill="#000000" font-family="sans-serif" font-size="13" lengthAdjust="spacingAndGlyphs" textLength="250" x="153" y="167.52">?response_url=https://scsp.com/12345</text><polygon fill="#A80036" points="407,212.8516,417,216.8516,407,220.8516,411,216.8516" style="stroke: #A80036; stroke-width: 1.0;"/><line style="stroke: #A80036; stroke-width: 1.0;" x1="52" x2="413" y1="216.8516" y2="216.8516"/><text fill="#000000" font-family="sans-serif" font-size="13" lengthAdjust="spacingAndGlyphs" textLength="348" x="59" y="196.6528">DELETE https://server.com/ocpi/2.2/chargingprofiles/15</text><text fill="#000000" font-family="sans-serif" font-size="13" lengthAdjust="spacingAndGlyphs" textLength="259" x="143" y="211.7856">?response_url=https://emsp.com/789AB</text><polygon fill="#A80036" points="58,257.1172,48,261.1172,58,265.1172,54,261.1172" style="stroke: #A80036; stroke-width: 1.0;"/><line style="stroke: #A80036; stroke-width: 1.0; stroke-dasharray: 2.0,2.0;" x1="52" x2="418" y1="261.1172" y2="261.1172"/><text fill="#000000" font-family="sans-serif" font-size="13" lengthAdjust="spacingAndGlyphs" textLength="170" x="64" y="240.9185">status_code = 1000, data:</text><text fill="#000000" font-family="sans-serif" font-size="13" lengthAdjust="spacingAndGlyphs" textLength="325" x="76" y="256.0513">{ChargingProfileResponse { result = ACCEPTED }}</text><polygon fill="#A80036" points="687,301.3828,697,305.3828,687,309.3828,691,305.3828" style="stroke: #A80036; stroke-width: 1.0;"/><line style="stroke: #A80036; stroke-width: 1.0; stroke-dasharray: 2.0,2.0;" x1="47" x2="693" y1="305.3828" y2="305.3828"/><text fill="#000000" font-family="sans-serif" font-size="13" lengthAdjust="spacingAndGlyphs" textLength="170" x="54" y="285.1841">status_code = 1000, data:</text><text fill="#000000" font-family="sans-serif" font-size="13" lengthAdjust="spacingAndGlyphs" textLength="325" x="66" y="300.3169">{ChargingProfileResponse { result = ACCEPTED }}</text><polygon fill="#A80036" points="596,330.5156,606,334.5156,596,338.5156,600,334.5156" style="stroke: #A80036; stroke-width: 1.0;"/><line style="stroke: #A80036; stroke-width: 1.0;" x1="424" x2="602" y1="334.5156" y2="334.5156"/><text fill="#000000" font-family="sans-serif" font-size="13" lengthAdjust="spacingAndGlyphs" textLength="154" x="431" y="329.4497">ClearChargingProfile.req</text><polygon fill="#A80036" points="440,359.6484,430,363.6484,440,367.6484,436,363.6484" style="stroke: #A80036; stroke-width: 1.0;"/><line style="stroke: #A80036; stroke-width: 1.0;" x1="434" x2="612" y1="363.6484" y2="363.6484"/><text fill="#000000" font-family="sans-serif" font-size="13" lengthAdjust="spacingAndGlyphs" textLength="160" x="446" y="358.5825">ClearChargingProfile.conf</text><polygon fill="#A80036" points="63,403.9141,53,407.9141,63,411.9141,59,407.9141" style="stroke: #A80036; stroke-width: 1.0;"/><line style="stroke: #A80036; stroke-width: 1.0;" x1="57" x2="418" y1="407.9141" y2="407.9141"/><text fill="#000000" font-family="sans-serif" font-size="13" lengthAdjust="spacingAndGlyphs" textLength="197" x="69" y="387.7153">POST https://emsp.com/789AB</text><text fill="#000000" font-family="sans-serif" font-size="13" lengthAdjust="spacingAndGlyphs" textLength="244" x="69" y="402.8481">ClearProfileResult(result = ACCEPTED)</text><polygon fill="#A80036" points="412,417.9141,422,421.9141,412,425.9141,416,421.9141" style="stroke: #A80036; stroke-width: 1.0;"/><line style="stroke: #A80036; stroke-width: 1.0; stroke-dasharray: 2.0,2.0;" x1="52" x2="418" y1="421.9141" y2="421.9141"/><polygon fill="#A80036" points="692,462.1797,702,466.1797,692,470.1797,696,466.1797" style="stroke: #A80036; stroke-width: 1.0;"/><line style="stroke: #A80036; stroke-width: 1.0;" x1="52" x2="698" y1="466.1797" y2="466.1797"/><text fill="#000000" font-family="sans-serif" font-size="13" lengthAdjust="spacingAndGlyphs" textLength="188" x="59" y="445.981">POST https://scsp.com/12345</text><text fill="#000000" font-family="sans-serif" font-size="13" lengthAdjust="spacingAndGlyphs" textLength="244" x="59" y="461.1138">ClearProfileResult(result = ACCEPTED)</text><polygon fill="#A80036" points="58,476.1797,48,480.1797,58,484.1797,54,480.1797" style="stroke: #A80036; stroke-width: 1.0;"/><line style="stroke: #A80036; stroke-width: 1.0; stroke-dasharray: 2.0,2.0;" x1="52" x2="698" y1="480.1797" y2="480.1797"/></g></svg>