<?xml version="1.0" encoding="UTF-8" standalone="no"?><svg xmlns="http://www.w3.org/2000/svg" xmlns:xlink="http://www.w3.org/1999/xlink" contentScriptType="application/ecmascript" contentStyleType="text/css" height="308px" preserveAspectRatio="none" style="width:347px;height:308px;" version="1.1" viewBox="0 0 347 308" width="347px" zoomAndPan="magnify"><defs><filter height="300%" id="fgvl4yzdm755e" width="300%" x="-1" y="-1"><feGaussianBlur result="blurOut" stdDeviation="2.0"/><feColorMatrix in="blurOut" result="blurOut2" type="matrix" values="0 0 0 0 0 0 0 0 0 0 0 0 0 0 0 0 0 0 .4 0"/><feOffset dx="4.0" dy="4.0" in="blurOut2" result="blurOut3"/><feBlend in="SourceGraphic" in2="blurOut3" mode="normal"/></filter></defs><g><!--cluster MSPPP--><rect fill="#FFFFFF" filter="url(#fgvl4yzdm755e)" height="265" rx="4" ry="4" style="stroke: #000000; stroke-width: 1.5;" width="116" x="30" y="32"/><text fill="#000000" font-family="sans-serif" font-size="14" font-weight="bold" lengthAdjust="spacingAndGlyphs" textLength="84" x="46" y="46.9951">PLATFORM</text><!--cluster CPOPP--><rect fill="#FFFFFF" filter="url(#fgvl4yzdm755e)" height="194" rx="4" ry="4" style="stroke: #000000; stroke-width: 1.5;" width="108" x="228" y="37"/><text fill="#000000" font-family="sans-serif" font-size="14" font-weight="bold" lengthAdjust="spacingAndGlyphs" textLength="84" x="240" y="51.9951">PLATFORM</text><!--entity eMSP1--><rect fill="#FEFECE" filter="url(#fgvl4yzdm755e)" height="36.2969" rx="4" ry="4" style="stroke: #A80036; stroke-width: 1.5;" width="68" x="54" y="95"/><text fill="#000000" font-family="sans-serif" font-size="14" lengthAdjust="spacingAndGlyphs" textLength="48" x="64" y="117.9951">eMSP1</text><!--entity eMSP2--><rect fill="#FEFECE" filter="url(#fgvl4yzdm755e)" height="36.2969" rx="4" ry="4" style="stroke: #A80036; stroke-width: 1.5;" width="68" x="54" y="166"/><text fill="#000000" font-family="sans-serif" font-size="14" lengthAdjust="spacingAndGlyphs" textLength="48" x="64" y="188.9951">eMSP2</text><!--entity eMSP3--><rect fill="#FEFECE" filter="url(#fgvl4yzdm755e)" height="36.2969" rx="4" ry="4" style="stroke: #A80036; stroke-width: 1.5;" width="68" x="54" y="237"/><text fill="#000000" font-family="sans-serif" font-size="14" lengthAdjust="spacingAndGlyphs" textLength="48" x="64" y="259.9951">eMSP3</text><!--entity CPO1--><rect fill="#FEFECE" filter="url(#fgvl4yzdm755e)" height="36.2969" rx="4" ry="4" style="stroke: #A80036; stroke-width: 1.5;" width="59" x="252.5" y="100"/><text fill="#000000" font-family="sans-serif" font-size="14" lengthAdjust="spacingAndGlyphs" textLength="39" x="262.5" y="122.9951">CPO1</text><!--entity CPO2--><rect fill="#FEFECE" filter="url(#fgvl4yzdm755e)" height="36.2969" rx="4" ry="4" style="stroke: #A80036; stroke-width: 1.5;" width="59" x="252.5" y="171"/><text fill="#000000" font-family="sans-serif" font-size="14" lengthAdjust="spacingAndGlyphs" textLength="39" x="262.5" y="193.9951">CPO2</text><!--link MSPPP to CPOPP--><path d="M146.7599,61.5045 C148.1056,61.5395 149.4633,61.5749 150.8317,61.6105 C161.7786,61.8955 173.4072,62.1983 185.0351,62.5011 C196.6631,62.8039 208.2903,63.1067 219.2345,63.3916 C221.9705,63.4629 224.6639,63.533 227.3038,63.6017 C227.4688,63.606 227.6336,63.6103 227.7982,63.6146 " fill="none" id="MSPPP-CPOPP" style="stroke: #A80036; stroke-width: 1.0;"/><text fill="#000000" font-family="sans-serif" font-size="13" lengthAdjust="spacingAndGlyphs" textLength="30" x="171.5" y="58.0669">OCPI</text><!--link eMSP1 to CPO1--><!--link eMSP3 to CPO2--></g></svg>