<?xml version="1.0" encoding="UTF-8" standalone="no"?><svg xmlns="http://www.w3.org/2000/svg" xmlns:xlink="http://www.w3.org/1999/xlink" contentScriptType="application/ecmascript" contentStyleType="text/css" height="291px" preserveAspectRatio="none" style="width:701px;height:291px;" version="1.1" viewBox="0 0 701 291" width="701px" zoomAndPan="magnify"><defs><filter height="300%" id="fym9sfrwb82e1" width="300%" x="-1" y="-1"><feGaussianBlur result="blurOut" stdDeviation="2.0"/><feColorMatrix in="blurOut" result="blurOut2" type="matrix" values="0 0 0 0 0 0 0 0 0 0 0 0 0 0 0 0 0 0 .4 0"/><feOffset dx="4.0" dy="4.0" in="blurOut2" result="blurOut3"/><feBlend in="SourceGraphic" in2="blurOut3" mode="normal"/></filter></defs><g><!--cluster eMSPP1--><rect fill="#FFFFFF" filter="url(#fym9sfrwb82e1)" height="104" rx="4" ry="4" style="stroke: #000000; stroke-width: 1.5;" width="135" x="30" y="32"/><text fill="#000000" font-family="sans-serif" font-size="14" font-weight="bold" lengthAdjust="spacingAndGlyphs" textLength="84" x="55.5" y="46.9951">PLATFORM</text><!--cluster eMSPP2--><rect fill="#FFFFFF" filter="url(#fym9sfrwb82e1)" height="104" rx="4" ry="4" style="stroke: #000000; stroke-width: 1.5;" width="135" x="380" y="32"/><text fill="#000000" font-family="sans-serif" font-size="14" font-weight="bold" lengthAdjust="spacingAndGlyphs" textLength="84" x="405.5" y="46.9951">PLATFORM</text><!--cluster eMSPP3--><rect fill="#FFFFFF" filter="url(#fym9sfrwb82e1)" height="104" rx="4" ry="4" style="stroke: #000000; stroke-width: 1.5;" width="135" x="205" y="32"/><text fill="#000000" font-family="sans-serif" font-size="14" font-weight="bold" lengthAdjust="spacingAndGlyphs" textLength="84" x="230.5" y="46.9951">PLATFORM</text><!--cluster eMSPP4--><rect fill="#FFFFFF" filter="url(#fym9sfrwb82e1)" height="104" rx="4" ry="4" style="stroke: #000000; stroke-width: 1.5;" width="135" x="555" y="32"/><text fill="#000000" font-family="sans-serif" font-size="14" font-weight="bold" lengthAdjust="spacingAndGlyphs" textLength="84" x="580.5" y="46.9951">PLATFORM</text><!--cluster CPOP1--><rect fill="#FFFFFF" filter="url(#fym9sfrwb82e1)" height="104" rx="4" ry="4" style="stroke: #000000; stroke-width: 1.5;" width="127" x="378" y="176"/><text fill="#000000" font-family="sans-serif" font-size="14" font-weight="bold" lengthAdjust="spacingAndGlyphs" textLength="84" x="399.5" y="190.9951">PLATFORM</text><!--cluster CPOP2--><rect fill="#FFFFFF" filter="url(#fym9sfrwb82e1)" height="104" rx="4" ry="4" style="stroke: #000000; stroke-width: 1.5;" width="127" x="207" y="176"/><text fill="#000000" font-family="sans-serif" font-size="14" font-weight="bold" lengthAdjust="spacingAndGlyphs" textLength="84" x="228.5" y="190.9951">PLATFORM</text><!--cluster CPOP3--><rect fill="#FFFFFF" filter="url(#fym9sfrwb82e1)" height="104" rx="4" ry="4" style="stroke: #000000; stroke-width: 1.5;" width="127" x="551" y="176"/><text fill="#000000" font-family="sans-serif" font-size="14" font-weight="bold" lengthAdjust="spacingAndGlyphs" textLength="84" x="572.5" y="190.9951">PLATFORM</text><!--entity eMSP1--><rect fill="#FEFECE" filter="url(#fym9sfrwb82e1)" height="36.2969" rx="4" ry="4" style="stroke: #A80036; stroke-width: 1.5;" width="68" x="73" y="76"/><text fill="#000000" font-family="sans-serif" font-size="14" lengthAdjust="spacingAndGlyphs" textLength="48" x="83" y="98.9951">eMSP1</text><!--entity eMSP2--><rect fill="#FEFECE" filter="url(#fym9sfrwb82e1)" height="36.2969" rx="4" ry="4" style="stroke: #A80036; stroke-width: 1.5;" width="68" x="423" y="76"/><text fill="#000000" font-family="sans-serif" font-size="14" lengthAdjust="spacingAndGlyphs" textLength="48" x="433" y="98.9951">eMSP2</text><!--entity eMSP3--><rect fill="#FEFECE" filter="url(#fym9sfrwb82e1)" height="36.2969" rx="4" ry="4" style="stroke: #A80036; stroke-width: 1.5;" width="68" x="248" y="76"/><text fill="#000000" font-family="sans-serif" font-size="14" lengthAdjust="spacingAndGlyphs" textLength="48" x="258" y="98.9951">eMSP3</text><!--entity eMSP4--><rect fill="#FEFECE" filter="url(#fym9sfrwb82e1)" height="36.2969" rx="4" ry="4" style="stroke: #A80036; stroke-width: 1.5;" width="68" x="598" y="76"/><text fill="#000000" font-family="sans-serif" font-size="14" lengthAdjust="spacingAndGlyphs" textLength="48" x="608" y="98.9951">eMSP4</text><!--entity CPO1--><rect fill="#FEFECE" filter="url(#fym9sfrwb82e1)" height="36.2969" rx="4" ry="4" style="stroke: #A80036; stroke-width: 1.5;" width="59" x="421.75" y="220"/><text fill="#000000" font-family="sans-serif" font-size="14" lengthAdjust="spacingAndGlyphs" textLength="39" x="431.75" y="242.9951">CPO1</text><!--entity CPO2--><rect fill="#FEFECE" filter="url(#fym9sfrwb82e1)" height="36.2969" rx="4" ry="4" style="stroke: #A80036; stroke-width: 1.5;" width="59" x="250.75" y="220"/><text fill="#000000" font-family="sans-serif" font-size="14" lengthAdjust="spacingAndGlyphs" textLength="39" x="260.75" y="242.9951">CPO2</text><!--entity CPO3--><rect fill="#FEFECE" filter="url(#fym9sfrwb82e1)" height="36.2969" rx="4" ry="4" style="stroke: #A80036; stroke-width: 1.5;" width="59" x="594.75" y="220"/><text fill="#000000" font-family="sans-serif" font-size="14" lengthAdjust="spacingAndGlyphs" textLength="39" x="604.75" y="242.9951">CPO3</text><!--link eMSPP1 to CPOP1--><path d="M44.8733,136.1125 C44.9151,136.205 44.957,136.2973 44.9992,136.3894 C45.0836,136.5738 45.169,136.7577 45.2554,136.941 C48.0198,142.8079 51.8102,148.141 57,152 C80.9953,169.843 299.331,146.477 326,160 C344.743,169.504 359.4058,187.8667 369.5436,204.2764 C372.0781,208.3788 374.3298,212.3591 376.2917,216.0485 C376.7821,216.9709 377.2545,217.875 377.7087,218.7583 C377.7654,218.8688 377.8219,218.9788 377.8781,219.0886 " fill="none" id="eMSPP1-CPOP1" style="stroke: #A80036; stroke-width: 1.0;"/><!--link eMSPP2 to CPOP2--><path d="M379.9442,107.4077 C379.7209,107.724 379.4934,108.0445 379.2616,108.3687 C378.7982,109.0173 378.3182,109.6813 377.8219,110.3589 C375.8366,113.0692 373.5916,115.9963 371.1143,119.0181 C361.205,131.1053 347.5795,144.7065 332,152 C312.211,161.264 250.639,145.838 234,160 C230.7496,162.7666 228.0078,165.9923 225.6991,169.5253 C224.5448,171.2918 223.4987,173.1351 222.5515,175.0363 C222.4331,175.274 222.3162,175.5125 222.2009,175.752 " fill="none" id="eMSPP2-CPOP2" style="stroke: #A80036; stroke-width: 1.0;"/><!--link eMSPP1 to CPOP2--><path d="M47.5097,136.2039 C47.6748,136.583 47.8427,136.9611 48.0135,137.338 C48.355,138.092 48.708,138.8413 49.0728,139.5847 C49.8025,141.0714 50.5796,142.5341 51.407,143.9611 C53.0618,146.8149 54.9181,149.5258 57,152 C82.268,182.0303 120.938,203.0907 153.6963,216.7361 C170.0754,223.5588 184.9766,228.5277 195.9856,231.8373 C198.7379,232.6647 201.2468,233.3884 203.4749,234.0114 C204.5889,234.3229 205.6326,234.6093 206.6014,234.8708 C206.7225,234.9035 206.8425,234.9358 206.9612,234.9677 " fill="none" id="eMSPP1-CPOP2" style="stroke: #A80036; stroke-width: 1.0;"/><!--link eMSPP2 to CPOP1--><path d="M387.4194,136.2323 C387.4124,136.7253 387.4054,137.2208 387.3984,137.7184 C387.3844,138.7137 387.3703,139.7178 387.356,140.7299 C387.2419,148.826 387.1208,157.4263 386.9996,166.0261 C386.9693,168.1761 386.939,170.326 386.9089,172.468 C386.8938,173.539 386.8787,174.608 386.8637,175.6741 " fill="none" id="eMSPP2-CPOP1" style="stroke: #A80036; stroke-width: 1.0;"/><!--link eMSPP2 to CPOP3--><path d="M395.2011,136.126 C395.2848,136.3113 395.3695,136.4961 395.4552,136.6804 C398.1956,142.5786 401.9263,147.9898 407,152 C422.753,164.451 479.291,150.537 497,160 C515.77,170.0305 530.903,188.4096 541.5185,204.6963 C544.1724,208.768 546.5439,212.7089 548.6193,216.3558 C549.1382,217.2676 549.6385,218.1609 550.1202,219.0334 C550.361,219.4696 550.5971,219.9006 550.8286,220.3261 " fill="none" id="eMSPP2-CPOP3" style="stroke: #A80036; stroke-width: 1.0;"/><!--link eMSPP3 to CPOP1--><path d="M220.1882,136.1427 C220.272,136.3279 220.3567,136.5126 220.4424,136.6969 C223.1843,142.5931 226.9188,147.9993 232,152 C248.472,164.969 307.571,150.007 326,160 C344.4735,170.0175 359.128,188.3962 369.3289,204.6859 C371.8791,208.7584 374.151,212.7002 376.1346,216.3482 C376.6305,217.2603 377.1083,218.1539 377.5681,219.0266 C377.683,219.2448 377.7968,219.4617 377.9094,219.6772 " fill="none" id="eMSPP3-CPOP1" style="stroke: #A80036; stroke-width: 1.0;"/><!--link eMSPP3 to CPOP2--><path d="M213.5806,136.2323 C213.5876,136.7253 213.5946,137.2208 213.6016,137.7184 C213.6156,138.7137 213.6297,139.7178 213.644,140.7299 C213.7581,148.826 213.8792,157.4263 214.0004,166.0261 C214.0307,168.1761 214.061,170.326 214.0911,172.468 C214.1062,173.539 214.1213,174.608 214.1363,175.6741 " fill="none" id="eMSPP3-CPOP2" style="stroke: #A80036; stroke-width: 1.0;"/><!--link eMSPP4 to CPOP1--><path d="M554.9501,107.4197 C554.7269,107.7363 554.4995,108.0569 554.2679,108.3815 C553.8047,109.0305 553.3249,109.6951 552.8288,110.3731 C550.8445,113.0854 548.6003,116.0144 546.1236,119.0376 C536.217,131.1305 522.591,144.731 507,152 C486.393,161.607 422.337,145.291 405,160 C401.7453,162.7614 399.0002,165.9831 396.689,169.5131 C395.5334,171.2782 394.4864,173.1203 393.5383,175.0205 C393.4198,175.258 393.3028,175.4965 393.1874,175.7358 " fill="none" id="eMSPP4-CPOP1" style="stroke: #A80036; stroke-width: 1.0;"/><!--link eMSPP4 to CPOP2--><path d="M554.868,107.8495 C554.8121,107.9301 554.7559,108.011 554.6995,108.0922 C554.5867,108.2545 554.4729,108.4178 554.358,108.582 C553.8984,109.239 553.4221,109.9114 552.9295,110.5972 C550.9591,113.3404 548.7279,116.2982 546.2614,119.3439 C536.3953,131.5265 522.764,145.115 507,152 C479.19,164.146 257.614,140.94 234,160 C230.6785,162.6809 227.8828,165.8416 225.5343,169.3266 C224.36,171.0691 223.2976,172.8927 222.3371,174.7779 C222.217,175.0136 222.0985,175.2502 221.9817,175.4877 C221.9232,175.6065 221.8651,175.7255 221.8075,175.8447 " fill="none" id="eMSPP4-CPOP2" style="stroke: #A80036; stroke-width: 1.0;"/><!--link eMSPP4 to CPOP3--><path d="M561.8385,136.2323 C561.8246,136.7253 561.8107,137.2208 561.7967,137.7184 C561.7686,138.7137 561.7403,139.7178 561.7118,140.7299 C561.4838,148.826 561.2415,157.4263 560.9993,166.0261 C560.9387,168.1761 560.8781,170.326 560.8178,172.468 C560.7876,173.539 560.7575,174.608 560.7275,175.6741 " fill="none" id="eMSPP4-CPOP3" style="stroke: #A80036; stroke-width: 1.0;"/></g></svg>