<?xml version="1.0" encoding="UTF-8" standalone="no"?><svg xmlns="http://www.w3.org/2000/svg" xmlns:xlink="http://www.w3.org/1999/xlink" contentScriptType="application/ecmascript" contentStyleType="text/css" height="166px" preserveAspectRatio="none" style="width:332px;height:166px;" version="1.1" viewBox="0 0 332 166" width="332px" zoomAndPan="magnify"><defs><filter height="300%" id="fli3oj92s0rlv" width="300%" x="-1" y="-1"><feGaussianBlur result="blurOut" stdDeviation="2.0"/><feColorMatrix in="blurOut" result="blurOut2" type="matrix" values="0 0 0 0 0 0 0 0 0 0 0 0 0 0 0 0 0 0 .4 0"/><feOffset dx="4.0" dy="4.0" in="blurOut2" result="blurOut3"/><feBlend in="SourceGraphic" in2="blurOut3" mode="normal"/></filter></defs><g><!--cluster eMSPP--><rect fill="#FFFFFF" filter="url(#fli3oj92s0rlv)" height="123" rx="4" ry="4" style="stroke: #000000; stroke-width: 1.5;" width="108" x="30" y="32"/><text fill="#000000" font-family="sans-serif" font-size="14" font-weight="bold" lengthAdjust="spacingAndGlyphs" textLength="84" x="42" y="46.9951">PLATFORM</text><!--cluster CPOP--><rect fill="#FFFFFF" filter="url(#fli3oj92s0rlv)" height="123" rx="4" ry="4" style="stroke: #000000; stroke-width: 1.5;" width="101" x="220" y="32"/><text fill="#000000" font-family="sans-serif" font-size="14" font-weight="bold" lengthAdjust="spacingAndGlyphs" textLength="84" x="228.5" y="46.9951">PLATFORM</text><!--entity eMSP--><rect fill="#FEFECE" filter="url(#fli3oj92s0rlv)" height="36.2969" rx="4" ry="4" style="stroke: #A80036; stroke-width: 1.5;" width="59" x="54.5" y="76"/><text fill="#000000" font-family="sans-serif" font-size="14" lengthAdjust="spacingAndGlyphs" textLength="39" x="64.5" y="98.9951">eMSP</text><!--entity CPO--><rect fill="#FEFECE" filter="url(#fli3oj92s0rlv)" height="36.2969" rx="4" ry="4" style="stroke: #A80036; stroke-width: 1.5;" width="50" x="245" y="76"/><text fill="#000000" font-family="sans-serif" font-size="14" lengthAdjust="spacingAndGlyphs" textLength="30" x="255" y="98.9951">CPO</text><!--link eMSPP to CPOP--><path d="M138.4274,147 C139.0663,147 139.7083,147 140.3531,147 C141.6428,147 142.9439,147 144.2553,147 C154.746,147 165.8901,147 177.0336,147 C188.177,147 199.3197,147 209.8079,147 C212.43,147 215.0111,147 217.5411,147 C218.1736,147 218.8029,147 219.4289,147 C219.5853,147 219.7416,147 219.8977,147 " fill="none" id="eMSPP-CPOP" style="stroke: #A80036; stroke-width: 1.0;"/><text fill="#000000" font-family="sans-serif" font-size="13" lengthAdjust="spacingAndGlyphs" textLength="30" x="163.5" y="142.0669">OCPI</text></g></svg>