<?xml version="1.0" encoding="UTF-8" standalone="no"?><svg xmlns="http://www.w3.org/2000/svg" xmlns:xlink="http://www.w3.org/1999/xlink" contentScriptType="application/ecmascript" contentStyleType="text/css" height="255px" preserveAspectRatio="none" style="width:355px;height:255px;" version="1.1" viewBox="0 0 355 255" width="355px" zoomAndPan="magnify"><defs><filter height="300%" id="f1bjzop427fszh" width="300%" x="-1" y="-1"><feGaussianBlur result="blurOut" stdDeviation="2.0"/><feColorMatrix in="blurOut" result="blurOut2" type="matrix" values="0 0 0 0 0 0 0 0 0 0 0 0 0 0 0 0 0 0 .4 0"/><feOffset dx="4.0" dy="4.0" in="blurOut2" result="blurOut3"/><feBlend in="SourceGraphic" in2="blurOut3" mode="normal"/></filter></defs><g><!--cluster CPOMSP1--><rect fill="#FFFFFF" filter="url(#f1bjzop427fszh)" height="212" rx="4" ry="4" style="stroke: #000000; stroke-width: 1.5;" width="116" x="30" y="32"/><text fill="#000000" font-family="sans-serif" font-size="14" font-weight="bold" lengthAdjust="spacingAndGlyphs" textLength="84" x="46" y="46.9951">PLATFORM</text><!--cluster CPOMSP2--><rect fill="#FFFFFF" filter="url(#f1bjzop427fszh)" height="194" rx="4" ry="4" style="stroke: #000000; stroke-width: 1.5;" width="116" x="228" y="34"/><text fill="#000000" font-family="sans-serif" font-size="14" font-weight="bold" lengthAdjust="spacingAndGlyphs" textLength="84" x="244" y="48.9951">PLATFORM</text><!--entity eMSP1--><rect fill="#FEFECE" filter="url(#f1bjzop427fszh)" height="36.2969" rx="4" ry="4" style="stroke: #A80036; stroke-width: 1.5;" width="68" x="54" y="95"/><text fill="#000000" font-family="sans-serif" font-size="14" lengthAdjust="spacingAndGlyphs" textLength="48" x="64" y="117.9951">eMSP1</text><!--entity CPO1--><rect fill="#FEFECE" filter="url(#f1bjzop427fszh)" height="36.2969" rx="4" ry="4" style="stroke: #A80036; stroke-width: 1.5;" width="59" x="58.5" y="184"/><text fill="#000000" font-family="sans-serif" font-size="14" lengthAdjust="spacingAndGlyphs" textLength="39" x="68.5" y="206.9951">CPO1</text><!--entity eMSP2--><rect fill="#FEFECE" filter="url(#f1bjzop427fszh)" height="36.2969" rx="4" ry="4" style="stroke: #A80036; stroke-width: 1.5;" width="68" x="252" y="97"/><text fill="#000000" font-family="sans-serif" font-size="14" lengthAdjust="spacingAndGlyphs" textLength="48" x="262" y="119.9951">eMSP2</text><!--entity CPO2--><rect fill="#FEFECE" filter="url(#f1bjzop427fszh)" height="36.2969" rx="4" ry="4" style="stroke: #A80036; stroke-width: 1.5;" width="59" x="256.5" y="168"/><text fill="#000000" font-family="sans-serif" font-size="14" lengthAdjust="spacingAndGlyphs" textLength="39" x="266.5" y="190.9951">CPO2</text><!--link CPOMSP1 to CPOMSP2--><path d="M146.9352,60.5911 C147.2771,60.5946 147.6198,60.5981 147.9632,60.6016 C149.337,60.6156 150.723,60.6297 152.1199,60.644 C163.2949,60.7581 175.1657,60.8792 187.0359,61.0004 C198.9061,61.1215 210.7756,61.2427 221.9477,61.3567 C223.3442,61.371 224.7299,61.3851 226.1032,61.3991 C226.4466,61.4026 226.7892,61.4061 227.1309,61.4096 C227.3018,61.4114 227.4725,61.4131 227.643,61.4148 " fill="none" id="CPOMSP1-CPOMSP2" style="stroke: #A80036; stroke-width: 1.0;"/><text fill="#000000" font-family="sans-serif" font-size="13" lengthAdjust="spacingAndGlyphs" textLength="30" x="171.5" y="56.0669">OCPI</text><!--link CPO1 to CPO1--><!--link eMSP1 to eMSP2--></g></svg>