<?xml version="1.0" encoding="UTF-8" standalone="no"?><svg xmlns="http://www.w3.org/2000/svg" xmlns:xlink="http://www.w3.org/1999/xlink" contentScriptType="application/ecmascript" contentStyleType="text/css" height="631px" preserveAspectRatio="none" style="width:533px;height:631px;" version="1.1" viewBox="0 0 533 631" width="533px" zoomAndPan="magnify"><defs><filter height="300%" id="f1ecnlh3q0a57l" width="300%" x="-1" y="-1"><feGaussianBlur result="blurOut" stdDeviation="2.0"/><feColorMatrix in="blurOut" result="blurOut2" type="matrix" values="0 0 0 0 0 0 0 0 0 0 0 0 0 0 0 0 0 0 .4 0"/><feOffset dx="4.0" dy="4.0" in="blurOut2" result="blurOut3"/><feBlend in="SourceGraphic" in2="blurOut3" mode="normal"/></filter></defs><g><!--cluster MSP1--><rect fill="#FFFFFF" filter="url(#f1ecnlh3q0a57l)" height="193" rx="4" ry="4" style="stroke: #000000; stroke-width: 1.5;" width="116" x="30" y="32"/><text fill="#000000" font-family="sans-serif" font-size="14" font-weight="bold" lengthAdjust="spacingAndGlyphs" textLength="84" x="46" y="46.9951">PLATFORM</text><!--cluster MSP2--><rect fill="#FFFFFF" filter="url(#f1ecnlh3q0a57l)" height="193" rx="4" ry="4" style="stroke: #000000; stroke-width: 1.5;" width="116" x="30" y="265"/><text fill="#000000" font-family="sans-serif" font-size="14" font-weight="bold" lengthAdjust="spacingAndGlyphs" textLength="84" x="46" y="279.9951">PLATFORM</text><!--cluster MSP3--><rect fill="#FFFFFF" filter="url(#f1ecnlh3q0a57l)" height="122" rx="4" ry="4" style="stroke: #000000; stroke-width: 1.5;" width="116" x="30" y="498"/><text fill="#000000" font-family="sans-serif" font-size="14" font-weight="bold" lengthAdjust="spacingAndGlyphs" textLength="84" x="46" y="512.9951">PLATFORM</text><!--cluster CPOP1--><rect fill="#FFFFFF" filter="url(#f1ecnlh3q0a57l)" height="193" rx="4" ry="4" style="stroke: #000000; stroke-width: 1.5;" width="116" x="406" y="32"/><text fill="#000000" font-family="sans-serif" font-size="14" font-weight="bold" lengthAdjust="spacingAndGlyphs" textLength="84" x="422" y="46.9951">PLATFORM</text><!--cluster CPOP2--><rect fill="#FFFFFF" filter="url(#f1ecnlh3q0a57l)" height="193" rx="4" ry="4" style="stroke: #000000; stroke-width: 1.5;" width="107" x="410.5" y="265"/><text fill="#000000" font-family="sans-serif" font-size="14" font-weight="bold" lengthAdjust="spacingAndGlyphs" textLength="84" x="422" y="279.9951">PLATFORM</text><!--cluster CPOP3--><rect fill="#FFFFFF" filter="url(#f1ecnlh3q0a57l)" height="122" rx="4" ry="4" style="stroke: #000000; stroke-width: 1.5;" width="107" x="410.5" y="498"/><text fill="#000000" font-family="sans-serif" font-size="14" font-weight="bold" lengthAdjust="spacingAndGlyphs" textLength="84" x="422" y="512.9951">PLATFORM</text><!--cluster HUBPL--><rect fill="#FFFFFF" filter="url(#f1ecnlh3q0a57l)" height="122" rx="4" ry="4" style="stroke: #000000; stroke-width: 1.5;" width="100" x="226" y="336"/><text fill="#000000" font-family="sans-serif" font-size="14" font-weight="bold" lengthAdjust="spacingAndGlyphs" textLength="84" x="234" y="350.9951">PLATFORM</text><!--entity CPO2--><rect fill="#FEFECE" filter="url(#f1ecnlh3q0a57l)" height="36.2969" rx="4" ry="4" style="stroke: #A80036; stroke-width: 1.5;" width="59" x="58.5" y="75"/><text fill="#000000" font-family="sans-serif" font-size="14" lengthAdjust="spacingAndGlyphs" textLength="39" x="68.5" y="97.9951">CPO2</text><!--entity eMSP2--><rect fill="#FEFECE" filter="url(#f1ecnlh3q0a57l)" height="36.2969" rx="4" ry="4" style="stroke: #A80036; stroke-width: 1.5;" width="68" x="54" y="146"/><text fill="#000000" font-family="sans-serif" font-size="14" lengthAdjust="spacingAndGlyphs" textLength="48" x="64" y="168.9951">eMSP2</text><!--entity eMSP3--><rect fill="#FEFECE" filter="url(#f1ecnlh3q0a57l)" height="36.2969" rx="4" ry="4" style="stroke: #A80036; stroke-width: 1.5;" width="68" x="54" y="308"/><text fill="#000000" font-family="sans-serif" font-size="14" lengthAdjust="spacingAndGlyphs" textLength="48" x="64" y="330.9951">eMSP3</text><!--entity eMSP4--><rect fill="#FEFECE" filter="url(#f1ecnlh3q0a57l)" height="36.2969" rx="4" ry="4" style="stroke: #A80036; stroke-width: 1.5;" width="68" x="54" y="379"/><text fill="#000000" font-family="sans-serif" font-size="14" lengthAdjust="spacingAndGlyphs" textLength="48" x="64" y="401.9951">eMSP4</text><!--entity eMSP5--><rect fill="#FEFECE" filter="url(#f1ecnlh3q0a57l)" height="36.2969" rx="4" ry="4" style="stroke: #A80036; stroke-width: 1.5;" width="68" x="54" y="541"/><text fill="#000000" font-family="sans-serif" font-size="14" lengthAdjust="spacingAndGlyphs" textLength="48" x="64" y="563.9951">eMSP5</text><!--entity CPO1--><rect fill="#FEFECE" filter="url(#f1ecnlh3q0a57l)" height="36.2969" rx="4" ry="4" style="stroke: #A80036; stroke-width: 1.5;" width="59" x="434.5" y="75"/><text fill="#000000" font-family="sans-serif" font-size="14" lengthAdjust="spacingAndGlyphs" textLength="39" x="444.5" y="97.9951">CPO1</text><!--entity eMSP1--><rect fill="#FEFECE" filter="url(#f1ecnlh3q0a57l)" height="36.2969" rx="4" ry="4" style="stroke: #A80036; stroke-width: 1.5;" width="68" x="430" y="146"/><text fill="#000000" font-family="sans-serif" font-size="14" lengthAdjust="spacingAndGlyphs" textLength="48" x="440" y="168.9951">eMSP1</text><!--entity CPO3--><rect fill="#FEFECE" filter="url(#f1ecnlh3q0a57l)" height="36.2969" rx="4" ry="4" style="stroke: #A80036; stroke-width: 1.5;" width="59" x="434.5" y="308"/><text fill="#000000" font-family="sans-serif" font-size="14" lengthAdjust="spacingAndGlyphs" textLength="39" x="444.5" y="330.9951">CPO3</text><!--entity CPO4--><rect fill="#FEFECE" filter="url(#f1ecnlh3q0a57l)" height="36.2969" rx="4" ry="4" style="stroke: #A80036; stroke-width: 1.5;" width="59" x="434.5" y="379"/><text fill="#000000" font-family="sans-serif" font-size="14" lengthAdjust="spacingAndGlyphs" textLength="39" x="444.5" y="401.9951">CPO4</text><!--entity CPO5--><rect fill="#FEFECE" filter="url(#f1ecnlh3q0a57l)" height="36.2969" rx="4" ry="4" style="stroke: #A80036; stroke-width: 1.5;" width="59" x="434.5" y="541"/><text fill="#000000" font-family="sans-serif" font-size="14" lengthAdjust="spacingAndGlyphs" textLength="39" x="444.5" y="563.9951">CPO5</text><!--entity Hub--><rect fill="#FEFECE" filter="url(#f1ecnlh3q0a57l)" height="36.2969" rx="4" ry="4" style="stroke: #A80036; stroke-width: 1.5;" width="48" x="252" y="379"/><text fill="#000000" font-family="sans-serif" font-size="14" lengthAdjust="spacingAndGlyphs" textLength="28" x="262" y="401.9951">Hub</text><!--link MSP1 to HUBPL--><path d="M99.392,225.0935 C99.7248,225.3634 100.0639,225.6394 100.4091,225.9213 C101.0995,226.4851 101.8142,227.0726 102.5511,227.6831 C104.025,228.904 105.5879,230.2165 107.2236,231.6137 C110.4952,234.408 114.0582,237.5409 117.7835,240.957 C132.6845,254.6215 150.181,272.8175 162,292 C196.284,347.644 162.687,385.91 210,431 C212.6384,433.5144 215.5909,435.6984 218.7428,437.5952 C220.3188,438.5436 221.9446,439.4202 223.6059,440.2304 C224.0212,440.433 224.4388,440.6314 224.8583,440.8257 C225.0681,440.9229 225.2783,441.019 225.4891,441.1142 C225.5944,441.1618 225.6999,441.2091 225.8055,441.2561 " fill="none" id="MSP1-HUBPL" style="stroke: #A80036; stroke-width: 1.0;"/><text fill="#000000" font-family="sans-serif" font-size="13" lengthAdjust="spacingAndGlyphs" textLength="30" x="171" y="305.0669">OCPI</text><!--link MSP2 to HUBPL--><path d="M146.9188,450 C147.5763,450 148.2365,450 148.8993,450 C159.5042,450 170.7694,450 182.0339,450 C193.2984,450 204.5623,450 215.1644,450 C217.815,450 220.4242,450 222.9817,450 C223.621,450 224.2572,450 224.8899,450 C225.2063,450 225.5218,450 225.8365,450 " fill="none" id="MSP2-HUBPL" style="stroke: #A80036; stroke-width: 1.0;"/><text fill="#000000" font-family="sans-serif" font-size="13" lengthAdjust="spacingAndGlyphs" textLength="30" x="171" y="446.0669">OCPI</text><!--link MSP3 to HUBPL--><path d="M146.1335,601.0551 C146.3762,600.959 146.6186,600.8621 146.8605,600.7643 C147.3445,600.5688 147.827,600.3698 148.3077,600.1674 C149.2692,599.7627 150.2238,599.344 151.1698,598.9111 C154.9539,597.1795 158.6005,595.2192 162,593 C195.385,571.2063 223.2808,536.2243 243.0033,506.3157 C252.8645,491.3614 260.6824,477.6755 266.1216,467.5406 C267.4813,465.0069 268.6924,462.6952 269.7496,460.641 C270.0139,460.1275 270.2686,459.63 270.5136,459.1492 C270.6361,458.9088 270.7561,458.6726 270.8738,458.4406 C270.9326,458.3246 270.9908,458.2097 271.0484,458.0958 " fill="none" id="MSP3-HUBPL" style="stroke: #A80036; stroke-width: 1.0;"/><text fill="#000000" font-family="sans-serif" font-size="13" lengthAdjust="spacingAndGlyphs" textLength="30" x="171" y="557.0669">OCPI</text><!--link HUBPL to CPOP1--><path d="M326.1945,441.2561 C326.3001,441.2091 326.4056,441.1618 326.5109,441.1142 C326.7217,441.019 326.9319,440.9229 327.1417,440.8257 C327.5612,440.6314 327.9788,440.433 328.3941,440.2304 C330.0554,439.4202 331.6812,438.5436 333.2572,437.5952 C336.4091,435.6984 339.3616,433.5144 342,431 C389.313,385.91 355.716,347.644 390,292 C401.819,272.8175 419.3155,254.6215 434.2165,240.957 C437.9418,237.5409 441.5048,234.408 444.7763,231.6137 C446.4121,230.2165 447.975,228.904 449.4489,227.6831 C450.1858,227.0726 450.9005,226.4851 451.5909,225.9213 C451.9361,225.6394 452.2752,225.3634 452.608,225.0935 " fill="none" id="HUBPL-CPOP1" style="stroke: #A80036; stroke-width: 1.0;"/><text fill="#000000" font-family="sans-serif" font-size="13" lengthAdjust="spacingAndGlyphs" textLength="30" x="351" y="305.0669">OCPI</text><!--link HUBPL to CPOP2--><path d="M326.2241,450 C326.5389,450 326.8545,450 327.171,450 C327.804,450 328.4403,450 329.0799,450 C331.6382,450 334.2481,450 336.8993,450 C347.5041,450 358.7693,450 370.0339,450 C381.2984,450 392.5623,450 403.1644,450 C404.4897,450 405.8046,450 407.1079,450 C407.7596,450 408.4083,450 409.054,450 C409.3768,450 409.6989,450 410.0202,450 " fill="none" id="HUBPL-CPOP2" style="stroke: #A80036; stroke-width: 1.0;"/><text fill="#000000" font-family="sans-serif" font-size="13" lengthAdjust="spacingAndGlyphs" textLength="30" x="351" y="446.0669">OCPI</text><!--link HUBPL to CPOP3--><path d="M280.9516,458.0958 C281.0092,458.2097 281.0674,458.3246 281.1262,458.4406 C281.2439,458.6726 281.3639,458.9088 281.4864,459.1492 C281.7314,459.63 281.9861,460.1275 282.2504,460.641 C283.3076,462.6952 284.5187,465.0069 285.8784,467.5406 C291.3176,477.6755 299.1355,491.3614 308.9968,506.3157 C328.7193,536.2243 356.615,571.2063 390,593 C393.3995,595.2192 397.0461,597.1795 400.8302,598.9111 C402.7223,599.7769 404.6487,600.5856 406.5957,601.3408 C407.5692,601.7184 408.5479,602.0827 409.53,602.4341 C409.7756,602.5219 410.0213,602.609 410.2672,602.6952 " fill="none" id="HUBPL-CPOP3" style="stroke: #A80036; stroke-width: 1.0;"/><text fill="#000000" font-family="sans-serif" font-size="13" lengthAdjust="spacingAndGlyphs" textLength="30" x="351" y="557.0669">OCPI</text></g></svg>