<?xml version="1.0" encoding="UTF-8" standalone="no"?><svg xmlns="http://www.w3.org/2000/svg" xmlns:xlink="http://www.w3.org/1999/xlink" contentScriptType="application/ecmascript" contentStyleType="text/css" height="379px" preserveAspectRatio="none" style="width:355px;height:379px;" version="1.1" viewBox="0 0 355 379" width="355px" zoomAndPan="magnify"><defs><filter height="300%" id="fuf7qm4hck23" width="300%" x="-1" y="-1"><feGaussianBlur result="blurOut" stdDeviation="2.0"/><feColorMatrix in="blurOut" result="blurOut2" type="matrix" values="0 0 0 0 0 0 0 0 0 0 0 0 0 0 0 0 0 0 .4 0"/><feOffset dx="4.0" dy="4.0" in="blurOut2" result="blurOut3"/><feBlend in="SourceGraphic" in2="blurOut3" mode="normal"/></filter></defs><g><!--cluster CPOMSP1--><rect fill="#FFFFFF" filter="url(#fuf7qm4hck23)" height="336" rx="4" ry="4" style="stroke: #000000; stroke-width: 1.5;" width="116" x="30" y="32"/><text fill="#000000" font-family="sans-serif" font-size="14" font-weight="bold" lengthAdjust="spacingAndGlyphs" textLength="84" x="46" y="46.9951">PLATFORM</text><!--cluster CPOMSP2--><rect fill="#FFFFFF" filter="url(#fuf7qm4hck23)" height="336" rx="4" ry="4" style="stroke: #000000; stroke-width: 1.5;" width="116" x="228" y="32"/><text fill="#000000" font-family="sans-serif" font-size="14" font-weight="bold" lengthAdjust="spacingAndGlyphs" textLength="84" x="244" y="46.9951">PLATFORM</text><!--entity eMSP1--><rect fill="#FEFECE" filter="url(#fuf7qm4hck23)" height="36.2969" rx="4" ry="4" style="stroke: #A80036; stroke-width: 1.5;" width="68" x="54" y="95"/><text fill="#000000" font-family="sans-serif" font-size="14" lengthAdjust="spacingAndGlyphs" textLength="48" x="64" y="117.9951">eMSP1</text><!--entity eMSP2--><rect fill="#FEFECE" filter="url(#fuf7qm4hck23)" height="36.2969" rx="4" ry="4" style="stroke: #A80036; stroke-width: 1.5;" width="68" x="54" y="166"/><text fill="#000000" font-family="sans-serif" font-size="14" lengthAdjust="spacingAndGlyphs" textLength="48" x="64" y="188.9951">eMSP2</text><!--entity CPO1--><rect fill="#FEFECE" filter="url(#fuf7qm4hck23)" height="36.2969" rx="4" ry="4" style="stroke: #A80036; stroke-width: 1.5;" width="59" x="58.5" y="237"/><text fill="#000000" font-family="sans-serif" font-size="14" lengthAdjust="spacingAndGlyphs" textLength="39" x="68.5" y="259.9951">CPO1</text><!--entity CPO2--><rect fill="#FEFECE" filter="url(#fuf7qm4hck23)" height="36.2969" rx="4" ry="4" style="stroke: #A80036; stroke-width: 1.5;" width="59" x="58.5" y="308"/><text fill="#000000" font-family="sans-serif" font-size="14" lengthAdjust="spacingAndGlyphs" textLength="39" x="68.5" y="330.9951">CPO2</text><!--entity eMSP4--><rect fill="#FEFECE" filter="url(#fuf7qm4hck23)" height="36.2969" rx="4" ry="4" style="stroke: #A80036; stroke-width: 1.5;" width="68" x="252" y="95"/><text fill="#000000" font-family="sans-serif" font-size="14" lengthAdjust="spacingAndGlyphs" textLength="48" x="262" y="117.9951">eMSP4</text><!--entity CPO5--><rect fill="#FEFECE" filter="url(#fuf7qm4hck23)" height="36.2969" rx="4" ry="4" style="stroke: #A80036; stroke-width: 1.5;" width="59" x="256.5" y="166"/><text fill="#000000" font-family="sans-serif" font-size="14" lengthAdjust="spacingAndGlyphs" textLength="39" x="266.5" y="188.9951">CPO5</text><!--entity CPO6--><rect fill="#FEFECE" filter="url(#fuf7qm4hck23)" height="36.2969" rx="4" ry="4" style="stroke: #A80036; stroke-width: 1.5;" width="59" x="256.5" y="237"/><text fill="#000000" font-family="sans-serif" font-size="14" lengthAdjust="spacingAndGlyphs" textLength="39" x="266.5" y="259.9951">CPO6</text><!--entity CPO7--><rect fill="#FEFECE" filter="url(#fuf7qm4hck23)" height="36.2969" rx="4" ry="4" style="stroke: #A80036; stroke-width: 1.5;" width="59" x="256.5" y="308"/><text fill="#000000" font-family="sans-serif" font-size="14" lengthAdjust="spacingAndGlyphs" textLength="39" x="266.5" y="330.9951">CPO7</text><!--link CPOMSP1 to CPOMSP2--><path d="M146.9352,60 C147.2771,60 147.6198,60 147.9632,60 C149.337,60 150.723,60 152.1199,60 C163.2949,60 175.1657,60 187.0359,60 C198.9061,60 210.7756,60 221.9477,60 C223.3442,60 224.7299,60 226.1032,60 C226.4466,60 226.7892,60 227.1309,60 C227.3018,60 227.4725,60 227.643,60 " fill="none" id="CPOMSP1-CPOMSP2" style="stroke: #A80036; stroke-width: 1.0;"/><text fill="#000000" font-family="sans-serif" font-size="13" lengthAdjust="spacingAndGlyphs" textLength="30" x="171.5" y="55.0669">OCPI</text><!--link eMSP1 to eMSP4--><!--link CPO2 to CPO7--></g></svg>