<svg width="389.99999999999994" height="147" xmlns="http://www.w3.org/2000/svg" preserveAspectRatio="none">
 <defs>
  <filter height="300%" id="f1t81q6cawy4qt" width="300%" x="-1" y="-1">
   <feGaussianBlur stdDeviation="2"/>
  </filter>
 </defs>
 <g>
  <title>background</title>
  <rect x="-1" y="-1" width="392" height="149" id="canvas_background" fill="none"/>
 </g>
 <g>
  <title>Layer 1</title>
  <path d="m350.52165,26.06684c-72.25919,27.09577 -189.80637,71.1747 -258.06698,96.77089" fill="none" id="svg_24" stroke=" #A80036"/>
  <path d="m349.22465,25.90767c-44.01519,27.81702 -110.82274,70.03909 -154.73898,97.79396" fill="none" id="svg_23" stroke=" #A80036"/>
  <path d="m143.36705,26.07434c-14.53835,27.62739 -36.56737,69.56163 -51.06545,97.12729" fill="none" id="svg_22" stroke=" #A80036"/>
  <path d="m143.842,26.57433c14.58229,27.43777 36.71637,69.08418 51.26633,96.46063" fill="none" id="svg_21" stroke=" #A80036"/>
  <path d="m245.17534,26.07433c14.77191,27.57999 37.19382,69.44228 51.93299,96.96064" fill="none" id="svg_20" stroke=" #A80036"/>
  <path d="m246.45008,25.57433c-14.5928,28.14888 -36.69739,70.87465 -51.23633,98.96063" fill="none" id="svg_19" stroke=" #A80036"/>
  <path d="m41.7586,26.74101c50.10151,96.43626 -0.71844,-0.46492 50.6044,96.96063" fill="none" id="svg_18" stroke=" #A80036"/>
  <path d="m245.64166,26.90767c-43.72988,27.39035 -110.10456,68.96481 -153.73366,96.29396" fill="none" id="svg_17" stroke=" #A80036"/>
  <path d="m66.94933,39.2616c30.18335,20.94428 78.93782,54.7749 107.37921,74.51026" fill="none" id="svg_16" transform="rotate(-0.14536738395690918 120.63893890379696,76.51673126220598) " stroke=" #A80036"/>
  <path d="m349.45002,26.57434c-14.73526,27.53258 -37.05565,69.3229 -51.73654,96.79395" fill="none" id="svg_25" stroke=" #A80036"/>
  <!--entity eMSP1-->
  <rect fill="#FEFECE" filter="url(#f1t81q6cawy4qt)" height="36.2969" rx="4" ry="4" width="68" x="6" y="8.166667" stroke=" #A80036" id="svg_2"/>
  <text fill="#000000" font-family="sans-serif" font-size="14" x="16" y="31.161767" id="svg_3">eMSP1</text>
  <!--entity eMSP2-->
  <rect fill="#FEFECE" filter="url(#f1t81q6cawy4qt)" height="36.2969" rx="4" ry="4" width="68" x="212" y="8.166667" stroke=" #A80036" id="svg_4"/>
  <text fill="#000000" font-family="sans-serif" font-size="14" x="222" y="31.161767" id="svg_5">eMSP2</text>
  <!--entity eMSP3-->
  <rect fill="#FEFECE" filter="url(#f1t81q6cawy4qt)" height="36.2969" rx="4" ry="4" width="68" x="109" y="7.166667" stroke=" #A80036" id="svg_6"/>
  <text fill="#000000" font-family="sans-serif" font-size="14" x="119" y="31.161767" id="svg_7">eMSP3</text>
  <!--entity eMSP4-->
  <rect fill="#FEFECE" filter="url(#f1t81q6cawy4qt)" height="36.2969" rx="4" ry="4" width="68" x="315" y="8.166667" stroke=" #A80036" id="svg_8"/>
  <text fill="#000000" font-family="sans-serif" font-size="14" x="325" y="31.161767" id="svg_9">eMSP4</text>
  <!--entity CPO1-->
  <rect fill="#FEFECE" filter="url(#f1t81q6cawy4qt)" height="36.2969" rx="4" ry="4" width="59" x="165.583337" y="105.833333" stroke=" #A80036" id="svg_10"/>
  <text fill="#000000" font-family="sans-serif" font-size="14" x="175.583337" y="128.828433" id="svg_11">CPO1</text>
  <!--entity CPO2-->
  <rect fill="#FEFECE" filter="url(#f1t81q6cawy4qt)" height="36.2969" rx="4" ry="4" width="59" x="62.750005" y="105.5" stroke=" #A80036" id="svg_12"/>
  <text fill="#000000" font-family="sans-serif" font-size="14" x="72.750005" y="128.4951" id="svg_13">CPO2</text>
  <!--entity CPO3-->
  <rect fill="#FEFECE" filter="url(#f1t81q6cawy4qt)" height="36.2969" rx="4" ry="4" width="59" x="268.416673" y="105.166666" stroke=" #A80036" id="svg_14"/>
  <text fill="#000000" font-family="sans-serif" font-size="14" x="278.416673" y="128.161766" id="svg_15">CPO3</text>
  <text fill="#000000" font-family="sans-serif" font-size="14" x="28" y="81.161767" id="svg_1">OCPI</text>
  <text fill="#000000" font-family="sans-serif" font-size="14" x="330" y="82.161767" id="svg_26">OCPI</text>
 </g>
</svg>