<?xml version="1.0" encoding="UTF-8" standalone="no"?><svg xmlns="http://www.w3.org/2000/svg" xmlns:xlink="http://www.w3.org/1999/xlink" contentScriptType="application/ecmascript" contentStyleType="text/css" height="631px" preserveAspectRatio="none" style="width:484px;height:631px;" version="1.1" viewBox="0 0 484 631" width="484px" zoomAndPan="magnify"><defs><filter height="300%" id="f18p04wtmb49jg" width="300%" x="-1" y="-1"><feGaussianBlur result="blurOut" stdDeviation="2.0"/><feColorMatrix in="blurOut" result="blurOut2" type="matrix" values="0 0 0 0 0 0 0 0 0 0 0 0 0 0 0 0 0 0 .4 0"/><feOffset dx="4.0" dy="4.0" in="blurOut2" result="blurOut3"/><feBlend in="SourceGraphic" in2="blurOut3" mode="normal"/></filter></defs><g><!--cluster MSP1--><rect fill="#FFFFFF" filter="url(#f18p04wtmb49jg)" height="193" rx="4" ry="4" style="stroke: #000000; stroke-width: 1.5;" width="116" x="30" y="32"/><text fill="#000000" font-family="sans-serif" font-size="14" font-weight="bold" lengthAdjust="spacingAndGlyphs" textLength="84" x="46" y="46.9951">PLATFORM</text><!--cluster MSP2--><rect fill="#FFFFFF" filter="url(#f18p04wtmb49jg)" height="193" rx="4" ry="4" style="stroke: #000000; stroke-width: 1.5;" width="116" x="30" y="265"/><text fill="#000000" font-family="sans-serif" font-size="14" font-weight="bold" lengthAdjust="spacingAndGlyphs" textLength="84" x="46" y="279.9951">PLATFORM</text><!--cluster MSP3--><rect fill="#FFFFFF" filter="url(#f18p04wtmb49jg)" height="122" rx="4" ry="4" style="stroke: #000000; stroke-width: 1.5;" width="116" x="30" y="498"/><text fill="#000000" font-family="sans-serif" font-size="14" font-weight="bold" lengthAdjust="spacingAndGlyphs" textLength="84" x="46" y="512.9951">PLATFORM</text><!--cluster CPOP1--><rect fill="#FFFFFF" filter="url(#f18p04wtmb49jg)" height="193" rx="4" ry="4" style="stroke: #000000; stroke-width: 1.5;" width="107" x="366" y="32"/><text fill="#000000" font-family="sans-serif" font-size="14" font-weight="bold" lengthAdjust="spacingAndGlyphs" textLength="84" x="377.5" y="46.9951">PLATFORM</text><!--cluster CPOP2--><rect fill="#FFFFFF" filter="url(#f18p04wtmb49jg)" height="193" rx="4" ry="4" style="stroke: #000000; stroke-width: 1.5;" width="107" x="366" y="265"/><text fill="#000000" font-family="sans-serif" font-size="14" font-weight="bold" lengthAdjust="spacingAndGlyphs" textLength="84" x="377.5" y="279.9951">PLATFORM</text><!--cluster CPOP3--><rect fill="#FFFFFF" filter="url(#f18p04wtmb49jg)" height="122" rx="4" ry="4" style="stroke: #000000; stroke-width: 1.5;" width="107" x="366" y="498"/><text fill="#000000" font-family="sans-serif" font-size="14" font-weight="bold" lengthAdjust="spacingAndGlyphs" textLength="84" x="377.5" y="512.9951">PLATFORM</text><!--entity eMSP1--><rect fill="#FEFECE" filter="url(#f18p04wtmb49jg)" height="36.2969" rx="4" ry="4" style="stroke: #A80036; stroke-width: 1.5;" width="68" x="54" y="75"/><text fill="#000000" font-family="sans-serif" font-size="14" lengthAdjust="spacingAndGlyphs" textLength="48" x="64" y="97.9951">eMSP1</text><!--entity eMSP2--><rect fill="#FEFECE" filter="url(#f18p04wtmb49jg)" height="36.2969" rx="4" ry="4" style="stroke: #A80036; stroke-width: 1.5;" width="68" x="54" y="146"/><text fill="#000000" font-family="sans-serif" font-size="14" lengthAdjust="spacingAndGlyphs" textLength="48" x="64" y="168.9951">eMSP2</text><!--entity eMSP3--><rect fill="#FEFECE" filter="url(#f18p04wtmb49jg)" height="36.2969" rx="4" ry="4" style="stroke: #A80036; stroke-width: 1.5;" width="68" x="54" y="308"/><text fill="#000000" font-family="sans-serif" font-size="14" lengthAdjust="spacingAndGlyphs" textLength="48" x="64" y="330.9951">eMSP3</text><!--entity eMSP4--><rect fill="#FEFECE" filter="url(#f18p04wtmb49jg)" height="36.2969" rx="4" ry="4" style="stroke: #A80036; stroke-width: 1.5;" width="68" x="54" y="379"/><text fill="#000000" font-family="sans-serif" font-size="14" lengthAdjust="spacingAndGlyphs" textLength="48" x="64" y="401.9951">eMSP4</text><!--entity eMSP5--><rect fill="#FEFECE" filter="url(#f18p04wtmb49jg)" height="36.2969" rx="4" ry="4" style="stroke: #A80036; stroke-width: 1.5;" width="68" x="54" y="541"/><text fill="#000000" font-family="sans-serif" font-size="14" lengthAdjust="spacingAndGlyphs" textLength="48" x="64" y="563.9951">eMSP5</text><!--entity CPO1--><rect fill="#FEFECE" filter="url(#f18p04wtmb49jg)" height="36.2969" rx="4" ry="4" style="stroke: #A80036; stroke-width: 1.5;" width="59" x="390" y="75"/><text fill="#000000" font-family="sans-serif" font-size="14" lengthAdjust="spacingAndGlyphs" textLength="39" x="400" y="97.9951">CPO1</text><!--entity CPO2--><rect fill="#FEFECE" filter="url(#f18p04wtmb49jg)" height="36.2969" rx="4" ry="4" style="stroke: #A80036; stroke-width: 1.5;" width="59" x="390" y="146"/><text fill="#000000" font-family="sans-serif" font-size="14" lengthAdjust="spacingAndGlyphs" textLength="39" x="400" y="168.9951">CPO2</text><!--entity CPO3--><rect fill="#FEFECE" filter="url(#f18p04wtmb49jg)" height="36.2969" rx="4" ry="4" style="stroke: #A80036; stroke-width: 1.5;" width="59" x="390" y="308"/><text fill="#000000" font-family="sans-serif" font-size="14" lengthAdjust="spacingAndGlyphs" textLength="39" x="400" y="330.9951">CPO3</text><!--entity CPO4--><rect fill="#FEFECE" filter="url(#f18p04wtmb49jg)" height="36.2969" rx="4" ry="4" style="stroke: #A80036; stroke-width: 1.5;" width="59" x="390" y="379"/><text fill="#000000" font-family="sans-serif" font-size="14" lengthAdjust="spacingAndGlyphs" textLength="39" x="400" y="401.9951">CPO4</text><!--entity CPO5--><rect fill="#FEFECE" filter="url(#f18p04wtmb49jg)" height="36.2969" rx="4" ry="4" style="stroke: #A80036; stroke-width: 1.5;" width="59" x="390" y="541"/><text fill="#000000" font-family="sans-serif" font-size="14" lengthAdjust="spacingAndGlyphs" textLength="39" x="400" y="563.9951">CPO5</text><!--entity Hub--><rect fill="#FEFECE" filter="url(#f18p04wtmb49jg)" height="36.2969" rx="4" ry="4" style="stroke: #A80036; stroke-width: 1.5;" width="48" x="232" y="432"/><text fill="#000000" font-family="sans-serif" font-size="14" lengthAdjust="spacingAndGlyphs" textLength="28" x="242" y="454.9951">Hub</text><!--link MSP1 to Hub--><path d="M98.2465,225.1404 C98.4003,225.2788 98.5556,225.4187 98.7126,225.5602 C99.0264,225.8431 99.3465,226.1322 99.6726,226.4273 C100.3247,227.0174 101.0008,227.6315 101.6992,228.2684 C103.0959,229.5424 104.5817,230.9079 106.1429,232.3563 C109.2654,235.2531 112.6896,238.4814 116.3067,241.9719 C130.7751,255.9338 148.3295,274.09 162,292 C197.92,339.061 230.738,401.144 245.999,431.576 " fill="none" id="MSP1-Hub" style="stroke: #A80036; stroke-width: 1.0;"/><text fill="#000000" font-family="sans-serif" font-size="13" lengthAdjust="spacingAndGlyphs" textLength="30" x="171" y="300.0669">OCPI</text><!--link MSP2 to Hub--><path d="M146.5708,450 C147.0361,450 147.5026,450 147.9702,450 C148.9055,450 149.8452,450 150.7888,450 C152.6761,450 154.579,450 156.4934,450 C160.3221,450 164.1964,450 168.0823,450 C175.8539,450 183.6715,450 191.2616,450 C206.4418,450 220.7122,450 231.886,450 " fill="none" id="MSP2-Hub" style="stroke: #A80036; stroke-width: 1.0;"/><text fill="#000000" font-family="sans-serif" font-size="13" lengthAdjust="spacingAndGlyphs" textLength="30" x="171" y="446.0669">OCPI</text><!--link MSP3 to Hub--><path d="M146.0841,601.6578 C146.2044,601.6083 146.3245,601.5586 146.4446,601.5087 C146.6847,601.4088 146.9244,601.3079 147.1636,601.2061 C147.642,601.0026 148.1187,600.7951 148.5933,600.5838 C149.5425,600.1612 150.4837,599.7229 151.4149,599.2684 C155.1398,597.4505 158.7063,595.3734 162,593 C207.171,560.4513 236.152,498.588 248.362,468.019 " fill="none" id="MSP3-Hub" style="stroke: #A80036; stroke-width: 1.0;"/><text fill="#000000" font-family="sans-serif" font-size="13" lengthAdjust="spacingAndGlyphs" textLength="30" x="171" y="549.0669">OCPI</text><!--link Hub to CPOP1--><path d="M266.169,431.703 C281.673,401.452 314.831,339.625 350,292 C362.9895,274.4095 379.4668,256.2632 393.0055,242.2267 C396.3902,238.7176 399.5912,235.4654 402.5082,232.5429 C403.9667,231.0816 405.3541,229.7028 406.658,228.4155 C407.31,227.7719 407.941,227.1511 408.5496,226.5544 C408.8539,226.2561 409.1526,225.9637 409.4455,225.6775 C409.5919,225.5344 409.7369,225.3929 409.8804,225.2528 C409.9522,225.1828 410.0235,225.1132 410.0946,225.044 " fill="none" id="Hub-CPOP1" style="stroke: #A80036; stroke-width: 1.0;"/><text fill="#000000" font-family="sans-serif" font-size="13" lengthAdjust="spacingAndGlyphs" textLength="30" x="311" y="301.0669">OCPI</text><!--link Hub to CPOP2--><path d="M280.139,450 C302.118,450 335.9793,450 364.7018,450 C364.9261,450 365.1502,450 365.374,450 " fill="none" id="Hub-CPOP2" style="stroke: #A80036; stroke-width: 1.0;"/><text fill="#000000" font-family="sans-serif" font-size="13" lengthAdjust="spacingAndGlyphs" textLength="30" x="311" y="446.0669">OCPI</text><!--link Hub to CPOP3--><path d="M263.891,468.432 C276.296,499.052 305.329,560.2672 350,593 C353.086,595.2613 356.4291,597.2535 359.9217,599.0087 C361.668,599.8863 363.4518,600.7047 365.2594,601.4677 C365.4854,601.5631 365.7117,601.6576 365.9384,601.7513 " fill="none" id="Hub-CPOP3" style="stroke: #A80036; stroke-width: 1.0;"/><text fill="#000000" font-family="sans-serif" font-size="13" lengthAdjust="spacingAndGlyphs" textLength="30" x="311" y="549.0669">OCPI</text></g></svg>