<?xml version="1.0" encoding="UTF-8" standalone="no"?><svg xmlns="http://www.w3.org/2000/svg" xmlns:xlink="http://www.w3.org/1999/xlink" contentScriptType="application/ecmascript" contentStyleType="text/css" height="151px" preserveAspectRatio="none" style="width:394px;height:151px;" version="1.1" viewBox="0 0 394 151" width="394px" zoomAndPan="magnify"><defs><filter height="300%" id="f1t81q6cawy4qt" width="300%" x="-1" y="-1"><feGaussianBlur result="blurOut" stdDeviation="2.0"/><feColorMatrix in="blurOut" result="blurOut2" type="matrix" values="0 0 0 0 0 0 0 0 0 0 0 0 0 0 0 0 0 0 .4 0"/><feOffset dx="4.0" dy="4.0" in="blurOut2" result="blurOut3"/><feBlend in="SourceGraphic" in2="blurOut3" mode="normal"/></filter></defs><g><!--entity eMSP1--><rect fill="#FEFECE" filter="url(#f1t81q6cawy4qt)" height="36.2969" rx="4" ry="4" style="stroke: #A80036; stroke-width: 1.5;" width="68" x="6" y="8"/><text fill="#000000" font-family="sans-serif" font-size="14" lengthAdjust="spacingAndGlyphs" textLength="48" x="16" y="30.9951">eMSP1</text><!--entity eMSP2--><rect fill="#FEFECE" filter="url(#f1t81q6cawy4qt)" height="36.2969" rx="4" ry="4" style="stroke: #A80036; stroke-width: 1.5;" width="68" x="212" y="8"/><text fill="#000000" font-family="sans-serif" font-size="14" lengthAdjust="spacingAndGlyphs" textLength="48" x="222" y="30.9951">eMSP2</text><!--entity eMSP3--><rect fill="#FEFECE" filter="url(#f1t81q6cawy4qt)" height="36.2969" rx="4" ry="4" style="stroke: #A80036; stroke-width: 1.5;" width="68" x="109" y="8"/><text fill="#000000" font-family="sans-serif" font-size="14" lengthAdjust="spacingAndGlyphs" textLength="48" x="119" y="30.9951">eMSP3</text><!--entity eMSP4--><rect fill="#FEFECE" filter="url(#f1t81q6cawy4qt)" height="36.2969" rx="4" ry="4" style="stroke: #A80036; stroke-width: 1.5;" width="68" x="315" y="8"/><text fill="#000000" font-family="sans-serif" font-size="14" lengthAdjust="spacingAndGlyphs" textLength="48" x="325" y="30.9951">eMSP4</text><!--entity CPO1--><rect fill="#FEFECE" filter="url(#f1t81q6cawy4qt)" height="36.2969" rx="4" ry="4" style="stroke: #A80036; stroke-width: 1.5;" width="59" x="213.75" y="104"/><text fill="#000000" font-family="sans-serif" font-size="14" lengthAdjust="spacingAndGlyphs" textLength="39" x="223.75" y="126.9951">CPO1</text><!--entity CPO2--><rect fill="#FEFECE" filter="url(#f1t81q6cawy4qt)" height="36.2969" rx="4" ry="4" style="stroke: #A80036; stroke-width: 1.5;" width="59" x="115.75" y="104"/><text fill="#000000" font-family="sans-serif" font-size="14" lengthAdjust="spacingAndGlyphs" textLength="39" x="125.75" y="126.9951">CPO2</text><!--entity CPO3--><rect fill="#FEFECE" filter="url(#f1t81q6cawy4qt)" height="36.2969" rx="4" ry="4" style="stroke: #A80036; stroke-width: 1.5;" width="59" x="316.75" y="104"/><text fill="#000000" font-family="sans-serif" font-size="14" lengthAdjust="spacingAndGlyphs" textLength="39" x="326.75" y="126.9951">CPO3</text><!--link eMSP1 to CPO1--><path d="M74.4362,42.9458 C113.575,61.0693 176.795,90.3436 213.675,107.421 " fill="none" id="eMSP1-CPO1" style="stroke: #A80036; stroke-width: 1.0;"/><!--link eMSP2 to CPO2--><path d="M227.475,44.241 C209.251,61.2017 181.59,86.9455 163.408,103.8683 " fill="none" id="eMSP2-CPO2" style="stroke: #A80036; stroke-width: 1.0;"/><!--link eMSP1 to CPO2--><path d="M59.2586,44.241 C78.204,61.2017 106.96,86.9455 125.863,103.8683 " fill="none" id="eMSP1-CPO2" style="stroke: #A80036; stroke-width: 1.0;"/><!--link eMSP2 to CPO1--><path d="M245.45,44.241 C244.908,61.2017 244.087,86.9455 243.547,103.8683 " fill="none" id="eMSP2-CPO1" style="stroke: #A80036; stroke-width: 1.0;"/><!--link eMSP2 to CPO3--><path d="M264.342,44.241 C282.385,61.2017 309.772,86.9455 327.775,103.8683 " fill="none" id="eMSP2-CPO3" style="stroke: #A80036; stroke-width: 1.0;"/><!--link eMSP3 to CPO1--><path d="M161.342,44.241 C179.385,61.2017 206.772,86.9455 224.775,103.8683 " fill="none" id="eMSP3-CPO1" style="stroke: #A80036; stroke-width: 1.0;"/><!--link eMSP3 to CPO2--><path d="M143.367,44.241 C143.728,61.2017 144.275,86.9455 144.635,103.8683 " fill="none" id="eMSP3-CPO2" style="stroke: #A80036; stroke-width: 1.0;"/><!--link eMSP4 to CPO1--><path d="M329.558,44.241 C310.432,61.2017 281.402,86.9455 262.319,103.8683 " fill="none" id="eMSP4-CPO1" style="stroke: #A80036; stroke-width: 1.0;"/><!--link eMSP4 to CPO2--><path d="M314.855,42.7335 C275.496,60.8693 211.469,90.3723 174.288,107.5044 " fill="none" id="eMSP4-CPO2" style="stroke: #A80036; stroke-width: 1.0;"/><!--link eMSP4 to CPO3--><path d="M348.45,44.241 C347.908,61.2017 347.087,86.9455 346.547,103.8683 " fill="none" id="eMSP4-CPO3" style="stroke: #A80036; stroke-width: 1.0;"/></g></svg>