<?xml version="1.0" encoding="UTF-8" standalone="no"?><svg xmlns="http://www.w3.org/2000/svg" xmlns:xlink="http://www.w3.org/1999/xlink" contentScriptType="application/ecmascript" contentStyleType="text/css" height="634px" preserveAspectRatio="none" style="width:305px;height:634px;" version="1.1" viewBox="0 0 305 634" width="305px" zoomAndPan="magnify"><defs><filter height="300%" id="fmk4g9o6qcqhz" width="300%" x="-1" y="-1"><feGaussianBlur result="blurOut" stdDeviation="2.0"/><feColorMatrix in="blurOut" result="blurOut2" type="matrix" values="0 0 0 0 0 0 0 0 0 0 0 0 0 0 0 0 0 0 .4 0"/><feOffset dx="4.0" dy="4.0" in="blurOut2" result="blurOut3"/><feBlend in="SourceGraphic" in2="blurOut3" mode="normal"/></filter></defs><g><!--cluster MSP1--><rect fill="#FFFFFF" filter="url(#fmk4g9o6qcqhz)" height="194" rx="4" ry="4" style="stroke: #000000; stroke-width: 1.5;" width="116" x="30" y="32"/><text fill="#000000" font-family="sans-serif" font-size="14" font-weight="bold" lengthAdjust="spacingAndGlyphs" textLength="84" x="46" y="46.9951">PLATFORM</text><!--cluster CPOP1--><rect fill="#FFFFFF" filter="url(#fmk4g9o6qcqhz)" height="194" rx="4" ry="4" style="stroke: #000000; stroke-width: 1.5;" width="108" x="186" y="32"/><text fill="#000000" font-family="sans-serif" font-size="14" font-weight="bold" lengthAdjust="spacingAndGlyphs" textLength="84" x="198" y="46.9951">PLATFORM</text><!--cluster MSP2--><rect fill="#FFFFFF" filter="url(#fmk4g9o6qcqhz)" height="194" rx="4" ry="4" style="stroke: #000000; stroke-width: 1.5;" width="116" x="30" y="266"/><text fill="#000000" font-family="sans-serif" font-size="14" font-weight="bold" lengthAdjust="spacingAndGlyphs" textLength="84" x="46" y="280.9951">PLATFORM</text><!--cluster CPOP2--><rect fill="#FFFFFF" filter="url(#fmk4g9o6qcqhz)" height="194" rx="4" ry="4" style="stroke: #000000; stroke-width: 1.5;" width="108" x="186" y="266"/><text fill="#000000" font-family="sans-serif" font-size="14" font-weight="bold" lengthAdjust="spacingAndGlyphs" textLength="84" x="198" y="280.9951">PLATFORM</text><!--cluster MSP3--><rect fill="#FFFFFF" filter="url(#fmk4g9o6qcqhz)" height="123" rx="4" ry="4" style="stroke: #000000; stroke-width: 1.5;" width="116" x="30" y="500"/><text fill="#000000" font-family="sans-serif" font-size="14" font-weight="bold" lengthAdjust="spacingAndGlyphs" textLength="84" x="46" y="514.9951">PLATFORM</text><!--cluster CPOP3--><rect fill="#FFFFFF" filter="url(#fmk4g9o6qcqhz)" height="123" rx="4" ry="4" style="stroke: #000000; stroke-width: 1.5;" width="108" x="186" y="500"/><text fill="#000000" font-family="sans-serif" font-size="14" font-weight="bold" lengthAdjust="spacingAndGlyphs" textLength="84" x="198" y="514.9951">PLATFORM</text><!--entity eMSP1--><rect fill="#FEFECE" filter="url(#fmk4g9o6qcqhz)" height="36.2969" rx="4" ry="4" style="stroke: #A80036; stroke-width: 1.5;" width="68" x="54" y="76"/><text fill="#000000" font-family="sans-serif" font-size="14" lengthAdjust="spacingAndGlyphs" textLength="48" x="64" y="98.9951">eMSP1</text><!--entity eMSP2--><rect fill="#FEFECE" filter="url(#fmk4g9o6qcqhz)" height="36.2969" rx="4" ry="4" style="stroke: #A80036; stroke-width: 1.5;" width="68" x="54" y="147"/><text fill="#000000" font-family="sans-serif" font-size="14" lengthAdjust="spacingAndGlyphs" textLength="48" x="64" y="169.9951">eMSP2</text><!--entity CPO1--><rect fill="#FEFECE" filter="url(#fmk4g9o6qcqhz)" height="36.2969" rx="4" ry="4" style="stroke: #A80036; stroke-width: 1.5;" width="59" x="210.5" y="76"/><text fill="#000000" font-family="sans-serif" font-size="14" lengthAdjust="spacingAndGlyphs" textLength="39" x="220.5" y="98.9951">CPO1</text><!--entity CPO2--><rect fill="#FEFECE" filter="url(#fmk4g9o6qcqhz)" height="36.2969" rx="4" ry="4" style="stroke: #A80036; stroke-width: 1.5;" width="59" x="210.5" y="147"/><text fill="#000000" font-family="sans-serif" font-size="14" lengthAdjust="spacingAndGlyphs" textLength="39" x="220.5" y="169.9951">CPO2</text><!--entity eMSP3--><rect fill="#FEFECE" filter="url(#fmk4g9o6qcqhz)" height="36.2969" rx="4" ry="4" style="stroke: #A80036; stroke-width: 1.5;" width="68" x="54" y="310"/><text fill="#000000" font-family="sans-serif" font-size="14" lengthAdjust="spacingAndGlyphs" textLength="48" x="64" y="332.9951">eMSP3</text><!--entity eMSP4--><rect fill="#FEFECE" filter="url(#fmk4g9o6qcqhz)" height="36.2969" rx="4" ry="4" style="stroke: #A80036; stroke-width: 1.5;" width="68" x="54" y="381"/><text fill="#000000" font-family="sans-serif" font-size="14" lengthAdjust="spacingAndGlyphs" textLength="48" x="64" y="403.9951">eMSP4</text><!--entity CPO3--><rect fill="#FEFECE" filter="url(#fmk4g9o6qcqhz)" height="36.2969" rx="4" ry="4" style="stroke: #A80036; stroke-width: 1.5;" width="59" x="210.5" y="310"/><text fill="#000000" font-family="sans-serif" font-size="14" lengthAdjust="spacingAndGlyphs" textLength="39" x="220.5" y="332.9951">CPO3</text><!--entity CPO4--><rect fill="#FEFECE" filter="url(#fmk4g9o6qcqhz)" height="36.2969" rx="4" ry="4" style="stroke: #A80036; stroke-width: 1.5;" width="59" x="210.5" y="381"/><text fill="#000000" font-family="sans-serif" font-size="14" lengthAdjust="spacingAndGlyphs" textLength="39" x="220.5" y="403.9951">CPO4</text><!--entity eMSP5--><rect fill="#FEFECE" filter="url(#fmk4g9o6qcqhz)" height="36.2969" rx="4" ry="4" style="stroke: #A80036; stroke-width: 1.5;" width="68" x="54" y="544"/><text fill="#000000" font-family="sans-serif" font-size="14" lengthAdjust="spacingAndGlyphs" textLength="48" x="64" y="566.9951">eMSP5</text><!--entity CPO5--><rect fill="#FEFECE" filter="url(#fmk4g9o6qcqhz)" height="36.2969" rx="4" ry="4" style="stroke: #A80036; stroke-width: 1.5;" width="59" x="210.5" y="544"/><text fill="#000000" font-family="sans-serif" font-size="14" lengthAdjust="spacingAndGlyphs" textLength="39" x="220.5" y="566.9951">CPO5</text><!--link MSP1 to CPOP1--><path d="M146.2926,218 C146.5694,218 146.8464,218 147.1238,218 C148.2334,218 149.3482,218 150.4672,218 C154.943,218 159.4853,218 164.0274,218 C168.5696,218 173.1116,218 177.5869,218 C179.8245,218 182.0454,218 184.2414,218 C184.7903,218 185.3377,218 185.8835,218 " fill="none" id="MSP1-CPOP1" style="stroke: #A80036; stroke-width: 1.0;"/><!--link MSP2 to CPOP2--><path d="M146.2926,452 C146.5694,452 146.8464,452 147.1238,452 C148.2334,452 149.3482,452 150.4672,452 C154.943,452 159.4853,452 164.0274,452 C168.5696,452 173.1116,452 177.5869,452 C179.8245,452 182.0454,452 184.2414,452 C184.7903,452 185.3377,452 185.8835,452 " fill="none" id="MSP2-CPOP2" style="stroke: #A80036; stroke-width: 1.0;"/><!--link MSP3 to CPOP3--><path d="M146.2926,615 C146.5694,615 146.8464,615 147.1238,615 C148.2334,615 149.3482,615 150.4672,615 C154.943,615 159.4853,615 164.0274,615 C168.5696,615 173.1116,615 177.5869,615 C179.8245,615 182.0454,615 184.2414,615 C184.7903,615 185.3377,615 185.8835,615 " fill="none" id="MSP3-CPOP3" style="stroke: #A80036; stroke-width: 1.0;"/><!--link MSP1 to CPOP2--><path d="M100.9463,226.0983 C101.13,226.2312 101.3152,226.3655 101.502,226.5013 C102.2492,227.0447 103.0211,227.6118 103.8153,228.2022 C105.4037,229.383 107.081,230.6565 108.8274,232.0177 C112.3202,234.7402 116.0892,237.8132 119.9749,241.1958 C135.5178,254.7258 152.9285,273.2065 162,294 C174.372,322.359 150.55,408.938 170,433 C172.4214,435.9955 175.2681,438.5441 178.4017,440.7102 C179.9685,441.7933 181.607,442.7807 183.2999,443.6805 C184.1464,444.1304 185.0064,444.5584 185.8779,444.9655 " fill="none" id="MSP1-CPOP2" style="stroke: #A80036; stroke-width: 1.0;"/><!--link MSP1 to CPOP3--><path d="M101.07,226.0452 C101.2553,226.1773 101.4422,226.3109 101.6307,226.4461 C102.3846,226.9865 103.1632,227.5508 103.9642,228.1383 C105.566,229.3133 107.2568,230.5811 109.0162,231.9368 C112.535,234.6481 116.3283,237.7109 120.2329,241.0854 C135.8514,254.5833 153.252,273.0685 162,294 C168.472,309.486 159.653,582.7853 170,596 C172.3746,599.0327 175.1859,601.6095 178.2934,603.7964 C179.8471,604.8899 181.4748,605.8858 183.159,606.7925 C184.0011,607.2459 184.8573,607.677 185.7254,608.0867 " fill="none" id="MSP1-CPOP3" style="stroke: #A80036; stroke-width: 1.0;"/><!--link MSP2 to CPOP1--><path d="M146.194,444.9551 C146.3082,444.9008 146.4222,444.8461 146.536,444.7911 C146.9912,444.5711 147.4431,444.3453 147.8914,444.1137 C149.6848,443.1871 151.4211,442.1666 153.0823,441.0434 C156.4045,438.7968 159.4258,436.1393 162,433 C171.809,421.038 164.014,308.265 170,294 C178.551,273.623 195.007,255.1553 209.7038,241.528 C213.3779,238.1212 216.9422,235.0169 220.2454,232.261 C221.8971,230.883 223.4835,229.5921 224.9858,228.394 C225.7369,227.795 226.467,227.2191 227.1738,226.6672 C227.3504,226.5292 227.5257,226.3927 227.6994,226.2578 C227.7862,226.1903 227.8727,226.1232 227.9588,226.0564 " fill="none" id="MSP2-CPOP1" style="stroke: #A80036; stroke-width: 1.0;"/><!--link MSP2 to CPOP3--><path d="M100.4414,460.0052 C100.5309,460.0716 100.6207,460.1384 100.711,460.2055 C100.8915,460.3398 101.0736,460.4756 101.2572,460.6129 C101.9916,461.162 102.7507,461.735 103.5321,462.3312 C105.0948,463.5236 106.7465,464.8088 108.4681,466.1813 C111.9113,468.9262 115.6342,472.0203 119.484,475.4191 C134.8831,489.0145 152.313,507.4865 162,528 C168.497,541.758 160.087,584.4573 170,596 C172.5095,598.922 175.423,601.415 178.6059,603.5399 C180.1974,604.6024 181.8562,605.5729 183.5655,606.459 C183.9928,606.6805 184.4233,606.8968 184.8567,607.1079 C185.0734,607.2134 185.2908,607.3177 185.5089,607.4207 C185.618,607.4722 185.7272,607.5234 185.8366,607.5742 " fill="none" id="MSP2-CPOP3" style="stroke: #A80036; stroke-width: 1.0;"/><!--link MSP3 to CPOP1--><path d="M146.0078,608.2434 C146.2361,608.1355 146.4635,608.0261 146.6901,607.9153 C147.1433,607.6936 147.593,607.4661 148.0391,607.2327 C149.8233,606.2987 151.5484,605.2692 153.1958,604.1349 C156.4906,601.8662 159.4748,599.1787 162,596 C172.44,582.8585 163.746,309.575 170,294 C178.234,273.493 194.68,255.021 209.4507,241.424 C213.1434,238.0247 216.7314,234.9302 220.0602,232.1847 C221.7246,230.8119 223.3242,229.5265 224.8397,228.3338 C225.5974,227.7374 226.3342,227.1643 227.0474,226.6151 C227.2258,226.4778 227.4026,226.342 227.578,226.2076 C227.6656,226.1405 227.7529,226.0737 227.8399,226.0073 " fill="none" id="MSP3-CPOP1" style="stroke: #A80036; stroke-width: 1.0;"/><!--link MSP3 to CPOP2--><path d="M146.2454,607.5453 C146.7044,607.3284 147.1604,607.1061 147.613,606.8781 C149.4236,605.9661 151.1812,604.9636 152.8682,603.8622 C156.2421,601.6594 159.3334,599.0611 162,596 C171.994,584.5274 163.697,541.848 170,528 C179.1545,507.887 195.6292,489.4275 210.185,475.7385 C213.8239,472.3163 217.3429,469.1922 220.5976,466.4149 C222.225,465.0263 223.7863,463.7244 225.2634,462.5153 C226.002,461.9108 226.7195,461.3294 227.4138,460.772 C227.5874,460.6327 227.7595,460.4948 227.9301,460.3585 C228.0154,460.2903 228.1003,460.2225 228.1849,460.1551 " fill="none" id="MSP3-CPOP2" style="stroke: #A80036; stroke-width: 1.0;"/></g></svg>