<svg xmlns="http://www.w3.org/2000/svg" xmlns:xlink="http://www.w3.org/1999/xlink" contentStyleType="text/css" height="691px" preserveAspectRatio="none" style="width:1186px;height:691px;background:#FFFFFF;" version="1.1" viewBox="0 0 1186 691" width="1186px" zoomAndPan="magnify"><defs/><g><rect fill="#FFFFFF" height="29.3105" style="stroke:#181818;stroke-width:1.0;" width="10" x="117.6304" y="67.7988"/><rect fill="#FFFFFF" height="14" style="stroke:#181818;stroke-width:1.0;" width="10" x="117.6304" y="229.041"/><rect fill="#FFFFFF" height="29.3105" style="stroke:#181818;stroke-width:1.0;" width="10" x="117.6304" y="322.9727"/><rect fill="#FFFFFF" height="14" style="stroke:#181818;stroke-width:1.0;" width="10" x="117.6304" y="484.2148"/><rect fill="#FFFFFF" height="14" style="stroke:#181818;stroke-width:1.0;" width="10" x="117.6304" y="652.0781"/><rect fill="#FFFFFF" height="175.2422" style="stroke:#181818;stroke-width:1.0;" width="10" x="723.4336" y="67.7988"/><rect fill="#FFFFFF" height="175.2422" style="stroke:#181818;stroke-width:1.0;" width="10" x="723.4336" y="322.9727"/><rect fill="#FFFFFF" height="29.3105" style="stroke:#181818;stroke-width:1.0;" width="10" x="723.4336" y="578.1465"/><rect fill="#FFFFFF" height="14" style="stroke:#181818;stroke-width:1.0;" width="10" x="723.4336" y="652.0781"/><rect fill="#FFFFFF" height="29.3105" style="stroke:#181818;stroke-width:1.0;" width="10" x="1142.8125" y="578.1465"/><line style="stroke:#181818;stroke-width:0.5;stroke-dasharray:5.0,5.0;" x1="122" x2="122" y1="36.4883" y2="684.0781"/><line style="stroke:#181818;stroke-width:0.5;stroke-dasharray:5.0,5.0;" x1="728.2212" x2="728.2212" y1="36.4883" y2="684.0781"/><line style="stroke:#181818;stroke-width:0.5;stroke-dasharray:5.0,5.0;" x1="1147.0239" x2="1147.0239" y1="36.4883" y2="684.0781"/><rect fill="#E2E2F0" height="30.4883" rx="2.5" ry="2.5" style="stroke:#181818;stroke-width:0.5;" width="101.2607" x="72" y="5"/><text fill="#000000" font-family="sans-serif" font-size="14" lengthAdjust="spacing" textLength="87.2607" x="79" y="25.5352">eMSP system</text><rect fill="#E2E2F0" height="30.4883" rx="2.5" ry="2.5" style="stroke:#181818;stroke-width:0.5;" width="94.4248" x="681.2212" y="5"/><text fill="#000000" font-family="sans-serif" font-size="14" lengthAdjust="spacing" textLength="80.4248" x="688.2212" y="25.5352">CPO system</text><rect fill="#E2E2F0" height="30.4883" rx="2.5" ry="2.5" style="stroke:#181818;stroke-width:0.5;" width="65.5771" x="1115.0239" y="5"/><text fill="#000000" font-family="sans-serif" font-size="14" lengthAdjust="spacing" textLength="51.5771" x="1122.0239" y="25.5352">charger</text><rect fill="#FFFFFF" height="29.3105" style="stroke:#181818;stroke-width:1.0;" width="10" x="117.6304" y="67.7988"/><rect fill="#FFFFFF" height="14" style="stroke:#181818;stroke-width:1.0;" width="10" x="117.6304" y="229.041"/><rect fill="#FFFFFF" height="29.3105" style="stroke:#181818;stroke-width:1.0;" width="10" x="117.6304" y="322.9727"/><rect fill="#FFFFFF" height="14" style="stroke:#181818;stroke-width:1.0;" width="10" x="117.6304" y="484.2148"/><rect fill="#FFFFFF" height="14" style="stroke:#181818;stroke-width:1.0;" width="10" x="117.6304" y="652.0781"/><rect fill="#FFFFFF" height="175.2422" style="stroke:#181818;stroke-width:1.0;" width="10" x="723.4336" y="67.7988"/><rect fill="#FFFFFF" height="175.2422" style="stroke:#181818;stroke-width:1.0;" width="10" x="723.4336" y="322.9727"/><rect fill="#FFFFFF" height="29.3105" style="stroke:#181818;stroke-width:1.0;" width="10" x="723.4336" y="578.1465"/><rect fill="#FFFFFF" height="14" style="stroke:#181818;stroke-width:1.0;" width="10" x="723.4336" y="652.0781"/><rect fill="#FFFFFF" height="29.3105" style="stroke:#181818;stroke-width:1.0;" width="10" x="1142.8125" y="578.1465"/><polygon fill="#181818" points="711.4336,63.7988,721.4336,67.7988,711.4336,71.7988,715.4336,67.7988" style="stroke:#181818;stroke-width:1.0;"/><line style="stroke:#181818;stroke-width:1.0;" x1="127.6304" x2="717.4336" y1="67.7988" y2="67.7988"/><text fill="#000000" font-family="sans-serif" font-size="13" lengthAdjust="spacing" textLength="186.4307" x="134.6304" y="63.0566">POST: Send Booking request()</text><polygon fill="#181818" points="133.6304,93.1094,123.6304,97.1094,133.6304,101.1094,129.6304,97.1094" style="stroke:#181818;stroke-width:1.0;"/><line style="stroke:#181818;stroke-width:1.0;" x1="127.6304" x2="722.4336" y1="97.1094" y2="97.1094"/><text fill="#000000" font-family="sans-serif" font-size="13" lengthAdjust="spacing" textLength="363.4224" x="139.6304" y="92.3672">status_code = 1000, data: {Booking { status = PENDING }}</text><line style="stroke:#181818;stroke-width:1.0;" x1="733.4336" x2="775.4336" y1="171.4199" y2="171.4199"/><line style="stroke:#181818;stroke-width:1.0;" x1="775.4336" x2="775.4336" y1="171.4199" y2="184.4199"/><line style="stroke:#181818;stroke-width:1.0;" x1="734.4336" x2="775.4336" y1="184.4199" y2="184.4199"/><polygon fill="#181818" points="744.4336,180.4199,734.4336,184.4199,744.4336,188.4199,740.4336,184.4199" style="stroke:#181818;stroke-width:1.0;"/><text fill="#000000" font-family="sans-serif" font-size="13" lengthAdjust="spacing" textLength="385.3789" x="740.4336" y="166.6777">Checking if the booking timeslot is available, and is available</text><polygon fill="#181818" points="138.6304,225.041,128.6304,229.041,138.6304,233.041,134.6304,229.041" style="stroke:#181818;stroke-width:1.0;"/><line style="stroke:#181818;stroke-width:1.0;" x1="132.6304" x2="722.4336" y1="229.041" y2="229.041"/><text fill="#000000" font-family="sans-serif" font-size="13" lengthAdjust="spacing" textLength="332.9092" x="144.6304" y="208.9883">PUT: https://server.com/bookings/booking/ABC123</text><text fill="#000000" font-family="sans-serif" font-size="13" lengthAdjust="spacing" textLength="220.1685" x="165.1968" y="224.2988">Booking(status = RESERVED, ........)</text><polygon fill="#181818" points="716.4336,239.041,726.4336,243.041,716.4336,247.041,720.4336,243.041" style="stroke:#181818;stroke-width:1.0;"/><line style="stroke:#181818;stroke-width:1.0;stroke-dasharray:2.0,2.0;" x1="122.6304" x2="722.4336" y1="243.041" y2="243.041"/><path d="M5,256.041 L5,296.041 L241,296.041 L241,266.041 L231,256.041 L5,256.041 " fill="#FEFFDD" style="stroke:#181818;stroke-width:0.5;"/><path d="M231,256.041 L231,266.041 L241,266.041 L231,256.041 " fill="#FEFFDD" style="stroke:#181818;stroke-width:0.5;"/><text fill="#000000" font-family="sans-serif" font-size="13" lengthAdjust="spacing" textLength="176.6743" x="11" y="273.6094">Something changed and the</text><text fill="#000000" font-family="sans-serif" font-size="13" lengthAdjust="spacing" textLength="215.7061" x="11" y="288.9199">MSP want's to change the booking</text><polygon fill="#181818" points="711.4336,318.9727,721.4336,322.9727,711.4336,326.9727,715.4336,322.9727" style="stroke:#181818;stroke-width:1.0;"/><line style="stroke:#181818;stroke-width:1.0;" x1="127.6304" x2="717.4336" y1="322.9727" y2="322.9727"/><text fill="#000000" font-family="sans-serif" font-size="13" lengthAdjust="spacing" textLength="323.0322" x="134.6304" y="318.2305">POST Send new booking request (updated Request)</text><polygon fill="#181818" points="133.6304,348.2832,123.6304,352.2832,133.6304,356.2832,129.6304,352.2832" style="stroke:#181818;stroke-width:1.0;"/><line style="stroke:#181818;stroke-width:1.0;" x1="127.6304" x2="722.4336" y1="352.2832" y2="352.2832"/><text fill="#000000" font-family="sans-serif" font-size="13" lengthAdjust="spacing" textLength="571.8032" x="139.6304" y="347.541">status_code = 1000, data: {Booking { status = RESERVED, REQUESTS[{status = PENDING}] }}</text><line style="stroke:#181818;stroke-width:1.0;" x1="733.4336" x2="775.4336" y1="426.5938" y2="426.5938"/><line style="stroke:#181818;stroke-width:1.0;" x1="775.4336" x2="775.4336" y1="426.5938" y2="439.5938"/><line style="stroke:#181818;stroke-width:1.0;" x1="734.4336" x2="775.4336" y1="439.5938" y2="439.5938"/><polygon fill="#181818" points="744.4336,435.5938,734.4336,439.5938,744.4336,443.5938,740.4336,439.5938" style="stroke:#181818;stroke-width:1.0;"/><text fill="#000000" font-family="sans-serif" font-size="13" lengthAdjust="spacing" textLength="191.5532" x="740.4336" y="421.8516">Checking if change is possible</text><polygon fill="#181818" points="138.6304,480.2148,128.6304,484.2148,138.6304,488.2148,134.6304,484.2148" style="stroke:#181818;stroke-width:1.0;"/><line style="stroke:#181818;stroke-width:1.0;" x1="132.6304" x2="722.4336" y1="484.2148" y2="484.2148"/><text fill="#000000" font-family="sans-serif" font-size="13" lengthAdjust="spacing" textLength="332.9092" x="144.6304" y="464.1621">PUT: https://server.com/bookings/booking/ABC123</text><text fill="#000000" font-family="sans-serif" font-size="13" lengthAdjust="spacing" textLength="220.1685" x="165.1968" y="479.4727">Booking(status = RESERVED, ........)</text><polygon fill="#181818" points="716.4336,494.2148,726.4336,498.2148,716.4336,502.2148,720.4336,498.2148" style="stroke:#181818;stroke-width:1.0;"/><line style="stroke:#181818;stroke-width:1.0;stroke-dasharray:2.0,2.0;" x1="122.6304" x2="722.4336" y1="498.2148" y2="498.2148"/><path d="M512,511.2148 L512,551.2148 L943,551.2148 L943,521.2148 L933,511.2148 L512,511.2148 " fill="#FEFFDD" style="stroke:#181818;stroke-width:0.5;"/><path d="M933,511.2148 L933,521.2148 L943,521.2148 L933,511.2148 " fill="#FEFFDD" style="stroke:#181818;stroke-width:0.5;"/><text fill="#000000" font-family="sans-serif" font-size="13" lengthAdjust="spacing" textLength="321.623" x="518" y="528.7832">After a while the session starts on the charger with</text><text fill="#000000" font-family="sans-serif" font-size="13" lengthAdjust="spacing" textLength="410.1538" x="518" y="544.0938">the correct Token. Which triggers the status to be set to fulfilled.</text><polygon fill="#181818" points="744.4336,574.1465,734.4336,578.1465,744.4336,582.1465,740.4336,578.1465" style="stroke:#181818;stroke-width:1.0;"/><line style="stroke:#181818;stroke-width:1.0;" x1="738.4336" x2="1141.8125" y1="578.1465" y2="578.1465"/><text fill="#000000" font-family="sans-serif" font-size="13" lengthAdjust="spacing" textLength="210.5708" x="750.4336" y="573.4043">StartTransaction.req(Token=123)</text><polygon fill="#181818" points="1135.8125,603.457,1145.8125,607.457,1135.8125,611.457,1139.8125,607.457" style="stroke:#181818;stroke-width:1.0;"/><line style="stroke:#181818;stroke-width:1.0;" x1="728.4336" x2="1141.8125" y1="607.457" y2="607.457"/><text fill="#000000" font-family="sans-serif" font-size="13" lengthAdjust="spacing" textLength="255.8359" x="735.4336" y="602.7148">StartTransaction.conf(TransactionId=15)</text><polygon fill="#181818" points="138.6304,648.0781,128.6304,652.0781,138.6304,656.0781,134.6304,652.0781" style="stroke:#181818;stroke-width:1.0;"/><line style="stroke:#181818;stroke-width:1.0;" x1="132.6304" x2="722.4336" y1="652.0781" y2="652.0781"/><text fill="#000000" font-family="sans-serif" font-size="13" lengthAdjust="spacing" textLength="332.9092" x="144.6304" y="632.0254">PUT: https://server.com/bookings/booking/ABC123</text><text fill="#000000" font-family="sans-serif" font-size="13" lengthAdjust="spacing" textLength="221.6221" x="165.1968" y="647.3359">Booking(status = FULFILLED, ........)</text><polygon fill="#181818" points="716.4336,662.0781,726.4336,666.0781,716.4336,670.0781,720.4336,666.0781" style="stroke:#181818;stroke-width:1.0;"/><line style="stroke:#181818;stroke-width:1.0;stroke-dasharray:2.0,2.0;" x1="122.6304" x2="722.4336" y1="666.0781" y2="666.0781"/><!--SRC=[rLDDZzem4BtdLupsKf2sVBJTIoGgxRBP2edkfWJQGrjL9faGQuDDxG6s0lvxnqcWWT93A-sXliGpuxpnUs-SoGGXrPgc-ibR24CobWkX22xmVHI2_M49vnSWB71uVA0VFjJh71xLuqoO6Pgov7aExULRTmfy21-YiGyHgWHkj7wKQWO6lo_HKgFfYPZaIX0M7G-1WtS_CuQ3yi6IeANz5cicq8DkfzEvX4IGy66pnznKXxWU1lUtW_jtiDjv2Hvrs6xVN6stUsp- -D3FC2u0P0gK8KmhF99pjBaca1R4IiXSJ7Ey1C4qwXcl07Dehe4F44wORKQqi7wxRT6iqBHYFMzNk7Q_QL_VzBklNdzHu5R5ed7WC0gYOFGnkBs4LhLEn2eqhaYSqgo5JafFQTvflabHXKZFaJ97adrJCqmALapUA-HUiwClB92kodLPF6UZWpjZSkcnmlL1myfdQ2mNx1Rt6PM9P_BzbsQZuCCaYCRHvytfKEo-_lrOL3AmxGjjhVp_N7SXNAVaNYYiCvcNdbfaDbev0GrPu9tBxj_oMbBcbHbj3CO4O_s8gWMVCXbdG4RE-9WjaKe2F39J1qjkboxpLEOv9gtQqFJ3WyAHwpesGbbtRQrQF2sDeaMF5MhMf-BiXFJ3CnYnLccZbXWalUvLyrYQtuHw7Y_l9iExmN3u1pDTutzrzYS0]--></g></svg>