<svg xmlns="http://www.w3.org/2000/svg" xmlns:xlink="http://www.w3.org/1999/xlink" contentStyleType="text/css" height="444px" preserveAspectRatio="none" style="width:590px;height:444px;background:#FFFFFF;" version="1.1" viewBox="0 0 590 444" width="590px" zoomAndPan="magnify"><defs/><g><ellipse cx="388.61" cy="16" fill="#222222" rx="10" ry="10" style="stroke:#222222;stroke-width:1.0;"/><g id="PENDING"><rect fill="#F1F1F1" height="50" rx="12.5" ry="12.5" style="stroke:#181818;stroke-width:0.5;" width="80.6484" x="302.28" y="86"/><line style="stroke:#181818;stroke-width:0.5;" x1="302.28" x2="382.9284" y1="112.4883" y2="112.4883"/><text fill="#000000" font-family="sans-serif" font-size="14" lengthAdjust="spacing" textLength="60.6484" x="312.28" y="104.5352">PENDING</text></g><g id="RESERVED"><rect fill="#F1F1F1" height="50" rx="12.5" ry="12.5" style="stroke:#181818;stroke-width:0.5;" width="87.6484" x="202.78" y="196"/><line style="stroke:#181818;stroke-width:0.5;" x1="202.78" x2="290.4284" y1="222.4883" y2="222.4883"/><text fill="#000000" font-family="sans-serif" font-size="14" lengthAdjust="spacing" textLength="67.6484" x="212.78" y="214.5352">RESERVED</text></g><g id="FAILED"><rect fill="#F1F1F1" height="50" rx="12.5" ry="12.5" style="stroke:#181818;stroke-width:0.5;" width="66.7373" x="396.24" y="196"/><line style="stroke:#181818;stroke-width:0.5;" x1="396.24" x2="462.9773" y1="222.4883" y2="222.4883"/><text fill="#000000" font-family="sans-serif" font-size="14" lengthAdjust="spacing" textLength="46.7373" x="406.24" y="214.5352">FAILED</text></g><g id="REJECTED"><rect fill="#F1F1F1" height="50" rx="12.5" ry="12.5" style="stroke:#181818;stroke-width:0.5;" width="84.9961" x="498.11" y="196"/><line style="stroke:#181818;stroke-width:0.5;" x1="498.11" x2="583.1061" y1="222.4883" y2="222.4883"/><text fill="#000000" font-family="sans-serif" font-size="14" lengthAdjust="spacing" textLength="64.9961" x="508.11" y="214.5352">REJECTED</text></g><g id="NO_SHOW"><rect fill="#F1F1F1" height="50" rx="12.5" ry="12.5" style="stroke:#181818;stroke-width:0.5;" width="88.8994" x="202.16" y="306"/><line style="stroke:#181818;stroke-width:0.5;" x1="202.16" x2="291.0594" y1="332.4883" y2="332.4883"/><text fill="#000000" font-family="sans-serif" font-size="14" lengthAdjust="spacing" textLength="68.8994" x="212.16" y="324.5352">NO_SHOW</text></g><g id="FULFILLED"><rect fill="#F1F1F1" height="50" rx="12.5" ry="12.5" style="stroke:#181818;stroke-width:0.5;" width="89.2139" x="7" y="306"/><line style="stroke:#181818;stroke-width:0.5;" x1="7" x2="96.2139" y1="332.4883" y2="332.4883"/><text fill="#000000" font-family="sans-serif" font-size="14" lengthAdjust="spacing" textLength="69.2139" x="17" y="324.5352">FULFILLED</text></g><ellipse cx="294.61" cy="427" fill="none" rx="11" ry="11" style="stroke:#222222;stroke-width:1.0;"/><ellipse cx="294.61" cy="427" fill="#222222" rx="6" ry="6" style="stroke:#222222;stroke-width:1.0;"/><!--link *start* to PENDING--><g id="link_*start*_PENDING"><path d="M384.36,25.58 C377.69,39.07 367.1615,60.3626 357.3815,80.1226 " fill="none" id="*start*-to-PENDING" style="stroke:#181818;stroke-width:1.0;"/><polygon fill="#181818" points="354.72,85.5,362.2972,79.2082,356.9379,81.0188,355.1273,75.6596,354.72,85.5" style="stroke:#181818;stroke-width:1.0;"/></g><!--link *start* to RESERVED--><g id="link_*start*_RESERVED"><path d="M379.22,20.56 C358.77,28.8 310.03,51.18 284.61,86 C260.51,119 252.341,160.8676 249.111,189.5676 " fill="none" id="*start*-to-RESERVED" style="stroke:#181818;stroke-width:1.0;"/><polygon fill="#181818" points="248.44,195.53,253.4214,187.0338,248.9992,190.5614,245.4716,186.1391,248.44,195.53" style="stroke:#181818;stroke-width:1.0;"/></g><!--link *start* to FAILED--><g id="link_*start*_FAILED"><path d="M390.48,26.25 C396.51,56.11 414.4018,144.7388 423.5018,189.7788 " fill="none" id="*start*-to-FAILED" style="stroke:#181818;stroke-width:1.0;"/><polygon fill="#181818" points="424.69,195.66,426.8284,186.0461,423.6998,190.759,418.9869,187.6304,424.69,195.66" style="stroke:#181818;stroke-width:1.0;"/></g><!--link *start* to REJECTED--><g id="link_*start*_REJECTED"><path d="M394.38,24.71 C415.37,52.74 484.5734,145.1675 518.8734,190.9675 " fill="none" id="*start*-to-REJECTED" style="stroke:#181818;stroke-width:1.0;"/><polygon fill="#181818" points="522.47,195.77,520.2767,186.1685,519.4728,191.7679,513.8734,190.964,522.47,195.77" style="stroke:#181818;stroke-width:1.0;"/></g><!--link RESERVED to NO_SHOW--><g id="link_RESERVED_NO_SHOW"><path d="M246.61,246.24 C246.61,264.02 246.61,282.08 246.61,299.84 " fill="none" id="RESERVED-to-NO_SHOW" style="stroke:#181818;stroke-width:1.0;"/><polygon fill="#181818" points="246.61,305.84,250.61,296.84,246.61,300.84,242.61,296.84,246.61,305.84" style="stroke:#181818;stroke-width:1.0;"/></g><!--link RESERVED to FULFILLED--><g id="link_RESERVED_FULFILLED"><path d="M202.85,246.24 C170.84,263.96 132.8588,285.0031 100.8088,302.7531 " fill="none" id="RESERVED-to-FULFILLED" style="stroke:#181818;stroke-width:1.0;"/><polygon fill="#181818" points="95.56,305.66,105.3711,304.7988,99.934,303.2376,101.4953,297.8004,95.56,305.66" style="stroke:#181818;stroke-width:1.0;"/></g><!--link RESERVED to PENDING--><g id="link_RESERVED_PENDING"><path d="M279.23,195.84 C297.65,178.08 315.4669,158.8401 328.6469,141.0601 " fill="none" id="RESERVED-to-PENDING" style="stroke:#181818;stroke-width:1.0;"/><polygon fill="#181818" points="332.22,136.24,323.647,141.0881,329.2425,140.2567,330.0738,145.8522,332.22,136.24" style="stroke:#181818;stroke-width:1.0;"/></g><!--link PENDING to RESERVED--><g id="link_PENDING_RESERVED"><path d="M309.9,136.24 C291.47,154.02 273.6621,173.2592 260.5021,191.0192 " fill="none" id="PENDING-to-RESERVED" style="stroke:#181818;stroke-width:1.0;"/><polygon fill="#181818" points="256.93,195.84,265.5021,190.9903,259.9068,191.8227,259.0744,186.2274,256.93,195.84" style="stroke:#181818;stroke-width:1.0;"/></g><!--link PENDING to FAILED--><g id="link_PENDING_FAILED"><path d="M362.13,136.24 C376.46,154.02 392.0639,173.4092 406.3839,191.1692 " fill="none" id="PENDING-to-FAILED" style="stroke:#181818;stroke-width:1.0;"/><polygon fill="#181818" points="410.15,195.84,407.6147,186.323,407.0116,191.9477,401.387,191.3445,410.15,195.84" style="stroke:#181818;stroke-width:1.0;"/></g><!--link PENDING to REJECTED--><g id="link_PENDING_REJECTED"><path d="M383.15,134.12 C416.53,152.32 458.4529,175.1863 492.4529,193.7363 " fill="none" id="PENDING-to-REJECTED" style="stroke:#181818;stroke-width:1.0;"/><polygon fill="#181818" points="497.72,196.61,491.7352,188.7881,493.3308,194.2153,487.9036,195.8109,497.72,196.61" style="stroke:#181818;stroke-width:1.0;"/></g><!--link PENDING to *end*--><g id="link_PENDING_*end*"><path d="M339.7,136.32 C334.34,180.28 322.19,275.88 308.61,356 C304.96,377.51 300.9749,396.6648 298.0549,410.2048 " fill="none" id="PENDING-to-*end*" style="stroke:#181818;stroke-width:1.0;"/><polygon fill="#181818" points="296.79,416.07,302.5974,408.1155,297.8441,411.1824,294.7772,406.429,296.79,416.07" style="stroke:#181818;stroke-width:1.0;"/></g><!--link NO_SHOW to *end*--><g id="link_NO_SHOW_*end*"><path d="M258.97,356.21 C269.08,376.01 280.1022,397.5859 287.2022,411.4959 " fill="none" id="NO_SHOW-to-*end*" style="stroke:#181818;stroke-width:1.0;"/><polygon fill="#181818" points="289.93,416.84,289.4011,407.0054,287.6569,412.3866,282.2756,410.6424,289.93,416.84" style="stroke:#181818;stroke-width:1.0;"/></g><!--link FULFILLED to *end*--><g id="link_FULFILLED_*end*"><path d="M96.46,349.35 C154.88,371.95 247.6643,407.8348 279.0643,419.9848 " fill="none" id="FULFILLED-to-*end*" style="stroke:#181818;stroke-width:1.0;"/><polygon fill="#181818" points="284.66,422.15,277.7099,415.1717,279.9969,420.3457,274.823,422.6326,284.66,422.15" style="stroke:#181818;stroke-width:1.0;"/></g><!--link RESERVED to *end*--><g id="link_RESERVED_*end*"><path d="M221.41,246.21 C196.28,273.43 164.13,318.7 184.61,356 C206.28,395.49 254.9954,414.1153 278.1654,421.2453 " fill="none" id="RESERVED-to-*end*" style="stroke:#181818;stroke-width:1.0;"/><polygon fill="#181818" points="283.9,423.01,276.4745,416.5399,279.1211,421.5394,274.1216,424.186,283.9,423.01" style="stroke:#181818;stroke-width:1.0;"/></g><!--link FAILED to *end*--><g id="link_FAILED_*end*"><path d="M422.04,246.27 C412.56,274.34 394.5,321.16 369.61,356 C349.93,383.53 322.9714,405.1887 307.8914,416.3587 " fill="none" id="FAILED-to-*end*" style="stroke:#181818;stroke-width:1.0;"/><polygon fill="#181818" points="303.07,419.93,312.683,417.7873,307.0878,416.9539,307.9212,411.3588,303.07,419.93" style="stroke:#181818;stroke-width:1.0;"/></g><!--link REJECTED to *end*--><g id="link_REJECTED_*end*"><path d="M520.19,246.3 C495.69,274.62 452.52,321.88 409.61,356 C373.57,384.66 330.2345,407.9331 309.7145,418.4031 " fill="none" id="REJECTED-to-*end*" style="stroke:#181818;stroke-width:1.0;"/><polygon fill="#181818" points="304.37,421.13,314.2047,420.6026,308.8238,418.8575,310.5688,413.4766,304.37,421.13" style="stroke:#181818;stroke-width:1.0;"/></g><!--SRC=[YzQALT3LjLC8SFLpyVHpvug6yeDSWrs3mbnTu09kZfu-IDmWLozNvn2W01TC9LZOppy-sCC_75NGBTJ7pTC7f1j566Ob5vI1QY-o8DHkL7Km-v55WQxZWZe1peVR3XT1SGL43TW211zcEbm40000]--></g></svg>