<svg xmlns="http://www.w3.org/2000/svg" xmlns:xlink="http://www.w3.org/1999/xlink" contentStyleType="text/css" height="444px" preserveAspectRatio="none" style="width:640px;height:444px;background:#FFFFFF;" version="1.1" viewBox="0 0 640 444" width="640px" zoomAndPan="magnify"><defs/><g><ellipse cx="199.37" cy="16" fill="#222222" rx="10" ry="10" style="stroke:#222222;stroke-width:1.0;"/><g id="PENDING"><rect fill="#F1F1F1" height="50" rx="12.5" ry="12.5" style="stroke:#181818;stroke-width:0.5;" width="80.6484" x="206.04" y="86"/><line style="stroke:#181818;stroke-width:0.5;" x1="206.04" x2="286.6884" y1="112.4883" y2="112.4883"/><text fill="#000000" font-family="sans-serif" font-size="14" lengthAdjust="spacing" textLength="60.6484" x="216.04" y="104.5352">PENDING</text></g><g id="RESERVED"><rect fill="#F1F1F1" height="50" rx="12.5" ry="12.5" style="stroke:#181818;stroke-width:0.5;" width="87.6484" x="370.54" y="196"/><line style="stroke:#181818;stroke-width:0.5;" x1="370.54" x2="458.1884" y1="222.4883" y2="222.4883"/><text fill="#000000" font-family="sans-serif" font-size="14" lengthAdjust="spacing" textLength="67.6484" x="380.54" y="214.5352">RESERVED</text></g><g id="FAILED"><rect fill="#F1F1F1" height="50" rx="12.5" ry="12.5" style="stroke:#181818;stroke-width:0.5;" width="66.7373" x="7" y="196"/><line style="stroke:#181818;stroke-width:0.5;" x1="7" x2="73.7373" y1="222.4883" y2="222.4883"/><text fill="#000000" font-family="sans-serif" font-size="14" lengthAdjust="spacing" textLength="46.7373" x="17" y="214.5352">FAILED</text></g><g id="REJECTED"><rect fill="#F1F1F1" height="50" rx="12.5" ry="12.5" style="stroke:#181818;stroke-width:0.5;" width="84.9961" x="108.87" y="196"/><line style="stroke:#181818;stroke-width:0.5;" x1="108.87" x2="193.8661" y1="222.4883" y2="222.4883"/><text fill="#000000" font-family="sans-serif" font-size="14" lengthAdjust="spacing" textLength="64.9961" x="118.87" y="214.5352">REJECTED</text></g><g id="NO_SHOW"><rect fill="#F1F1F1" height="50" rx="12.5" ry="12.5" style="stroke:#181818;stroke-width:0.5;" width="88.8994" x="420.92" y="306"/><line style="stroke:#181818;stroke-width:0.5;" x1="420.92" x2="509.8194" y1="332.4883" y2="332.4883"/><text fill="#000000" font-family="sans-serif" font-size="14" lengthAdjust="spacing" textLength="68.8994" x="430.92" y="324.5352">NO_SHOW</text></g><g id="FULFILLED"><rect fill="#F1F1F1" height="50" rx="12.5" ry="12.5" style="stroke:#181818;stroke-width:0.5;" width="89.2139" x="544.76" y="306"/><line style="stroke:#181818;stroke-width:0.5;" x1="544.76" x2="633.9739" y1="332.4883" y2="332.4883"/><text fill="#000000" font-family="sans-serif" font-size="14" lengthAdjust="spacing" textLength="69.2139" x="554.76" y="324.5352">FULFILLED</text></g><g id="CANCELED"><rect fill="#F1F1F1" height="50" rx="12.5" ry="12.5" style="stroke:#181818;stroke-width:0.5;" width="92.502" x="293.12" y="306"/><line style="stroke:#181818;stroke-width:0.5;" x1="293.12" x2="385.622" y1="332.4883" y2="332.4883"/><text fill="#000000" font-family="sans-serif" font-size="14" lengthAdjust="spacing" textLength="72.502" x="303.12" y="324.5352">CANCELED</text></g><ellipse cx="289.37" cy="427" fill="none" rx="11" ry="11" style="stroke:#222222;stroke-width:1.0;"/><ellipse cx="289.37" cy="427" fill="#222222" rx="6" ry="6" style="stroke:#222222;stroke-width:1.0;"/><!--link *start* to PENDING--><g id="link_*start*_PENDING"><path d="M203.54,25.25 C210.32,38.68 221.3042,60.3948 231.3842,80.3448 " fill="none" id="*start*-to-PENDING" style="stroke:#181818;stroke-width:1.0;"/><polygon fill="#181818" points="234.09,85.7,233.6015,75.8633,231.8352,81.2373,226.4611,79.471,234.09,85.7" style="stroke:#181818;stroke-width:1.0;"/></g><!--link *start* to RESERVED--><g id="link_*start*_RESERVED"><path d="M208.15,21.57 C227.01,31.64 272.25,57.12 304.37,86 C342.08,119.91 374.3422,162.3266 394.3622,190.7166 " fill="none" id="*start*-to-RESERVED" style="stroke:#181818;stroke-width:1.0;"/><polygon fill="#181818" points="397.82,195.62,395.9023,185.9597,394.9385,191.5338,389.3644,190.57,397.82,195.62" style="stroke:#181818;stroke-width:1.0;"/></g><!--link *start* to FAILED--><g id="link_*start*_FAILED"><path d="M193.71,24.22 C172.3,51.56 99.3494,144.6962 63.1994,190.8562 " fill="none" id="*start*-to-FAILED" style="stroke:#181818;stroke-width:1.0;"/><polygon fill="#181818" points="59.5,195.58,68.1983,190.9606,62.5829,191.6435,61.8999,186.028,59.5,195.58" style="stroke:#181818;stroke-width:1.0;"/></g><!--link *start* to REJECTED--><g id="link_*start*_REJECTED"><path d="M197.18,26.25 C190.12,56.11 169.1507,144.781 158.5007,189.821 " fill="none" id="*start*-to-REJECTED" style="stroke:#181818;stroke-width:1.0;"/><polygon fill="#181818" points="157.12,195.66,163.0837,187.822,158.2706,190.7942,155.2983,185.9811,157.12,195.66" style="stroke:#181818;stroke-width:1.0;"/></g><!--link RESERVED to NO_SHOW--><g id="link_RESERVED_NO_SHOW"><path d="M425.81,246.24 C434.21,264.02 443.0071,282.6549 451.3971,300.4149 " fill="none" id="RESERVED-to-NO_SHOW" style="stroke:#181818;stroke-width:1.0;"/><polygon fill="#181818" points="453.96,305.84,453.7324,295.9938,451.8243,301.3191,446.499,299.4109,453.96,305.84" style="stroke:#181818;stroke-width:1.0;"/></g><!--link RESERVED to FULFILLED--><g id="link_RESERVED_FULFILLED"><path d="M453.64,246.24 C482.36,263.96 516.0541,284.7588 544.8141,302.5088 " fill="none" id="RESERVED-to-FULFILLED" style="stroke:#181818;stroke-width:1.0;"/><polygon fill="#181818" points="549.92,305.66,544.362,297.5293,545.6651,303.034,540.1604,304.3371,549.92,305.66" style="stroke:#181818;stroke-width:1.0;"/></g><!--link RESERVED to PENDING--><g id="link_RESERVED_PENDING"><path d="M387.69,195.67 C360.41,176.3 323.734,152.5363 292.384,134.5463 " fill="none" id="RESERVED-to-PENDING" style="stroke:#181818;stroke-width:1.0;"/><polygon fill="#181818" points="287.18,131.56,292.9952,139.5088,291.5167,134.0486,296.9769,132.5701,287.18,131.56" style="stroke:#181818;stroke-width:1.0;"/></g><!--link PENDING to RESERVED--><g id="link_PENDING_RESERVED"><path d="M272.91,136.24 C299.27,154.96 334.1387,177.6117 365.1487,195.5817 " fill="none" id="PENDING-to-RESERVED" style="stroke:#181818;stroke-width:1.0;"/><polygon fill="#181818" points="370.34,198.59,364.5586,190.6166,366.0139,196.0831,360.5474,197.5384,370.34,198.59" style="stroke:#181818;stroke-width:1.0;"/></g><!--link RESERVED to CANCELED--><g id="link_RESERVED_CANCELED"><path d="M397.54,246.24 C385.19,264.02 371.9036,283.1526 359.5636,300.9126 " fill="none" id="RESERVED-to-CANCELED" style="stroke:#181818;stroke-width:1.0;"/><polygon fill="#181818" points="356.14,305.84,364.5603,300.7314,358.993,301.7339,357.9905,296.1666,356.14,305.84" style="stroke:#181818;stroke-width:1.0;"/></g><!--link PENDING to FAILED--><g id="link_PENDING_FAILED"><path d="M205.67,133.34 C167.21,153.5 115.5042,180.6145 79.4842,199.4945 " fill="none" id="PENDING-to-FAILED" style="stroke:#181818;stroke-width:1.0;"/><polygon fill="#181818" points="74.17,202.28,83.9983,201.6446,78.5985,199.9588,80.2844,194.559,74.17,202.28" style="stroke:#181818;stroke-width:1.0;"/></g><!--link PENDING to REJECTED--><g id="link_PENDING_REJECTED"><path d="M225.05,136.24 C209.4,154.02 192.2139,173.5759 176.5839,191.3359 " fill="none" id="PENDING-to-REJECTED" style="stroke:#181818;stroke-width:1.0;"/><polygon fill="#181818" points="172.62,195.84,181.5687,191.7264,175.9233,192.0866,175.5632,186.4412,172.62,195.84" style="stroke:#181818;stroke-width:1.0;"/></g><!--link PENDING to CANCELED--><g id="link_PENDING_CANCELED"><path d="M256.68,136.16 C274.55,178.07 308.7566,258.2308 326.6566,300.2108 " fill="none" id="PENDING-to-CANCELED" style="stroke:#181818;stroke-width:1.0;"/><polygon fill="#181818" points="329.01,305.73,329.1594,295.8823,327.0489,301.1307,321.8005,299.0201,329.01,305.73" style="stroke:#181818;stroke-width:1.0;"/></g><!--link PENDING to *end*--><g id="link_PENDING_*end*"><path d="M248.62,136.33 C252.82,180.32 262.63,275.96 275.37,356 C278.8,377.54 282.8312,396.6923 285.8312,410.2223 " fill="none" id="PENDING-to-*end*" style="stroke:#181818;stroke-width:1.0;"/><polygon fill="#181818" points="287.13,416.08,289.0869,406.4275,286.0476,411.1986,281.2766,408.1593,287.13,416.08" style="stroke:#181818;stroke-width:1.0;"/></g><!--link NO_SHOW to *end*--><g id="link_NO_SHOW_*end*"><path d="M420.5,355.96 C379.36,377.94 326.7924,406.0133 304.2124,418.0733 " fill="none" id="NO_SHOW-to-*end*" style="stroke:#181818;stroke-width:1.0;"/><polygon fill="#181818" points="298.92,420.9,308.7431,420.1882,303.3304,418.5444,304.9742,413.1317,298.92,420.9" style="stroke:#181818;stroke-width:1.0;"/></g><!--link FULFILLED to *end*--><g id="link_FULFILLED_*end*"><path d="M544.49,349.88 C538.76,352.01 532.94,354.11 527.37,356 C440.51,385.53 339.2308,412.8467 305.7108,421.7067 " fill="none" id="FULFILLED-to-*end*" style="stroke:#181818;stroke-width:1.0;"/><polygon fill="#181818" points="299.91,423.24,309.6334,424.8073,304.744,421.9623,307.589,417.0729,299.91,423.24" style="stroke:#181818;stroke-width:1.0;"/></g><!--link FAILED to *end*--><g id="link_FAILED_*end*"><path d="M62.23,246.37 C88.16,274.53 133.44,321.45 177.37,356 C212.87,383.93 254.7767,407.4762 274.6367,418.1662 " fill="none" id="FAILED-to-*end*" style="stroke:#181818;stroke-width:1.0;"/><polygon fill="#181818" points="279.92,421.01,273.891,413.2221,275.5173,418.6402,270.0992,420.2665,279.92,421.01" style="stroke:#181818;stroke-width:1.0;"/></g><!--link REJECTED to *end*--><g id="link_REJECTED_*end*"><path d="M159.66,246.49 C169.87,274.57 189.01,321.2 214.37,356 C234.3,383.35 261.1569,405.0641 276.1569,416.2941 " fill="none" id="REJECTED-to-*end*" style="stroke:#181818;stroke-width:1.0;"/><polygon fill="#181818" points="280.96,419.89,276.1527,411.2941,276.9574,416.8934,271.3581,417.6982,280.96,419.89" style="stroke:#181818;stroke-width:1.0;"/></g><!--link CANCELED to *end*--><g id="link_CANCELED_*end*"><path d="M326.49,356.21 C315.96,376.01 304.458,397.6329 297.058,411.5429 " fill="none" id="CANCELED-to-*end*" style="stroke:#181818;stroke-width:1.0;"/><polygon fill="#181818" points="294.24,416.84,301.9984,410.7731,296.5883,412.4258,294.9356,407.0157,294.24,416.84" style="stroke:#181818;stroke-width:1.0;"/></g><!--SRC=[ROzB3e0W34Jtd8Ar2LSmCL0KGy20duKntlyMAYcV9YxdTTgPdjt5XUZv0auPDx8JTO08OGTLW1wCRMI06UJw0fQT2Jj_nyaV5EhDQcE_RO9p985oS18-AyCnRTD2R4HzsAg5_oVVHnYsBReKhIHb99bq3gWaNo_a0G00]--></g></svg>