<?xml version="1.0" encoding="UTF-8" standalone="no"?><svg xmlns="http://www.w3.org/2000/svg" xmlns:xlink="http://www.w3.org/1999/xlink" contentScriptType="application/ecmascript" contentStyleType="text/css" height="392px" preserveAspectRatio="none" style="width:833px;height:392px;" version="1.1" viewBox="0 0 833 392" width="833px" zoomAndPan="magnify"><defs><filter height="300%" id="f111yvw1aa42hn" width="300%" x="-1" y="-1"><feGaussianBlur result="blurOut" stdDeviation="2.0"/><feColorMatrix in="blurOut" result="blurOut2" type="matrix" values="0 0 0 0 0 0 0 0 0 0 0 0 0 0 0 0 0 0 .4 0"/><feOffset dx="4.0" dy="4.0" in="blurOut2" result="blurOut3"/><feBlend in="SourceGraphic" in2="blurOut3" mode="normal"/></filter></defs><g><text fill="#000000" font-family="sans-serif" font-size="14" font-weight="bold" lengthAdjust="spacingAndGlyphs" textLength="522" x="162.75" y="22.9951">OCPI Command START_SESSION -&gt; ACCEPTED and Session started</text><rect fill="#FFFFFF" filter="url(#f111yvw1aa42hn)" height="29.1328" style="stroke: #A80036; stroke-width: 1.0;" width="10" x="31.5" y="99.5938"/><rect fill="#FFFFFF" filter="url(#f111yvw1aa42hn)" height="14.1328" style="stroke: #A80036; stroke-width: 1.0;" width="10" x="31.5" y="216.125"/><rect fill="#FFFFFF" filter="url(#f111yvw1aa42hn)" height="14.1328" style="stroke: #A80036; stroke-width: 1.0;" width="10" x="31.5" y="359.6563"/><rect fill="#FFFFFF" filter="url(#f111yvw1aa42hn)" height="58.2656" style="stroke: #A80036; stroke-width: 1.0;" width="10" x="435.5" y="99.5938"/><rect fill="#FFFFFF" filter="url(#f111yvw1aa42hn)" height="43.2656" style="stroke: #A80036; stroke-width: 1.0;" width="10" x="435.5" y="186.9922"/><rect fill="#FFFFFF" filter="url(#f111yvw1aa42hn)" height="72.3984" style="stroke: #A80036; stroke-width: 1.0;" width="10" x="435.5" y="301.3906"/><rect fill="#FFFFFF" filter="url(#f111yvw1aa42hn)" height="172.6641" style="stroke: #A80036; stroke-width: 1.0;" width="10" x="728.5" y="157.8594"/><line style="stroke: #A80036; stroke-width: 1.0; stroke-dasharray: 5.0,5.0;" x1="36" x2="36" y1="68.5938" y2="391.7891"/><line style="stroke: #A80036; stroke-width: 1.0; stroke-dasharray: 5.0,5.0;" x1="440.5" x2="440.5" y1="68.5938" y2="391.7891"/><line style="stroke: #A80036; stroke-width: 1.0; stroke-dasharray: 5.0,5.0;" x1="733" x2="733" y1="68.5938" y2="391.7891"/><rect fill="#FEFECE" filter="url(#f111yvw1aa42hn)" height="30.2969" style="stroke: #A80036; stroke-width: 1.5;" width="53" x="8" y="33.2969"/><text fill="#000000" font-family="sans-serif" font-size="14" lengthAdjust="spacingAndGlyphs" textLength="39" x="15" y="53.292">eMSP</text><rect fill="#FEFECE" filter="url(#f111yvw1aa42hn)" height="30.2969" style="stroke: #A80036; stroke-width: 1.5;" width="44" x="416.5" y="33.2969"/><text fill="#000000" font-family="sans-serif" font-size="14" lengthAdjust="spacingAndGlyphs" textLength="30" x="423.5" y="53.292">CPO</text><rect fill="#FEFECE" filter="url(#f111yvw1aa42hn)" height="30.2969" style="stroke: #A80036; stroke-width: 1.5;" width="103" x="680" y="33.2969"/><text fill="#000000" font-family="sans-serif" font-size="14" lengthAdjust="spacingAndGlyphs" textLength="89" x="687" y="53.292">Charge Point</text><rect fill="#FFFFFF" filter="url(#f111yvw1aa42hn)" height="29.1328" style="stroke: #A80036; stroke-width: 1.0;" width="10" x="31.5" y="99.5938"/><rect fill="#FFFFFF" filter="url(#f111yvw1aa42hn)" height="14.1328" style="stroke: #A80036; stroke-width: 1.0;" width="10" x="31.5" y="216.125"/><rect fill="#FFFFFF" filter="url(#f111yvw1aa42hn)" height="14.1328" style="stroke: #A80036; stroke-width: 1.0;" width="10" x="31.5" y="359.6563"/><rect fill="#FFFFFF" filter="url(#f111yvw1aa42hn)" height="58.2656" style="stroke: #A80036; stroke-width: 1.0;" width="10" x="435.5" y="99.5938"/><rect fill="#FFFFFF" filter="url(#f111yvw1aa42hn)" height="43.2656" style="stroke: #A80036; stroke-width: 1.0;" width="10" x="435.5" y="186.9922"/><rect fill="#FFFFFF" filter="url(#f111yvw1aa42hn)" height="72.3984" style="stroke: #A80036; stroke-width: 1.0;" width="10" x="435.5" y="301.3906"/><rect fill="#FFFFFF" filter="url(#f111yvw1aa42hn)" height="172.6641" style="stroke: #A80036; stroke-width: 1.0;" width="10" x="728.5" y="157.8594"/><polygon fill="#A80036" points="423.5,95.5938,433.5,99.5938,423.5,103.5938,427.5,99.5938" style="stroke: #A80036; stroke-width: 1.0;"/><line style="stroke: #A80036; stroke-width: 1.0;" x1="41.5" x2="429.5" y1="99.5938" y2="99.5938"/><text fill="#000000" font-family="sans-serif" font-size="13" lengthAdjust="spacingAndGlyphs" textLength="380" x="48.5" y="94.6606">Command(START_SESSION, location_id=1234, token=200)</text><polygon fill="#A80036" points="47.5,124.7266,37.5,128.7266,47.5,132.7266,43.5,128.7266" style="stroke: #A80036; stroke-width: 1.0;"/><line style="stroke: #A80036; stroke-width: 1.0; stroke-dasharray: 2.0,2.0;" x1="41.5" x2="434.5" y1="128.7266" y2="128.7266"/><text fill="#000000" font-family="sans-serif" font-size="13" lengthAdjust="spacingAndGlyphs" textLength="87" x="53.5" y="123.7935">SUCCESSFUL</text><polygon fill="#A80036" points="716.5,153.8594,726.5,157.8594,716.5,161.8594,720.5,157.8594" style="stroke: #A80036; stroke-width: 1.0;"/><line style="stroke: #A80036; stroke-width: 1.0;" x1="440.5" x2="722.5" y1="157.8594" y2="157.8594"/><text fill="#000000" font-family="sans-serif" font-size="13" lengthAdjust="spacingAndGlyphs" textLength="264" x="447.5" y="152.9263">RemoteStartTransaction.req(Token=200)</text><polygon fill="#A80036" points="456.5,182.9922,446.5,186.9922,456.5,190.9922,452.5,186.9922" style="stroke: #A80036; stroke-width: 1.0;"/><line style="stroke: #A80036; stroke-width: 1.0;" x1="450.5" x2="727.5" y1="186.9922" y2="186.9922"/><text fill="#000000" font-family="sans-serif" font-size="13" lengthAdjust="spacingAndGlyphs" textLength="257" x="462.5" y="182.0591">RemoteStartTransaction.conf(Accepted)</text><polygon fill="#A80036" points="52.5,212.125,42.5,216.125,52.5,220.125,48.5,216.125" style="stroke: #A80036; stroke-width: 1.0;"/><line style="stroke: #A80036; stroke-width: 1.0;" x1="46.5" x2="434.5" y1="216.125" y2="216.125"/><text fill="#000000" font-family="sans-serif" font-size="13" lengthAdjust="spacingAndGlyphs" textLength="226" x="58.5" y="211.1919">CommandResponse(SUCCESSFUL)</text><polygon fill="#A80036" points="428.5,226.2578,438.5,230.2578,428.5,234.2578,432.5,230.2578" style="stroke: #A80036; stroke-width: 1.0;"/><line style="stroke: #A80036; stroke-width: 1.0; stroke-dasharray: 2.0,2.0;" x1="36.5" x2="434.5" y1="230.2578" y2="230.2578"/><line style="stroke: #A80036; stroke-width: 1.0; stroke-dasharray: 2.0,2.0;" x1="738.5" x2="780.5" y1="259.3906" y2="259.3906"/><line style="stroke: #A80036; stroke-width: 1.0; stroke-dasharray: 2.0,2.0;" x1="780.5" x2="780.5" y1="259.3906" y2="272.3906"/><line style="stroke: #A80036; stroke-width: 1.0; stroke-dasharray: 2.0,2.0;" x1="739.5" x2="780.5" y1="272.3906" y2="272.3906"/><polygon fill="#A80036" points="749.5,268.3906,739.5,272.3906,749.5,276.3906,745.5,272.3906" style="stroke: #A80036; stroke-width: 1.0;"/><text fill="#000000" font-family="sans-serif" font-size="13" lengthAdjust="spacingAndGlyphs" textLength="87" x="745.5" y="254.3247">EV Plugged in</text><polygon fill="#A80036" points="456.5,297.3906,446.5,301.3906,456.5,305.3906,452.5,301.3906" style="stroke: #A80036; stroke-width: 1.0;"/><line style="stroke: #A80036; stroke-width: 1.0;" x1="450.5" x2="727.5" y1="301.3906" y2="301.3906"/><text fill="#000000" font-family="sans-serif" font-size="13" lengthAdjust="spacingAndGlyphs" textLength="214" x="462.5" y="296.4575">StartTransaction.req(Token=200)</text><polygon fill="#A80036" points="721.5,326.5234,731.5,330.5234,721.5,334.5234,725.5,330.5234" style="stroke: #A80036; stroke-width: 1.0;"/><line style="stroke: #A80036; stroke-width: 1.0;" x1="445.5" x2="727.5" y1="330.5234" y2="330.5234"/><text fill="#000000" font-family="sans-serif" font-size="13" lengthAdjust="spacingAndGlyphs" textLength="259" x="452.5" y="325.5903">StartTransaction.conf(TransactionId=15)</text><polygon fill="#A80036" points="52.5,355.6563,42.5,359.6563,52.5,363.6563,48.5,359.6563" style="stroke: #A80036; stroke-width: 1.0;"/><line style="stroke: #A80036; stroke-width: 1.0;" x1="46.5" x2="434.5" y1="359.6563" y2="359.6563"/><text fill="#000000" font-family="sans-serif" font-size="13" lengthAdjust="spacingAndGlyphs" textLength="296" x="58.5" y="354.7231">Session(id=15, token=200, location_id=1234)</text><polygon fill="#A80036" points="428.5,369.7891,438.5,373.7891,428.5,377.7891,432.5,373.7891" style="stroke: #A80036; stroke-width: 1.0;"/><line style="stroke: #A80036; stroke-width: 1.0; stroke-dasharray: 2.0,2.0;" x1="36.5" x2="434.5" y1="373.7891" y2="373.7891"/></g></svg>