<?xml version="1.0" encoding="UTF-8" standalone="no"?><svg xmlns="http://www.w3.org/2000/svg" xmlns:xlink="http://www.w3.org/1999/xlink" contentScriptType="application/ecmascript" contentStyleType="text/css" height="508px" preserveAspectRatio="none" style="width:939px;height:508px;" version="1.1" viewBox="0 0 939 508" width="939px" zoomAndPan="magnify"><defs><filter height="300%" id="f295rh0texqa3" width="300%" x="-1" y="-1"><feGaussianBlur result="blurOut" stdDeviation="2.0"/><feColorMatrix in="blurOut" result="blurOut2" type="matrix" values="0 0 0 0 0 0 0 0 0 0 0 0 0 0 0 0 0 0 .4 0"/><feOffset dx="4.0" dy="4.0" in="blurOut2" result="blurOut3"/><feBlend in="SourceGraphic" in2="blurOut3" mode="normal"/></filter></defs><g><rect fill="#FFFFFF" filter="url(#f295rh0texqa3)" height="29.1328" style="stroke: #A80036; stroke-width: 1.0;" width="10" x="31.5" y="99.6953"/><rect fill="#FFFFFF" filter="url(#f295rh0texqa3)" height="14" style="stroke: #A80036; stroke-width: 1.0;" width="10" x="31.5" y="216.2266"/><rect fill="#FFFFFF" filter="url(#f295rh0texqa3)" height="14" style="stroke: #A80036; stroke-width: 1.0;" width="10" x="31.5" y="464.2891"/><rect fill="#FFFFFF" filter="url(#f295rh0texqa3)" height="58.2656" style="stroke: #A80036; stroke-width: 1.0;" width="10" x="535.5" y="99.6953"/><rect fill="#FFFFFF" filter="url(#f295rh0texqa3)" height="43.1328" style="stroke: #A80036; stroke-width: 1.0;" width="10" x="535.5" y="187.0938"/><rect fill="#FFFFFF" filter="url(#f295rh0texqa3)" height="29.1328" style="stroke: #A80036; stroke-width: 1.0;" width="10" x="535.5" y="283.4922"/><rect fill="#FFFFFF" filter="url(#f295rh0texqa3)" height="87.3984" style="stroke: #A80036; stroke-width: 1.0;" width="10" x="535.5" y="390.8906"/><rect fill="#FFFFFF" filter="url(#f295rh0texqa3)" height="154.6641" style="stroke: #A80036; stroke-width: 1.0;" width="10" x="828.5" y="157.9609"/><rect fill="#FFFFFF" filter="url(#f295rh0texqa3)" height="75.3984" style="stroke: #000000; stroke-width: 2.0;" width="390.5" x="506.5" y="245.2266"/><line style="stroke: #A80036; stroke-width: 1.0; stroke-dasharray: 5.0,5.0;" x1="36" x2="36" y1="38.2969" y2="496.2891"/><line style="stroke: #A80036; stroke-width: 1.0; stroke-dasharray: 5.0,5.0;" x1="540.5" x2="540.5" y1="38.2969" y2="496.2891"/><line style="stroke: #A80036; stroke-width: 1.0; stroke-dasharray: 5.0,5.0;" x1="833" x2="833" y1="38.2969" y2="496.2891"/><rect fill="#FEFECE" filter="url(#f295rh0texqa3)" height="30.2969" style="stroke: #A80036; stroke-width: 1.5;" width="53" x="8" y="3"/><text fill="#000000" font-family="sans-serif" font-size="14" lengthAdjust="spacingAndGlyphs" textLength="39" x="15" y="22.9951">eMSP</text><rect fill="#FEFECE" filter="url(#f295rh0texqa3)" height="30.2969" style="stroke: #A80036; stroke-width: 1.5;" width="44" x="516.5" y="3"/><text fill="#000000" font-family="sans-serif" font-size="14" lengthAdjust="spacingAndGlyphs" textLength="30" x="523.5" y="22.9951">CPO</text><rect fill="#FEFECE" filter="url(#f295rh0texqa3)" height="30.2969" style="stroke: #A80036; stroke-width: 1.5;" width="103" x="780" y="3"/><text fill="#000000" font-family="sans-serif" font-size="14" lengthAdjust="spacingAndGlyphs" textLength="89" x="787" y="22.9951">Charge Point</text><rect fill="#FFFFFF" filter="url(#f295rh0texqa3)" height="29.1328" style="stroke: #A80036; stroke-width: 1.0;" width="10" x="31.5" y="99.6953"/><rect fill="#FFFFFF" filter="url(#f295rh0texqa3)" height="14" style="stroke: #A80036; stroke-width: 1.0;" width="10" x="31.5" y="216.2266"/><rect fill="#FFFFFF" filter="url(#f295rh0texqa3)" height="14" style="stroke: #A80036; stroke-width: 1.0;" width="10" x="31.5" y="464.2891"/><rect fill="#FFFFFF" filter="url(#f295rh0texqa3)" height="58.2656" style="stroke: #A80036; stroke-width: 1.0;" width="10" x="535.5" y="99.6953"/><rect fill="#FFFFFF" filter="url(#f295rh0texqa3)" height="43.1328" style="stroke: #A80036; stroke-width: 1.0;" width="10" x="535.5" y="187.0938"/><rect fill="#FFFFFF" filter="url(#f295rh0texqa3)" height="29.1328" style="stroke: #A80036; stroke-width: 1.0;" width="10" x="535.5" y="283.4922"/><rect fill="#FFFFFF" filter="url(#f295rh0texqa3)" height="87.3984" style="stroke: #A80036; stroke-width: 1.0;" width="10" x="535.5" y="390.8906"/><rect fill="#FFFFFF" filter="url(#f295rh0texqa3)" height="154.6641" style="stroke: #A80036; stroke-width: 1.0;" width="10" x="828.5" y="157.9609"/><polygon fill="#A80036" points="523.5,95.6953,533.5,99.6953,523.5,103.6953,527.5,99.6953" style="stroke: #A80036; stroke-width: 1.0;"/><line style="stroke: #A80036; stroke-width: 1.0;" x1="41.5" x2="529.5" y1="99.6953" y2="99.6953"/><text fill="#000000" font-family="sans-serif" font-size="13" lengthAdjust="spacingAndGlyphs" textLength="300" x="48.5" y="64.3638">Command(START_SESSION, location_id=1234,</text><text fill="#000000" font-family="sans-serif" font-size="13" lengthAdjust="spacingAndGlyphs" textLength="282" x="116.5" y="79.4966">token.uid=200, token.type=AD_HOC_USER,</text><text fill="#000000" font-family="sans-serif" font-size="13" lengthAdjust="spacingAndGlyphs" textLength="256" x="116.5" y="94.6294">token.authorization_reference=567890)</text><polygon fill="#A80036" points="47.5,124.8281,37.5,128.8281,47.5,132.8281,43.5,128.8281" style="stroke: #A80036; stroke-width: 1.0;"/><line style="stroke: #A80036; stroke-width: 1.0; stroke-dasharray: 2.0,2.0;" x1="41.5" x2="534.5" y1="128.8281" y2="128.8281"/><text fill="#000000" font-family="sans-serif" font-size="13" lengthAdjust="spacingAndGlyphs" textLength="470" x="53.5" y="123.7622">status_code = 1000, data: {CommandResponse { result = ACCEPTED }}</text><polygon fill="#A80036" points="816.5,153.9609,826.5,157.9609,816.5,161.9609,820.5,157.9609" style="stroke: #A80036; stroke-width: 1.0;"/><line style="stroke: #A80036; stroke-width: 1.0;" x1="540.5" x2="822.5" y1="157.9609" y2="157.9609"/><text fill="#000000" font-family="sans-serif" font-size="13" lengthAdjust="spacingAndGlyphs" textLength="264" x="547.5" y="152.895">RemoteStartTransaction.req(Token=200)</text><polygon fill="#A80036" points="556.5,183.0938,546.5,187.0938,556.5,191.0938,552.5,187.0938" style="stroke: #A80036; stroke-width: 1.0;"/><line style="stroke: #A80036; stroke-width: 1.0;" x1="550.5" x2="827.5" y1="187.0938" y2="187.0938"/><text fill="#000000" font-family="sans-serif" font-size="13" lengthAdjust="spacingAndGlyphs" textLength="257" x="562.5" y="182.0278">RemoteStartTransaction.conf(Accepted)</text><polygon fill="#A80036" points="52.5,212.2266,42.5,216.2266,52.5,220.2266,48.5,216.2266" style="stroke: #A80036; stroke-width: 1.0;"/><line style="stroke: #A80036; stroke-width: 1.0;" x1="46.5" x2="534.5" y1="216.2266" y2="216.2266"/><text fill="#000000" font-family="sans-serif" font-size="13" lengthAdjust="spacingAndGlyphs" textLength="239" x="58.5" y="211.1606">CommandResult(result = ACCEPTED)</text><polygon fill="#A80036" points="528.5,226.2266,538.5,230.2266,528.5,234.2266,532.5,230.2266" style="stroke: #A80036; stroke-width: 1.0;"/><line style="stroke: #A80036; stroke-width: 1.0; stroke-dasharray: 2.0,2.0;" x1="36.5" x2="534.5" y1="230.2266" y2="230.2266"/><path d="M506.5,245.2266 L576.5,245.2266 L576.5,252.2266 L566.5,262.2266 L506.5,262.2266 L506.5,245.2266 " fill="#EEEEEE" style="stroke: #000000; stroke-width: 1.0;"/><rect fill="none" height="75.3984" style="stroke: #000000; stroke-width: 2.0;" width="390.5" x="506.5" y="245.2266"/><text fill="#000000" font-family="sans-serif" font-size="13" font-weight="bold" lengthAdjust="spacingAndGlyphs" textLength="25" x="521.5" y="258.2935">opt</text><polygon fill="#A80036" points="556.5,279.4922,546.5,283.4922,556.5,287.4922,552.5,283.4922" style="stroke: #A80036; stroke-width: 1.0;"/><line style="stroke: #A80036; stroke-width: 1.0;" x1="550.5" x2="827.5" y1="283.4922" y2="283.4922"/><text fill="#000000" font-family="sans-serif" font-size="13" lengthAdjust="spacingAndGlyphs" textLength="169" x="562.5" y="278.4263">Authorize.req(Token=200)</text><polygon fill="#A80036" points="821.5,308.625,831.5,312.625,821.5,316.625,825.5,312.625" style="stroke: #A80036; stroke-width: 1.0;"/><line style="stroke: #A80036; stroke-width: 1.0;" x1="540.5" x2="827.5" y1="312.625" y2="312.625"/><text fill="#000000" font-family="sans-serif" font-size="13" lengthAdjust="spacingAndGlyphs" textLength="162" x="547.5" y="307.5591">Authorize.conf(Accepted)</text><line style="stroke: #A80036; stroke-width: 1.0; stroke-dasharray: 2.0,2.0;" x1="833.5" x2="875.5" y1="348.7578" y2="348.7578"/><line style="stroke: #A80036; stroke-width: 1.0; stroke-dasharray: 2.0,2.0;" x1="875.5" x2="875.5" y1="348.7578" y2="361.7578"/><line style="stroke: #A80036; stroke-width: 1.0; stroke-dasharray: 2.0,2.0;" x1="834.5" x2="875.5" y1="361.7578" y2="361.7578"/><polygon fill="#A80036" points="844.5,357.7578,834.5,361.7578,844.5,365.7578,840.5,361.7578" style="stroke: #A80036; stroke-width: 1.0;"/><text fill="#000000" font-family="sans-serif" font-size="13" lengthAdjust="spacingAndGlyphs" textLength="87" x="840.5" y="343.6919">EV Plugged in</text><polygon fill="#A80036" points="556.5,386.8906,546.5,390.8906,556.5,394.8906,552.5,390.8906" style="stroke: #A80036; stroke-width: 1.0;"/><line style="stroke: #A80036; stroke-width: 1.0;" x1="550.5" x2="832.5" y1="390.8906" y2="390.8906"/><text fill="#000000" font-family="sans-serif" font-size="13" lengthAdjust="spacingAndGlyphs" textLength="214" x="562.5" y="385.8247">StartTransaction.req(Token=200)</text><polygon fill="#A80036" points="821.5,416.0234,831.5,420.0234,821.5,424.0234,825.5,420.0234" style="stroke: #A80036; stroke-width: 1.0;"/><line style="stroke: #A80036; stroke-width: 1.0;" x1="545.5" x2="827.5" y1="420.0234" y2="420.0234"/><text fill="#000000" font-family="sans-serif" font-size="13" lengthAdjust="spacingAndGlyphs" textLength="259" x="552.5" y="414.9575">StartTransaction.conf(TransactionId=15)</text><polygon fill="#A80036" points="52.5,460.2891,42.5,464.2891,52.5,468.2891,48.5,464.2891" style="stroke: #A80036; stroke-width: 1.0;"/><line style="stroke: #A80036; stroke-width: 1.0;" x1="46.5" x2="534.5" y1="464.2891" y2="464.2891"/><text fill="#000000" font-family="sans-serif" font-size="13" lengthAdjust="spacingAndGlyphs" textLength="291" x="58.5" y="444.0903">Session(id=15, token=200, location_id=1234</text><text fill="#000000" font-family="sans-serif" font-size="13" lengthAdjust="spacingAndGlyphs" textLength="216" x="114.5" y="459.2231">authorization_reference=567890)</text><polygon fill="#A80036" points="528.5,474.2891,538.5,478.2891,528.5,482.2891,532.5,478.2891" style="stroke: #A80036; stroke-width: 1.0;"/><line style="stroke: #A80036; stroke-width: 1.0; stroke-dasharray: 2.0,2.0;" x1="36.5" x2="534.5" y1="478.2891" y2="478.2891"/></g></svg>