<?xml version="1.0" encoding="UTF-8" standalone="no"?><svg xmlns="http://www.w3.org/2000/svg" xmlns:xlink="http://www.w3.org/1999/xlink" contentScriptType="application/ecmascript" contentStyleType="text/css" height="291px" preserveAspectRatio="none" style="width:968px;height:291px;" version="1.1" viewBox="0 0 968 291" width="968px" zoomAndPan="magnify"><defs><filter height="300%" id="fwiu7grpiq55y" width="300%" x="-1" y="-1"><feGaussianBlur result="blurOut" stdDeviation="2.0"/><feColorMatrix in="blurOut" result="blurOut2" type="matrix" values="0 0 0 0 0 0 0 0 0 0 0 0 0 0 0 0 0 0 .4 0"/><feOffset dx="4.0" dy="4.0" in="blurOut2" result="blurOut3"/><feBlend in="SourceGraphic" in2="blurOut3" mode="normal"/></filter></defs><g><text fill="#000000" font-family="sans-serif" font-size="14" font-weight="bold" lengthAdjust="spacingAndGlyphs" textLength="554" x="214.25" y="22.9951">OCPI Command START_SESSION -&gt; ACCEPTED but EV never plugged in</text><rect fill="#FFFFFF" filter="url(#fwiu7grpiq55y)" height="29.1328" style="stroke: #A80036; stroke-width: 1.0;" width="10" x="31.5" y="99.5938"/><rect fill="#FFFFFF" filter="url(#fwiu7grpiq55y)" height="14.1328" style="stroke: #A80036; stroke-width: 1.0;" width="10" x="31.5" y="216.125"/><rect fill="#FFFFFF" filter="url(#fwiu7grpiq55y)" height="58.2656" style="stroke: #A80036; stroke-width: 1.0;" width="10" x="435.5" y="99.5938"/><rect fill="#FFFFFF" filter="url(#fwiu7grpiq55y)" height="43.2656" style="stroke: #A80036; stroke-width: 1.0;" width="10" x="435.5" y="186.9922"/><rect fill="#FFFFFF" filter="url(#fwiu7grpiq55y)" height="107.3984" style="stroke: #A80036; stroke-width: 1.0;" width="10" x="728.5" y="157.8594"/><line style="stroke: #A80036; stroke-width: 1.0; stroke-dasharray: 5.0,5.0;" x1="36" x2="36" y1="68.5938" y2="290.3906"/><line style="stroke: #A80036; stroke-width: 1.0; stroke-dasharray: 5.0,5.0;" x1="440.5" x2="440.5" y1="68.5938" y2="290.3906"/><line style="stroke: #A80036; stroke-width: 1.0; stroke-dasharray: 5.0,5.0;" x1="733" x2="733" y1="68.5938" y2="290.3906"/><rect fill="#FEFECE" filter="url(#fwiu7grpiq55y)" height="30.2969" style="stroke: #A80036; stroke-width: 1.5;" width="53" x="8" y="33.2969"/><text fill="#000000" font-family="sans-serif" font-size="14" lengthAdjust="spacingAndGlyphs" textLength="39" x="15" y="53.292">eMSP</text><rect fill="#FEFECE" filter="url(#fwiu7grpiq55y)" height="30.2969" style="stroke: #A80036; stroke-width: 1.5;" width="44" x="416.5" y="33.2969"/><text fill="#000000" font-family="sans-serif" font-size="14" lengthAdjust="spacingAndGlyphs" textLength="30" x="423.5" y="53.292">CPO</text><rect fill="#FEFECE" filter="url(#fwiu7grpiq55y)" height="30.2969" style="stroke: #A80036; stroke-width: 1.5;" width="103" x="680" y="33.2969"/><text fill="#000000" font-family="sans-serif" font-size="14" lengthAdjust="spacingAndGlyphs" textLength="89" x="687" y="53.292">Charge Point</text><rect fill="#FFFFFF" filter="url(#fwiu7grpiq55y)" height="29.1328" style="stroke: #A80036; stroke-width: 1.0;" width="10" x="31.5" y="99.5938"/><rect fill="#FFFFFF" filter="url(#fwiu7grpiq55y)" height="14.1328" style="stroke: #A80036; stroke-width: 1.0;" width="10" x="31.5" y="216.125"/><rect fill="#FFFFFF" filter="url(#fwiu7grpiq55y)" height="58.2656" style="stroke: #A80036; stroke-width: 1.0;" width="10" x="435.5" y="99.5938"/><rect fill="#FFFFFF" filter="url(#fwiu7grpiq55y)" height="43.2656" style="stroke: #A80036; stroke-width: 1.0;" width="10" x="435.5" y="186.9922"/><rect fill="#FFFFFF" filter="url(#fwiu7grpiq55y)" height="107.3984" style="stroke: #A80036; stroke-width: 1.0;" width="10" x="728.5" y="157.8594"/><polygon fill="#A80036" points="423.5,95.5938,433.5,99.5938,423.5,103.5938,427.5,99.5938" style="stroke: #A80036; stroke-width: 1.0;"/><line style="stroke: #A80036; stroke-width: 1.0;" x1="41.5" x2="429.5" y1="99.5938" y2="99.5938"/><text fill="#000000" font-family="sans-serif" font-size="13" lengthAdjust="spacingAndGlyphs" textLength="380" x="48.5" y="94.6606">Command(START_SESSION, location_id=1234, token=200)</text><polygon fill="#A80036" points="47.5,124.7266,37.5,128.7266,47.5,132.7266,43.5,128.7266" style="stroke: #A80036; stroke-width: 1.0;"/><line style="stroke: #A80036; stroke-width: 1.0; stroke-dasharray: 2.0,2.0;" x1="41.5" x2="434.5" y1="128.7266" y2="128.7266"/><text fill="#000000" font-family="sans-serif" font-size="13" lengthAdjust="spacingAndGlyphs" textLength="87" x="53.5" y="123.7935">SUCCESSFUL</text><polygon fill="#A80036" points="716.5,153.8594,726.5,157.8594,716.5,161.8594,720.5,157.8594" style="stroke: #A80036; stroke-width: 1.0;"/><line style="stroke: #A80036; stroke-width: 1.0;" x1="440.5" x2="722.5" y1="157.8594" y2="157.8594"/><text fill="#000000" font-family="sans-serif" font-size="13" lengthAdjust="spacingAndGlyphs" textLength="264" x="447.5" y="152.9263">RemoteStartTransaction.req(Token=200)</text><polygon fill="#A80036" points="456.5,182.9922,446.5,186.9922,456.5,190.9922,452.5,186.9922" style="stroke: #A80036; stroke-width: 1.0;"/><line style="stroke: #A80036; stroke-width: 1.0;" x1="450.5" x2="727.5" y1="186.9922" y2="186.9922"/><text fill="#000000" font-family="sans-serif" font-size="13" lengthAdjust="spacingAndGlyphs" textLength="257" x="462.5" y="182.0591">RemoteStartTransaction.conf(Accepted)</text><polygon fill="#A80036" points="52.5,212.125,42.5,216.125,52.5,220.125,48.5,216.125" style="stroke: #A80036; stroke-width: 1.0;"/><line style="stroke: #A80036; stroke-width: 1.0;" x1="46.5" x2="434.5" y1="216.125" y2="216.125"/><text fill="#000000" font-family="sans-serif" font-size="13" lengthAdjust="spacingAndGlyphs" textLength="226" x="58.5" y="211.1919">CommandResponse(SUCCESSFUL)</text><polygon fill="#A80036" points="428.5,226.2578,438.5,230.2578,428.5,234.2578,432.5,230.2578" style="stroke: #A80036; stroke-width: 1.0;"/><line style="stroke: #A80036; stroke-width: 1.0; stroke-dasharray: 2.0,2.0;" x1="36.5" x2="434.5" y1="230.2578" y2="230.2578"/><line style="stroke: #A80036; stroke-width: 1.0; stroke-dasharray: 2.0,2.0;" x1="738.5" x2="780.5" y1="264.3906" y2="264.3906"/><line style="stroke: #A80036; stroke-width: 1.0; stroke-dasharray: 2.0,2.0;" x1="780.5" x2="780.5" y1="264.3906" y2="277.3906"/><line style="stroke: #A80036; stroke-width: 1.0; stroke-dasharray: 2.0,2.0;" x1="733.5" x2="780.5" y1="277.3906" y2="277.3906"/><polygon fill="#A80036" points="743.5,273.3906,733.5,277.3906,743.5,281.3906,739.5,277.3906" style="stroke: #A80036; stroke-width: 1.0;"/><text fill="#000000" font-family="sans-serif" font-size="13" lengthAdjust="spacingAndGlyphs" textLength="222" x="745.5" y="259.3247">EV NOT Plugged in before time-out</text></g></svg>