<?xml version="1.0" encoding="UTF-8" standalone="no"?><svg xmlns="http://www.w3.org/2000/svg" xmlns:xlink="http://www.w3.org/1999/xlink" contentScriptType="application/ecmascript" contentStyleType="text/css" height="403px" preserveAspectRatio="none" style="width:944px;height:403px;" version="1.1" viewBox="0 0 944 403" width="944px" zoomAndPan="magnify"><defs><filter height="300%" id="f79nggr8akny7" width="300%" x="-1" y="-1"><feGaussianBlur result="blurOut" stdDeviation="2.0"/><feColorMatrix in="blurOut" result="blurOut2" type="matrix" values="0 0 0 0 0 0 0 0 0 0 0 0 0 0 0 0 0 0 .4 0"/><feOffset dx="4.0" dy="4.0" in="blurOut2" result="blurOut3"/><feBlend in="SourceGraphic" in2="blurOut3" mode="normal"/></filter></defs><g><text fill="#000000" font-family="sans-serif" font-size="14" font-weight="bold" lengthAdjust="spacingAndGlyphs" textLength="522" x="212.75" y="22.9951">OCPI Command START_SESSION -&gt; ACCEPTED and Session started</text><rect fill="#FFFFFF" filter="url(#f79nggr8akny7)" height="29.1328" style="stroke: #A80036; stroke-width: 1.0;" width="10" x="31.5" y="99.7266"/><rect fill="#FFFFFF" filter="url(#f79nggr8akny7)" height="14" style="stroke: #A80036; stroke-width: 1.0;" width="10" x="31.5" y="216.2578"/><rect fill="#FFFFFF" filter="url(#f79nggr8akny7)" height="14" style="stroke: #A80036; stroke-width: 1.0;" width="10" x="31.5" y="359.7891"/><rect fill="#FFFFFF" filter="url(#f79nggr8akny7)" height="58.2656" style="stroke: #A80036; stroke-width: 1.0;" width="10" x="535.5" y="99.7266"/><rect fill="#FFFFFF" filter="url(#f79nggr8akny7)" height="43.1328" style="stroke: #A80036; stroke-width: 1.0;" width="10" x="535.5" y="187.125"/><rect fill="#FFFFFF" filter="url(#f79nggr8akny7)" height="72.2656" style="stroke: #A80036; stroke-width: 1.0;" width="10" x="535.5" y="301.5234"/><rect fill="#FFFFFF" filter="url(#f79nggr8akny7)" height="172.6641" style="stroke: #A80036; stroke-width: 1.0;" width="10" x="828.5" y="157.9922"/><line style="stroke: #A80036; stroke-width: 1.0; stroke-dasharray: 5.0,5.0;" x1="36" x2="36" y1="68.5938" y2="391.7891"/><line style="stroke: #A80036; stroke-width: 1.0; stroke-dasharray: 5.0,5.0;" x1="540.5" x2="540.5" y1="68.5938" y2="391.7891"/><line style="stroke: #A80036; stroke-width: 1.0; stroke-dasharray: 5.0,5.0;" x1="833" x2="833" y1="68.5938" y2="391.7891"/><rect fill="#FEFECE" filter="url(#f79nggr8akny7)" height="30.2969" style="stroke: #A80036; stroke-width: 1.5;" width="53" x="8" y="33.2969"/><text fill="#000000" font-family="sans-serif" font-size="14" lengthAdjust="spacingAndGlyphs" textLength="39" x="15" y="53.292">eMSP</text><rect fill="#FEFECE" filter="url(#f79nggr8akny7)" height="30.2969" style="stroke: #A80036; stroke-width: 1.5;" width="44" x="516.5" y="33.2969"/><text fill="#000000" font-family="sans-serif" font-size="14" lengthAdjust="spacingAndGlyphs" textLength="30" x="523.5" y="53.292">CPO</text><rect fill="#FEFECE" filter="url(#f79nggr8akny7)" height="30.2969" style="stroke: #A80036; stroke-width: 1.5;" width="103" x="780" y="33.2969"/><text fill="#000000" font-family="sans-serif" font-size="14" lengthAdjust="spacingAndGlyphs" textLength="89" x="787" y="53.292">Charge Point</text><rect fill="#FFFFFF" filter="url(#f79nggr8akny7)" height="29.1328" style="stroke: #A80036; stroke-width: 1.0;" width="10" x="31.5" y="99.7266"/><rect fill="#FFFFFF" filter="url(#f79nggr8akny7)" height="14" style="stroke: #A80036; stroke-width: 1.0;" width="10" x="31.5" y="216.2578"/><rect fill="#FFFFFF" filter="url(#f79nggr8akny7)" height="14" style="stroke: #A80036; stroke-width: 1.0;" width="10" x="31.5" y="359.7891"/><rect fill="#FFFFFF" filter="url(#f79nggr8akny7)" height="58.2656" style="stroke: #A80036; stroke-width: 1.0;" width="10" x="535.5" y="99.7266"/><rect fill="#FFFFFF" filter="url(#f79nggr8akny7)" height="43.1328" style="stroke: #A80036; stroke-width: 1.0;" width="10" x="535.5" y="187.125"/><rect fill="#FFFFFF" filter="url(#f79nggr8akny7)" height="72.2656" style="stroke: #A80036; stroke-width: 1.0;" width="10" x="535.5" y="301.5234"/><rect fill="#FFFFFF" filter="url(#f79nggr8akny7)" height="172.6641" style="stroke: #A80036; stroke-width: 1.0;" width="10" x="828.5" y="157.9922"/><polygon fill="#A80036" points="523.5,95.7266,533.5,99.7266,523.5,103.7266,527.5,99.7266" style="stroke: #A80036; stroke-width: 1.0;"/><line style="stroke: #A80036; stroke-width: 1.0;" x1="41.5" x2="529.5" y1="99.7266" y2="99.7266"/><text fill="#000000" font-family="sans-serif" font-size="13" lengthAdjust="spacingAndGlyphs" textLength="380" x="48.5" y="94.6606">Command(START_SESSION, location_id=1234, token=200)</text><polygon fill="#A80036" points="47.5,124.8594,37.5,128.8594,47.5,132.8594,43.5,128.8594" style="stroke: #A80036; stroke-width: 1.0;"/><line style="stroke: #A80036; stroke-width: 1.0; stroke-dasharray: 2.0,2.0;" x1="41.5" x2="534.5" y1="128.8594" y2="128.8594"/><text fill="#000000" font-family="sans-serif" font-size="13" lengthAdjust="spacingAndGlyphs" textLength="470" x="53.5" y="123.7935">status_code = 1000, data: {CommandResponse { result = ACCEPTED }}</text><polygon fill="#A80036" points="816.5,153.9922,826.5,157.9922,816.5,161.9922,820.5,157.9922" style="stroke: #A80036; stroke-width: 1.0;"/><line style="stroke: #A80036; stroke-width: 1.0;" x1="540.5" x2="822.5" y1="157.9922" y2="157.9922"/><text fill="#000000" font-family="sans-serif" font-size="13" lengthAdjust="spacingAndGlyphs" textLength="264" x="547.5" y="152.9263">RemoteStartTransaction.req(Token=200)</text><polygon fill="#A80036" points="556.5,183.125,546.5,187.125,556.5,191.125,552.5,187.125" style="stroke: #A80036; stroke-width: 1.0;"/><line style="stroke: #A80036; stroke-width: 1.0;" x1="550.5" x2="827.5" y1="187.125" y2="187.125"/><text fill="#000000" font-family="sans-serif" font-size="13" lengthAdjust="spacingAndGlyphs" textLength="257" x="562.5" y="182.0591">RemoteStartTransaction.conf(Accepted)</text><polygon fill="#A80036" points="52.5,212.2578,42.5,216.2578,52.5,220.2578,48.5,216.2578" style="stroke: #A80036; stroke-width: 1.0;"/><line style="stroke: #A80036; stroke-width: 1.0;" x1="46.5" x2="534.5" y1="216.2578" y2="216.2578"/><text fill="#000000" font-family="sans-serif" font-size="13" lengthAdjust="spacingAndGlyphs" textLength="239" x="58.5" y="211.1919">CommandResult(result = ACCEPTED)</text><polygon fill="#A80036" points="528.5,226.2578,538.5,230.2578,528.5,234.2578,532.5,230.2578" style="stroke: #A80036; stroke-width: 1.0;"/><line style="stroke: #A80036; stroke-width: 1.0; stroke-dasharray: 2.0,2.0;" x1="36.5" x2="534.5" y1="230.2578" y2="230.2578"/><line style="stroke: #A80036; stroke-width: 1.0; stroke-dasharray: 2.0,2.0;" x1="838.5" x2="880.5" y1="259.3906" y2="259.3906"/><line style="stroke: #A80036; stroke-width: 1.0; stroke-dasharray: 2.0,2.0;" x1="880.5" x2="880.5" y1="259.3906" y2="272.3906"/><line style="stroke: #A80036; stroke-width: 1.0; stroke-dasharray: 2.0,2.0;" x1="839.5" x2="880.5" y1="272.3906" y2="272.3906"/><polygon fill="#A80036" points="849.5,268.3906,839.5,272.3906,849.5,276.3906,845.5,272.3906" style="stroke: #A80036; stroke-width: 1.0;"/><text fill="#000000" font-family="sans-serif" font-size="13" lengthAdjust="spacingAndGlyphs" textLength="87" x="845.5" y="254.3247">EV Plugged in</text><polygon fill="#A80036" points="556.5,297.5234,546.5,301.5234,556.5,305.5234,552.5,301.5234" style="stroke: #A80036; stroke-width: 1.0;"/><line style="stroke: #A80036; stroke-width: 1.0;" x1="550.5" x2="827.5" y1="301.5234" y2="301.5234"/><text fill="#000000" font-family="sans-serif" font-size="13" lengthAdjust="spacingAndGlyphs" textLength="214" x="562.5" y="296.4575">StartTransaction.req(Token=200)</text><polygon fill="#A80036" points="821.5,326.6563,831.5,330.6563,821.5,334.6563,825.5,330.6563" style="stroke: #A80036; stroke-width: 1.0;"/><line style="stroke: #A80036; stroke-width: 1.0;" x1="545.5" x2="827.5" y1="330.6563" y2="330.6563"/><text fill="#000000" font-family="sans-serif" font-size="13" lengthAdjust="spacingAndGlyphs" textLength="259" x="552.5" y="325.5903">StartTransaction.conf(TransactionId=15)</text><polygon fill="#A80036" points="52.5,355.7891,42.5,359.7891,52.5,363.7891,48.5,359.7891" style="stroke: #A80036; stroke-width: 1.0;"/><line style="stroke: #A80036; stroke-width: 1.0;" x1="46.5" x2="534.5" y1="359.7891" y2="359.7891"/><text fill="#000000" font-family="sans-serif" font-size="13" lengthAdjust="spacingAndGlyphs" textLength="296" x="58.5" y="354.7231">Session(id=15, token=200, location_id=1234)</text><polygon fill="#A80036" points="528.5,369.7891,538.5,373.7891,528.5,377.7891,532.5,373.7891" style="stroke: #A80036; stroke-width: 1.0;"/><line style="stroke: #A80036; stroke-width: 1.0; stroke-dasharray: 2.0,2.0;" x1="36.5" x2="534.5" y1="373.7891" y2="373.7891"/></g></svg>