<?xml version="1.0" encoding="UTF-8" standalone="no"?><svg xmlns="http://www.w3.org/2000/svg" xmlns:xlink="http://www.w3.org/1999/xlink" contentScriptType="application/ecmascript" contentStyleType="text/css" height="538px" preserveAspectRatio="none" style="width:939px;height:538px;" version="1.1" viewBox="0 0 939 538" width="939px" zoomAndPan="magnify"><defs><filter height="300%" id="f1xb8t7gh47c6s" width="300%" x="-1" y="-1"><feGaussianBlur result="blurOut" stdDeviation="2.0"/><feColorMatrix in="blurOut" result="blurOut2" type="matrix" values="0 0 0 0 0 0 0 0 0 0 0 0 0 0 0 0 0 0 .4 0"/><feOffset dx="4.0" dy="4.0" in="blurOut2" result="blurOut3"/><feBlend in="SourceGraphic" in2="blurOut3" mode="normal"/></filter></defs><g><text fill="#000000" font-family="sans-serif" font-size="14" font-weight="bold" lengthAdjust="spacingAndGlyphs" textLength="441" x="248.25" y="22.9951">OCPI Command START_SESSION, Token whitelist: NEVER</text><rect fill="#FFFFFF" filter="url(#f1xb8t7gh47c6s)" height="29.1328" style="stroke: #A80036; stroke-width: 1.0;" width="10" x="31.5" y="172.125"/><rect fill="#FFFFFF" filter="url(#f1xb8t7gh47c6s)" height="14" style="stroke: #A80036; stroke-width: 1.0;" width="10" x="31.5" y="288.6563"/><rect fill="#FFFFFF" filter="url(#f1xb8t7gh47c6s)" height="14" style="stroke: #A80036; stroke-width: 1.0;" width="10" x="31.5" y="494.5859"/><rect fill="#FFFFFF" filter="url(#f1xb8t7gh47c6s)" height="58.2656" style="stroke: #A80036; stroke-width: 1.0;" width="10" x="535.5" y="172.125"/><rect fill="#FFFFFF" filter="url(#f1xb8t7gh47c6s)" height="43.1328" style="stroke: #A80036; stroke-width: 1.0;" width="10" x="535.5" y="259.5234"/><rect fill="#FFFFFF" filter="url(#f1xb8t7gh47c6s)" height="29.1328" style="stroke: #A80036; stroke-width: 1.0;" width="10" x="535.5" y="355.9219"/><rect fill="#FFFFFF" filter="url(#f1xb8t7gh47c6s)" height="87.3984" style="stroke: #A80036; stroke-width: 1.0;" width="10" x="535.5" y="421.1875"/><rect fill="#FFFFFF" filter="url(#f1xb8t7gh47c6s)" height="219.9297" style="stroke: #A80036; stroke-width: 1.0;" width="10" x="828.5" y="230.3906"/><rect fill="#FFFFFF" filter="url(#f1xb8t7gh47c6s)" height="75.3984" style="stroke: #000000; stroke-width: 2.0;" width="390.5" x="506.5" y="317.6563"/><line style="stroke: #A80036; stroke-width: 1.0; stroke-dasharray: 5.0,5.0;" x1="36" x2="36" y1="68.5938" y2="526.5859"/><line style="stroke: #A80036; stroke-width: 1.0; stroke-dasharray: 5.0,5.0;" x1="540.5" x2="540.5" y1="68.5938" y2="526.5859"/><line style="stroke: #A80036; stroke-width: 1.0; stroke-dasharray: 5.0,5.0;" x1="833" x2="833" y1="68.5938" y2="526.5859"/><rect fill="#FEFECE" filter="url(#f1xb8t7gh47c6s)" height="30.2969" style="stroke: #A80036; stroke-width: 1.5;" width="53" x="8" y="33.2969"/><text fill="#000000" font-family="sans-serif" font-size="14" lengthAdjust="spacingAndGlyphs" textLength="39" x="15" y="53.292">eMSP</text><rect fill="#FEFECE" filter="url(#f1xb8t7gh47c6s)" height="30.2969" style="stroke: #A80036; stroke-width: 1.5;" width="44" x="516.5" y="33.2969"/><text fill="#000000" font-family="sans-serif" font-size="14" lengthAdjust="spacingAndGlyphs" textLength="30" x="523.5" y="53.292">CPO</text><rect fill="#FEFECE" filter="url(#f1xb8t7gh47c6s)" height="30.2969" style="stroke: #A80036; stroke-width: 1.5;" width="103" x="780" y="33.2969"/><text fill="#000000" font-family="sans-serif" font-size="14" lengthAdjust="spacingAndGlyphs" textLength="89" x="787" y="53.292">Charge Point</text><rect fill="#FFFFFF" filter="url(#f1xb8t7gh47c6s)" height="29.1328" style="stroke: #A80036; stroke-width: 1.0;" width="10" x="31.5" y="172.125"/><rect fill="#FFFFFF" filter="url(#f1xb8t7gh47c6s)" height="14" style="stroke: #A80036; stroke-width: 1.0;" width="10" x="31.5" y="288.6563"/><rect fill="#FFFFFF" filter="url(#f1xb8t7gh47c6s)" height="14" style="stroke: #A80036; stroke-width: 1.0;" width="10" x="31.5" y="494.5859"/><rect fill="#FFFFFF" filter="url(#f1xb8t7gh47c6s)" height="58.2656" style="stroke: #A80036; stroke-width: 1.0;" width="10" x="535.5" y="172.125"/><rect fill="#FFFFFF" filter="url(#f1xb8t7gh47c6s)" height="43.1328" style="stroke: #A80036; stroke-width: 1.0;" width="10" x="535.5" y="259.5234"/><rect fill="#FFFFFF" filter="url(#f1xb8t7gh47c6s)" height="29.1328" style="stroke: #A80036; stroke-width: 1.0;" width="10" x="535.5" y="355.9219"/><rect fill="#FFFFFF" filter="url(#f1xb8t7gh47c6s)" height="87.3984" style="stroke: #A80036; stroke-width: 1.0;" width="10" x="535.5" y="421.1875"/><rect fill="#FFFFFF" filter="url(#f1xb8t7gh47c6s)" height="219.9297" style="stroke: #A80036; stroke-width: 1.0;" width="10" x="828.5" y="230.3906"/><line style="stroke: #A80036; stroke-width: 1.0; stroke-dasharray: 2.0,2.0;" x1="833.5" x2="875.5" y1="99.7266" y2="99.7266"/><line style="stroke: #A80036; stroke-width: 1.0; stroke-dasharray: 2.0,2.0;" x1="875.5" x2="875.5" y1="99.7266" y2="112.7266"/><line style="stroke: #A80036; stroke-width: 1.0; stroke-dasharray: 2.0,2.0;" x1="834.5" x2="875.5" y1="112.7266" y2="112.7266"/><polygon fill="#A80036" points="844.5,108.7266,834.5,112.7266,844.5,116.7266,840.5,112.7266" style="stroke: #A80036; stroke-width: 1.0;"/><text fill="#000000" font-family="sans-serif" font-size="13" lengthAdjust="spacingAndGlyphs" textLength="87" x="840.5" y="94.6606">EV Plugged in</text><polygon fill="#A80036" points="523.5,168.125,533.5,172.125,523.5,176.125,527.5,172.125" style="stroke: #A80036; stroke-width: 1.0;"/><line style="stroke: #A80036; stroke-width: 1.0;" x1="41.5" x2="529.5" y1="172.125" y2="172.125"/><text fill="#000000" font-family="sans-serif" font-size="13" lengthAdjust="spacingAndGlyphs" textLength="402" x="48.5" y="136.7935">Command(START_SESSION, location_id=1234, token.uid=123,</text><text fill="#000000" font-family="sans-serif" font-size="13" lengthAdjust="spacingAndGlyphs" textLength="303" x="116.5" y="151.9263">token.type=APP_USER, token.whitelist=NEVER,</text><text fill="#000000" font-family="sans-serif" font-size="13" lengthAdjust="spacingAndGlyphs" textLength="256" x="116.5" y="167.0591">token.authorization_reference=567890)</text><polygon fill="#A80036" points="47.5,197.2578,37.5,201.2578,47.5,205.2578,43.5,201.2578" style="stroke: #A80036; stroke-width: 1.0;"/><line style="stroke: #A80036; stroke-width: 1.0; stroke-dasharray: 2.0,2.0;" x1="41.5" x2="534.5" y1="201.2578" y2="201.2578"/><text fill="#000000" font-family="sans-serif" font-size="13" lengthAdjust="spacingAndGlyphs" textLength="470" x="53.5" y="196.1919">status_code = 1000, data: {CommandResponse { result = ACCEPTED }}</text><polygon fill="#A80036" points="816.5,226.3906,826.5,230.3906,816.5,234.3906,820.5,230.3906" style="stroke: #A80036; stroke-width: 1.0;"/><line style="stroke: #A80036; stroke-width: 1.0;" x1="540.5" x2="822.5" y1="230.3906" y2="230.3906"/><text fill="#000000" font-family="sans-serif" font-size="13" lengthAdjust="spacingAndGlyphs" textLength="264" x="547.5" y="225.3247">RemoteStartTransaction.req(Token=123)</text><polygon fill="#A80036" points="556.5,255.5234,546.5,259.5234,556.5,263.5234,552.5,259.5234" style="stroke: #A80036; stroke-width: 1.0;"/><line style="stroke: #A80036; stroke-width: 1.0;" x1="550.5" x2="827.5" y1="259.5234" y2="259.5234"/><text fill="#000000" font-family="sans-serif" font-size="13" lengthAdjust="spacingAndGlyphs" textLength="257" x="562.5" y="254.4575">RemoteStartTransaction.conf(Accepted)</text><polygon fill="#A80036" points="52.5,284.6563,42.5,288.6563,52.5,292.6563,48.5,288.6563" style="stroke: #A80036; stroke-width: 1.0;"/><line style="stroke: #A80036; stroke-width: 1.0;" x1="46.5" x2="534.5" y1="288.6563" y2="288.6563"/><text fill="#000000" font-family="sans-serif" font-size="13" lengthAdjust="spacingAndGlyphs" textLength="239" x="58.5" y="283.5903">CommandResult(result = ACCEPTED)</text><polygon fill="#A80036" points="528.5,298.6563,538.5,302.6563,528.5,306.6563,532.5,302.6563" style="stroke: #A80036; stroke-width: 1.0;"/><line style="stroke: #A80036; stroke-width: 1.0; stroke-dasharray: 2.0,2.0;" x1="36.5" x2="534.5" y1="302.6563" y2="302.6563"/><path d="M506.5,317.6563 L576.5,317.6563 L576.5,324.6563 L566.5,334.6563 L506.5,334.6563 L506.5,317.6563 " fill="#EEEEEE" style="stroke: #000000; stroke-width: 1.0;"/><rect fill="none" height="75.3984" style="stroke: #000000; stroke-width: 2.0;" width="390.5" x="506.5" y="317.6563"/><text fill="#000000" font-family="sans-serif" font-size="13" font-weight="bold" lengthAdjust="spacingAndGlyphs" textLength="25" x="521.5" y="330.7231">opt</text><polygon fill="#A80036" points="556.5,351.9219,546.5,355.9219,556.5,359.9219,552.5,355.9219" style="stroke: #A80036; stroke-width: 1.0;"/><line style="stroke: #A80036; stroke-width: 1.0;" x1="550.5" x2="827.5" y1="355.9219" y2="355.9219"/><text fill="#000000" font-family="sans-serif" font-size="13" lengthAdjust="spacingAndGlyphs" textLength="169" x="562.5" y="350.856">Authorize.req(Token=123)</text><polygon fill="#A80036" points="816.5,381.0547,826.5,385.0547,816.5,389.0547,820.5,385.0547" style="stroke: #A80036; stroke-width: 1.0;"/><line style="stroke: #A80036; stroke-width: 1.0;" x1="540.5" x2="822.5" y1="385.0547" y2="385.0547"/><text fill="#000000" font-family="sans-serif" font-size="13" lengthAdjust="spacingAndGlyphs" textLength="162" x="547.5" y="379.9888">Authorize.conf(Accepted)</text><polygon fill="#A80036" points="556.5,417.1875,546.5,421.1875,556.5,425.1875,552.5,421.1875" style="stroke: #A80036; stroke-width: 1.0;"/><line style="stroke: #A80036; stroke-width: 1.0;" x1="550.5" x2="827.5" y1="421.1875" y2="421.1875"/><text fill="#000000" font-family="sans-serif" font-size="13" lengthAdjust="spacingAndGlyphs" textLength="214" x="562.5" y="416.1216">StartTransaction.req(Token=123)</text><polygon fill="#A80036" points="821.5,446.3203,831.5,450.3203,821.5,454.3203,825.5,450.3203" style="stroke: #A80036; stroke-width: 1.0;"/><line style="stroke: #A80036; stroke-width: 1.0;" x1="545.5" x2="827.5" y1="450.3203" y2="450.3203"/><text fill="#000000" font-family="sans-serif" font-size="13" lengthAdjust="spacingAndGlyphs" textLength="259" x="552.5" y="445.2544">StartTransaction.conf(TransactionId=15)</text><polygon fill="#A80036" points="52.5,490.5859,42.5,494.5859,52.5,498.5859,48.5,494.5859" style="stroke: #A80036; stroke-width: 1.0;"/><line style="stroke: #A80036; stroke-width: 1.0;" x1="46.5" x2="534.5" y1="494.5859" y2="494.5859"/><text fill="#000000" font-family="sans-serif" font-size="13" lengthAdjust="spacingAndGlyphs" textLength="295" x="58.5" y="474.3872">Session(id=15, token=123, location_id=1234,</text><text fill="#000000" font-family="sans-serif" font-size="13" lengthAdjust="spacingAndGlyphs" textLength="216" x="114.5" y="489.52">authorization_reference=567890)</text><polygon fill="#A80036" points="528.5,504.5859,538.5,508.5859,528.5,512.5859,532.5,508.5859" style="stroke: #A80036; stroke-width: 1.0;"/><line style="stroke: #A80036; stroke-width: 1.0; stroke-dasharray: 2.0,2.0;" x1="36.5" x2="534.5" y1="508.5859" y2="508.5859"/></g></svg>