<?xml version="1.0" encoding="UTF-8" standalone="no"?><svg xmlns="http://www.w3.org/2000/svg" xmlns:xlink="http://www.w3.org/1999/xlink" contentScriptType="application/ecmascript" contentStyleType="text/css" height="538px" preserveAspectRatio="none" style="width:939px;height:538px;" version="1.1" viewBox="0 0 939 538" width="939px" zoomAndPan="magnify"><defs><filter height="300%" id="fdd5muge4zzht" width="300%" x="-1" y="-1"><feGaussianBlur result="blurOut" stdDeviation="2.0"/><feColorMatrix in="blurOut" result="blurOut2" type="matrix" values="0 0 0 0 0 0 0 0 0 0 0 0 0 0 0 0 0 0 .4 0"/><feOffset dx="4.0" dy="4.0" in="blurOut2" result="blurOut3"/><feBlend in="SourceGraphic" in2="blurOut3" mode="normal"/></filter></defs><g><text fill="#000000" font-family="sans-serif" font-size="14" font-weight="bold" lengthAdjust="spacingAndGlyphs" textLength="522" x="207.75" y="22.9951">OCPI Command START_SESSION -&gt; ACCEPTED and Session started</text><rect fill="#FFFFFF" filter="url(#fdd5muge4zzht)" height="29.1328" style="stroke: #A80036; stroke-width: 1.0;" width="10" x="31.5" y="129.9922"/><rect fill="#FFFFFF" filter="url(#fdd5muge4zzht)" height="14" style="stroke: #A80036; stroke-width: 1.0;" width="10" x="31.5" y="246.5234"/><rect fill="#FFFFFF" filter="url(#fdd5muge4zzht)" height="14" style="stroke: #A80036; stroke-width: 1.0;" width="10" x="31.5" y="494.5859"/><rect fill="#FFFFFF" filter="url(#fdd5muge4zzht)" height="58.2656" style="stroke: #A80036; stroke-width: 1.0;" width="10" x="535.5" y="129.9922"/><rect fill="#FFFFFF" filter="url(#fdd5muge4zzht)" height="43.1328" style="stroke: #A80036; stroke-width: 1.0;" width="10" x="535.5" y="217.3906"/><rect fill="#FFFFFF" filter="url(#fdd5muge4zzht)" height="29.1328" style="stroke: #A80036; stroke-width: 1.0;" width="10" x="535.5" y="313.7891"/><rect fill="#FFFFFF" filter="url(#fdd5muge4zzht)" height="87.3984" style="stroke: #A80036; stroke-width: 1.0;" width="10" x="535.5" y="421.1875"/><rect fill="#FFFFFF" filter="url(#fdd5muge4zzht)" height="154.6641" style="stroke: #A80036; stroke-width: 1.0;" width="10" x="828.5" y="188.2578"/><rect fill="#FFFFFF" filter="url(#fdd5muge4zzht)" height="75.3984" style="stroke: #000000; stroke-width: 2.0;" width="390.5" x="506.5" y="275.5234"/><line style="stroke: #A80036; stroke-width: 1.0; stroke-dasharray: 5.0,5.0;" x1="36" x2="36" y1="68.5938" y2="526.5859"/><line style="stroke: #A80036; stroke-width: 1.0; stroke-dasharray: 5.0,5.0;" x1="540.5" x2="540.5" y1="68.5938" y2="526.5859"/><line style="stroke: #A80036; stroke-width: 1.0; stroke-dasharray: 5.0,5.0;" x1="833" x2="833" y1="68.5938" y2="526.5859"/><rect fill="#FEFECE" filter="url(#fdd5muge4zzht)" height="30.2969" style="stroke: #A80036; stroke-width: 1.5;" width="53" x="8" y="33.2969"/><text fill="#000000" font-family="sans-serif" font-size="14" lengthAdjust="spacingAndGlyphs" textLength="39" x="15" y="53.292">eMSP</text><rect fill="#FEFECE" filter="url(#fdd5muge4zzht)" height="30.2969" style="stroke: #A80036; stroke-width: 1.5;" width="44" x="516.5" y="33.2969"/><text fill="#000000" font-family="sans-serif" font-size="14" lengthAdjust="spacingAndGlyphs" textLength="30" x="523.5" y="53.292">CPO</text><rect fill="#FEFECE" filter="url(#fdd5muge4zzht)" height="30.2969" style="stroke: #A80036; stroke-width: 1.5;" width="103" x="780" y="33.2969"/><text fill="#000000" font-family="sans-serif" font-size="14" lengthAdjust="spacingAndGlyphs" textLength="89" x="787" y="53.292">Charge Point</text><rect fill="#FFFFFF" filter="url(#fdd5muge4zzht)" height="29.1328" style="stroke: #A80036; stroke-width: 1.0;" width="10" x="31.5" y="129.9922"/><rect fill="#FFFFFF" filter="url(#fdd5muge4zzht)" height="14" style="stroke: #A80036; stroke-width: 1.0;" width="10" x="31.5" y="246.5234"/><rect fill="#FFFFFF" filter="url(#fdd5muge4zzht)" height="14" style="stroke: #A80036; stroke-width: 1.0;" width="10" x="31.5" y="494.5859"/><rect fill="#FFFFFF" filter="url(#fdd5muge4zzht)" height="58.2656" style="stroke: #A80036; stroke-width: 1.0;" width="10" x="535.5" y="129.9922"/><rect fill="#FFFFFF" filter="url(#fdd5muge4zzht)" height="43.1328" style="stroke: #A80036; stroke-width: 1.0;" width="10" x="535.5" y="217.3906"/><rect fill="#FFFFFF" filter="url(#fdd5muge4zzht)" height="29.1328" style="stroke: #A80036; stroke-width: 1.0;" width="10" x="535.5" y="313.7891"/><rect fill="#FFFFFF" filter="url(#fdd5muge4zzht)" height="87.3984" style="stroke: #A80036; stroke-width: 1.0;" width="10" x="535.5" y="421.1875"/><rect fill="#FFFFFF" filter="url(#fdd5muge4zzht)" height="154.6641" style="stroke: #A80036; stroke-width: 1.0;" width="10" x="828.5" y="188.2578"/><polygon fill="#A80036" points="523.5,125.9922,533.5,129.9922,523.5,133.9922,527.5,129.9922" style="stroke: #A80036; stroke-width: 1.0;"/><line style="stroke: #A80036; stroke-width: 1.0;" x1="41.5" x2="529.5" y1="129.9922" y2="129.9922"/><text fill="#000000" font-family="sans-serif" font-size="13" lengthAdjust="spacingAndGlyphs" textLength="300" x="48.5" y="94.6606">Command(START_SESSION, location_id=1234,</text><text fill="#000000" font-family="sans-serif" font-size="13" lengthAdjust="spacingAndGlyphs" textLength="282" x="116.5" y="109.7935">token.uid=200, token.type=AD_HOC_USER,</text><text fill="#000000" font-family="sans-serif" font-size="13" lengthAdjust="spacingAndGlyphs" textLength="256" x="116.5" y="124.9263">token.authorization_reference=567890)</text><polygon fill="#A80036" points="47.5,155.125,37.5,159.125,47.5,163.125,43.5,159.125" style="stroke: #A80036; stroke-width: 1.0;"/><line style="stroke: #A80036; stroke-width: 1.0; stroke-dasharray: 2.0,2.0;" x1="41.5" x2="534.5" y1="159.125" y2="159.125"/><text fill="#000000" font-family="sans-serif" font-size="13" lengthAdjust="spacingAndGlyphs" textLength="470" x="53.5" y="154.0591">status_code = 1000, data: {CommandResponse { result = ACCEPTED }}</text><polygon fill="#A80036" points="816.5,184.2578,826.5,188.2578,816.5,192.2578,820.5,188.2578" style="stroke: #A80036; stroke-width: 1.0;"/><line style="stroke: #A80036; stroke-width: 1.0;" x1="540.5" x2="822.5" y1="188.2578" y2="188.2578"/><text fill="#000000" font-family="sans-serif" font-size="13" lengthAdjust="spacingAndGlyphs" textLength="264" x="547.5" y="183.1919">RemoteStartTransaction.req(Token=200)</text><polygon fill="#A80036" points="556.5,213.3906,546.5,217.3906,556.5,221.3906,552.5,217.3906" style="stroke: #A80036; stroke-width: 1.0;"/><line style="stroke: #A80036; stroke-width: 1.0;" x1="550.5" x2="827.5" y1="217.3906" y2="217.3906"/><text fill="#000000" font-family="sans-serif" font-size="13" lengthAdjust="spacingAndGlyphs" textLength="257" x="562.5" y="212.3247">RemoteStartTransaction.conf(Accepted)</text><polygon fill="#A80036" points="52.5,242.5234,42.5,246.5234,52.5,250.5234,48.5,246.5234" style="stroke: #A80036; stroke-width: 1.0;"/><line style="stroke: #A80036; stroke-width: 1.0;" x1="46.5" x2="534.5" y1="246.5234" y2="246.5234"/><text fill="#000000" font-family="sans-serif" font-size="13" lengthAdjust="spacingAndGlyphs" textLength="239" x="58.5" y="241.4575">CommandResult(result = ACCEPTED)</text><polygon fill="#A80036" points="528.5,256.5234,538.5,260.5234,528.5,264.5234,532.5,260.5234" style="stroke: #A80036; stroke-width: 1.0;"/><line style="stroke: #A80036; stroke-width: 1.0; stroke-dasharray: 2.0,2.0;" x1="36.5" x2="534.5" y1="260.5234" y2="260.5234"/><path d="M506.5,275.5234 L576.5,275.5234 L576.5,282.5234 L566.5,292.5234 L506.5,292.5234 L506.5,275.5234 " fill="#EEEEEE" style="stroke: #000000; stroke-width: 1.0;"/><rect fill="none" height="75.3984" style="stroke: #000000; stroke-width: 2.0;" width="390.5" x="506.5" y="275.5234"/><text fill="#000000" font-family="sans-serif" font-size="13" font-weight="bold" lengthAdjust="spacingAndGlyphs" textLength="25" x="521.5" y="288.5903">opt</text><polygon fill="#A80036" points="556.5,309.7891,546.5,313.7891,556.5,317.7891,552.5,313.7891" style="stroke: #A80036; stroke-width: 1.0;"/><line style="stroke: #A80036; stroke-width: 1.0;" x1="550.5" x2="827.5" y1="313.7891" y2="313.7891"/><text fill="#000000" font-family="sans-serif" font-size="13" lengthAdjust="spacingAndGlyphs" textLength="169" x="562.5" y="308.7231">Authorize.req(Token=200)</text><polygon fill="#A80036" points="821.5,338.9219,831.5,342.9219,821.5,346.9219,825.5,342.9219" style="stroke: #A80036; stroke-width: 1.0;"/><line style="stroke: #A80036; stroke-width: 1.0;" x1="540.5" x2="827.5" y1="342.9219" y2="342.9219"/><text fill="#000000" font-family="sans-serif" font-size="13" lengthAdjust="spacingAndGlyphs" textLength="162" x="547.5" y="337.856">Authorize.conf(Accepted)</text><line style="stroke: #A80036; stroke-width: 1.0; stroke-dasharray: 2.0,2.0;" x1="833.5" x2="875.5" y1="379.0547" y2="379.0547"/><line style="stroke: #A80036; stroke-width: 1.0; stroke-dasharray: 2.0,2.0;" x1="875.5" x2="875.5" y1="379.0547" y2="392.0547"/><line style="stroke: #A80036; stroke-width: 1.0; stroke-dasharray: 2.0,2.0;" x1="834.5" x2="875.5" y1="392.0547" y2="392.0547"/><polygon fill="#A80036" points="844.5,388.0547,834.5,392.0547,844.5,396.0547,840.5,392.0547" style="stroke: #A80036; stroke-width: 1.0;"/><text fill="#000000" font-family="sans-serif" font-size="13" lengthAdjust="spacingAndGlyphs" textLength="87" x="840.5" y="373.9888">EV Plugged in</text><polygon fill="#A80036" points="556.5,417.1875,546.5,421.1875,556.5,425.1875,552.5,421.1875" style="stroke: #A80036; stroke-width: 1.0;"/><line style="stroke: #A80036; stroke-width: 1.0;" x1="550.5" x2="832.5" y1="421.1875" y2="421.1875"/><text fill="#000000" font-family="sans-serif" font-size="13" lengthAdjust="spacingAndGlyphs" textLength="214" x="562.5" y="416.1216">StartTransaction.req(Token=200)</text><polygon fill="#A80036" points="821.5,446.3203,831.5,450.3203,821.5,454.3203,825.5,450.3203" style="stroke: #A80036; stroke-width: 1.0;"/><line style="stroke: #A80036; stroke-width: 1.0;" x1="545.5" x2="827.5" y1="450.3203" y2="450.3203"/><text fill="#000000" font-family="sans-serif" font-size="13" lengthAdjust="spacingAndGlyphs" textLength="259" x="552.5" y="445.2544">StartTransaction.conf(TransactionId=15)</text><polygon fill="#A80036" points="52.5,490.5859,42.5,494.5859,52.5,498.5859,48.5,494.5859" style="stroke: #A80036; stroke-width: 1.0;"/><line style="stroke: #A80036; stroke-width: 1.0;" x1="46.5" x2="534.5" y1="494.5859" y2="494.5859"/><text fill="#000000" font-family="sans-serif" font-size="13" lengthAdjust="spacingAndGlyphs" textLength="291" x="58.5" y="474.3872">Session(id=15, token=200, location_id=1234</text><text fill="#000000" font-family="sans-serif" font-size="13" lengthAdjust="spacingAndGlyphs" textLength="216" x="114.5" y="489.52">authorization_reference=567890)</text><polygon fill="#A80036" points="528.5,504.5859,538.5,508.5859,528.5,512.5859,532.5,508.5859" style="stroke: #A80036; stroke-width: 1.0;"/><line style="stroke: #A80036; stroke-width: 1.0; stroke-dasharray: 2.0,2.0;" x1="36.5" x2="534.5" y1="508.5859" y2="508.5859"/></g></svg>