<?xml version="1.0" encoding="UTF-8" standalone="no"?><svg xmlns="http://www.w3.org/2000/svg" xmlns:xlink="http://www.w3.org/1999/xlink" contentScriptType="application/ecmascript" contentStyleType="text/css" height="551px" preserveAspectRatio="none" style="width:928px;height:551px;" version="1.1" viewBox="0 0 928 551" width="928px" zoomAndPan="magnify"><defs><filter height="300%" id="f13lpfonyqzrr" width="300%" x="-1" y="-1"><feGaussianBlur result="blurOut" stdDeviation="2.0"/><feColorMatrix in="blurOut" result="blurOut2" type="matrix" values="0 0 0 0 0 0 0 0 0 0 0 0 0 0 0 0 0 0 .4 0"/><feOffset dx="4.0" dy="4.0" in="blurOut2" result="blurOut3"/><feBlend in="SourceGraphic" in2="blurOut3" mode="normal"/></filter></defs><g><text fill="#000000" font-family="sans-serif" font-size="14" font-weight="bold" lengthAdjust="spacingAndGlyphs" textLength="441" x="248.25" y="22.9951">OCPI Command START_SESSION, Token whitelist: NEVER</text><rect fill="#FFFFFF" filter="url(#f13lpfonyqzrr)" height="29.1328" style="stroke: #A80036; stroke-width: 1.0;" width="10" x="31.5" y="141.7266"/><rect fill="#FFFFFF" filter="url(#f13lpfonyqzrr)" height="14.1328" style="stroke: #A80036; stroke-width: 1.0;" width="10" x="31.5" y="258.2578"/><rect fill="#FFFFFF" filter="url(#f13lpfonyqzrr)" height="29.1328" style="stroke: #A80036; stroke-width: 1.0;" width="10" x="31.5" y="372.6563"/><rect fill="#FFFFFF" filter="url(#f13lpfonyqzrr)" height="14.1328" style="stroke: #A80036; stroke-width: 1.0;" width="10" x="31.5" y="518.3203"/><rect fill="#FFFFFF" filter="url(#f13lpfonyqzrr)" height="58.2656" style="stroke: #A80036; stroke-width: 1.0;" width="10" x="535.5" y="141.7266"/><rect fill="#FFFFFF" filter="url(#f13lpfonyqzrr)" height="43.2656" style="stroke: #A80036; stroke-width: 1.0;" width="10" x="535.5" y="229.125"/><rect fill="#FFFFFF" filter="url(#f13lpfonyqzrr)" height="129.5313" style="stroke: #A80036; stroke-width: 1.0;" width="10" x="535.5" y="301.3906"/><rect fill="#FFFFFF" filter="url(#f13lpfonyqzrr)" height="72.3984" style="stroke: #A80036; stroke-width: 1.0;" width="10" x="535.5" y="460.0547"/><rect fill="#FFFFFF" filter="url(#f13lpfonyqzrr)" height="289.1953" style="stroke: #A80036; stroke-width: 1.0;" width="10" x="828.5" y="199.9922"/><line style="stroke: #A80036; stroke-width: 1.0; stroke-dasharray: 5.0,5.0;" x1="36" x2="36" y1="68.5938" y2="550.4531"/><line style="stroke: #A80036; stroke-width: 1.0; stroke-dasharray: 5.0,5.0;" x1="540.5" x2="540.5" y1="68.5938" y2="550.4531"/><line style="stroke: #A80036; stroke-width: 1.0; stroke-dasharray: 5.0,5.0;" x1="833" x2="833" y1="68.5938" y2="550.4531"/><rect fill="#FEFECE" filter="url(#f13lpfonyqzrr)" height="30.2969" style="stroke: #A80036; stroke-width: 1.5;" width="53" x="8" y="33.2969"/><text fill="#000000" font-family="sans-serif" font-size="14" lengthAdjust="spacingAndGlyphs" textLength="39" x="15" y="53.292">eMSP</text><rect fill="#FEFECE" filter="url(#f13lpfonyqzrr)" height="30.2969" style="stroke: #A80036; stroke-width: 1.5;" width="44" x="516.5" y="33.2969"/><text fill="#000000" font-family="sans-serif" font-size="14" lengthAdjust="spacingAndGlyphs" textLength="30" x="523.5" y="53.292">CPO</text><rect fill="#FEFECE" filter="url(#f13lpfonyqzrr)" height="30.2969" style="stroke: #A80036; stroke-width: 1.5;" width="103" x="780" y="33.2969"/><text fill="#000000" font-family="sans-serif" font-size="14" lengthAdjust="spacingAndGlyphs" textLength="89" x="787" y="53.292">Charge Point</text><rect fill="#FFFFFF" filter="url(#f13lpfonyqzrr)" height="29.1328" style="stroke: #A80036; stroke-width: 1.0;" width="10" x="31.5" y="141.7266"/><rect fill="#FFFFFF" filter="url(#f13lpfonyqzrr)" height="14.1328" style="stroke: #A80036; stroke-width: 1.0;" width="10" x="31.5" y="258.2578"/><rect fill="#FFFFFF" filter="url(#f13lpfonyqzrr)" height="29.1328" style="stroke: #A80036; stroke-width: 1.0;" width="10" x="31.5" y="372.6563"/><rect fill="#FFFFFF" filter="url(#f13lpfonyqzrr)" height="14.1328" style="stroke: #A80036; stroke-width: 1.0;" width="10" x="31.5" y="518.3203"/><rect fill="#FFFFFF" filter="url(#f13lpfonyqzrr)" height="58.2656" style="stroke: #A80036; stroke-width: 1.0;" width="10" x="535.5" y="141.7266"/><rect fill="#FFFFFF" filter="url(#f13lpfonyqzrr)" height="43.2656" style="stroke: #A80036; stroke-width: 1.0;" width="10" x="535.5" y="229.125"/><rect fill="#FFFFFF" filter="url(#f13lpfonyqzrr)" height="129.5313" style="stroke: #A80036; stroke-width: 1.0;" width="10" x="535.5" y="301.3906"/><rect fill="#FFFFFF" filter="url(#f13lpfonyqzrr)" height="72.3984" style="stroke: #A80036; stroke-width: 1.0;" width="10" x="535.5" y="460.0547"/><rect fill="#FFFFFF" filter="url(#f13lpfonyqzrr)" height="289.1953" style="stroke: #A80036; stroke-width: 1.0;" width="10" x="828.5" y="199.9922"/><line style="stroke: #A80036; stroke-width: 1.0; stroke-dasharray: 2.0,2.0;" x1="833.5" x2="875.5" y1="99.7266" y2="99.7266"/><line style="stroke: #A80036; stroke-width: 1.0; stroke-dasharray: 2.0,2.0;" x1="875.5" x2="875.5" y1="99.7266" y2="112.7266"/><line style="stroke: #A80036; stroke-width: 1.0; stroke-dasharray: 2.0,2.0;" x1="834.5" x2="875.5" y1="112.7266" y2="112.7266"/><polygon fill="#A80036" points="844.5,108.7266,834.5,112.7266,844.5,116.7266,840.5,112.7266" style="stroke: #A80036; stroke-width: 1.0;"/><text fill="#000000" font-family="sans-serif" font-size="13" lengthAdjust="spacingAndGlyphs" textLength="87" x="840.5" y="94.6606">EV Plugged in</text><polygon fill="#A80036" points="523.5,137.7266,533.5,141.7266,523.5,145.7266,527.5,141.7266" style="stroke: #A80036; stroke-width: 1.0;"/><line style="stroke: #A80036; stroke-width: 1.0;" x1="41.5" x2="529.5" y1="141.7266" y2="141.7266"/><text fill="#000000" font-family="sans-serif" font-size="13" lengthAdjust="spacingAndGlyphs" textLength="380" x="48.5" y="136.7935">Command(START_SESSION, location_id=1234, token=200)</text><polygon fill="#A80036" points="47.5,166.8594,37.5,170.8594,47.5,174.8594,43.5,170.8594" style="stroke: #A80036; stroke-width: 1.0;"/><line style="stroke: #A80036; stroke-width: 1.0; stroke-dasharray: 2.0,2.0;" x1="41.5" x2="534.5" y1="170.8594" y2="170.8594"/><text fill="#000000" font-family="sans-serif" font-size="13" lengthAdjust="spacingAndGlyphs" textLength="470" x="53.5" y="165.9263">status_code = 1000, data: {CommandResponse { result = ACCEPTED }}</text><polygon fill="#A80036" points="816.5,195.9922,826.5,199.9922,816.5,203.9922,820.5,199.9922" style="stroke: #A80036; stroke-width: 1.0;"/><line style="stroke: #A80036; stroke-width: 1.0;" x1="540.5" x2="822.5" y1="199.9922" y2="199.9922"/><text fill="#000000" font-family="sans-serif" font-size="13" lengthAdjust="spacingAndGlyphs" textLength="264" x="547.5" y="195.0591">RemoteStartTransaction.req(Token=200)</text><polygon fill="#A80036" points="556.5,225.125,546.5,229.125,556.5,233.125,552.5,229.125" style="stroke: #A80036; stroke-width: 1.0;"/><line style="stroke: #A80036; stroke-width: 1.0;" x1="550.5" x2="827.5" y1="229.125" y2="229.125"/><text fill="#000000" font-family="sans-serif" font-size="13" lengthAdjust="spacingAndGlyphs" textLength="257" x="562.5" y="224.1919">RemoteStartTransaction.conf(Accepted)</text><polygon fill="#A80036" points="52.5,254.2578,42.5,258.2578,52.5,262.2578,48.5,258.2578" style="stroke: #A80036; stroke-width: 1.0;"/><line style="stroke: #A80036; stroke-width: 1.0;" x1="46.5" x2="534.5" y1="258.2578" y2="258.2578"/><text fill="#000000" font-family="sans-serif" font-size="13" lengthAdjust="spacingAndGlyphs" textLength="239" x="58.5" y="253.3247">CommandResult(result = ACCEPTED)</text><polygon fill="#A80036" points="528.5,268.3906,538.5,272.3906,528.5,276.3906,532.5,272.3906" style="stroke: #A80036; stroke-width: 1.0;"/><line style="stroke: #A80036; stroke-width: 1.0; stroke-dasharray: 2.0,2.0;" x1="36.5" x2="534.5" y1="272.3906" y2="272.3906"/><polygon fill="#A80036" points="556.5,297.3906,546.5,301.3906,556.5,305.3906,552.5,301.3906" style="stroke: #A80036; stroke-width: 1.0;"/><line style="stroke: #A80036; stroke-width: 1.0;" x1="550.5" x2="827.5" y1="301.3906" y2="301.3906"/><text fill="#000000" font-family="sans-serif" font-size="13" lengthAdjust="spacingAndGlyphs" textLength="169" x="562.5" y="296.4575">Authorize.req(Token=200)</text><line style="stroke: #A80036; stroke-width: 1.0; stroke-dasharray: 2.0,2.0;" x1="545.5" x2="587.5" y1="330.6563" y2="330.6563"/><line style="stroke: #A80036; stroke-width: 1.0; stroke-dasharray: 2.0,2.0;" x1="587.5" x2="587.5" y1="330.6563" y2="343.6563"/><line style="stroke: #A80036; stroke-width: 1.0; stroke-dasharray: 2.0,2.0;" x1="546.5" x2="587.5" y1="343.6563" y2="343.6563"/><polygon fill="#A80036" points="556.5,339.6563,546.5,343.6563,556.5,347.6563,552.5,343.6563" style="stroke: #A80036; stroke-width: 1.0;"/><text fill="#000000" font-family="sans-serif" font-size="13" lengthAdjust="spacingAndGlyphs" textLength="153" x="552.5" y="325.5903">Token Whitelist allowed?</text><polygon fill="#A80036" points="52.5,368.6563,42.5,372.6563,52.5,376.6563,48.5,372.6563" style="stroke: #A80036; stroke-width: 1.0;"/><line style="stroke: #A80036; stroke-width: 1.0;" x1="46.5" x2="534.5" y1="372.6563" y2="372.6563"/><text fill="#000000" font-family="sans-serif" font-size="13" lengthAdjust="spacingAndGlyphs" textLength="161" x="58.5" y="367.7231">POST: Token(token=200)</text><polygon fill="#A80036" points="523.5,397.7891,533.5,401.7891,523.5,405.7891,527.5,401.7891" style="stroke: #A80036; stroke-width: 1.0;"/><line style="stroke: #A80036; stroke-width: 1.0; stroke-dasharray: 2.0,2.0;" x1="36.5" x2="529.5" y1="401.7891" y2="401.7891"/><text fill="#000000" font-family="sans-serif" font-size="13" lengthAdjust="spacingAndGlyphs" textLength="62" x="43.5" y="396.856">ALLOWED</text><polygon fill="#A80036" points="816.5,426.9219,826.5,430.9219,816.5,434.9219,820.5,430.9219" style="stroke: #A80036; stroke-width: 1.0;"/><line style="stroke: #A80036; stroke-width: 1.0;" x1="540.5" x2="822.5" y1="430.9219" y2="430.9219"/><text fill="#000000" font-family="sans-serif" font-size="13" lengthAdjust="spacingAndGlyphs" textLength="162" x="547.5" y="425.9888">Authorize.conf(Accepted)</text><polygon fill="#A80036" points="556.5,456.0547,546.5,460.0547,556.5,464.0547,552.5,460.0547" style="stroke: #A80036; stroke-width: 1.0;"/><line style="stroke: #A80036; stroke-width: 1.0;" x1="550.5" x2="827.5" y1="460.0547" y2="460.0547"/><text fill="#000000" font-family="sans-serif" font-size="13" lengthAdjust="spacingAndGlyphs" textLength="214" x="562.5" y="455.1216">StartTransaction.req(Token=200)</text><polygon fill="#A80036" points="821.5,485.1875,831.5,489.1875,821.5,493.1875,825.5,489.1875" style="stroke: #A80036; stroke-width: 1.0;"/><line style="stroke: #A80036; stroke-width: 1.0;" x1="545.5" x2="827.5" y1="489.1875" y2="489.1875"/><text fill="#000000" font-family="sans-serif" font-size="13" lengthAdjust="spacingAndGlyphs" textLength="259" x="552.5" y="484.2544">StartTransaction.conf(TransactionId=15)</text><polygon fill="#A80036" points="52.5,514.3203,42.5,518.3203,52.5,522.3203,48.5,518.3203" style="stroke: #A80036; stroke-width: 1.0;"/><line style="stroke: #A80036; stroke-width: 1.0;" x1="46.5" x2="534.5" y1="518.3203" y2="518.3203"/><text fill="#000000" font-family="sans-serif" font-size="13" lengthAdjust="spacingAndGlyphs" textLength="296" x="58.5" y="513.3872">Session(id=15, token=200, location_id=1234)</text><polygon fill="#A80036" points="528.5,528.4531,538.5,532.4531,528.5,536.4531,532.5,532.4531" style="stroke: #A80036; stroke-width: 1.0;"/><line style="stroke: #A80036; stroke-width: 1.0; stroke-dasharray: 2.0,2.0;" x1="36.5" x2="534.5" y1="532.4531" y2="532.4531"/></g></svg>