<?xml version="1.0" encoding="UTF-8" standalone="no"?><svg xmlns="http://www.w3.org/2000/svg" xmlns:xlink="http://www.w3.org/1999/xlink" contentScriptType="application/ecmascript" contentStyleType="text/css" height="186px" preserveAspectRatio="none" style="width:625px;height:186px;" version="1.1" viewBox="0 0 625 186" width="625px" zoomAndPan="magnify"><defs><filter height="300%" id="fgtj0qtkm8sao" width="300%" x="-1" y="-1"><feGaussianBlur result="blurOut" stdDeviation="2.0"/><feColorMatrix in="blurOut" result="blurOut2" type="matrix" values="0 0 0 0 0 0 0 0 0 0 0 0 0 0 0 0 0 0 .4 0"/><feOffset dx="4.0" dy="4.0" in="blurOut2" result="blurOut3"/><feBlend in="SourceGraphic" in2="blurOut3" mode="normal"/></filter></defs><g><text fill="#000000" font-family="sans-serif" font-size="14" font-weight="bold" lengthAdjust="spacingAndGlyphs" textLength="468" x="80.25" y="22.9951">OCPI Command UNLOCK_CONNECTOR -&gt; Unknown Location</text><rect fill="#FFFFFF" filter="url(#fgtj0qtkm8sao)" height="29.1328" style="stroke: #A80036; stroke-width: 1.0;" width="10" x="31.5" y="99.5938"/><rect fill="#FFFFFF" filter="url(#fgtj0qtkm8sao)" height="29.1328" style="stroke: #A80036; stroke-width: 1.0;" width="10" x="591.5" y="99.5938"/><line style="stroke: #A80036; stroke-width: 1.0; stroke-dasharray: 5.0,5.0;" x1="36" x2="36" y1="68.5938" y2="185.9922"/><line style="stroke: #A80036; stroke-width: 1.0; stroke-dasharray: 5.0,5.0;" x1="596.5" x2="596.5" y1="68.5938" y2="185.9922"/><rect fill="#FEFECE" filter="url(#fgtj0qtkm8sao)" height="30.2969" style="stroke: #A80036; stroke-width: 1.5;" width="53" x="8" y="33.2969"/><text fill="#000000" font-family="sans-serif" font-size="14" lengthAdjust="spacingAndGlyphs" textLength="39" x="15" y="53.292">eMSP</text><rect fill="#FEFECE" filter="url(#fgtj0qtkm8sao)" height="30.2969" style="stroke: #A80036; stroke-width: 1.5;" width="44" x="572.5" y="33.2969"/><text fill="#000000" font-family="sans-serif" font-size="14" lengthAdjust="spacingAndGlyphs" textLength="30" x="579.5" y="53.292">CPO</text><rect fill="#FFFFFF" filter="url(#fgtj0qtkm8sao)" height="29.1328" style="stroke: #A80036; stroke-width: 1.0;" width="10" x="31.5" y="99.5938"/><rect fill="#FFFFFF" filter="url(#fgtj0qtkm8sao)" height="29.1328" style="stroke: #A80036; stroke-width: 1.0;" width="10" x="591.5" y="99.5938"/><polygon fill="#A80036" points="579.5,95.5938,589.5,99.5938,579.5,103.5938,583.5,99.5938" style="stroke: #A80036; stroke-width: 1.0;"/><line style="stroke: #A80036; stroke-width: 1.0;" x1="41.5" x2="585.5" y1="99.5938" y2="99.5938"/><text fill="#000000" font-family="sans-serif" font-size="13" lengthAdjust="spacingAndGlyphs" textLength="536" x="48.5" y="94.6606">Command(UNLOCK_CONNECTOR, location_id=1234, evse_uid=1234, connector=1)</text><polygon fill="#A80036" points="47.5,124.7266,37.5,128.7266,47.5,132.7266,43.5,128.7266" style="stroke: #A80036; stroke-width: 1.0;"/><line style="stroke: #A80036; stroke-width: 1.0; stroke-dasharray: 2.0,2.0;" x1="41.5" x2="595.5" y1="128.7266" y2="128.7266"/><text fill="#000000" font-family="sans-serif" font-size="13" lengthAdjust="spacingAndGlyphs" textLength="104" x="53.5" y="123.7935">Response(2003)</text><polygon fill="#FBFB77" filter="url(#fgtj0qtkm8sao)" points="41,141.8594,41,166.8594,229,166.8594,229,151.8594,219,141.8594,41,141.8594" style="stroke: #A80036; stroke-width: 1.0;"/><line style="stroke: #A80036; stroke-width: 1.0;" x1="219" x2="219" y1="141.8594" y2="151.8594"/><line style="stroke: #A80036; stroke-width: 1.0;" x1="229" x2="219" y1="151.8594" y2="151.8594"/><text fill="#000000" font-family="sans-serif" font-size="13" lengthAdjust="spacingAndGlyphs" textLength="167" x="47" y="158.9263">2003 = Unknown Location</text></g></svg>