<?xml version="1.0" encoding="UTF-8" standalone="no"?><svg xmlns="http://www.w3.org/2000/svg" xmlns:xlink="http://www.w3.org/1999/xlink" contentScriptType="application/ecmascript" contentStyleType="text/css" height="288px" preserveAspectRatio="none" style="width:810px;height:288px;" version="1.1" viewBox="0 0 810 288" width="810px" zoomAndPan="magnify"><defs><filter height="300%" id="f45b6yr4q656n" width="300%" x="-1" y="-1"><feGaussianBlur result="blurOut" stdDeviation="2.0"/><feColorMatrix in="blurOut" result="blurOut2" type="matrix" values="0 0 0 0 0 0 0 0 0 0 0 0 0 0 0 0 0 0 .4 0"/><feOffset dx="4.0" dy="4.0" in="blurOut2" result="blurOut3"/><feBlend in="SourceGraphic" in2="blurOut3" mode="normal"/></filter></defs><g><text fill="#000000" font-family="sans-serif" font-size="14" font-weight="bold" lengthAdjust="spacingAndGlyphs" textLength="627" x="93" y="22.9951">OCPI Command START_SESSION -&gt; REJECT by Charge Point: no cable plugged in</text><rect fill="#FFFFFF" filter="url(#f45b6yr4q656n)" height="29.1328" style="stroke: #A80036; stroke-width: 1.0;" width="10" x="31.5" y="138.7266"/><rect fill="#FFFFFF" filter="url(#f45b6yr4q656n)" height="14.1328" style="stroke: #A80036; stroke-width: 1.0;" width="10" x="31.5" y="255.2578"/><rect fill="#FFFFFF" filter="url(#f45b6yr4q656n)" height="58.2656" style="stroke: #A80036; stroke-width: 1.0;" width="10" x="435.5" y="138.7266"/><rect fill="#FFFFFF" filter="url(#f45b6yr4q656n)" height="43.2656" style="stroke: #A80036; stroke-width: 1.0;" width="10" x="435.5" y="226.125"/><rect fill="#FFFFFF" filter="url(#f45b6yr4q656n)" height="72.3984" style="stroke: #A80036; stroke-width: 1.0;" width="10" x="728.5" y="196.9922"/><line style="stroke: #A80036; stroke-width: 1.0; stroke-dasharray: 5.0,5.0;" x1="36" x2="36" y1="68.5938" y2="287.3906"/><line style="stroke: #A80036; stroke-width: 1.0; stroke-dasharray: 5.0,5.0;" x1="440.5" x2="440.5" y1="68.5938" y2="287.3906"/><line style="stroke: #A80036; stroke-width: 1.0; stroke-dasharray: 5.0,5.0;" x1="733" x2="733" y1="68.5938" y2="287.3906"/><rect fill="#FEFECE" filter="url(#f45b6yr4q656n)" height="30.2969" style="stroke: #A80036; stroke-width: 1.5;" width="53" x="8" y="33.2969"/><text fill="#000000" font-family="sans-serif" font-size="14" lengthAdjust="spacingAndGlyphs" textLength="39" x="15" y="53.292">eMSP</text><rect fill="#FEFECE" filter="url(#f45b6yr4q656n)" height="30.2969" style="stroke: #A80036; stroke-width: 1.5;" width="44" x="416.5" y="33.2969"/><text fill="#000000" font-family="sans-serif" font-size="14" lengthAdjust="spacingAndGlyphs" textLength="30" x="423.5" y="53.292">CPO</text><rect fill="#FEFECE" filter="url(#f45b6yr4q656n)" height="30.2969" style="stroke: #A80036; stroke-width: 1.5;" width="103" x="680" y="33.2969"/><text fill="#000000" font-family="sans-serif" font-size="14" lengthAdjust="spacingAndGlyphs" textLength="89" x="687" y="53.292">Charge Point</text><rect fill="#FFFFFF" filter="url(#f45b6yr4q656n)" height="29.1328" style="stroke: #A80036; stroke-width: 1.0;" width="10" x="31.5" y="138.7266"/><rect fill="#FFFFFF" filter="url(#f45b6yr4q656n)" height="14.1328" style="stroke: #A80036; stroke-width: 1.0;" width="10" x="31.5" y="255.2578"/><rect fill="#FFFFFF" filter="url(#f45b6yr4q656n)" height="58.2656" style="stroke: #A80036; stroke-width: 1.0;" width="10" x="435.5" y="138.7266"/><rect fill="#FFFFFF" filter="url(#f45b6yr4q656n)" height="43.2656" style="stroke: #A80036; stroke-width: 1.0;" width="10" x="435.5" y="226.125"/><rect fill="#FFFFFF" filter="url(#f45b6yr4q656n)" height="72.3984" style="stroke: #A80036; stroke-width: 1.0;" width="10" x="728.5" y="196.9922"/><polygon fill="#FBFB77" filter="url(#f45b6yr4q656n)" points="662,83.5938,662,108.5938,801,108.5938,801,93.5938,791,83.5938,662,83.5938" style="stroke: #A80036; stroke-width: 1.0;"/><line style="stroke: #A80036; stroke-width: 1.0;" x1="791" x2="791" y1="83.5938" y2="93.5938"/><line style="stroke: #A80036; stroke-width: 1.0;" x1="801" x2="791" y1="93.5938" y2="93.5938"/><text fill="#000000" font-family="sans-serif" font-size="13" lengthAdjust="spacingAndGlyphs" textLength="118" x="668" y="100.6606">EV NOT Plugged in</text><polygon fill="#A80036" points="423.5,134.7266,433.5,138.7266,423.5,142.7266,427.5,138.7266" style="stroke: #A80036; stroke-width: 1.0;"/><line style="stroke: #A80036; stroke-width: 1.0;" x1="41.5" x2="429.5" y1="138.7266" y2="138.7266"/><text fill="#000000" font-family="sans-serif" font-size="13" lengthAdjust="spacingAndGlyphs" textLength="380" x="48.5" y="133.7935">Command(START_SESSION, location_id=1234, token=200)</text><polygon fill="#A80036" points="47.5,163.8594,37.5,167.8594,47.5,171.8594,43.5,167.8594" style="stroke: #A80036; stroke-width: 1.0;"/><line style="stroke: #A80036; stroke-width: 1.0; stroke-dasharray: 2.0,2.0;" x1="41.5" x2="434.5" y1="167.8594" y2="167.8594"/><text fill="#000000" font-family="sans-serif" font-size="13" lengthAdjust="spacingAndGlyphs" textLength="313" x="53.5" y="162.9263">status_code = 1000, data: {result = ACCEPTED}</text><polygon fill="#A80036" points="716.5,192.9922,726.5,196.9922,716.5,200.9922,720.5,196.9922" style="stroke: #A80036; stroke-width: 1.0;"/><line style="stroke: #A80036; stroke-width: 1.0;" x1="440.5" x2="722.5" y1="196.9922" y2="196.9922"/><text fill="#000000" font-family="sans-serif" font-size="13" lengthAdjust="spacingAndGlyphs" textLength="264" x="447.5" y="192.0591">RemoteStartTransaction.req(Token=200)</text><polygon fill="#A80036" points="456.5,222.125,446.5,226.125,456.5,230.125,452.5,226.125" style="stroke: #A80036; stroke-width: 1.0;"/><line style="stroke: #A80036; stroke-width: 1.0;" x1="450.5" x2="727.5" y1="226.125" y2="226.125"/><text fill="#000000" font-family="sans-serif" font-size="13" lengthAdjust="spacingAndGlyphs" textLength="252" x="462.5" y="221.1919">RemoteStartTransaction.conf(Rejected)</text><polygon fill="#A80036" points="52.5,251.2578,42.5,255.2578,52.5,259.2578,48.5,255.2578" style="stroke: #A80036; stroke-width: 1.0;"/><line style="stroke: #A80036; stroke-width: 1.0;" x1="46.5" x2="434.5" y1="255.2578" y2="255.2578"/><text fill="#000000" font-family="sans-serif" font-size="13" lengthAdjust="spacingAndGlyphs" textLength="255" x="58.5" y="250.3247">CommandResponse(result = REJECTED)</text><polygon fill="#A80036" points="428.5,265.3906,438.5,269.3906,428.5,273.3906,432.5,269.3906" style="stroke: #A80036; stroke-width: 1.0;"/><line style="stroke: #A80036; stroke-width: 1.0; stroke-dasharray: 2.0,2.0;" x1="36.5" x2="434.5" y1="269.3906" y2="269.3906"/></g></svg>