<?xml version="1.0" encoding="UTF-8" standalone="no"?><svg xmlns="http://www.w3.org/2000/svg" xmlns:xlink="http://www.w3.org/1999/xlink" contentScriptType="application/ecmascript" contentStyleType="text/css" height="260px" preserveAspectRatio="none" style="width:923px;height:260px;" version="1.1" viewBox="0 0 923 260" width="923px" zoomAndPan="magnify"><defs><filter height="300%" id="f1rsj3tabg1t2q" width="300%" x="-1" y="-1"><feGaussianBlur result="blurOut" stdDeviation="2.0"/><feColorMatrix in="blurOut" result="blurOut2" type="matrix" values="0 0 0 0 0 0 0 0 0 0 0 0 0 0 0 0 0 0 .4 0"/><feOffset dx="4.0" dy="4.0" in="blurOut2" result="blurOut3"/><feBlend in="SourceGraphic" in2="blurOut3" mode="normal"/></filter></defs><g><text fill="#000000" font-family="sans-serif" font-size="14" font-weight="bold" lengthAdjust="spacingAndGlyphs" textLength="470" x="227" y="22.9951">OCPI Command RESERVE_NOW -&gt; REJECTED by Charge Point</text><rect fill="#FFFFFF" filter="url(#f1rsj3tabg1t2q)" height="29.1328" style="stroke: #A80036; stroke-width: 1.0;" width="10" x="31.5" y="99.7266"/><rect fill="#FFFFFF" filter="url(#f1rsj3tabg1t2q)" height="14" style="stroke: #A80036; stroke-width: 1.0;" width="10" x="31.5" y="216.2578"/><rect fill="#FFFFFF" filter="url(#f1rsj3tabg1t2q)" height="58.2656" style="stroke: #A80036; stroke-width: 1.0;" width="10" x="536.5" y="99.7266"/><rect fill="#FFFFFF" filter="url(#f1rsj3tabg1t2q)" height="43.1328" style="stroke: #A80036; stroke-width: 1.0;" width="10" x="536.5" y="187.125"/><rect fill="#FFFFFF" filter="url(#f1rsj3tabg1t2q)" height="29.1328" style="stroke: #A80036; stroke-width: 1.0;" width="10" x="857.5" y="157.9922"/><line style="stroke: #A80036; stroke-width: 1.0; stroke-dasharray: 5.0,5.0;" x1="36" x2="36" y1="68.5938" y2="248.2578"/><line style="stroke: #A80036; stroke-width: 1.0; stroke-dasharray: 5.0,5.0;" x1="541.5" x2="541.5" y1="68.5938" y2="248.2578"/><line style="stroke: #A80036; stroke-width: 1.0; stroke-dasharray: 5.0,5.0;" x1="862" x2="862" y1="68.5938" y2="248.2578"/><rect fill="#FEFECE" filter="url(#f1rsj3tabg1t2q)" height="30.2969" style="stroke: #A80036; stroke-width: 1.5;" width="53" x="8" y="33.2969"/><text fill="#000000" font-family="sans-serif" font-size="14" lengthAdjust="spacingAndGlyphs" textLength="39" x="15" y="53.292">eMSP</text><rect fill="#FEFECE" filter="url(#f1rsj3tabg1t2q)" height="30.2969" style="stroke: #A80036; stroke-width: 1.5;" width="44" x="517.5" y="33.2969"/><text fill="#000000" font-family="sans-serif" font-size="14" lengthAdjust="spacingAndGlyphs" textLength="30" x="524.5" y="53.292">CPO</text><rect fill="#FEFECE" filter="url(#f1rsj3tabg1t2q)" height="30.2969" style="stroke: #A80036; stroke-width: 1.5;" width="103" x="809" y="33.2969"/><text fill="#000000" font-family="sans-serif" font-size="14" lengthAdjust="spacingAndGlyphs" textLength="89" x="816" y="53.292">Charge Point</text><rect fill="#FFFFFF" filter="url(#f1rsj3tabg1t2q)" height="29.1328" style="stroke: #A80036; stroke-width: 1.0;" width="10" x="31.5" y="99.7266"/><rect fill="#FFFFFF" filter="url(#f1rsj3tabg1t2q)" height="14" style="stroke: #A80036; stroke-width: 1.0;" width="10" x="31.5" y="216.2578"/><rect fill="#FFFFFF" filter="url(#f1rsj3tabg1t2q)" height="58.2656" style="stroke: #A80036; stroke-width: 1.0;" width="10" x="536.5" y="99.7266"/><rect fill="#FFFFFF" filter="url(#f1rsj3tabg1t2q)" height="43.1328" style="stroke: #A80036; stroke-width: 1.0;" width="10" x="536.5" y="187.125"/><rect fill="#FFFFFF" filter="url(#f1rsj3tabg1t2q)" height="29.1328" style="stroke: #A80036; stroke-width: 1.0;" width="10" x="857.5" y="157.9922"/><polygon fill="#A80036" points="524.5,95.7266,534.5,99.7266,524.5,103.7266,528.5,99.7266" style="stroke: #A80036; stroke-width: 1.0;"/><line style="stroke: #A80036; stroke-width: 1.0;" x1="41.5" x2="530.5" y1="99.7266" y2="99.7266"/><text fill="#000000" font-family="sans-serif" font-size="13" lengthAdjust="spacingAndGlyphs" textLength="481" x="48.5" y="94.6606">Command(RESERVE_NOW, location_id=1234, token=200, reservationId=2)</text><polygon fill="#A80036" points="47.5,124.8594,37.5,128.8594,47.5,132.8594,43.5,128.8594" style="stroke: #A80036; stroke-width: 1.0;"/><line style="stroke: #A80036; stroke-width: 1.0; stroke-dasharray: 2.0,2.0;" x1="41.5" x2="535.5" y1="128.8594" y2="128.8594"/><text fill="#000000" font-family="sans-serif" font-size="13" lengthAdjust="spacingAndGlyphs" textLength="470" x="53.5" y="123.7935">status_code = 1000, data: {CommandResponse { result = ACCEPTED }}</text><polygon fill="#A80036" points="845.5,153.9922,855.5,157.9922,845.5,161.9922,849.5,157.9922" style="stroke: #A80036; stroke-width: 1.0;"/><line style="stroke: #A80036; stroke-width: 1.0;" x1="541.5" x2="851.5" y1="157.9922" y2="157.9922"/><text fill="#000000" font-family="sans-serif" font-size="13" lengthAdjust="spacingAndGlyphs" textLength="292" x="548.5" y="152.9263">ReserveNow.req(idTag=200, reservationId=2)</text><polygon fill="#A80036" points="557.5,183.125,547.5,187.125,557.5,191.125,553.5,187.125" style="stroke: #A80036; stroke-width: 1.0;"/><line style="stroke: #A80036; stroke-width: 1.0;" x1="551.5" x2="861.5" y1="187.125" y2="187.125"/><text fill="#000000" font-family="sans-serif" font-size="13" lengthAdjust="spacingAndGlyphs" textLength="174" x="563.5" y="182.0591">ReserveNow.conf(Rejected)</text><polygon fill="#A80036" points="52.5,212.2578,42.5,216.2578,52.5,220.2578,48.5,216.2578" style="stroke: #A80036; stroke-width: 1.0;"/><line style="stroke: #A80036; stroke-width: 1.0;" x1="46.5" x2="535.5" y1="216.2578" y2="216.2578"/><text fill="#000000" font-family="sans-serif" font-size="13" lengthAdjust="spacingAndGlyphs" textLength="232" x="58.5" y="211.1919">CommandResult(result = REJECTED)</text><polygon fill="#A80036" points="529.5,226.2578,539.5,230.2578,529.5,234.2578,533.5,230.2578" style="stroke: #A80036; stroke-width: 1.0;"/><line style="stroke: #A80036; stroke-width: 1.0; stroke-dasharray: 2.0,2.0;" x1="36.5" x2="535.5" y1="230.2578" y2="230.2578"/></g></svg>