<?xml version="1.0" encoding="UTF-8" standalone="no"?><svg xmlns="http://www.w3.org/2000/svg" xmlns:xlink="http://www.w3.org/1999/xlink" contentScriptType="application/ecmascript" contentStyleType="text/css" height="529px" preserveAspectRatio="none" style="width:592px;height:529px;" version="1.1" viewBox="0 0 592 529" width="592px" zoomAndPan="magnify"><defs><filter height="300%" id="f1opwfoiigbb4c" width="300%" x="-1" y="-1"><feGaussianBlur result="blurOut" stdDeviation="2.0"/><feColorMatrix in="blurOut" result="blurOut2" type="matrix" values="0 0 0 0 0 0 0 0 0 0 0 0 0 0 0 0 0 0 .4 0"/><feOffset dx="4.0" dy="4.0" in="blurOut2" result="blurOut3"/><feBlend in="SourceGraphic" in2="blurOut3" mode="normal"/></filter></defs><g><line style="stroke: #A80036; stroke-width: 1.0; stroke-dasharray: 5.0,5.0;" x1="129" x2="129" y1="38.4883" y2="488.7676"/><line style="stroke: #A80036; stroke-width: 1.0; stroke-dasharray: 5.0,5.0;" x1="442.5" x2="442.5" y1="38.4883" y2="488.7676"/><rect fill="#FEFECE" filter="url(#f1opwfoiigbb4c)" height="30.4883" style="stroke: #A80036; stroke-width: 1.5;" width="43" x="106" y="3"/><text fill="#000000" font-family="sans-serif" font-size="14" lengthAdjust="spacingAndGlyphs" textLength="29" x="113" y="23.5352">CPO</text><rect fill="#FEFECE" filter="url(#f1opwfoiigbb4c)" height="30.4883" style="stroke: #A80036; stroke-width: 1.5;" width="43" x="106" y="487.7676"/><text fill="#000000" font-family="sans-serif" font-size="14" lengthAdjust="spacingAndGlyphs" textLength="29" x="113" y="508.3027">CPO</text><rect fill="#FEFECE" filter="url(#f1opwfoiigbb4c)" height="30.4883" style="stroke: #A80036; stroke-width: 1.5;" width="42" x="419.5" y="3"/><text fill="#000000" font-family="sans-serif" font-size="14" lengthAdjust="spacingAndGlyphs" textLength="28" x="426.5" y="23.5352">MSP</text><rect fill="#FEFECE" filter="url(#f1opwfoiigbb4c)" height="30.4883" style="stroke: #A80036; stroke-width: 1.5;" width="42" x="419.5" y="487.7676"/><text fill="#000000" font-family="sans-serif" font-size="14" lengthAdjust="spacingAndGlyphs" textLength="28" x="426.5" y="508.3027">MSP</text><polygon fill="#A80036" points="430.5,65.7988,440.5,69.7988,430.5,73.7988,434.5,69.7988" style="stroke: #A80036; stroke-width: 1.0;"/><line style="stroke: #A80036; stroke-width: 1.0;" x1="129.5" x2="436.5" y1="69.7988" y2="69.7988"/><text fill="#000000" font-family="sans-serif" font-size="13" lengthAdjust="spacingAndGlyphs" textLength="39" x="136.5" y="65.0566">CDR 1</text><polygon fill="#A80036" points="430.5,95.1094,440.5,99.1094,430.5,103.1094,434.5,99.1094" style="stroke: #A80036; stroke-width: 1.0;"/><line style="stroke: #A80036; stroke-width: 1.0;" x1="129.5" x2="436.5" y1="99.1094" y2="99.1094"/><text fill="#000000" font-family="sans-serif" font-size="13" lengthAdjust="spacingAndGlyphs" textLength="39" x="136.5" y="94.3672">CDR 2</text><polygon fill="#A80036" points="430.5,124.4199,440.5,128.4199,430.5,132.4199,434.5,128.4199" style="stroke: #A80036; stroke-width: 1.0;"/><line style="stroke: #A80036; stroke-width: 1.0;" x1="129.5" x2="436.5" y1="128.4199" y2="128.4199"/><text fill="#000000" font-family="sans-serif" font-size="13" lengthAdjust="spacingAndGlyphs" textLength="39" x="136.5" y="123.6777">CDR 3</text><rect fill="#EEEEEE" filter="url(#f1opwfoiigbb4c)" height="3" style="stroke: #EEEEEE; stroke-width: 1.0;" width="577" x="3" y="157.0752"/><line style="stroke: #000000; stroke-width: 1.0;" x1="3" x2="580" y1="157.0752" y2="157.0752"/><line style="stroke: #000000; stroke-width: 1.0;" x1="3" x2="580" y1="160.0752" y2="160.0752"/><rect fill="#EEEEEE" filter="url(#f1opwfoiigbb4c)" height="23.3105" style="stroke: #000000; stroke-width: 2.0;" width="97" x="243" y="146.4199"/><text fill="#000000" font-family="sans-serif" font-size="13" font-weight="bold" lengthAdjust="spacingAndGlyphs" textLength="79" x="249" y="162.9883">March ends</text><polygon fill="#A80036" points="430.5,197.041,440.5,201.041,430.5,205.041,434.5,201.041" style="stroke: #A80036; stroke-width: 1.0;"/><line style="stroke: #A80036; stroke-width: 1.0;" x1="129.5" x2="436.5" y1="201.041" y2="201.041"/><text fill="#000000" font-family="sans-serif" font-size="13" lengthAdjust="spacingAndGlyphs" textLength="39" x="136.5" y="196.2988">CDR 4</text><path d="M309,214.041 L309,239.041 L571,239.041 L571,224.041 L561,214.041 L309,214.041 " fill="#FBFB77" filter="url(#f1opwfoiigbb4c)" style="stroke: #A80036; stroke-width: 1.0;"/><path d="M561,214.041 L561,224.041 L571,224.041 L561,214.041 " fill="#FBFB77" style="stroke: #A80036; stroke-width: 1.0;"/><text fill="#000000" font-family="sans-serif" font-size="13" lengthAdjust="spacingAndGlyphs" textLength="241" x="315" y="231.6094">MSP runs billing for sessions of March</text><polygon fill="#A80036" points="140.5,388.1465,130.5,392.1465,140.5,396.1465,136.5,392.1465" style="stroke: #A80036; stroke-width: 1.0;"/><line style="stroke: #A80036; stroke-width: 1.0;" x1="134.5" x2="441.5" y1="392.1465" y2="392.1465"/><text fill="#000000" font-family="sans-serif" font-size="13" lengthAdjust="spacingAndGlyphs" textLength="240" x="146.5" y="264.9199">publish Invoice Reconciliation Record:</text><text fill="#000000" font-family="sans-serif" font-size="13" lengthAdjust="spacingAndGlyphs" textLength="4" x="146.5" y="280.2305">{</text><text fill="#000000" font-family="sans-serif" font-size="13" lengthAdjust="spacingAndGlyphs" textLength="134" x="158.5" y="295.541">"country_code": "NL",</text><text fill="#000000" font-family="sans-serif" font-size="13" lengthAdjust="spacingAndGlyphs" textLength="112" x="158.5" y="310.8516">"party_id": "TNM",</text><text fill="#000000" font-family="sans-serif" font-size="13" lengthAdjust="spacingAndGlyphs" textLength="52" x="158.5" y="326.1621">"id": "3",</text><text fill="#000000" font-family="sans-serif" font-size="13" lengthAdjust="spacingAndGlyphs" textLength="166" x="158.5" y="341.4727">"invoice_id": "INV202303",</text><text fill="#000000" font-family="sans-serif" font-size="13" lengthAdjust="spacingAndGlyphs" textLength="239" x="158.5" y="356.7832">"cdrs": [{"id": "a"}, {"id": "b"}, {"id": "c"}],</text><text fill="#000000" font-family="sans-serif" font-size="13" lengthAdjust="spacingAndGlyphs" textLength="265" x="158.5" y="372.0938">"last_updated": "2015-04-01T21:59:59Z",</text><text fill="#000000" font-family="sans-serif" font-size="13" lengthAdjust="spacingAndGlyphs" textLength="4" x="146.5" y="387.4043">}</text><path d="M333,405.1465 L333,430.1465 L548,430.1465 L548,415.1465 L538,405.1465 L333,405.1465 " fill="#FBFB77" filter="url(#f1opwfoiigbb4c)" style="stroke: #A80036; stroke-width: 1.0;"/><path d="M538,405.1465 L538,415.1465 L548,415.1465 L538,405.1465 " fill="#FBFB77" style="stroke: #A80036; stroke-width: 1.0;"/><text fill="#000000" font-family="sans-serif" font-size="13" lengthAdjust="spacingAndGlyphs" textLength="194" x="339" y="422.7148">MSP emails invoice PDF to CPO</text><path d="M8,444.457 L8,469.457 L248,469.457 L248,454.457 L238,444.457 L8,444.457 " fill="#FBFB77" filter="url(#f1opwfoiigbb4c)" style="stroke: #A80036; stroke-width: 1.0;"/><path d="M238,444.457 L238,454.457 L248,454.457 L238,444.457 " fill="#FBFB77" style="stroke: #A80036; stroke-width: 1.0;"/><text fill="#000000" font-family="sans-serif" font-size="13" lengthAdjust="spacingAndGlyphs" textLength="219" x="14" y="462.0254">CPO checks invoice total from MSP</text></g></svg>