<?xml version="1.0" encoding="UTF-8" standalone="no"?><svg xmlns="http://www.w3.org/2000/svg" xmlns:xlink="http://www.w3.org/1999/xlink" contentScriptType="application/ecmascript" contentStyleType="text/css" height="529px" preserveAspectRatio="none" style="width:593px;height:529px;" version="1.1" viewBox="0 0 593 529" width="593px" zoomAndPan="magnify"><defs><filter height="300%" id="f1b5tpx54rv87i" width="300%" x="-1" y="-1"><feGaussianBlur result="blurOut" stdDeviation="2.0"/><feColorMatrix in="blurOut" result="blurOut2" type="matrix" values="0 0 0 0 0 0 0 0 0 0 0 0 0 0 0 0 0 0 .4 0"/><feOffset dx="4.0" dy="4.0" in="blurOut2" result="blurOut3"/><feBlend in="SourceGraphic" in2="blurOut3" mode="normal"/></filter></defs><g><line style="stroke: #A80036; stroke-width: 1.0; stroke-dasharray: 5.0,5.0;" x1="141" x2="141" y1="38.4883" y2="488.7676"/><line style="stroke: #A80036; stroke-width: 1.0; stroke-dasharray: 5.0,5.0;" x1="454.5" x2="454.5" y1="38.4883" y2="488.7676"/><rect fill="#FEFECE" filter="url(#f1b5tpx54rv87i)" height="30.4883" style="stroke: #A80036; stroke-width: 1.5;" width="43" x="118" y="3"/><text fill="#000000" font-family="sans-serif" font-size="14" lengthAdjust="spacingAndGlyphs" textLength="29" x="125" y="23.5352">CPO</text><rect fill="#FEFECE" filter="url(#f1b5tpx54rv87i)" height="30.4883" style="stroke: #A80036; stroke-width: 1.5;" width="43" x="118" y="487.7676"/><text fill="#000000" font-family="sans-serif" font-size="14" lengthAdjust="spacingAndGlyphs" textLength="29" x="125" y="508.3027">CPO</text><rect fill="#FEFECE" filter="url(#f1b5tpx54rv87i)" height="30.4883" style="stroke: #A80036; stroke-width: 1.5;" width="42" x="431.5" y="3"/><text fill="#000000" font-family="sans-serif" font-size="14" lengthAdjust="spacingAndGlyphs" textLength="28" x="438.5" y="23.5352">MSP</text><rect fill="#FEFECE" filter="url(#f1b5tpx54rv87i)" height="30.4883" style="stroke: #A80036; stroke-width: 1.5;" width="42" x="431.5" y="487.7676"/><text fill="#000000" font-family="sans-serif" font-size="14" lengthAdjust="spacingAndGlyphs" textLength="28" x="438.5" y="508.3027">MSP</text><polygon fill="#A80036" points="442.5,65.7988,452.5,69.7988,442.5,73.7988,446.5,69.7988" style="stroke: #A80036; stroke-width: 1.0;"/><line style="stroke: #A80036; stroke-width: 1.0;" x1="141.5" x2="448.5" y1="69.7988" y2="69.7988"/><text fill="#000000" font-family="sans-serif" font-size="13" lengthAdjust="spacingAndGlyphs" textLength="39" x="148.5" y="65.0566">CDR 1</text><polygon fill="#A80036" points="442.5,95.1094,452.5,99.1094,442.5,103.1094,446.5,99.1094" style="stroke: #A80036; stroke-width: 1.0;"/><line style="stroke: #A80036; stroke-width: 1.0;" x1="141.5" x2="448.5" y1="99.1094" y2="99.1094"/><text fill="#000000" font-family="sans-serif" font-size="13" lengthAdjust="spacingAndGlyphs" textLength="39" x="148.5" y="94.3672">CDR 2</text><polygon fill="#A80036" points="442.5,124.4199,452.5,128.4199,442.5,132.4199,446.5,128.4199" style="stroke: #A80036; stroke-width: 1.0;"/><line style="stroke: #A80036; stroke-width: 1.0;" x1="141.5" x2="448.5" y1="128.4199" y2="128.4199"/><text fill="#000000" font-family="sans-serif" font-size="13" lengthAdjust="spacingAndGlyphs" textLength="39" x="148.5" y="123.6777">CDR 3</text><rect fill="#EEEEEE" filter="url(#f1b5tpx54rv87i)" height="3" style="stroke: #EEEEEE; stroke-width: 1.0;" width="578" x="3" y="157.0752"/><line style="stroke: #000000; stroke-width: 1.0;" x1="3" x2="581" y1="157.0752" y2="157.0752"/><line style="stroke: #000000; stroke-width: 1.0;" x1="3" x2="581" y1="160.0752" y2="160.0752"/><rect fill="#EEEEEE" filter="url(#f1b5tpx54rv87i)" height="23.3105" style="stroke: #000000; stroke-width: 2.0;" width="97" x="243.5" y="146.4199"/><text fill="#000000" font-family="sans-serif" font-size="13" font-weight="bold" lengthAdjust="spacingAndGlyphs" textLength="79" x="249.5" y="162.9883">March ends</text><polygon fill="#A80036" points="442.5,197.041,452.5,201.041,442.5,205.041,446.5,201.041" style="stroke: #A80036; stroke-width: 1.0;"/><line style="stroke: #A80036; stroke-width: 1.0;" x1="141.5" x2="448.5" y1="201.041" y2="201.041"/><text fill="#000000" font-family="sans-serif" font-size="13" lengthAdjust="spacingAndGlyphs" textLength="39" x="148.5" y="196.2988">CDR 4</text><path d="M8,214.041 L8,239.041 L271,239.041 L271,224.041 L261,214.041 L8,214.041 " fill="#FBFB77" filter="url(#f1b5tpx54rv87i)" style="stroke: #A80036; stroke-width: 1.0;"/><path d="M261,214.041 L261,224.041 L271,224.041 L261,214.041 " fill="#FBFB77" style="stroke: #A80036; stroke-width: 1.0;"/><text fill="#000000" font-family="sans-serif" font-size="13" lengthAdjust="spacingAndGlyphs" textLength="242" x="14" y="231.6094">CPO runs billing for sessions of March</text><polygon fill="#A80036" points="442.5,388.1465,452.5,392.1465,442.5,396.1465,446.5,392.1465" style="stroke: #A80036; stroke-width: 1.0;"/><line style="stroke: #A80036; stroke-width: 1.0;" x1="141.5" x2="448.5" y1="392.1465" y2="392.1465"/><text fill="#000000" font-family="sans-serif" font-size="13" lengthAdjust="spacingAndGlyphs" textLength="240" x="148.5" y="264.9199">publish Invoice Reconciliation Record:</text><text fill="#000000" font-family="sans-serif" font-size="13" lengthAdjust="spacingAndGlyphs" textLength="4" x="148.5" y="280.2305">{</text><text fill="#000000" font-family="sans-serif" font-size="13" lengthAdjust="spacingAndGlyphs" textLength="134" x="160.5" y="295.541">"country_code": "NL",</text><text fill="#000000" font-family="sans-serif" font-size="13" lengthAdjust="spacingAndGlyphs" textLength="112" x="160.5" y="310.8516">"party_id": "TNM",</text><text fill="#000000" font-family="sans-serif" font-size="13" lengthAdjust="spacingAndGlyphs" textLength="52" x="160.5" y="326.1621">"id": "3",</text><text fill="#000000" font-family="sans-serif" font-size="13" lengthAdjust="spacingAndGlyphs" textLength="166" x="160.5" y="341.4727">"invoice_id": "INV202303",</text><text fill="#000000" font-family="sans-serif" font-size="13" lengthAdjust="spacingAndGlyphs" textLength="241" x="160.5" y="356.7832">"cdrs": [{"id": "1"}, {"id": "2"}, {"id": "3"}],</text><text fill="#000000" font-family="sans-serif" font-size="13" lengthAdjust="spacingAndGlyphs" textLength="265" x="160.5" y="372.0938">"last_updated": "2015-04-01T21:59:59Z",</text><text fill="#000000" font-family="sans-serif" font-size="13" lengthAdjust="spacingAndGlyphs" textLength="4" x="148.5" y="387.4043">}</text><path d="M32,405.1465 L32,430.1465 L247,430.1465 L247,415.1465 L237,405.1465 L32,405.1465 " fill="#FBFB77" filter="url(#f1b5tpx54rv87i)" style="stroke: #A80036; stroke-width: 1.0;"/><path d="M237,405.1465 L237,415.1465 L247,415.1465 L237,405.1465 " fill="#FBFB77" style="stroke: #A80036; stroke-width: 1.0;"/><text fill="#000000" font-family="sans-serif" font-size="13" lengthAdjust="spacingAndGlyphs" textLength="194" x="38" y="422.7148">CPO emails invoice PDF to MSP</text><path d="M332,444.457 L332,469.457 L572,469.457 L572,454.457 L562,444.457 L332,444.457 " fill="#FBFB77" filter="url(#f1b5tpx54rv87i)" style="stroke: #A80036; stroke-width: 1.0;"/><path d="M562,444.457 L562,454.457 L572,454.457 L562,444.457 " fill="#FBFB77" style="stroke: #A80036; stroke-width: 1.0;"/><text fill="#000000" font-family="sans-serif" font-size="13" lengthAdjust="spacingAndGlyphs" textLength="219" x="338" y="462.0254">MSP checks invoice total from CPO</text></g></svg>