<?xml version="1.0" encoding="UTF-8" standalone="no"?><svg xmlns="http://www.w3.org/2000/svg" xmlns:xlink="http://www.w3.org/1999/xlink" contentScriptType="application/ecmascript" contentStyleType="text/css" height="303px" preserveAspectRatio="none" style="width:220px;height:303px;" version="1.1" viewBox="0 0 220 303" width="220px" zoomAndPan="magnify"><defs><filter height="300%" id="f1pm1vw3d8gca5" width="300%" x="-1" y="-1"><feGaussianBlur result="blurOut" stdDeviation="2.0"/><feColorMatrix in="blurOut" result="blurOut2" type="matrix" values="0 0 0 0 0 0 0 0 0 0 0 0 0 0 0 0 0 0 .4 0"/><feOffset dx="4.0" dy="4.0" in="blurOut2" result="blurOut3"/><feBlend in="SourceGraphic" in2="blurOut3" mode="normal"/></filter></defs><g><text fill="#000000" font-family="sans-serif" font-size="18" lengthAdjust="spacingAndGlyphs" textLength="206" x="2" y="16.708">Locations class diagram</text><!--class Location--><rect fill="#FEFECE" filter="url(#f1pm1vw3d8gca5)" height="48" id="Location" style="stroke: #A80036; stroke-width: 1.5;" width="85" x="56.75" y="28.9531"/><ellipse cx="71.75" cy="44.9531" fill="#ADD1B2" rx="11" ry="11" style="stroke: #A80036; stroke-width: 1.0;"/><path d="M74.7188,50.5938 Q74.1406,50.8906 73.5,51.0391 Q72.8594,51.1875 72.1563,51.1875 Q69.6563,51.1875 68.3359,49.5391 Q67.0156,47.8906 67.0156,44.7656 Q67.0156,41.6406 68.3359,39.9844 Q69.6563,38.3281 72.1563,38.3281 Q72.8594,38.3281 73.5078,38.4844 Q74.1563,38.6406 74.7188,38.9375 L74.7188,41.6563 Q74.0938,41.0781 73.5,40.8047 Q72.9063,40.5313 72.2813,40.5313 Q70.9375,40.5313 70.25,41.6016 Q69.5625,42.6719 69.5625,44.7656 Q69.5625,46.8594 70.25,47.9297 Q70.9375,49 72.2813,49 Q72.9063,49 73.5,48.7266 Q74.0938,48.4531 74.7188,47.875 L74.7188,50.5938 Z "/><text fill="#000000" font-family="sans-serif" font-size="12" lengthAdjust="spacingAndGlyphs" textLength="53" x="85.75" y="49.1074">Location</text><line style="stroke: #A80036; stroke-width: 1.5;" x1="57.75" x2="140.75" y1="60.9531" y2="60.9531"/><line style="stroke: #A80036; stroke-width: 1.5;" x1="57.75" x2="140.75" y1="68.9531" y2="68.9531"/><!--class EVSE--><rect fill="#FEFECE" filter="url(#f1pm1vw3d8gca5)" height="48" id="EVSE" style="stroke: #A80036; stroke-width: 1.5;" width="64" x="67" y="136.9531"/><ellipse cx="82" cy="152.9531" fill="#ADD1B2" rx="11" ry="11" style="stroke: #A80036; stroke-width: 1.0;"/><path d="M84.9688,158.5938 Q84.3906,158.8906 83.75,159.0391 Q83.1094,159.1875 82.4063,159.1875 Q79.9063,159.1875 78.5859,157.5391 Q77.2656,155.8906 77.2656,152.7656 Q77.2656,149.6406 78.5859,147.9844 Q79.9063,146.3281 82.4063,146.3281 Q83.1094,146.3281 83.7578,146.4844 Q84.4063,146.6406 84.9688,146.9375 L84.9688,149.6563 Q84.3438,149.0781 83.75,148.8047 Q83.1563,148.5313 82.5313,148.5313 Q81.1875,148.5313 80.5,149.6016 Q79.8125,150.6719 79.8125,152.7656 Q79.8125,154.8594 80.5,155.9297 Q81.1875,157 82.5313,157 Q83.1563,157 83.75,156.7266 Q84.3438,156.4531 84.9688,155.875 L84.9688,158.5938 Z "/><text fill="#000000" font-family="sans-serif" font-size="12" lengthAdjust="spacingAndGlyphs" textLength="32" x="96" y="157.1074">EVSE</text><line style="stroke: #A80036; stroke-width: 1.5;" x1="68" x2="130" y1="168.9531" y2="168.9531"/><line style="stroke: #A80036; stroke-width: 1.5;" x1="68" x2="130" y1="176.9531" y2="176.9531"/><!--class Connector--><rect fill="#FEFECE" filter="url(#f1pm1vw3d8gca5)" height="48" id="Connector" style="stroke: #A80036; stroke-width: 1.5;" width="97" x="50.75" y="244.9531"/><ellipse cx="65.75" cy="260.9531" fill="#ADD1B2" rx="11" ry="11" style="stroke: #A80036; stroke-width: 1.0;"/><path d="M68.7188,266.5938 Q68.1406,266.8906 67.5,267.0391 Q66.8594,267.1875 66.1563,267.1875 Q63.6563,267.1875 62.3359,265.5391 Q61.0156,263.8906 61.0156,260.7656 Q61.0156,257.6406 62.3359,255.9844 Q63.6563,254.3281 66.1563,254.3281 Q66.8594,254.3281 67.5078,254.4844 Q68.1563,254.6406 68.7188,254.9375 L68.7188,257.6563 Q68.0938,257.0781 67.5,256.8047 Q66.9063,256.5313 66.2813,256.5313 Q64.9375,256.5313 64.25,257.6016 Q63.5625,258.6719 63.5625,260.7656 Q63.5625,262.8594 64.25,263.9297 Q64.9375,265 66.2813,265 Q66.9063,265 67.5,264.7266 Q68.0938,264.4531 68.7188,263.875 L68.7188,266.5938 Z "/><text fill="#000000" font-family="sans-serif" font-size="12" lengthAdjust="spacingAndGlyphs" textLength="65" x="79.75" y="265.1074">Connector</text><line style="stroke: #A80036; stroke-width: 1.5;" x1="51.75" x2="146.75" y1="276.9531" y2="276.9531"/><line style="stroke: #A80036; stroke-width: 1.5;" x1="51.75" x2="146.75" y1="284.9531" y2="284.9531"/><!--link Location to EVSE--><path d="M99,90.2911 C99,105.6341 99,123.0511 99,136.6311 " fill="none" id="Location-EVSE" style="stroke: #A80036; stroke-width: 1.0;"/><polygon fill="#A80036" points="99,76.9531,95,82.9531,99,88.9531,103,82.9531,99,76.9531" style="stroke: #A80036; stroke-width: 1.0;"/><text fill="#000000" font-family="sans-serif" font-size="13" lengthAdjust="spacingAndGlyphs" textLength="8" x="88.6547" y="97.1089">1</text><text fill="#000000" font-family="sans-serif" font-size="13" lengthAdjust="spacingAndGlyphs" textLength="24" x="71.3188" y="125.9422">0..n</text><!--link EVSE to Connector--><path d="M99,198.2914 C99,213.6344 99,231.0511 99,244.6315 " fill="none" id="EVSE-Connector" style="stroke: #A80036; stroke-width: 1.0;"/><polygon fill="#A80036" points="99,184.9531,95,190.9531,99,196.9531,103,190.9531,99,184.9531" style="stroke: #A80036; stroke-width: 1.0;"/><text fill="#000000" font-family="sans-serif" font-size="13" lengthAdjust="spacingAndGlyphs" textLength="8" x="88.7188" y="205.1089">1</text><text fill="#000000" font-family="sans-serif" font-size="13" lengthAdjust="spacingAndGlyphs" textLength="24" x="71.2672" y="233.9427">1..n</text></g></svg>