<?xml version="1.0" encoding="UTF-8" standalone="no"?><svg xmlns="http://www.w3.org/2000/svg" xmlns:xlink="http://www.w3.org/1999/xlink" contentScriptType="application/ecmascript" contentStyleType="text/css" height="942px" preserveAspectRatio="none" style="width:1435px;height:942px;" version="1.1" viewBox="0 0 1435 942" width="1435px" zoomAndPan="magnify"><defs><filter height="300%" id="fvk0xdg5gujd3" width="300%" x="-1" y="-1"><feGaussianBlur result="blurOut" stdDeviation="2.0"/><feColorMatrix in="blurOut" result="blurOut2" type="matrix" values="0 0 0 0 0 0 0 0 0 0 0 0 0 0 0 0 0 0 .4 0"/><feOffset dx="4.0" dy="4.0" in="blurOut2" result="blurOut3"/><feBlend in="SourceGraphic" in2="blurOut3" mode="normal"/></filter></defs><g><rect fill="#FFFFFF" filter="url(#fvk0xdg5gujd3)" height="61.412" style="stroke: #000000; stroke-width: 2.0;" width="385" x="1039" y="448.5401"/><rect fill="#FFFFFF" filter="url(#fvk0xdg5gujd3)" height="114.8241" style="stroke: #000000; stroke-width: 2.0;" width="856.5" x="246" y="523.9521"/><rect fill="#FFFFFF" filter="url(#fvk0xdg5gujd3)" height="61.412" style="stroke: #000000; stroke-width: 2.0;" width="309" x="1039" y="652.7762"/><line style="stroke: #A80036; stroke-width: 1.0; stroke-dasharray: 5.0,5.0;" x1="199" x2="199" y1="41.0679" y2="899.7183"/><line style="stroke: #A80036; stroke-width: 1.0; stroke-dasharray: 5.0,5.0;" x1="326" x2="326" y1="41.0679" y2="899.7183"/><line style="stroke: #A80036; stroke-width: 1.0; stroke-dasharray: 5.0,5.0;" x1="605.5" x2="605.5" y1="41.0679" y2="899.7183"/><line style="stroke: #A80036; stroke-width: 1.0; stroke-dasharray: 5.0,5.0;" x1="1043.5" x2="1043.5" y1="41.0679" y2="899.7183"/><rect fill="#FEFECE" filter="url(#fvk0xdg5gujd3)" height="33.0679" style="stroke: #A80036; stroke-width: 1.5;" width="89" x="153" y="3"/><text fill="#000000" font-family="sans-serif" font-size="14" lengthAdjust="spacingAndGlyphs" textLength="75" x="160" y="24.9659">PSP system</text><rect fill="#FEFECE" filter="url(#fvk0xdg5gujd3)" height="33.0679" style="stroke: #A80036; stroke-width: 1.5;" width="89" x="153" y="898.7183"/><text fill="#000000" font-family="sans-serif" font-size="14" lengthAdjust="spacingAndGlyphs" textLength="75" x="160" y="920.6843">PSP system</text><rect fill="#FEFECE" filter="url(#fvk0xdg5gujd3)" height="33.0679" style="stroke: #A80036; stroke-width: 1.5;" width="136" x="256" y="3"/><text fill="#000000" font-family="sans-serif" font-size="14" lengthAdjust="spacingAndGlyphs" textLength="122" x="263" y="24.9659">Payment Terminal</text><rect fill="#FEFECE" filter="url(#fvk0xdg5gujd3)" height="33.0679" style="stroke: #A80036; stroke-width: 1.5;" width="136" x="256" y="898.7183"/><text fill="#000000" font-family="sans-serif" font-size="14" lengthAdjust="spacingAndGlyphs" textLength="122" x="263" y="920.6843">Payment Terminal</text><rect fill="#FEFECE" filter="url(#fvk0xdg5gujd3)" height="33.0679" style="stroke: #A80036; stroke-width: 1.5;" width="89" x="559.5" y="3"/><text fill="#000000" font-family="sans-serif" font-size="14" lengthAdjust="spacingAndGlyphs" textLength="75" x="566.5" y="24.9659">PTP system</text><rect fill="#FEFECE" filter="url(#fvk0xdg5gujd3)" height="33.0679" style="stroke: #A80036; stroke-width: 1.5;" width="89" x="559.5" y="898.7183"/><text fill="#000000" font-family="sans-serif" font-size="14" lengthAdjust="spacingAndGlyphs" textLength="75" x="566.5" y="920.6843">PTP system</text><rect fill="#FEFECE" filter="url(#fvk0xdg5gujd3)" height="33.0679" style="stroke: #A80036; stroke-width: 1.5;" width="93" x="995.5" y="3"/><text fill="#000000" font-family="sans-serif" font-size="14" lengthAdjust="spacingAndGlyphs" textLength="79" x="1002.5" y="24.9659">CPO system</text><rect fill="#FEFECE" filter="url(#fvk0xdg5gujd3)" height="33.0679" style="stroke: #A80036; stroke-width: 1.5;" width="93" x="995.5" y="898.7183"/><text fill="#000000" font-family="sans-serif" font-size="14" lengthAdjust="spacingAndGlyphs" textLength="79" x="1002.5" y="920.6843">CPO system</text><path d="M8,56.0679 L8,83.0679 L317,83.0679 L317,66.0679 L307,56.0679 L8,56.0679 " fill="#FBFB77" filter="url(#fvk0xdg5gujd3)" style="stroke: #A80036; stroke-width: 1.0;"/><path d="M307,56.0679 L307,66.0679 L317,66.0679 L307,56.0679 " fill="#FBFB77" style="stroke: #A80036; stroke-width: 1.0;"/><text fill="#000000" font-family="sans-serif" font-size="13" lengthAdjust="spacingAndGlyphs" textLength="288" x="14" y="74.9649">Until that point the user has chosen a connector</text><polygon fill="#A80036" points="594,112.4799,604,116.4799,594,120.4799,598,116.4799" style="stroke: #A80036; stroke-width: 1.0;"/><line style="stroke: #A80036; stroke-width: 1.0;" x1="326" x2="600" y1="116.4799" y2="116.4799"/><text fill="#000000" font-family="sans-serif" font-size="13" lengthAdjust="spacingAndGlyphs" textLength="256" x="333" y="110.6709">terminal fetches data for chosen connector</text><polygon fill="#A80036" points="1032,144.186,1042,148.186,1032,152.186,1036,148.186" style="stroke: #A80036; stroke-width: 1.0;"/><line style="stroke: #A80036; stroke-width: 1.0;" x1="606" x2="1038" y1="148.186" y2="148.186"/><text fill="#000000" font-family="sans-serif" font-size="13" lengthAdjust="spacingAndGlyphs" textLength="142" x="613" y="142.377">pull location(connector)</text><polygon fill="#A80036" points="1032,175.892,1042,179.892,1032,183.892,1036,179.892" style="stroke: #A80036; stroke-width: 1.0;"/><line style="stroke: #A80036; stroke-width: 1.0;" x1="606" x2="1038" y1="179.892" y2="179.892"/><text fill="#000000" font-family="sans-serif" font-size="13" lengthAdjust="spacingAndGlyphs" textLength="129" x="613" y="174.083">pull Tariff information</text><polygon fill="#A80036" points="337,207.598,327,211.598,337,215.598,333,211.598" style="stroke: #A80036; stroke-width: 1.0;"/><line style="stroke: #A80036; stroke-width: 1.0;" x1="331" x2="605" y1="211.598" y2="211.598"/><text fill="#000000" font-family="sans-serif" font-size="13" lengthAdjust="spacingAndGlyphs" textLength="160" x="343" y="205.789">price for charging is shown</text><polygon fill="#A80036" points="210.5,239.304,200.5,243.304,210.5,247.304,206.5,243.304" style="stroke: #A80036; stroke-width: 1.0;"/><line style="stroke: #A80036; stroke-width: 1.0;" x1="204.5" x2="605" y1="243.304" y2="243.304"/><text fill="#000000" font-family="sans-serif" font-size="13" lengthAdjust="spacingAndGlyphs" textLength="154" x="216.5" y="237.495">pre-authorization is made</text><polygon fill="#A80036" points="594,271.01,604,275.01,594,279.01,598,275.01" style="stroke: #A80036; stroke-width: 1.0;"/><line style="stroke: #A80036; stroke-width: 1.0;" x1="199.5" x2="600" y1="275.01" y2="275.01"/><text fill="#000000" font-family="sans-serif" font-size="13" lengthAdjust="spacingAndGlyphs" textLength="163" x="206.5" y="269.201">pre-authorization response</text><polygon fill="#A80036" points="594,302.716,604,306.716,594,310.716,598,306.716" style="stroke: #A80036; stroke-width: 1.0;"/><line style="stroke: #A80036; stroke-width: 1.0;" x1="326" x2="600" y1="306.716" y2="306.716"/><text fill="#000000" font-family="sans-serif" font-size="13" lengthAdjust="spacingAndGlyphs" textLength="208" x="333" y="300.907">request remote start for connector</text><polygon fill="#A80036" points="1032,334.4221,1042,338.4221,1032,342.4221,1036,338.4221" style="stroke: #A80036; stroke-width: 1.0;"/><line style="stroke: #A80036; stroke-width: 1.0;" x1="606" x2="1038" y1="338.4221" y2="338.4221"/><text fill="#000000" font-family="sans-serif" font-size="13" lengthAdjust="spacingAndGlyphs" textLength="414" x="613" y="332.6131">StartSession with authorization_reference + location+EVSE+connector</text><polygon fill="#A80036" points="617,366.1281,607,370.1281,617,374.1281,613,370.1281" style="stroke: #A80036; stroke-width: 1.0;"/><line style="stroke: #A80036; stroke-width: 1.0;" x1="611" x2="1043" y1="370.1281" y2="370.1281"/><text fill="#000000" font-family="sans-serif" font-size="13" lengthAdjust="spacingAndGlyphs" textLength="132" x="623" y="364.3191">StartSession response</text><polygon fill="#A80036" points="617,397.8341,607,401.8341,617,405.8341,613,401.8341" style="stroke: #A80036; stroke-width: 1.0;"/><line style="stroke: #A80036; stroke-width: 1.0;" x1="611" x2="1043" y1="401.8341" y2="401.8341"/><text fill="#000000" font-family="sans-serif" font-size="13" lengthAdjust="spacingAndGlyphs" textLength="75" x="623" y="396.0251">New Session</text><polygon fill="#A80036" points="617,429.5401,607,433.5401,617,437.5401,613,433.5401" style="stroke: #A80036; stroke-width: 1.0;"/><line style="stroke: #A80036; stroke-width: 1.0; stroke-dasharray: 2.0,2.0;" x1="611" x2="1043" y1="433.5401" y2="433.5401"/><text fill="#000000" font-family="sans-serif" font-size="13" lengthAdjust="spacingAndGlyphs" textLength="151" x="623" y="427.7311">Session update - optional</text><path d="M1039,448.5401 L1192,448.5401 L1192,457.5401 L1182,467.5401 L1039,467.5401 L1039,448.5401 " fill="#EEEEEE" style="stroke: #000000; stroke-width: 1.0;"/><rect fill="none" height="61.412" style="stroke: #000000; stroke-width: 2.0;" width="385" x="1039" y="448.5401"/><text fill="#000000" font-family="sans-serif" font-size="13" font-weight="bold" lengthAdjust="spacingAndGlyphs" textLength="108" x="1054" y="463.4371">Case stop by CPO</text><path d="M1049,473.2461 L1049,500.2461 L1410,500.2461 L1410,483.2461 L1400,473.2461 L1049,473.2461 " fill="#FBFB77" filter="url(#fvk0xdg5gujd3)" style="stroke: #A80036; stroke-width: 1.0;"/><path d="M1400,473.2461 L1400,483.2461 L1410,483.2461 L1400,473.2461 " fill="#FBFB77" style="stroke: #A80036; stroke-width: 1.0;"/><text fill="#000000" font-family="sans-serif" font-size="13" lengthAdjust="spacingAndGlyphs" textLength="340" x="1055" y="492.1431">When max_price is reached a StopSession will be initiated</text><path d="M246,523.9521 L622,523.9521 L622,532.9521 L612,542.9521 L246,542.9521 L246,523.9521 " fill="#EEEEEE" style="stroke: #000000; stroke-width: 1.0;"/><rect fill="none" height="114.8241" style="stroke: #000000; stroke-width: 2.0;" width="856.5" x="246" y="523.9521"/><text fill="#000000" font-family="sans-serif" font-size="13" font-weight="bold" lengthAdjust="spacingAndGlyphs" textLength="331" x="261" y="538.8492">Case remote stop by terminal or preauth limit stop</text><polygon fill="#A80036" points="594,563.3642,604,567.3642,594,571.3642,598,567.3642" style="stroke: #A80036; stroke-width: 1.0;"/><line style="stroke: #A80036; stroke-width: 1.0;" x1="326" x2="600" y1="567.3642" y2="567.3642"/><text fill="#000000" font-family="sans-serif" font-size="13" lengthAdjust="spacingAndGlyphs" textLength="115" x="333" y="561.5552">driver initiates stop</text><polygon fill="#A80036" points="1032,595.0702,1042,599.0702,1032,603.0702,1036,599.0702" style="stroke: #A80036; stroke-width: 1.0;"/><line style="stroke: #A80036; stroke-width: 1.0;" x1="606" x2="1038" y1="599.0702" y2="599.0702"/><text fill="#000000" font-family="sans-serif" font-size="13" lengthAdjust="spacingAndGlyphs" textLength="73" x="613" y="593.2612">StopSession</text><polygon fill="#A80036" points="617,626.7762,607,630.7762,617,634.7762,613,630.7762" style="stroke: #A80036; stroke-width: 1.0;"/><line style="stroke: #A80036; stroke-width: 1.0;" x1="611" x2="1043" y1="630.7762" y2="630.7762"/><text fill="#000000" font-family="sans-serif" font-size="13" lengthAdjust="spacingAndGlyphs" textLength="131" x="623" y="624.9672">StopSession response</text><path d="M1039,652.7762 L1249,652.7762 L1249,661.7762 L1239,671.7762 L1039,671.7762 L1039,652.7762 " fill="#EEEEEE" style="stroke: #000000; stroke-width: 1.0;"/><rect fill="none" height="61.412" style="stroke: #000000; stroke-width: 2.0;" width="309" x="1039" y="652.7762"/><text fill="#000000" font-family="sans-serif" font-size="13" font-weight="bold" lengthAdjust="spacingAndGlyphs" textLength="165" x="1054" y="667.6732">Case stop by Station/Card</text><path d="M1049,677.4822 L1049,704.4822 L1334,704.4822 L1334,687.4822 L1324,677.4822 L1049,677.4822 " fill="#FBFB77" filter="url(#fvk0xdg5gujd3)" style="stroke: #A80036; stroke-width: 1.0;"/><path d="M1324,677.4822 L1324,687.4822 L1334,687.4822 L1324,677.4822 " fill="#FBFB77" style="stroke: #A80036; stroke-width: 1.0;"/><text fill="#000000" font-family="sans-serif" font-size="13" lengthAdjust="spacingAndGlyphs" textLength="264" x="1055" y="696.3792">User stops session on station or car unplugs</text><polygon fill="#A80036" points="617,740.8943,607,744.8943,617,748.8943,613,744.8943" style="stroke: #A80036; stroke-width: 1.0;"/><line style="stroke: #A80036; stroke-width: 1.0;" x1="611" x2="1043" y1="744.8943" y2="744.8943"/><text fill="#000000" font-family="sans-serif" font-size="13" lengthAdjust="spacingAndGlyphs" textLength="25" x="623" y="739.0853">CDR</text><polygon fill="#A80036" points="210.5,772.6003,200.5,776.6003,210.5,780.6003,206.5,776.6003" style="stroke: #A80036; stroke-width: 1.0;"/><line style="stroke: #A80036; stroke-width: 1.0;" x1="204.5" x2="605" y1="776.6003" y2="776.6003"/><text fill="#000000" font-family="sans-serif" font-size="13" lengthAdjust="spacingAndGlyphs" textLength="128" x="216.5" y="770.7913">doing financial advice</text><polygon fill="#A80036" points="594,804.3063,604,808.3063,594,812.3063,598,808.3063" style="stroke: #A80036; stroke-width: 1.0;"/><line style="stroke: #A80036; stroke-width: 1.0;" x1="199.5" x2="600" y1="808.3063" y2="808.3063"/><text fill="#000000" font-family="sans-serif" font-size="13" lengthAdjust="spacingAndGlyphs" textLength="202" x="206.5" y="802.4973">financial advice(capture) response</text><polygon fill="#A80036" points="1032,836.0123,1042,840.0123,1032,844.0123,1036,840.0123" style="stroke: #A80036; stroke-width: 1.0;"/><line style="stroke: #A80036; stroke-width: 1.0;" x1="606" x2="1038" y1="840.0123" y2="840.0123"/><text fill="#000000" font-family="sans-serif" font-size="13" lengthAdjust="spacingAndGlyphs" textLength="223" x="613" y="834.2033">sending financial-advice-confirmation</text><path d="M1049,853.0123 L1049,880.0123 L1322,880.0123 L1322,863.0123 L1312,853.0123 L1049,853.0123 " fill="#FBFB77" filter="url(#fvk0xdg5gujd3)" style="stroke: #A80036; stroke-width: 1.0;"/><path d="M1312,853.0123 L1312,863.0123 L1322,863.0123 L1312,853.0123 " fill="#FBFB77" style="stroke: #A80036; stroke-width: 1.0;"/><text fill="#000000" font-family="sans-serif" font-size="13" lengthAdjust="spacingAndGlyphs" textLength="252" x="1055" y="871.9093">enrich invoice with required payment data</text></g></svg>