<?xml version="1.0" encoding="UTF-8" standalone="no"?><svg xmlns="http://www.w3.org/2000/svg" xmlns:xlink="http://www.w3.org/1999/xlink" contentScriptType="application/ecmascript" contentStyleType="text/css" height="346px" preserveAspectRatio="none" style="width:2145px;height:346px;" version="1.1" viewBox="0 0 2145 346" width="2145px" zoomAndPan="magnify"><defs><filter height="300%" id="f11o80lslf00jf" width="300%" x="-1" y="-1"><feGaussianBlur result="blurOut" stdDeviation="2.0"/><feColorMatrix in="blurOut" result="blurOut2" type="matrix" values="0 0 0 0 0 0 0 0 0 0 0 0 0 0 0 0 0 0 .4 0"/><feOffset dx="4.0" dy="4.0" in="blurOut2" result="blurOut3"/><feBlend in="SourceGraphic" in2="blurOut3" mode="normal"/></filter></defs><g><line style="stroke: #A80036; stroke-width: 1.0; stroke-dasharray: 5.0,5.0;" x1="460" x2="460" y1="41.0679" y2="303.01"/><line style="stroke: #A80036; stroke-width: 1.0; stroke-dasharray: 5.0,5.0;" x1="1102" x2="1102" y1="41.0679" y2="303.01"/><line style="stroke: #A80036; stroke-width: 1.0; stroke-dasharray: 5.0,5.0;" x1="1473" x2="1473" y1="41.0679" y2="303.01"/><rect fill="#FEFECE" filter="url(#f11o80lslf00jf)" height="33.0679" style="stroke: #A80036; stroke-width: 1.5;" width="89" x="414" y="3"/><text fill="#000000" font-family="sans-serif" font-size="14" lengthAdjust="spacingAndGlyphs" textLength="75" x="421" y="24.9659">PTP system</text><rect fill="#FEFECE" filter="url(#f11o80lslf00jf)" height="33.0679" style="stroke: #A80036; stroke-width: 1.5;" width="89" x="414" y="302.01"/><text fill="#000000" font-family="sans-serif" font-size="14" lengthAdjust="spacingAndGlyphs" textLength="75" x="421" y="323.976">PTP system</text><rect fill="#FEFECE" filter="url(#f11o80lslf00jf)" height="33.0679" style="stroke: #A80036; stroke-width: 1.5;" width="93" x="1054" y="3"/><text fill="#000000" font-family="sans-serif" font-size="14" lengthAdjust="spacingAndGlyphs" textLength="79" x="1061" y="24.9659">CPO system</text><rect fill="#FEFECE" filter="url(#f11o80lslf00jf)" height="33.0679" style="stroke: #A80036; stroke-width: 1.5;" width="93" x="1054" y="302.01"/><text fill="#000000" font-family="sans-serif" font-size="14" lengthAdjust="spacingAndGlyphs" textLength="79" x="1061" y="323.976">CPO system</text><rect fill="#FEFECE" filter="url(#f11o80lslf00jf)" height="33.0679" style="stroke: #A80036; stroke-width: 1.5;" width="97" x="1423" y="3"/><text fill="#000000" font-family="sans-serif" font-size="14" lengthAdjust="spacingAndGlyphs" textLength="83" x="1430" y="24.9659">OEM system</text><rect fill="#FEFECE" filter="url(#f11o80lslf00jf)" height="33.0679" style="stroke: #A80036; stroke-width: 1.5;" width="97" x="1423" y="302.01"/><text fill="#000000" font-family="sans-serif" font-size="14" lengthAdjust="spacingAndGlyphs" textLength="83" x="1430" y="323.976">OEM system</text><polygon fill="#A80036" points="1461.5,70.7739,1471.5,74.7739,1461.5,78.7739,1465.5,74.7739" style="stroke: #A80036; stroke-width: 1.0;"/><line style="stroke: #A80036; stroke-width: 1.0;" x1="1102.5" x2="1467.5" y1="74.7739" y2="74.7739"/><text fill="#000000" font-family="sans-serif" font-size="13" lengthAdjust="spacingAndGlyphs" textLength="347" x="1109.5" y="68.9649">orders charging station with integrated payment Terminal</text><path d="M1478,87.7739 L1478,114.7739 L2133,114.7739 L2133,97.7739 L2123,87.7739 L1478,87.7739 " fill="#FBFB77" filter="url(#f11o80lslf00jf)" style="stroke: #A80036; stroke-width: 1.0;"/><path d="M2123,87.7739 L2123,97.7739 L2133,97.7739 L2123,87.7739 " fill="#FBFB77" style="stroke: #A80036; stroke-width: 1.0;"/><text fill="#000000" font-family="sans-serif" font-size="13" lengthAdjust="spacingAndGlyphs" textLength="634" x="1484" y="106.6709">OEM installs charging station with integrated payment Terminal(involves former communication with PTP)</text><polygon fill="#A80036" points="471.5,144.186,461.5,148.186,471.5,152.186,467.5,148.186" style="stroke: #A80036; stroke-width: 1.0;"/><line style="stroke: #A80036; stroke-width: 1.0;" x1="465.5" x2="1101.5" y1="148.186" y2="148.186"/><text fill="#000000" font-family="sans-serif" font-size="13" lengthAdjust="spacingAndGlyphs" textLength="618" x="477.5" y="142.377">sends terminal activation request with known reference to the payment terminal(e.g. given by the OEM)</text><path d="M8,161.186 L8,188.186 L452,188.186 L452,171.186 L442,161.186 L8,161.186 " fill="#FBFB77" filter="url(#f11o80lslf00jf)" style="stroke: #A80036; stroke-width: 1.0;"/><path d="M442,161.186 L442,171.186 L452,171.186 L442,161.186 " fill="#FBFB77" style="stroke: #A80036; stroke-width: 1.0;"/><text fill="#000000" font-family="sans-serif" font-size="13" lengthAdjust="spacingAndGlyphs" textLength="423" x="14" y="180.083">PTP maps reference to terminal, sets all the information and activates it</text><polygon fill="#A80036" points="1090.5,217.598,1100.5,221.598,1090.5,225.598,1094.5,221.598" style="stroke: #A80036; stroke-width: 1.0;"/><line style="stroke: #A80036; stroke-width: 1.0;" x1="460.5" x2="1096.5" y1="221.598" y2="221.598"/><text fill="#000000" font-family="sans-serif" font-size="13" lengthAdjust="spacingAndGlyphs" textLength="170" x="467.5" y="215.789">terminal activation response</text><polygon fill="#A80036" points="1090.5,249.304,1100.5,253.304,1090.5,257.304,1094.5,253.304" style="stroke: #A80036; stroke-width: 1.0;"/><line style="stroke: #A80036; stroke-width: 1.0;" x1="460.5" x2="1096.5" y1="253.304" y2="253.304"/><text fill="#000000" font-family="sans-serif" font-size="13" lengthAdjust="spacingAndGlyphs" textLength="92" x="467.5" y="247.495">create Terminal</text><polygon fill="#A80036" points="471.5,281.01,461.5,285.01,471.5,289.01,467.5,285.01" style="stroke: #A80036; stroke-width: 1.0;"/><line style="stroke: #A80036; stroke-width: 1.0;" x1="465.5" x2="1101.5" y1="285.01" y2="285.01"/><text fill="#000000" font-family="sans-serif" font-size="13" lengthAdjust="spacingAndGlyphs" textLength="160" x="477.5" y="279.201">terminal creation response</text></g></svg>