<?xml version="1.0" encoding="UTF-8" standalone="no"?><svg xmlns="http://www.w3.org/2000/svg" xmlns:xlink="http://www.w3.org/1999/xlink" contentScriptType="application/ecmascript" contentStyleType="text/css" height="381px" preserveAspectRatio="none" style="width:1001px;height:381px;" version="1.1" viewBox="0 0 1001 381" width="1001px" zoomAndPan="magnify"><defs><filter height="300%" id="fn4qvd2irc1md" width="300%" x="-1" y="-1"><feGaussianBlur result="blurOut" stdDeviation="2.0"/><feColorMatrix in="blurOut" result="blurOut2" type="matrix" values="0 0 0 0 0 0 0 0 0 0 0 0 0 0 0 0 0 0 .4 0"/><feOffset dx="4.0" dy="4.0" in="blurOut2" result="blurOut3"/><feBlend in="SourceGraphic" in2="blurOut3" mode="normal"/></filter></defs><g><line style="stroke: #A80036; stroke-width: 1.0; stroke-dasharray: 5.0,5.0;" x1="54" x2="54" y1="41.0679" y2="338.4221"/><line style="stroke: #A80036; stroke-width: 1.0; stroke-dasharray: 5.0,5.0;" x1="249" x2="249" y1="41.0679" y2="338.4221"/><line style="stroke: #A80036; stroke-width: 1.0; stroke-dasharray: 5.0,5.0;" x1="469.5" x2="469.5" y1="41.0679" y2="338.4221"/><line style="stroke: #A80036; stroke-width: 1.0; stroke-dasharray: 5.0,5.0;" x1="789" x2="789" y1="41.0679" y2="338.4221"/><rect fill="#FEFECE" filter="url(#fn4qvd2irc1md)" height="33.0679" style="stroke: #A80036; stroke-width: 1.5;" width="89" x="8" y="3"/><text fill="#000000" font-family="sans-serif" font-size="14" lengthAdjust="spacingAndGlyphs" textLength="75" x="15" y="24.9659">PTP system</text><rect fill="#FEFECE" filter="url(#fn4qvd2irc1md)" height="33.0679" style="stroke: #A80036; stroke-width: 1.5;" width="89" x="8" y="337.4221"/><text fill="#000000" font-family="sans-serif" font-size="14" lengthAdjust="spacingAndGlyphs" textLength="75" x="15" y="359.388">PTP system</text><rect fill="#FEFECE" filter="url(#fn4qvd2irc1md)" height="33.0679" style="stroke: #A80036; stroke-width: 1.5;" width="93" x="201" y="3"/><text fill="#000000" font-family="sans-serif" font-size="14" lengthAdjust="spacingAndGlyphs" textLength="79" x="208" y="24.9659">CPO system</text><rect fill="#FEFECE" filter="url(#fn4qvd2irc1md)" height="33.0679" style="stroke: #A80036; stroke-width: 1.5;" width="93" x="201" y="337.4221"/><text fill="#000000" font-family="sans-serif" font-size="14" lengthAdjust="spacingAndGlyphs" textLength="79" x="208" y="359.388">CPO system</text><rect fill="#FEFECE" filter="url(#fn4qvd2irc1md)" height="33.0679" style="stroke: #A80036; stroke-width: 1.5;" width="52" x="441.5" y="3"/><text fill="#000000" font-family="sans-serif" font-size="14" lengthAdjust="spacingAndGlyphs" textLength="38" x="448.5" y="24.9659">CSMS</text><rect fill="#FEFECE" filter="url(#fn4qvd2irc1md)" height="33.0679" style="stroke: #A80036; stroke-width: 1.5;" width="52" x="441.5" y="337.4221"/><text fill="#000000" font-family="sans-serif" font-size="14" lengthAdjust="spacingAndGlyphs" textLength="38" x="448.5" y="359.388">CSMS</text><rect fill="#FEFECE" filter="url(#fn4qvd2irc1md)" height="33.0679" style="stroke: #A80036; stroke-width: 1.5;" width="79" x="748" y="3"/><text fill="#000000" font-family="sans-serif" font-size="14" lengthAdjust="spacingAndGlyphs" textLength="65" x="755" y="24.9659">Customer</text><rect fill="#FEFECE" filter="url(#fn4qvd2irc1md)" height="33.0679" style="stroke: #A80036; stroke-width: 1.5;" width="79" x="748" y="337.4221"/><text fill="#000000" font-family="sans-serif" font-size="14" lengthAdjust="spacingAndGlyphs" textLength="65" x="755" y="359.388">Customer</text><polygon fill="#A80036" points="237.5,70.7739,247.5,74.7739,237.5,78.7739,241.5,74.7739" style="stroke: #A80036; stroke-width: 1.0;"/><line style="stroke: #A80036; stroke-width: 1.0;" x1="54.5" x2="243.5" y1="74.7739" y2="74.7739"/><text fill="#000000" font-family="sans-serif" font-size="13" lengthAdjust="spacingAndGlyphs" textLength="171" x="61.5" y="68.9649">pull / push of terminal object</text><polygon fill="#A80036" points="457.5,102.4799,467.5,106.4799,457.5,110.4799,461.5,106.4799" style="stroke: #A80036; stroke-width: 1.0;"/><line style="stroke: #A80036; stroke-width: 1.0;" x1="249.5" x2="463.5" y1="106.4799" y2="106.4799"/><text fill="#000000" font-family="sans-serif" font-size="13" lengthAdjust="spacingAndGlyphs" textLength="171" x="256.5" y="100.6709">pull / push of terminal object</text><path d="M474,119.4799 L474,164.4799 L698,164.4799 L698,129.4799 L688,119.4799 L474,119.4799 " fill="#FBFB77" filter="url(#fn4qvd2irc1md)" style="stroke: #A80036; stroke-width: 1.0;"/><path d="M688,119.4799 L688,129.4799 L698,129.4799 L688,119.4799 " fill="#FBFB77" style="stroke: #A80036; stroke-width: 1.0;"/><text fill="#000000" font-family="sans-serif" font-size="13" lengthAdjust="spacingAndGlyphs" textLength="203" x="480" y="138.377">create or update terminal in CSMS</text><text fill="#000000" font-family="sans-serif" font-size="13" lengthAdjust="spacingAndGlyphs" textLength="146" x="480" y="156.083">assignment to customer</text><polygon fill="#A80036" points="480.5,193.598,470.5,197.598,480.5,201.598,476.5,197.598" style="stroke: #A80036; stroke-width: 1.0;"/><line style="stroke: #A80036; stroke-width: 1.0;" x1="474.5" x2="788.5" y1="197.598" y2="197.598"/><text fill="#000000" font-family="sans-serif" font-size="13" lengthAdjust="spacingAndGlyphs" textLength="296" x="486.5" y="191.789">assign terminal on station / or station on terminal</text><path d="M794,210.598 L794,255.598 L989,255.598 L989,220.598 L979,210.598 L794,210.598 " fill="#FBFB77" filter="url(#fn4qvd2irc1md)" style="stroke: #A80036; stroke-width: 1.0;"/><path d="M979,210.598 L979,220.598 L989,220.598 L979,210.598 " fill="#FBFB77" style="stroke: #A80036; stroke-width: 1.0;"/><text fill="#000000" font-family="sans-serif" font-size="13" lengthAdjust="spacingAndGlyphs" textLength="174" x="800" y="229.495">customer sees only terminals</text><text fill="#000000" font-family="sans-serif" font-size="13" lengthAdjust="spacingAndGlyphs" textLength="139" x="800" y="247.201">assigned to its instance</text><polygon fill="#A80036" points="260.5,284.716,250.5,288.716,260.5,292.716,256.5,288.716" style="stroke: #A80036; stroke-width: 1.0;"/><line style="stroke: #A80036; stroke-width: 1.0;" x1="254.5" x2="468.5" y1="288.716" y2="288.716"/><text fill="#000000" font-family="sans-serif" font-size="13" lengthAdjust="spacingAndGlyphs" textLength="196" x="266.5" y="282.907">terminals updates send / fetched</text><polygon fill="#A80036" points="65.5,316.4221,55.5,320.4221,65.5,324.4221,61.5,320.4221" style="stroke: #A80036; stroke-width: 1.0;"/><line style="stroke: #A80036; stroke-width: 1.0;" x1="59.5" x2="248.5" y1="320.4221" y2="320.4221"/><text fill="#000000" font-family="sans-serif" font-size="13" lengthAdjust="spacingAndGlyphs" textLength="136" x="71.5" y="314.6131">update terminal object</text></g></svg>