<?xml version="1.0" encoding="UTF-8" standalone="no"?><svg xmlns="http://www.w3.org/2000/svg" xmlns:xlink="http://www.w3.org/1999/xlink" contentScriptType="application/ecmascript" contentStyleType="text/css" height="261px" preserveAspectRatio="none" style="width:936px;height:261px;" version="1.1" viewBox="0 0 936 261" width="936px" zoomAndPan="magnify"><defs><filter height="300%" id="f3gdzj750cvli" width="300%" x="-1" y="-1"><feGaussianBlur result="blurOut" stdDeviation="2.0"/><feColorMatrix in="blurOut" result="blurOut2" type="matrix" values="0 0 0 0 0 0 0 0 0 0 0 0 0 0 0 0 0 0 .4 0"/><feOffset dx="4.0" dy="4.0" in="blurOut2" result="blurOut3"/><feBlend in="SourceGraphic" in2="blurOut3" mode="normal"/></filter></defs><g><rect fill="#FFFFFF" filter="url(#f3gdzj750cvli)" height="50.2656" style="stroke: #A80036; stroke-width: 1.0;" width="10" x="61" y="64.5938"/><rect fill="#FFFFFF" filter="url(#f3gdzj750cvli)" height="14" style="stroke: #A80036; stroke-width: 1.0;" width="10" x="61" y="217.3906"/><rect fill="#FFFFFF" filter="url(#f3gdzj750cvli)" height="58.2656" style="stroke: #A80036; stroke-width: 1.0;" width="10" x="693" y="85.7266"/><rect fill="#FFFFFF" filter="url(#f3gdzj750cvli)" height="58.2656" style="stroke: #A80036; stroke-width: 1.0;" width="10" x="693" y="173.125"/><rect fill="#FFFFFF" filter="url(#f3gdzj750cvli)" height="29.1328" style="stroke: #A80036; stroke-width: 1.0;" width="10" x="871" y="143.9922"/><line style="stroke: #A80036; stroke-width: 1.0; stroke-dasharray: 5.0,5.0;" x1="66" x2="66" y1="54.5938" y2="249.3906"/><line style="stroke: #A80036; stroke-width: 1.0; stroke-dasharray: 5.0,5.0;" x1="698" x2="698" y1="54.5938" y2="249.3906"/><line style="stroke: #A80036; stroke-width: 1.0; stroke-dasharray: 5.0,5.0;" x1="875.5" x2="875.5" y1="54.5938" y2="249.3906"/><rect fill="#FEFECE" filter="url(#f3gdzj750cvli)" height="46.5938" style="stroke: #A80036; stroke-width: 1.5;" width="112" x="8" y="3"/><text fill="#000000" font-family="sans-serif" font-size="14" lengthAdjust="spacingAndGlyphs" textLength="50" x="39" y="22.9951">Sender</text><text fill="#000000" font-family="sans-serif" font-size="14" lengthAdjust="spacingAndGlyphs" textLength="98" x="15" y="39.292">eMSP or SCSP</text><rect fill="#FEFECE" filter="url(#f3gdzj750cvli)" height="46.5938" style="stroke: #A80036; stroke-width: 1.5;" width="74" x="659" y="3"/><text fill="#000000" font-family="sans-serif" font-size="14" lengthAdjust="spacingAndGlyphs" textLength="30" x="681" y="22.9951">CPO</text><text fill="#000000" font-family="sans-serif" font-size="14" lengthAdjust="spacingAndGlyphs" textLength="60" x="666" y="39.292">Receiver</text><rect fill="#FEFECE" filter="url(#f3gdzj750cvli)" height="30.2969" style="stroke: #A80036; stroke-width: 1.5;" width="103" x="822.5" y="19.2969"/><text fill="#000000" font-family="sans-serif" font-size="14" lengthAdjust="spacingAndGlyphs" textLength="89" x="829.5" y="39.292">Charge Point</text><rect fill="#FFFFFF" filter="url(#f3gdzj750cvli)" height="50.2656" style="stroke: #A80036; stroke-width: 1.0;" width="10" x="61" y="64.5938"/><rect fill="#FFFFFF" filter="url(#f3gdzj750cvli)" height="14" style="stroke: #A80036; stroke-width: 1.0;" width="10" x="61" y="217.3906"/><rect fill="#FFFFFF" filter="url(#f3gdzj750cvli)" height="58.2656" style="stroke: #A80036; stroke-width: 1.0;" width="10" x="693" y="85.7266"/><rect fill="#FFFFFF" filter="url(#f3gdzj750cvli)" height="58.2656" style="stroke: #A80036; stroke-width: 1.0;" width="10" x="693" y="173.125"/><rect fill="#FFFFFF" filter="url(#f3gdzj750cvli)" height="29.1328" style="stroke: #A80036; stroke-width: 1.0;" width="10" x="871" y="143.9922"/><polygon fill="#A80036" points="681,81.7266,691,85.7266,681,89.7266,685,85.7266" style="stroke: #A80036; stroke-width: 1.0;"/><line style="stroke: #A80036; stroke-width: 1.0;" x1="71" x2="687" y1="85.7266" y2="85.7266"/><text fill="#000000" font-family="sans-serif" font-size="13" lengthAdjust="spacingAndGlyphs" textLength="603" x="78" y="80.6606">DELETE https://server.com/ocpi/2.2/chargingprofiles/15?response_url=https://client.com/12345</text><polygon fill="#A80036" points="77,110.8594,67,114.8594,77,118.8594,73,114.8594" style="stroke: #A80036; stroke-width: 1.0;"/><line style="stroke: #A80036; stroke-width: 1.0; stroke-dasharray: 2.0,2.0;" x1="71" x2="692" y1="114.8594" y2="114.8594"/><text fill="#000000" font-family="sans-serif" font-size="13" lengthAdjust="spacingAndGlyphs" textLength="499" x="83" y="109.7935">status_code = 1000, data: {ChargingProfileResponse { result = ACCEPTED }}</text><polygon fill="#A80036" points="859,139.9922,869,143.9922,859,147.9922,863,143.9922" style="stroke: #A80036; stroke-width: 1.0;"/><line style="stroke: #A80036; stroke-width: 1.0;" x1="698" x2="865" y1="143.9922" y2="143.9922"/><text fill="#000000" font-family="sans-serif" font-size="13" lengthAdjust="spacingAndGlyphs" textLength="143" x="705" y="138.9263">SetChargingProfile.req</text><polygon fill="#A80036" points="714,169.125,704,173.125,714,177.125,710,173.125" style="stroke: #A80036; stroke-width: 1.0;"/><line style="stroke: #A80036; stroke-width: 1.0;" x1="708" x2="875" y1="173.125" y2="173.125"/><text fill="#000000" font-family="sans-serif" font-size="13" lengthAdjust="spacingAndGlyphs" textLength="149" x="720" y="168.0591">SetChargingProfile.conf</text><polygon fill="#A80036" points="82,213.3906,72,217.3906,82,221.3906,78,217.3906" style="stroke: #A80036; stroke-width: 1.0;"/><line style="stroke: #A80036; stroke-width: 1.0;" x1="76" x2="692" y1="217.3906" y2="217.3906"/><text fill="#000000" font-family="sans-serif" font-size="13" lengthAdjust="spacingAndGlyphs" textLength="193" x="88" y="197.1919">POST https://client.com/12345</text><text fill="#000000" font-family="sans-serif" font-size="13" lengthAdjust="spacingAndGlyphs" textLength="244" x="88" y="212.3247">ClearProfileResult(result = ACCEPTED)</text><polygon fill="#A80036" points="686,227.3906,696,231.3906,686,235.3906,690,231.3906" style="stroke: #A80036; stroke-width: 1.0;"/><line style="stroke: #A80036; stroke-width: 1.0; stroke-dasharray: 2.0,2.0;" x1="66" x2="692" y1="231.3906" y2="231.3906"/></g></svg>