<?xml version="1.0" encoding="UTF-8" standalone="no"?><svg xmlns="http://www.w3.org/2000/svg" xmlns:xlink="http://www.w3.org/1999/xlink" contentScriptType="application/ecmascript" contentStyleType="text/css" height="471px" preserveAspectRatio="none" style="width:1045px;height:471px;" version="1.1" viewBox="0 0 1045 471" width="1045px" zoomAndPan="magnify"><defs><filter height="300%" id="fzkbfds7h97y6" width="300%" x="-1" y="-1"><feGaussianBlur result="blurOut" stdDeviation="2.0"/><feColorMatrix in="blurOut" result="blurOut2" type="matrix" values="0 0 0 0 0 0 0 0 0 0 0 0 0 0 0 0 0 0 .4 0"/><feOffset dx="4.0" dy="4.0" in="blurOut2" result="blurOut3"/><feBlend in="SourceGraphic" in2="blurOut3" mode="normal"/></filter></defs><g><rect fill="#FFFFFF" filter="url(#fzkbfds7h97y6)" height="316.5938" style="stroke: #A80036; stroke-width: 1.0;" width="10" x="37" y="133.4531"/><rect fill="#FFFFFF" filter="url(#fzkbfds7h97y6)" height="14" style="stroke: #A80036; stroke-width: 1.0;" width="10" x="42" y="427.0469"/><rect fill="#FFFFFF" filter="url(#fzkbfds7h97y6)" height="124.7969" style="stroke: #A80036; stroke-width: 1.0;" width="10" x="414" y="97.1875"/><rect fill="#FFFFFF" filter="url(#fzkbfds7h97y6)" height="72.2656" style="stroke: #A80036; stroke-width: 1.0;" width="10" x="414" y="368.7813"/><rect fill="#FFFFFF" filter="url(#fzkbfds7h97y6)" height="117.6641" style="stroke: #A80036; stroke-width: 1.0;" width="10" x="791" y="177.7188"/><rect fill="#FFFFFF" filter="url(#fzkbfds7h97y6)" height="58.2656" style="stroke: #A80036; stroke-width: 1.0;" width="10" x="791" y="324.5156"/><rect fill="#FFFFFF" filter="url(#fzkbfds7h97y6)" height="29.1328" style="stroke: #A80036; stroke-width: 1.0;" width="10" x="980" y="295.3828"/><line style="stroke: #A80036; stroke-width: 1.0; stroke-dasharray: 5.0,5.0;" x1="42" x2="42" y1="87.1875" y2="459.0469"/><line style="stroke: #A80036; stroke-width: 1.0; stroke-dasharray: 5.0,5.0;" x1="419" x2="419" y1="87.1875" y2="459.0469"/><line style="stroke: #A80036; stroke-width: 1.0; stroke-dasharray: 5.0,5.0;" x1="796" x2="796" y1="87.1875" y2="459.0469"/><line style="stroke: #A80036; stroke-width: 1.0; stroke-dasharray: 5.0,5.0;" x1="984.5" x2="984.5" y1="87.1875" y2="459.0469"/><rect fill="#FEFECE" filter="url(#fzkbfds7h97y6)" height="46.5938" style="stroke: #A80036; stroke-width: 1.5;" width="64" x="8" y="35.5938"/><text fill="#000000" font-family="sans-serif" font-size="14" lengthAdjust="spacingAndGlyphs" textLength="37" x="21.5" y="55.5889">SCSP</text><text fill="#000000" font-family="sans-serif" font-size="14" lengthAdjust="spacingAndGlyphs" textLength="50" x="15" y="71.8857">Sender</text><rect fill="#FEFECE" filter="url(#fzkbfds7h97y6)" height="79.1875" style="stroke: #A80036; stroke-width: 1.5;" width="74" x="380" y="3"/><text fill="#000000" font-family="sans-serif" font-size="14" lengthAdjust="spacingAndGlyphs" textLength="39" x="397.5" y="22.9951">eMSP</text><text fill="#000000" font-family="sans-serif" font-size="14" lengthAdjust="spacingAndGlyphs" textLength="50" x="392" y="39.292">Sender</text><text fill="#000000" font-family="sans-serif" font-size="14" lengthAdjust="spacingAndGlyphs" textLength="12" x="411" y="55.5889">&amp;</text><text fill="#000000" font-family="sans-serif" font-size="14" lengthAdjust="spacingAndGlyphs" textLength="60" x="387" y="71.8857">Receiver</text><rect fill="#FEFECE" filter="url(#fzkbfds7h97y6)" height="46.5938" style="stroke: #A80036; stroke-width: 1.5;" width="74" x="757" y="35.5938"/><text fill="#000000" font-family="sans-serif" font-size="14" lengthAdjust="spacingAndGlyphs" textLength="30" x="779" y="55.5889">CPO</text><text fill="#000000" font-family="sans-serif" font-size="14" lengthAdjust="spacingAndGlyphs" textLength="60" x="764" y="71.8857">Receiver</text><rect fill="#FEFECE" filter="url(#fzkbfds7h97y6)" height="30.2969" style="stroke: #A80036; stroke-width: 1.5;" width="103" x="931.5" y="51.8906"/><text fill="#000000" font-family="sans-serif" font-size="14" lengthAdjust="spacingAndGlyphs" textLength="89" x="938.5" y="71.8857">Charge Point</text><rect fill="#FFFFFF" filter="url(#fzkbfds7h97y6)" height="316.5938" style="stroke: #A80036; stroke-width: 1.0;" width="10" x="37" y="133.4531"/><rect fill="#FFFFFF" filter="url(#fzkbfds7h97y6)" height="14" style="stroke: #A80036; stroke-width: 1.0;" width="10" x="42" y="427.0469"/><rect fill="#FFFFFF" filter="url(#fzkbfds7h97y6)" height="124.7969" style="stroke: #A80036; stroke-width: 1.0;" width="10" x="414" y="97.1875"/><rect fill="#FFFFFF" filter="url(#fzkbfds7h97y6)" height="72.2656" style="stroke: #A80036; stroke-width: 1.0;" width="10" x="414" y="368.7813"/><rect fill="#FFFFFF" filter="url(#fzkbfds7h97y6)" height="117.6641" style="stroke: #A80036; stroke-width: 1.0;" width="10" x="791" y="177.7188"/><rect fill="#FFFFFF" filter="url(#fzkbfds7h97y6)" height="58.2656" style="stroke: #A80036; stroke-width: 1.0;" width="10" x="791" y="324.5156"/><rect fill="#FFFFFF" filter="url(#fzkbfds7h97y6)" height="29.1328" style="stroke: #A80036; stroke-width: 1.0;" width="10" x="980" y="295.3828"/><polygon fill="#A80036" points="402,129.4531,412,133.4531,402,137.4531,406,133.4531" style="stroke: #A80036; stroke-width: 1.0;"/><line style="stroke: #A80036; stroke-width: 1.0;" x1="47" x2="408" y1="133.4531" y2="133.4531"/><text fill="#000000" font-family="sans-serif" font-size="13" lengthAdjust="spacingAndGlyphs" textLength="348" x="54" y="113.2544">DELETE https://server.com/ocpi/2.2/chargingprofiles/15</text><text fill="#000000" font-family="sans-serif" font-size="13" lengthAdjust="spacingAndGlyphs" textLength="250" x="138" y="128.3872">?response_url=https://scsp.com/12345</text><polygon fill="#A80036" points="779,173.7188,789,177.7188,779,181.7188,783,177.7188" style="stroke: #A80036; stroke-width: 1.0;"/><line style="stroke: #A80036; stroke-width: 1.0;" x1="424" x2="785" y1="177.7188" y2="177.7188"/><text fill="#000000" font-family="sans-serif" font-size="13" lengthAdjust="spacingAndGlyphs" textLength="348" x="431" y="157.52">DELETE https://server.com/ocpi/2.2/chargingprofiles/15</text><text fill="#000000" font-family="sans-serif" font-size="13" lengthAdjust="spacingAndGlyphs" textLength="259" x="515" y="172.6528">?response_url=https://emsp.com/789AB</text><polygon fill="#A80036" points="430,217.9844,420,221.9844,430,225.9844,426,221.9844" style="stroke: #A80036; stroke-width: 1.0;"/><line style="stroke: #A80036; stroke-width: 1.0; stroke-dasharray: 2.0,2.0;" x1="424" x2="790" y1="221.9844" y2="221.9844"/><text fill="#000000" font-family="sans-serif" font-size="13" lengthAdjust="spacingAndGlyphs" textLength="170" x="436" y="201.7856">status_code = 1000, data:</text><text fill="#000000" font-family="sans-serif" font-size="13" lengthAdjust="spacingAndGlyphs" textLength="325" x="448" y="216.9185">{ChargingProfileResponse { result = ACCEPTED }}</text><polygon fill="#A80036" points="58,262.25,48,266.25,58,270.25,54,266.25" style="stroke: #A80036; stroke-width: 1.0;"/><line style="stroke: #A80036; stroke-width: 1.0; stroke-dasharray: 2.0,2.0;" x1="52" x2="418" y1="266.25" y2="266.25"/><text fill="#000000" font-family="sans-serif" font-size="13" lengthAdjust="spacingAndGlyphs" textLength="170" x="64" y="246.0513">status_code = 1000, data:</text><text fill="#000000" font-family="sans-serif" font-size="13" lengthAdjust="spacingAndGlyphs" textLength="325" x="76" y="261.1841">{ChargingProfileResponse { result = ACCEPTED }}</text><polygon fill="#A80036" points="968,291.3828,978,295.3828,968,299.3828,972,295.3828" style="stroke: #A80036; stroke-width: 1.0;"/><line style="stroke: #A80036; stroke-width: 1.0;" x1="796" x2="974" y1="295.3828" y2="295.3828"/><text fill="#000000" font-family="sans-serif" font-size="13" lengthAdjust="spacingAndGlyphs" textLength="154" x="803" y="290.3169">ClearChargingProfile.req</text><polygon fill="#A80036" points="812,320.5156,802,324.5156,812,328.5156,808,324.5156" style="stroke: #A80036; stroke-width: 1.0;"/><line style="stroke: #A80036; stroke-width: 1.0;" x1="806" x2="984" y1="324.5156" y2="324.5156"/><text fill="#000000" font-family="sans-serif" font-size="13" lengthAdjust="spacingAndGlyphs" textLength="160" x="818" y="319.4497">ClearChargingProfile.conf</text><polygon fill="#A80036" points="435,364.7813,425,368.7813,435,372.7813,431,368.7813" style="stroke: #A80036; stroke-width: 1.0;"/><line style="stroke: #A80036; stroke-width: 1.0;" x1="429" x2="790" y1="368.7813" y2="368.7813"/><text fill="#000000" font-family="sans-serif" font-size="13" lengthAdjust="spacingAndGlyphs" textLength="197" x="441" y="348.5825">POST https://emsp.com/789AB</text><text fill="#000000" font-family="sans-serif" font-size="13" lengthAdjust="spacingAndGlyphs" textLength="244" x="441" y="363.7153">ClearProfileResult(result = ACCEPTED)</text><polygon fill="#A80036" points="784,378.7813,794,382.7813,784,386.7813,788,382.7813" style="stroke: #A80036; stroke-width: 1.0;"/><line style="stroke: #A80036; stroke-width: 1.0; stroke-dasharray: 2.0,2.0;" x1="424" x2="790" y1="382.7813" y2="382.7813"/><polygon fill="#A80036" points="63,423.0469,53,427.0469,63,431.0469,59,427.0469" style="stroke: #A80036; stroke-width: 1.0;"/><line style="stroke: #A80036; stroke-width: 1.0;" x1="57" x2="413" y1="427.0469" y2="427.0469"/><text fill="#000000" font-family="sans-serif" font-size="13" lengthAdjust="spacingAndGlyphs" textLength="188" x="69" y="406.8481">POST https://scsp.com/12345</text><text fill="#000000" font-family="sans-serif" font-size="13" lengthAdjust="spacingAndGlyphs" textLength="244" x="69" y="421.981">ClearProfileResult(result = ACCEPTED)</text><polygon fill="#A80036" points="407,437.0469,417,441.0469,407,445.0469,411,441.0469" style="stroke: #A80036; stroke-width: 1.0;"/><line style="stroke: #A80036; stroke-width: 1.0; stroke-dasharray: 2.0,2.0;" x1="47" x2="413" y1="441.0469" y2="441.0469"/></g></svg>