<?xml version="1.0" encoding="UTF-8" standalone="no"?><svg xmlns="http://www.w3.org/2000/svg" xmlns:xlink="http://www.w3.org/1999/xlink" contentScriptType="application/ecmascript" contentStyleType="text/css" height="627px" preserveAspectRatio="none" style="width:1195px;height:627px;" version="1.1" viewBox="0 0 1195 627" width="1195px" zoomAndPan="magnify"><defs><filter height="300%" id="f1dgn04m7unht8" width="300%" x="-1" y="-1"><feGaussianBlur result="blurOut" stdDeviation="2.0"/><feColorMatrix in="blurOut" result="blurOut2" type="matrix" values="0 0 0 0 0 0 0 0 0 0 0 0 0 0 0 0 0 0 .4 0"/><feOffset dx="4.0" dy="4.0" in="blurOut2" result="blurOut3"/><feBlend in="SourceGraphic" in2="blurOut3" mode="normal"/></filter></defs><g><rect fill="#FFFFFF" filter="url(#f1dgn04m7unht8)" height="233.1953" style="stroke: #A80036; stroke-width: 1.0;" width="10" x="37" y="219.7188"/><rect fill="#FFFFFF" filter="url(#f1dgn04m7unht8)" height="14" style="stroke: #A80036; stroke-width: 1.0;" width="10" x="37" y="583.4453"/><rect fill="#FFFFFF" filter="url(#f1dgn04m7unht8)" height="57.1328" style="stroke: #A80036; stroke-width: 1.0;" width="10" x="437" y="176.5859"/><rect fill="#FFFFFF" filter="url(#f1dgn04m7unht8)" height="132.7969" style="stroke: #A80036; stroke-width: 1.0;" width="10" x="437" y="320.1172"/><rect fill="#FFFFFF" filter="url(#f1dgn04m7unht8)" height="57.1328" style="stroke: #A80036; stroke-width: 1.0;" width="10" x="437" y="540.3125"/><rect fill="#FFFFFF" filter="url(#f1dgn04m7unht8)" height="72.2656" style="stroke: #A80036; stroke-width: 1.0;" width="10" x="837" y="118.3203"/><rect fill="#FFFFFF" filter="url(#f1dgn04m7unht8)" height="117.6641" style="stroke: #A80036; stroke-width: 1.0;" width="10" x="837" y="364.3828"/><rect fill="#FFFFFF" filter="url(#f1dgn04m7unht8)" height="43.1328" style="stroke: #A80036; stroke-width: 1.0;" width="10" x="837" y="511.1797"/><rect fill="#FFFFFF" filter="url(#f1dgn04m7unht8)" height="50.2656" style="stroke: #A80036; stroke-width: 1.0;" width="10" x="1130" y="97.1875"/><rect fill="#FFFFFF" filter="url(#f1dgn04m7unht8)" height="29.1328" style="stroke: #A80036; stroke-width: 1.0;" width="10" x="1130" y="482.0469"/><line style="stroke: #A80036; stroke-width: 1.0; stroke-dasharray: 5.0,5.0;" x1="42" x2="42" y1="87.1875" y2="615.4453"/><line style="stroke: #A80036; stroke-width: 1.0; stroke-dasharray: 5.0,5.0;" x1="442" x2="442" y1="87.1875" y2="615.4453"/><line style="stroke: #A80036; stroke-width: 1.0; stroke-dasharray: 5.0,5.0;" x1="842" x2="842" y1="87.1875" y2="615.4453"/><line style="stroke: #A80036; stroke-width: 1.0; stroke-dasharray: 5.0,5.0;" x1="1134.5" x2="1134.5" y1="87.1875" y2="615.4453"/><rect fill="#FEFECE" filter="url(#f1dgn04m7unht8)" height="46.5938" style="stroke: #A80036; stroke-width: 1.5;" width="64" x="8" y="35.5938"/><text fill="#000000" font-family="sans-serif" font-size="14" lengthAdjust="spacingAndGlyphs" textLength="37" x="21.5" y="55.5889">SCSP</text><text fill="#000000" font-family="sans-serif" font-size="14" lengthAdjust="spacingAndGlyphs" textLength="50" x="15" y="71.8857">Sender</text><rect fill="#FEFECE" filter="url(#f1dgn04m7unht8)" height="79.1875" style="stroke: #A80036; stroke-width: 1.5;" width="74" x="403" y="3"/><text fill="#000000" font-family="sans-serif" font-size="14" lengthAdjust="spacingAndGlyphs" textLength="39" x="420.5" y="22.9951">eMSP</text><text fill="#000000" font-family="sans-serif" font-size="14" lengthAdjust="spacingAndGlyphs" textLength="50" x="415" y="39.292">Sender</text><text fill="#000000" font-family="sans-serif" font-size="14" lengthAdjust="spacingAndGlyphs" textLength="12" x="434" y="55.5889">&amp;</text><text fill="#000000" font-family="sans-serif" font-size="14" lengthAdjust="spacingAndGlyphs" textLength="60" x="410" y="71.8857">Receiver</text><rect fill="#FEFECE" filter="url(#f1dgn04m7unht8)" height="46.5938" style="stroke: #A80036; stroke-width: 1.5;" width="74" x="803" y="35.5938"/><text fill="#000000" font-family="sans-serif" font-size="14" lengthAdjust="spacingAndGlyphs" textLength="30" x="825" y="55.5889">CPO</text><text fill="#000000" font-family="sans-serif" font-size="14" lengthAdjust="spacingAndGlyphs" textLength="60" x="810" y="71.8857">Receiver</text><rect fill="#FEFECE" filter="url(#f1dgn04m7unht8)" height="30.2969" style="stroke: #A80036; stroke-width: 1.5;" width="103" x="1081.5" y="51.8906"/><text fill="#000000" font-family="sans-serif" font-size="14" lengthAdjust="spacingAndGlyphs" textLength="89" x="1088.5" y="71.8857">Charge Point</text><rect fill="#FFFFFF" filter="url(#f1dgn04m7unht8)" height="233.1953" style="stroke: #A80036; stroke-width: 1.0;" width="10" x="37" y="219.7188"/><rect fill="#FFFFFF" filter="url(#f1dgn04m7unht8)" height="14" style="stroke: #A80036; stroke-width: 1.0;" width="10" x="37" y="583.4453"/><rect fill="#FFFFFF" filter="url(#f1dgn04m7unht8)" height="57.1328" style="stroke: #A80036; stroke-width: 1.0;" width="10" x="437" y="176.5859"/><rect fill="#FFFFFF" filter="url(#f1dgn04m7unht8)" height="132.7969" style="stroke: #A80036; stroke-width: 1.0;" width="10" x="437" y="320.1172"/><rect fill="#FFFFFF" filter="url(#f1dgn04m7unht8)" height="57.1328" style="stroke: #A80036; stroke-width: 1.0;" width="10" x="437" y="540.3125"/><rect fill="#FFFFFF" filter="url(#f1dgn04m7unht8)" height="72.2656" style="stroke: #A80036; stroke-width: 1.0;" width="10" x="837" y="118.3203"/><rect fill="#FFFFFF" filter="url(#f1dgn04m7unht8)" height="117.6641" style="stroke: #A80036; stroke-width: 1.0;" width="10" x="837" y="364.3828"/><rect fill="#FFFFFF" filter="url(#f1dgn04m7unht8)" height="43.1328" style="stroke: #A80036; stroke-width: 1.0;" width="10" x="837" y="511.1797"/><rect fill="#FFFFFF" filter="url(#f1dgn04m7unht8)" height="50.2656" style="stroke: #A80036; stroke-width: 1.0;" width="10" x="1130" y="97.1875"/><rect fill="#FFFFFF" filter="url(#f1dgn04m7unht8)" height="29.1328" style="stroke: #A80036; stroke-width: 1.0;" width="10" x="1130" y="482.0469"/><polygon fill="#A80036" points="858,114.3203,848,118.3203,858,122.3203,854,118.3203" style="stroke: #A80036; stroke-width: 1.0;"/><line style="stroke: #A80036; stroke-width: 1.0;" x1="852" x2="1129" y1="118.3203" y2="118.3203"/><text fill="#000000" font-family="sans-serif" font-size="13" lengthAdjust="spacingAndGlyphs" textLength="214" x="864" y="113.2544">StartTransaction.req(Token=200)</text><polygon fill="#A80036" points="1123,143.4531,1133,147.4531,1123,151.4531,1127,147.4531" style="stroke: #A80036; stroke-width: 1.0;"/><line style="stroke: #A80036; stroke-width: 1.0;" x1="847" x2="1129" y1="147.4531" y2="147.4531"/><text fill="#000000" font-family="sans-serif" font-size="13" lengthAdjust="spacingAndGlyphs" textLength="259" x="854" y="142.3872">StartTransaction.conf(TransactionId=15)</text><polygon fill="#A80036" points="458,172.5859,448,176.5859,458,180.5859,454,176.5859" style="stroke: #A80036; stroke-width: 1.0;"/><line style="stroke: #A80036; stroke-width: 1.0;" x1="452" x2="836" y1="176.5859" y2="176.5859"/><text fill="#000000" font-family="sans-serif" font-size="13" lengthAdjust="spacingAndGlyphs" textLength="98" x="464" y="171.52">Session(id=15)</text><polygon fill="#A80036" points="830,186.5859,840,190.5859,830,194.5859,834,190.5859" style="stroke: #A80036; stroke-width: 1.0;"/><line style="stroke: #A80036; stroke-width: 1.0; stroke-dasharray: 2.0,2.0;" x1="447" x2="836" y1="190.5859" y2="190.5859"/><polygon fill="#A80036" points="58,215.7188,48,219.7188,58,223.7188,54,219.7188" style="stroke: #A80036; stroke-width: 1.0;"/><line style="stroke: #A80036; stroke-width: 1.0;" x1="52" x2="436" y1="219.7188" y2="219.7188"/><text fill="#000000" font-family="sans-serif" font-size="13" lengthAdjust="spacingAndGlyphs" textLength="98" x="64" y="214.6528">Session(id=15)</text><polygon fill="#A80036" points="430,229.7188,440,233.7188,430,237.7188,434,233.7188" style="stroke: #A80036; stroke-width: 1.0;"/><line style="stroke: #A80036; stroke-width: 1.0; stroke-dasharray: 2.0,2.0;" x1="47" x2="436" y1="233.7188" y2="233.7188"/><line style="stroke: #A80036; stroke-width: 1.0; stroke-dasharray: 2.0,2.0;" x1="47" x2="89" y1="262.8516" y2="262.8516"/><line style="stroke: #A80036; stroke-width: 1.0; stroke-dasharray: 2.0,2.0;" x1="89" x2="89" y1="262.8516" y2="275.8516"/><line style="stroke: #A80036; stroke-width: 1.0; stroke-dasharray: 2.0,2.0;" x1="48" x2="89" y1="275.8516" y2="275.8516"/><polygon fill="#A80036" points="58,271.8516,48,275.8516,58,279.8516,54,275.8516" style="stroke: #A80036; stroke-width: 1.0;"/><text fill="#000000" font-family="sans-serif" font-size="13" lengthAdjust="spacingAndGlyphs" textLength="159" x="54" y="257.7856">Calculate ChargingProfile</text><polygon fill="#A80036" points="425,316.1172,435,320.1172,425,324.1172,429,320.1172" style="stroke: #A80036; stroke-width: 1.0;"/><line style="stroke: #A80036; stroke-width: 1.0;" x1="47" x2="431" y1="320.1172" y2="320.1172"/><text fill="#000000" font-family="sans-serif" font-size="13" lengthAdjust="spacingAndGlyphs" textLength="356" x="54" y="299.9185">PUT https://www.server.com/ocpi/2.2/chargingprofiles/15</text><text fill="#000000" font-family="sans-serif" font-size="13" lengthAdjust="spacingAndGlyphs" textLength="118" x="86" y="315.0513">SetChargingProfile</text><polygon fill="#A80036" points="825,360.3828,835,364.3828,825,368.3828,829,364.3828" style="stroke: #A80036; stroke-width: 1.0;"/><line style="stroke: #A80036; stroke-width: 1.0;" x1="447" x2="831" y1="364.3828" y2="364.3828"/><text fill="#000000" font-family="sans-serif" font-size="13" lengthAdjust="spacingAndGlyphs" textLength="356" x="454" y="344.1841">PUT https://www.server.com/ocpi/2.2/chargingprofiles/15</text><text fill="#000000" font-family="sans-serif" font-size="13" lengthAdjust="spacingAndGlyphs" textLength="118" x="486" y="359.3169">SetChargingProfile</text><polygon fill="#A80036" points="458,404.6484,448,408.6484,458,412.6484,454,408.6484" style="stroke: #A80036; stroke-width: 1.0;"/><line style="stroke: #A80036; stroke-width: 1.0; stroke-dasharray: 2.0,2.0;" x1="452" x2="836" y1="408.6484" y2="408.6484"/><text fill="#000000" font-family="sans-serif" font-size="13" lengthAdjust="spacingAndGlyphs" textLength="133" x="464" y="388.4497">status_code = 1000,</text><text fill="#000000" font-family="sans-serif" font-size="13" lengthAdjust="spacingAndGlyphs" textLength="362" x="468" y="403.5825">data: {ChargingProfileResponse { result = ACCEPTED }}</text><polygon fill="#A80036" points="53,448.9141,43,452.9141,53,456.9141,49,452.9141" style="stroke: #A80036; stroke-width: 1.0;"/><line style="stroke: #A80036; stroke-width: 1.0; stroke-dasharray: 2.0,2.0;" x1="47" x2="441" y1="452.9141" y2="452.9141"/><text fill="#000000" font-family="sans-serif" font-size="13" lengthAdjust="spacingAndGlyphs" textLength="133" x="59" y="432.7153">status_code = 1000,</text><text fill="#000000" font-family="sans-serif" font-size="13" lengthAdjust="spacingAndGlyphs" textLength="362" x="63" y="447.8481">data: {ChargingProfileResponse { result = ACCEPTED }}</text><polygon fill="#A80036" points="1118,478.0469,1128,482.0469,1118,486.0469,1122,482.0469" style="stroke: #A80036; stroke-width: 1.0;"/><line style="stroke: #A80036; stroke-width: 1.0;" x1="842" x2="1124" y1="482.0469" y2="482.0469"/><text fill="#000000" font-family="sans-serif" font-size="13" lengthAdjust="spacingAndGlyphs" textLength="143" x="849" y="476.981">SetChargingProfile.req</text><polygon fill="#A80036" points="858,507.1797,848,511.1797,858,515.1797,854,511.1797" style="stroke: #A80036; stroke-width: 1.0;"/><line style="stroke: #A80036; stroke-width: 1.0;" x1="852" x2="1134" y1="511.1797" y2="511.1797"/><text fill="#000000" font-family="sans-serif" font-size="13" lengthAdjust="spacingAndGlyphs" textLength="149" x="864" y="506.1138">SetChargingProfile.conf</text><polygon fill="#A80036" points="458,536.3125,448,540.3125,458,544.3125,454,540.3125" style="stroke: #A80036; stroke-width: 1.0;"/><line style="stroke: #A80036; stroke-width: 1.0;" x1="452" x2="836" y1="540.3125" y2="540.3125"/><text fill="#000000" font-family="sans-serif" font-size="13" lengthAdjust="spacingAndGlyphs" textLength="268" x="464" y="535.2466">ChargingProfileResult(result = ACCEPTED)</text><polygon fill="#A80036" points="830,550.3125,840,554.3125,830,558.3125,834,554.3125" style="stroke: #A80036; stroke-width: 1.0;"/><line style="stroke: #A80036; stroke-width: 1.0; stroke-dasharray: 2.0,2.0;" x1="447" x2="836" y1="554.3125" y2="554.3125"/><polygon fill="#A80036" points="58,579.4453,48,583.4453,58,587.4453,54,583.4453" style="stroke: #A80036; stroke-width: 1.0;"/><line style="stroke: #A80036; stroke-width: 1.0;" x1="52" x2="436" y1="583.4453" y2="583.4453"/><text fill="#000000" font-family="sans-serif" font-size="13" lengthAdjust="spacingAndGlyphs" textLength="268" x="64" y="578.3794">ChargingProfileResult(result = ACCEPTED)</text><polygon fill="#A80036" points="430,593.4453,440,597.4453,430,601.4453,434,597.4453" style="stroke: #A80036; stroke-width: 1.0;"/><line style="stroke: #A80036; stroke-width: 1.0; stroke-dasharray: 2.0,2.0;" x1="42" x2="436" y1="597.4453" y2="597.4453"/></g></svg>