<?xml version="1.0" encoding="UTF-8" standalone="no"?><svg xmlns="http://www.w3.org/2000/svg" xmlns:xlink="http://www.w3.org/1999/xlink" contentScriptType="application/ecmascript" contentStyleType="text/css" height="420px" preserveAspectRatio="none" style="width:952px;height:420px;" version="1.1" viewBox="0 0 952 420" width="952px" zoomAndPan="magnify"><defs><filter height="300%" id="f1m7oobdnq0dcm" width="300%" x="-1" y="-1"><feGaussianBlur result="blurOut" stdDeviation="2.0"/><feColorMatrix in="blurOut" result="blurOut2" type="matrix" values="0 0 0 0 0 0 0 0 0 0 0 0 0 0 0 0 0 0 .4 0"/><feOffset dx="4.0" dy="4.0" in="blurOut2" result="blurOut3"/><feBlend in="SourceGraphic" in2="blurOut3" mode="normal"/></filter></defs><g><rect fill="#FFFFFF" filter="url(#f1m7oobdnq0dcm)" height="129.5313" style="stroke: #A80036; stroke-width: 1.0;" width="10" x="61" y="143.9922"/><rect fill="#FFFFFF" filter="url(#f1m7oobdnq0dcm)" height="14" style="stroke: #A80036; stroke-width: 1.0;" width="10" x="61" y="376.0547"/><rect fill="#FFFFFF" filter="url(#f1m7oobdnq0dcm)" height="72.2656" style="stroke: #A80036; stroke-width: 1.0;" width="10" x="594" y="85.7266"/><rect fill="#FFFFFF" filter="url(#f1m7oobdnq0dcm)" height="58.2656" style="stroke: #A80036; stroke-width: 1.0;" width="10" x="594" y="244.3906"/><rect fill="#FFFFFF" filter="url(#f1m7oobdnq0dcm)" height="58.2656" style="stroke: #A80036; stroke-width: 1.0;" width="10" x="594" y="331.7891"/><rect fill="#FFFFFF" filter="url(#f1m7oobdnq0dcm)" height="50.2656" style="stroke: #A80036; stroke-width: 1.0;" width="10" x="887" y="64.5938"/><rect fill="#FFFFFF" filter="url(#f1m7oobdnq0dcm)" height="29.1328" style="stroke: #A80036; stroke-width: 1.0;" width="10" x="887" y="302.6563"/><line style="stroke: #A80036; stroke-width: 1.0; stroke-dasharray: 5.0,5.0;" x1="66" x2="66" y1="54.5938" y2="408.0547"/><line style="stroke: #A80036; stroke-width: 1.0; stroke-dasharray: 5.0,5.0;" x1="599" x2="599" y1="54.5938" y2="408.0547"/><line style="stroke: #A80036; stroke-width: 1.0; stroke-dasharray: 5.0,5.0;" x1="891.5" x2="891.5" y1="54.5938" y2="408.0547"/><rect fill="#FEFECE" filter="url(#f1m7oobdnq0dcm)" height="46.5938" style="stroke: #A80036; stroke-width: 1.5;" width="112" x="8" y="3"/><text fill="#000000" font-family="sans-serif" font-size="14" lengthAdjust="spacingAndGlyphs" textLength="50" x="39" y="22.9951">Sender</text><text fill="#000000" font-family="sans-serif" font-size="14" lengthAdjust="spacingAndGlyphs" textLength="98" x="15" y="39.292">eMSP or SCSP</text><rect fill="#FEFECE" filter="url(#f1m7oobdnq0dcm)" height="46.5938" style="stroke: #A80036; stroke-width: 1.5;" width="74" x="560" y="3"/><text fill="#000000" font-family="sans-serif" font-size="14" lengthAdjust="spacingAndGlyphs" textLength="30" x="582" y="22.9951">CPO</text><text fill="#000000" font-family="sans-serif" font-size="14" lengthAdjust="spacingAndGlyphs" textLength="60" x="567" y="39.292">Receiver</text><rect fill="#FEFECE" filter="url(#f1m7oobdnq0dcm)" height="30.2969" style="stroke: #A80036; stroke-width: 1.5;" width="103" x="838.5" y="19.2969"/><text fill="#000000" font-family="sans-serif" font-size="14" lengthAdjust="spacingAndGlyphs" textLength="89" x="845.5" y="39.292">Charge Point</text><rect fill="#FFFFFF" filter="url(#f1m7oobdnq0dcm)" height="129.5313" style="stroke: #A80036; stroke-width: 1.0;" width="10" x="61" y="143.9922"/><rect fill="#FFFFFF" filter="url(#f1m7oobdnq0dcm)" height="14" style="stroke: #A80036; stroke-width: 1.0;" width="10" x="61" y="376.0547"/><rect fill="#FFFFFF" filter="url(#f1m7oobdnq0dcm)" height="72.2656" style="stroke: #A80036; stroke-width: 1.0;" width="10" x="594" y="85.7266"/><rect fill="#FFFFFF" filter="url(#f1m7oobdnq0dcm)" height="58.2656" style="stroke: #A80036; stroke-width: 1.0;" width="10" x="594" y="244.3906"/><rect fill="#FFFFFF" filter="url(#f1m7oobdnq0dcm)" height="58.2656" style="stroke: #A80036; stroke-width: 1.0;" width="10" x="594" y="331.7891"/><rect fill="#FFFFFF" filter="url(#f1m7oobdnq0dcm)" height="50.2656" style="stroke: #A80036; stroke-width: 1.0;" width="10" x="887" y="64.5938"/><rect fill="#FFFFFF" filter="url(#f1m7oobdnq0dcm)" height="29.1328" style="stroke: #A80036; stroke-width: 1.0;" width="10" x="887" y="302.6563"/><polygon fill="#A80036" points="615,81.7266,605,85.7266,615,89.7266,611,85.7266" style="stroke: #A80036; stroke-width: 1.0;"/><line style="stroke: #A80036; stroke-width: 1.0;" x1="609" x2="886" y1="85.7266" y2="85.7266"/><text fill="#000000" font-family="sans-serif" font-size="13" lengthAdjust="spacingAndGlyphs" textLength="214" x="621" y="80.6606">StartTransaction.req(Token=200)</text><polygon fill="#A80036" points="880,110.8594,890,114.8594,880,118.8594,884,114.8594" style="stroke: #A80036; stroke-width: 1.0;"/><line style="stroke: #A80036; stroke-width: 1.0;" x1="604" x2="886" y1="114.8594" y2="114.8594"/><text fill="#000000" font-family="sans-serif" font-size="13" lengthAdjust="spacingAndGlyphs" textLength="259" x="611" y="109.7935">StartTransaction.conf(TransactionId=15)</text><polygon fill="#A80036" points="82,139.9922,72,143.9922,82,147.9922,78,143.9922" style="stroke: #A80036; stroke-width: 1.0;"/><line style="stroke: #A80036; stroke-width: 1.0;" x1="76" x2="593" y1="143.9922" y2="143.9922"/><text fill="#000000" font-family="sans-serif" font-size="13" lengthAdjust="spacingAndGlyphs" textLength="98" x="88" y="138.9263">Session(id=15)</text><polygon fill="#A80036" points="587,153.9922,597,157.9922,587,161.9922,591,157.9922" style="stroke: #A80036; stroke-width: 1.0;"/><line style="stroke: #A80036; stroke-width: 1.0; stroke-dasharray: 2.0,2.0;" x1="71" x2="593" y1="157.9922" y2="157.9922"/><line style="stroke: #A80036; stroke-width: 1.0; stroke-dasharray: 2.0,2.0;" x1="71" x2="113" y1="187.125" y2="187.125"/><line style="stroke: #A80036; stroke-width: 1.0; stroke-dasharray: 2.0,2.0;" x1="113" x2="113" y1="187.125" y2="200.125"/><line style="stroke: #A80036; stroke-width: 1.0; stroke-dasharray: 2.0,2.0;" x1="72" x2="113" y1="200.125" y2="200.125"/><polygon fill="#A80036" points="82,196.125,72,200.125,82,204.125,78,200.125" style="stroke: #A80036; stroke-width: 1.0;"/><text fill="#000000" font-family="sans-serif" font-size="13" lengthAdjust="spacingAndGlyphs" textLength="159" x="78" y="182.0591">Calculate ChargingProfile</text><polygon fill="#A80036" points="582,240.3906,592,244.3906,582,248.3906,586,244.3906" style="stroke: #A80036; stroke-width: 1.0;"/><line style="stroke: #A80036; stroke-width: 1.0;" x1="71" x2="588" y1="244.3906" y2="244.3906"/><text fill="#000000" font-family="sans-serif" font-size="13" lengthAdjust="spacingAndGlyphs" textLength="325" x="78" y="224.1919">PUT https://server.com/ocpi/2.2/chargingprofiles/15</text><text fill="#000000" font-family="sans-serif" font-size="13" lengthAdjust="spacingAndGlyphs" textLength="376" x="110" y="239.3247">SetChargingProfile(response_url=https://client.com/12345)</text><polygon fill="#A80036" points="77,269.5234,67,273.5234,77,277.5234,73,273.5234" style="stroke: #A80036; stroke-width: 1.0;"/><line style="stroke: #A80036; stroke-width: 1.0; stroke-dasharray: 2.0,2.0;" x1="71" x2="593" y1="273.5234" y2="273.5234"/><text fill="#000000" font-family="sans-serif" font-size="13" lengthAdjust="spacingAndGlyphs" textLength="499" x="83" y="268.4575">status_code = 1000, data: {ChargingProfileResponse { result = ACCEPTED }}</text><polygon fill="#A80036" points="875,298.6563,885,302.6563,875,306.6563,879,302.6563" style="stroke: #A80036; stroke-width: 1.0;"/><line style="stroke: #A80036; stroke-width: 1.0;" x1="599" x2="881" y1="302.6563" y2="302.6563"/><text fill="#000000" font-family="sans-serif" font-size="13" lengthAdjust="spacingAndGlyphs" textLength="143" x="606" y="297.5903">SetChargingProfile.req</text><polygon fill="#A80036" points="615,327.7891,605,331.7891,615,335.7891,611,331.7891" style="stroke: #A80036; stroke-width: 1.0;"/><line style="stroke: #A80036; stroke-width: 1.0;" x1="609" x2="891" y1="331.7891" y2="331.7891"/><text fill="#000000" font-family="sans-serif" font-size="13" lengthAdjust="spacingAndGlyphs" textLength="149" x="621" y="326.7231">SetChargingProfile.conf</text><polygon fill="#A80036" points="82,372.0547,72,376.0547,82,380.0547,78,376.0547" style="stroke: #A80036; stroke-width: 1.0;"/><line style="stroke: #A80036; stroke-width: 1.0;" x1="76" x2="593" y1="376.0547" y2="376.0547"/><text fill="#000000" font-family="sans-serif" font-size="13" lengthAdjust="spacingAndGlyphs" textLength="193" x="88" y="355.856">POST https://client.com/12345</text><text fill="#000000" font-family="sans-serif" font-size="13" lengthAdjust="spacingAndGlyphs" textLength="268" x="88" y="370.9888">ChargingProfileResult(result = ACCEPTED)</text><polygon fill="#A80036" points="587,386.0547,597,390.0547,587,394.0547,591,390.0547" style="stroke: #A80036; stroke-width: 1.0;"/><line style="stroke: #A80036; stroke-width: 1.0; stroke-dasharray: 2.0,2.0;" x1="66" x2="593" y1="390.0547" y2="390.0547"/></g></svg>