<?xml version="1.0" encoding="UTF-8" standalone="no"?><svg xmlns="http://www.w3.org/2000/svg" xmlns:xlink="http://www.w3.org/1999/xlink" contentScriptType="application/ecmascript" contentStyleType="text/css" height="55px" preserveAspectRatio="none" style="width:373px;height:55px;" version="1.1" viewBox="0 0 373 55" width="373px" zoomAndPan="magnify"><defs><filter height="300%" id="fmgzha3rmd6go" width="300%" x="-1" y="-1"><feGaussianBlur result="blurOut" stdDeviation="2.0"/><feColorMatrix in="blurOut" result="blurOut2" type="matrix" values="0 0 0 0 0 0 0 0 0 0 0 0 0 0 0 0 0 0 .4 0"/><feOffset dx="4.0" dy="4.0" in="blurOut2" result="blurOut3"/><feBlend in="SourceGraphic" in2="blurOut3" mode="normal"/></filter></defs><g><!--entity SCSP--><rect fill="#FEFECE" filter="url(#fmgzha3rmd6go)" height="36.2969" style="stroke: #A80036; stroke-width: 1.5;" width="57" x="6.5" y="8"/><text fill="#000000" font-family="sans-serif" font-size="14" lengthAdjust="spacingAndGlyphs" textLength="37" x="16.5" y="30.9951">SCSP</text><!--entity eMSP--><rect fill="#FEFECE" filter="url(#fmgzha3rmd6go)" height="36.2969" style="stroke: #A80036; stroke-width: 1.5;" width="59" x="158.5" y="8"/><text fill="#000000" font-family="sans-serif" font-size="14" lengthAdjust="spacingAndGlyphs" textLength="39" x="168.5" y="30.9951">eMSP</text><!--entity CPO--><rect fill="#FEFECE" filter="url(#fmgzha3rmd6go)" height="36.2969" style="stroke: #A80036; stroke-width: 1.5;" width="50" x="312" y="8"/><text fill="#000000" font-family="sans-serif" font-size="14" lengthAdjust="spacingAndGlyphs" textLength="30" x="322" y="30.9951">CPO</text><!--link SCSP to eMSP--><path d="M68.8949,26 C93.8553,26 128.052,26 153.226,26 " fill="none" id="SCSP-eMSP" style="stroke: #A80036; stroke-width: 1.0;"/><polygon fill="#A80036" points="158.454,26,149.454,22,153.454,26,149.454,30,158.454,26" style="stroke: #A80036; stroke-width: 1.0;"/><polygon fill="#A80036" points="63.6957,26,72.6957,30,68.6957,26,72.6957,22,63.6957,26" style="stroke: #A80036; stroke-width: 1.0;"/><text fill="#000000" font-family="sans-serif" font-size="13" lengthAdjust="spacingAndGlyphs" textLength="30" x="95.5" y="21.0669">OCPI</text><!--link eMSP to CPO--><path d="M222.981,26 C248.235,26 282.347,26 306.469,26 " fill="none" id="eMSP-CPO" style="stroke: #A80036; stroke-width: 1.0;"/><polygon fill="#A80036" points="311.762,26,302.762,22,306.762,26,302.762,30,311.762,26" style="stroke: #A80036; stroke-width: 1.0;"/><polygon fill="#A80036" points="217.692,26,226.692,30,222.692,26,226.692,22,217.692,26" style="stroke: #A80036; stroke-width: 1.0;"/><text fill="#000000" font-family="sans-serif" font-size="13" lengthAdjust="spacingAndGlyphs" textLength="30" x="249.5" y="21.0669">OCPI</text></g></svg>