<?xml version="1.0" encoding="UTF-8" standalone="no"?><svg xmlns="http://www.w3.org/2000/svg" xmlns:xlink="http://www.w3.org/1999/xlink" contentScriptType="application/ecmascript" contentStyleType="text/css" height="55px" preserveAspectRatio="none" style="width:537px;height:55px;" version="1.1" viewBox="0 0 537 55" width="537px" zoomAndPan="magnify"><defs><filter height="300%" id="f119t84fjr37mp" width="300%" x="-1" y="-1"><feGaussianBlur result="blurOut" stdDeviation="2.0"/><feColorMatrix in="blurOut" result="blurOut2" type="matrix" values="0 0 0 0 0 0 0 0 0 0 0 0 0 0 0 0 0 0 .4 0"/><feOffset dx="4.0" dy="4.0" in="blurOut2" result="blurOut3"/><feBlend in="SourceGraphic" in2="blurOut3" mode="normal"/></filter></defs><g><!--entity SCSP--><rect fill="#FEFECE" filter="url(#f119t84fjr37mp)" height="36.2969" style="stroke: #A80036; stroke-width: 1.5;" width="57" x="6" y="8"/><text fill="#000000" font-family="sans-serif" font-size="14" lengthAdjust="spacingAndGlyphs" textLength="37" x="16" y="30.9951">SCSP</text><!--entity eMSP--><rect fill="#FEFECE" filter="url(#f119t84fjr37mp)" height="36.2969" style="stroke: #A80036; stroke-width: 1.5;" width="59" x="155" y="8"/><text fill="#000000" font-family="sans-serif" font-size="14" lengthAdjust="spacingAndGlyphs" textLength="39" x="165" y="30.9951">eMSP</text><!--entity CPO--><rect fill="#FEFECE" filter="url(#f119t84fjr37mp)" height="36.2969" style="stroke: #A80036; stroke-width: 1.5;" width="50" x="306" y="8"/><text fill="#000000" font-family="sans-serif" font-size="14" lengthAdjust="spacingAndGlyphs" textLength="30" x="316" y="30.9951">CPO</text><!--entity CP--><rect fill="#FEFECE" filter="url(#f119t84fjr37mp)" height="36.2969" style="stroke: #A80036; stroke-width: 1.5;" width="109" x="417" y="8"/><text fill="#000000" font-family="sans-serif" font-size="14" lengthAdjust="spacingAndGlyphs" textLength="89" x="427" y="30.9951">Charge Point</text><!--link SCSP to eMSP--><path d="M68.3797,26 C92.5575,26 125.316,26 149.706,26 " fill="none" id="SCSP-eMSP" style="stroke: #A80036; stroke-width: 1.0;"/><polygon fill="#A80036" points="154.778,26,145.778,22,149.778,26,145.778,30,154.778,26" style="stroke: #A80036; stroke-width: 1.0;"/><polygon fill="#A80036" points="63.3377,26,72.3377,30,68.3377,26,72.3377,22,63.3377,26" style="stroke: #A80036; stroke-width: 1.0;"/><text fill="#000000" font-family="sans-serif" font-size="13" lengthAdjust="spacingAndGlyphs" textLength="30" x="94" y="22.0669">OCPI</text><!--link eMSP to CPO--><path d="M219.22,26 C243.899,26 277.055,26 300.646,26 " fill="none" id="eMSP-CPO" style="stroke: #A80036; stroke-width: 1.0;"/><polygon fill="#A80036" points="305.827,26,296.827,22,300.827,26,296.827,30,305.827,26" style="stroke: #A80036; stroke-width: 1.0;"/><polygon fill="#A80036" points="214.049,26,223.049,30,219.049,26,223.049,22,214.049,26" style="stroke: #A80036; stroke-width: 1.0;"/><text fill="#000000" font-family="sans-serif" font-size="13" lengthAdjust="spacingAndGlyphs" textLength="30" x="245" y="22.0669">OCPI</text><!--link CPO to CP--><path d="M361.41,26 C376.001,26 394.17,26 411.468,26 " fill="none" id="CPO-CP" style="stroke: #A80036; stroke-width: 1.0;"/><polygon fill="#A80036" points="416.804,26,407.804,22,411.804,26,407.804,30,416.804,26" style="stroke: #A80036; stroke-width: 1.0;"/><polygon fill="#A80036" points="356.125,26,365.125,30,361.125,26,365.125,22,356.125,26" style="stroke: #A80036; stroke-width: 1.0;"/></g></svg>