<?xml version="1.0" encoding="UTF-8" standalone="no"?><svg xmlns="http://www.w3.org/2000/svg" xmlns:xlink="http://www.w3.org/1999/xlink" contentScriptType="application/ecmascript" contentStyleType="text/css" height="55px" preserveAspectRatio="none" style="width:392px;height:55px;" version="1.1" viewBox="0 0 392 55" width="392px" zoomAndPan="magnify"><defs><filter height="300%" id="f1hn7n4nlh3pek" width="300%" x="-1" y="-1"><feGaussianBlur result="blurOut" stdDeviation="2.0"/><feColorMatrix in="blurOut" result="blurOut2" type="matrix" values="0 0 0 0 0 0 0 0 0 0 0 0 0 0 0 0 0 0 .4 0"/><feOffset dx="4.0" dy="4.0" in="blurOut2" result="blurOut3"/><feBlend in="SourceGraphic" in2="blurOut3" mode="normal"/></filter></defs><g><!--entity eMSP--><rect fill="#FEFECE" filter="url(#f1hn7n4nlh3pek)" height="36.2969" style="stroke: #A80036; stroke-width: 1.5;" width="59" x="6.5" y="8"/><text fill="#000000" font-family="sans-serif" font-size="14" lengthAdjust="spacingAndGlyphs" textLength="39" x="16.5" y="30.9951">eMSP</text><!--entity CPO--><rect fill="#FEFECE" filter="url(#f1hn7n4nlh3pek)" height="36.2969" style="stroke: #A80036; stroke-width: 1.5;" width="50" x="160" y="8"/><text fill="#000000" font-family="sans-serif" font-size="14" lengthAdjust="spacingAndGlyphs" textLength="30" x="170" y="30.9951">CPO</text><!--entity CP--><rect fill="#FEFECE" filter="url(#f1hn7n4nlh3pek)" height="36.2969" style="stroke: #A80036; stroke-width: 1.5;" width="109" x="272.5" y="8"/><text fill="#000000" font-family="sans-serif" font-size="14" lengthAdjust="spacingAndGlyphs" textLength="89" x="282.5" y="30.9951">Charge Point</text><!--link eMSP to CPO--><path d="M70.9812,26 C96.2349,26 130.347,26 154.469,26 " fill="none" id="eMSP-CPO" style="stroke: #A80036; stroke-width: 1.0;"/><polygon fill="#A80036" points="159.762,26,150.762,22,154.762,26,150.762,30,159.762,26" style="stroke: #A80036; stroke-width: 1.0;"/><polygon fill="#A80036" points="65.692,26,74.692,30,70.692,26,74.692,22,65.692,26" style="stroke: #A80036; stroke-width: 1.0;"/><text fill="#000000" font-family="sans-serif" font-size="13" lengthAdjust="spacingAndGlyphs" textLength="30" x="97.5" y="21.0669">OCPI</text><!--link CPO to CP--><path d="M215.477,26 C230.559,26 249.468,26 267.36,26 " fill="none" id="CPO-CP" style="stroke: #A80036; stroke-width: 1.0;"/><polygon fill="#A80036" points="272.375,26,263.375,22,267.375,26,263.375,30,272.375,26" style="stroke: #A80036; stroke-width: 1.0;"/><polygon fill="#A80036" points="210.067,26,219.067,30,215.067,26,219.067,22,210.067,26" style="stroke: #A80036; stroke-width: 1.0;"/></g></svg>