<?xml version="1.0" encoding="UTF-8" standalone="no"?><svg xmlns="http://www.w3.org/2000/svg" xmlns:xlink="http://www.w3.org/1999/xlink" contentScriptType="application/ecmascript" contentStyleType="text/css" height="126px" preserveAspectRatio="none" style="width:392px;height:126px;" version="1.1" viewBox="0 0 392 126" width="392px" zoomAndPan="magnify"><defs><filter height="300%" id="f1190gr1tl3cv8" width="300%" x="-1" y="-1"><feGaussianBlur result="blurOut" stdDeviation="2.0"/><feColorMatrix in="blurOut" result="blurOut2" type="matrix" values="0 0 0 0 0 0 0 0 0 0 0 0 0 0 0 0 0 0 .4 0"/><feOffset dx="4.0" dy="4.0" in="blurOut2" result="blurOut3"/><feBlend in="SourceGraphic" in2="blurOut3" mode="normal"/></filter></defs><g><!--entity eMSP--><rect fill="#FEFECE" filter="url(#f1190gr1tl3cv8)" height="36.2969" style="stroke: #A80036; stroke-width: 1.5;" width="59" x="6.5" y="8"/><text fill="#000000" font-family="sans-serif" font-size="14" lengthAdjust="spacingAndGlyphs" textLength="39" x="16.5" y="30.9951">eMSP</text><!--entity SCSP--><rect fill="#FEFECE" filter="url(#f1190gr1tl3cv8)" height="36.2969" style="stroke: #A80036; stroke-width: 1.5;" width="57" x="7.5" y="79"/><text fill="#000000" font-family="sans-serif" font-size="14" lengthAdjust="spacingAndGlyphs" textLength="37" x="17.5" y="101.9951">SCSP</text><!--entity CPO--><rect fill="#FEFECE" filter="url(#f1190gr1tl3cv8)" height="36.2969" style="stroke: #A80036; stroke-width: 1.5;" width="50" x="160" y="44"/><text fill="#000000" font-family="sans-serif" font-size="14" lengthAdjust="spacingAndGlyphs" textLength="30" x="170" y="66.9951">CPO</text><!--entity CP--><rect fill="#FEFECE" filter="url(#f1190gr1tl3cv8)" height="36.2969" style="stroke: #A80036; stroke-width: 1.5;" width="109" x="272.5" y="44"/><text fill="#000000" font-family="sans-serif" font-size="14" lengthAdjust="spacingAndGlyphs" textLength="89" x="282.5" y="66.9951">Charge Point</text><!--link eMSP to CPO--><path d="M70.6422,34.2389 C96.0272,40.4556 130.505,48.8993 154.751,54.8369 " fill="none" id="eMSP-CPO" style="stroke: #A80036; stroke-width: 1.0;"/><polygon fill="#A80036" points="159.762,56.0642,151.9726,50.0372,154.9057,54.8742,150.0686,57.8073,159.762,56.0642" style="stroke: #A80036; stroke-width: 1.0;"/><polygon fill="#A80036" points="65.692,33.0266,73.4821,39.0528,70.5485,34.216,75.3852,31.2824,65.692,33.0266" style="stroke: #A80036; stroke-width: 1.0;"/><text fill="#000000" font-family="sans-serif" font-size="13" lengthAdjust="spacingAndGlyphs" textLength="30" x="97.5" y="36.0669">OCPI</text><!--link SCSP to CPO--><path d="M70.1336,96.0594 C88.1126,94.8983 110.571,92.3845 130,87 C138.409,84.6695 147.148,81.1551 155.084,77.4919 " fill="none" id="SCSP-CPO" style="stroke: #A80036; stroke-width: 1.0;"/><polygon fill="#A80036" points="159.911,75.201,150.0652,75.4444,155.3935,77.344,153.494,82.6724,159.911,75.201" style="stroke: #A80036; stroke-width: 1.0;"/><polygon fill="#A80036" points="64.706,96.378,73.9249,99.8437,69.6974,96.085,73.4561,91.8575,64.706,96.378" style="stroke: #A80036; stroke-width: 1.0;"/><text fill="#000000" font-family="sans-serif" font-size="13" lengthAdjust="spacingAndGlyphs" textLength="30" x="97.5" y="82.0669">OCPI</text><!--link CPO to CP--><path d="M215.477,62 C230.559,62 249.468,62 267.36,62 " fill="none" id="CPO-CP" style="stroke: #A80036; stroke-width: 1.0;"/><polygon fill="#A80036" points="272.375,62,263.375,58,267.375,62,263.375,66,272.375,62" style="stroke: #A80036; stroke-width: 1.0;"/><polygon fill="#A80036" points="210.067,62,219.067,66,215.067,62,219.067,58,210.067,62" style="stroke: #A80036; stroke-width: 1.0;"/></g></svg>