<?xml version="1.0" encoding="UTF-8" standalone="no"?><svg xmlns="http://www.w3.org/2000/svg" xmlns:xlink="http://www.w3.org/1999/xlink" contentScriptType="application/ecmascript" contentStyleType="text/css" height="272px" preserveAspectRatio="none" style="width:1079px;height:272px;" version="1.1" viewBox="0 0 1079 272" width="1079px" zoomAndPan="magnify"><defs><filter height="300%" id="fqc03dfre2qdf" width="300%" x="-1" y="-1"><feGaussianBlur result="blurOut" stdDeviation="2.0"/><feColorMatrix in="blurOut" result="blurOut2" type="matrix" values="0 0 0 0 0 0 0 0 0 0 0 0 0 0 0 0 0 0 .4 0"/><feOffset dx="4.0" dy="4.0" in="blurOut2" result="blurOut3"/><feBlend in="SourceGraphic" in2="blurOut3" mode="normal"/></filter></defs><g><rect fill="#FFFFFF" filter="url(#fqc03dfre2qdf)" height="29.1328" style="stroke: #A80036; stroke-width: 1.0;" width="10" x="31.5" y="69.4297"/><rect fill="#FFFFFF" filter="url(#fqc03dfre2qdf)" height="14" style="stroke: #A80036; stroke-width: 1.0;" width="10" x="31.5" y="185.9609"/><rect fill="#FFFFFF" filter="url(#fqc03dfre2qdf)" height="58.2656" style="stroke: #A80036; stroke-width: 1.0;" width="10" x="535.5" y="69.4297"/><rect fill="#FFFFFF" filter="url(#fqc03dfre2qdf)" height="43.1328" style="stroke: #A80036; stroke-width: 1.0;" width="10" x="535.5" y="156.8281"/><rect fill="#FFFFFF" filter="url(#fqc03dfre2qdf)" height="107.3984" style="stroke: #A80036; stroke-width: 1.0;" width="10" x="828.5" y="127.6953"/><line style="stroke: #A80036; stroke-width: 1.0; stroke-dasharray: 5.0,5.0;" x1="36" x2="36" y1="38.2969" y2="260.0938"/><line style="stroke: #A80036; stroke-width: 1.0; stroke-dasharray: 5.0,5.0;" x1="540.5" x2="540.5" y1="38.2969" y2="260.0938"/><line style="stroke: #A80036; stroke-width: 1.0; stroke-dasharray: 5.0,5.0;" x1="833" x2="833" y1="38.2969" y2="260.0938"/><rect fill="#FEFECE" filter="url(#fqc03dfre2qdf)" height="30.2969" style="stroke: #A80036; stroke-width: 1.5;" width="53" x="8" y="3"/><text fill="#000000" font-family="sans-serif" font-size="14" lengthAdjust="spacingAndGlyphs" textLength="39" x="15" y="22.9951">eMSP</text><rect fill="#FEFECE" filter="url(#fqc03dfre2qdf)" height="30.2969" style="stroke: #A80036; stroke-width: 1.5;" width="44" x="516.5" y="3"/><text fill="#000000" font-family="sans-serif" font-size="14" lengthAdjust="spacingAndGlyphs" textLength="30" x="523.5" y="22.9951">CPO</text><rect fill="#FEFECE" filter="url(#fqc03dfre2qdf)" height="30.2969" style="stroke: #A80036; stroke-width: 1.5;" width="103" x="780" y="3"/><text fill="#000000" font-family="sans-serif" font-size="14" lengthAdjust="spacingAndGlyphs" textLength="89" x="787" y="22.9951">Charge Point</text><rect fill="#FFFFFF" filter="url(#fqc03dfre2qdf)" height="29.1328" style="stroke: #A80036; stroke-width: 1.0;" width="10" x="31.5" y="69.4297"/><rect fill="#FFFFFF" filter="url(#fqc03dfre2qdf)" height="14" style="stroke: #A80036; stroke-width: 1.0;" width="10" x="31.5" y="185.9609"/><rect fill="#FFFFFF" filter="url(#fqc03dfre2qdf)" height="58.2656" style="stroke: #A80036; stroke-width: 1.0;" width="10" x="535.5" y="69.4297"/><rect fill="#FFFFFF" filter="url(#fqc03dfre2qdf)" height="43.1328" style="stroke: #A80036; stroke-width: 1.0;" width="10" x="535.5" y="156.8281"/><rect fill="#FFFFFF" filter="url(#fqc03dfre2qdf)" height="107.3984" style="stroke: #A80036; stroke-width: 1.0;" width="10" x="828.5" y="127.6953"/><polygon fill="#A80036" points="523.5,65.4297,533.5,69.4297,523.5,73.4297,527.5,69.4297" style="stroke: #A80036; stroke-width: 1.0;"/><line style="stroke: #A80036; stroke-width: 1.0;" x1="41.5" x2="529.5" y1="69.4297" y2="69.4297"/><text fill="#000000" font-family="sans-serif" font-size="13" lengthAdjust="spacingAndGlyphs" textLength="380" x="48.5" y="64.3638">Command(START_SESSION, location_id=1234, token=200)</text><polygon fill="#A80036" points="47.5,94.5625,37.5,98.5625,47.5,102.5625,43.5,98.5625" style="stroke: #A80036; stroke-width: 1.0;"/><line style="stroke: #A80036; stroke-width: 1.0; stroke-dasharray: 2.0,2.0;" x1="41.5" x2="534.5" y1="98.5625" y2="98.5625"/><text fill="#000000" font-family="sans-serif" font-size="13" lengthAdjust="spacingAndGlyphs" textLength="470" x="53.5" y="93.4966">status_code = 1000, data: {CommandResponse { result = ACCEPTED }}</text><polygon fill="#A80036" points="816.5,123.6953,826.5,127.6953,816.5,131.6953,820.5,127.6953" style="stroke: #A80036; stroke-width: 1.0;"/><line style="stroke: #A80036; stroke-width: 1.0;" x1="540.5" x2="822.5" y1="127.6953" y2="127.6953"/><text fill="#000000" font-family="sans-serif" font-size="13" lengthAdjust="spacingAndGlyphs" textLength="264" x="547.5" y="122.6294">RemoteStartTransaction.req(Token=200)</text><polygon fill="#A80036" points="556.5,152.8281,546.5,156.8281,556.5,160.8281,552.5,156.8281" style="stroke: #A80036; stroke-width: 1.0;"/><line style="stroke: #A80036; stroke-width: 1.0;" x1="550.5" x2="827.5" y1="156.8281" y2="156.8281"/><text fill="#000000" font-family="sans-serif" font-size="13" lengthAdjust="spacingAndGlyphs" textLength="257" x="562.5" y="151.7622">RemoteStartTransaction.conf(Accepted)</text><polygon fill="#A80036" points="52.5,181.9609,42.5,185.9609,52.5,189.9609,48.5,185.9609" style="stroke: #A80036; stroke-width: 1.0;"/><line style="stroke: #A80036; stroke-width: 1.0;" x1="46.5" x2="534.5" y1="185.9609" y2="185.9609"/><text fill="#000000" font-family="sans-serif" font-size="13" lengthAdjust="spacingAndGlyphs" textLength="239" x="58.5" y="180.895">CommandResult(result = ACCEPTED)</text><polygon fill="#A80036" points="528.5,195.9609,538.5,199.9609,528.5,203.9609,532.5,199.9609" style="stroke: #A80036; stroke-width: 1.0;"/><line style="stroke: #A80036; stroke-width: 1.0; stroke-dasharray: 2.0,2.0;" x1="36.5" x2="534.5" y1="199.9609" y2="199.9609"/><line style="stroke: #A80036; stroke-width: 1.0; stroke-dasharray: 2.0,2.0;" x1="838.5" x2="880.5" y1="234.0938" y2="234.0938"/><line style="stroke: #A80036; stroke-width: 1.0; stroke-dasharray: 2.0,2.0;" x1="880.5" x2="880.5" y1="234.0938" y2="247.0938"/><line style="stroke: #A80036; stroke-width: 1.0; stroke-dasharray: 2.0,2.0;" x1="833.5" x2="880.5" y1="247.0938" y2="247.0938"/><polygon fill="#A80036" points="843.5,243.0938,833.5,247.0938,843.5,251.0938,839.5,247.0938" style="stroke: #A80036; stroke-width: 1.0;"/><text fill="#000000" font-family="sans-serif" font-size="13" lengthAdjust="spacingAndGlyphs" textLength="222" x="845.5" y="229.0278">EV NOT Plugged in before time-out</text></g></svg>