<?xml version="1.0" encoding="UTF-8" standalone="no"?><svg xmlns="http://www.w3.org/2000/svg" xmlns:xlink="http://www.w3.org/1999/xlink" contentScriptType="application/ecmascript" contentStyleType="text/css" height="300px" preserveAspectRatio="none" style="width:950px;height:300px;" version="1.1" viewBox="0 0 950 300" width="950px" zoomAndPan="magnify"><defs><filter height="300%" id="f1uiar793clkl" width="300%" x="-1" y="-1"><feGaussianBlur result="blurOut" stdDeviation="2.0"/><feColorMatrix in="blurOut" result="blurOut2" type="matrix" values="0 0 0 0 0 0 0 0 0 0 0 0 0 0 0 0 0 0 .4 0"/><feOffset dx="4.0" dy="4.0" in="blurOut2" result="blurOut3"/><feBlend in="SourceGraphic" in2="blurOut3" mode="normal"/></filter></defs><g><rect fill="#FFFFFF" filter="url(#f1uiar793clkl)" height="89.3984" style="stroke: #A80036; stroke-width: 1.0;" width="10" x="61" y="64.5938"/><rect fill="#FFFFFF" filter="url(#f1uiar793clkl)" height="14" style="stroke: #A80036; stroke-width: 1.0;" width="10" x="61" y="256.5234"/><rect fill="#FFFFFF" filter="url(#f1uiar793clkl)" height="58.2656" style="stroke: #A80036; stroke-width: 1.0;" width="10" x="670" y="124.8594"/><rect fill="#FFFFFF" filter="url(#f1uiar793clkl)" height="58.2656" style="stroke: #A80036; stroke-width: 1.0;" width="10" x="670" y="212.2578"/><rect fill="#FFFFFF" filter="url(#f1uiar793clkl)" height="29.1328" style="stroke: #A80036; stroke-width: 1.0;" width="10" x="881" y="183.125"/><line style="stroke: #A80036; stroke-width: 1.0; stroke-dasharray: 5.0,5.0;" x1="66" x2="66" y1="54.5938" y2="288.5234"/><line style="stroke: #A80036; stroke-width: 1.0; stroke-dasharray: 5.0,5.0;" x1="675" x2="675" y1="54.5938" y2="288.5234"/><line style="stroke: #A80036; stroke-width: 1.0; stroke-dasharray: 5.0,5.0;" x1="885.5" x2="885.5" y1="54.5938" y2="288.5234"/><rect fill="#FEFECE" filter="url(#f1uiar793clkl)" height="46.5938" style="stroke: #A80036; stroke-width: 1.5;" width="112" x="8" y="3"/><text fill="#000000" font-family="sans-serif" font-size="14" lengthAdjust="spacingAndGlyphs" textLength="50" x="39" y="22.9951">Sender</text><text fill="#000000" font-family="sans-serif" font-size="14" lengthAdjust="spacingAndGlyphs" textLength="98" x="15" y="39.292">eMSP or SCSP</text><rect fill="#FEFECE" filter="url(#f1uiar793clkl)" height="46.5938" style="stroke: #A80036; stroke-width: 1.5;" width="74" x="636" y="3"/><text fill="#000000" font-family="sans-serif" font-size="14" lengthAdjust="spacingAndGlyphs" textLength="30" x="658" y="22.9951">CPO</text><text fill="#000000" font-family="sans-serif" font-size="14" lengthAdjust="spacingAndGlyphs" textLength="60" x="643" y="39.292">Receiver</text><rect fill="#FEFECE" filter="url(#f1uiar793clkl)" height="30.2969" style="stroke: #A80036; stroke-width: 1.5;" width="103" x="832.5" y="19.2969"/><text fill="#000000" font-family="sans-serif" font-size="14" lengthAdjust="spacingAndGlyphs" textLength="89" x="839.5" y="39.292">Charge Point</text><rect fill="#FFFFFF" filter="url(#f1uiar793clkl)" height="89.3984" style="stroke: #A80036; stroke-width: 1.0;" width="10" x="61" y="64.5938"/><rect fill="#FFFFFF" filter="url(#f1uiar793clkl)" height="14" style="stroke: #A80036; stroke-width: 1.0;" width="10" x="61" y="256.5234"/><rect fill="#FFFFFF" filter="url(#f1uiar793clkl)" height="58.2656" style="stroke: #A80036; stroke-width: 1.0;" width="10" x="670" y="124.8594"/><rect fill="#FFFFFF" filter="url(#f1uiar793clkl)" height="58.2656" style="stroke: #A80036; stroke-width: 1.0;" width="10" x="670" y="212.2578"/><rect fill="#FFFFFF" filter="url(#f1uiar793clkl)" height="29.1328" style="stroke: #A80036; stroke-width: 1.0;" width="10" x="881" y="183.125"/><path d="M12,69.5938 L12,94.5938 L938,94.5938 L938,79.5938 L928,69.5938 L12,69.5938 " fill="#FBFB77" filter="url(#f1uiar793clkl)" style="stroke: #A80036; stroke-width: 1.0;"/><path d="M928,69.5938 L928,79.5938 L938,79.5938 L928,69.5938 " fill="#FBFB77" style="stroke: #A80036; stroke-width: 1.0;"/><text fill="#000000" font-family="sans-serif" font-size="13" lengthAdjust="spacingAndGlyphs" textLength="178" x="379.75" y="86.6606">Ongoing Session with id=15</text><polygon fill="#A80036" points="658,120.8594,668,124.8594,658,128.8594,662,124.8594" style="stroke: #A80036; stroke-width: 1.0;"/><line style="stroke: #A80036; stroke-width: 1.0;" x1="71" x2="664" y1="124.8594" y2="124.8594"/><text fill="#000000" font-family="sans-serif" font-size="13" lengthAdjust="spacingAndGlyphs" textLength="580" x="78" y="119.7935">GET https://server.com/ocpi/2.2/chargingprofiles/15?response_url=https://client.com/12345</text><polygon fill="#A80036" points="77,149.9922,67,153.9922,77,157.9922,73,153.9922" style="stroke: #A80036; stroke-width: 1.0;"/><line style="stroke: #A80036; stroke-width: 1.0; stroke-dasharray: 2.0,2.0;" x1="71" x2="669" y1="153.9922" y2="153.9922"/><text fill="#000000" font-family="sans-serif" font-size="13" lengthAdjust="spacingAndGlyphs" textLength="499" x="83" y="148.9263">status_code = 1000, data: {ChargingProfileResponse { result = ACCEPTED }}</text><polygon fill="#A80036" points="869,179.125,879,183.125,869,187.125,873,183.125" style="stroke: #A80036; stroke-width: 1.0;"/><line style="stroke: #A80036; stroke-width: 1.0;" x1="675" x2="875" y1="183.125" y2="183.125"/><text fill="#000000" font-family="sans-serif" font-size="13" lengthAdjust="spacingAndGlyphs" textLength="176" x="682" y="178.0591">GetCompositeSchedule.req</text><polygon fill="#A80036" points="691,208.2578,681,212.2578,691,216.2578,687,212.2578" style="stroke: #A80036; stroke-width: 1.0;"/><line style="stroke: #A80036; stroke-width: 1.0;" x1="685" x2="885" y1="212.2578" y2="212.2578"/><text fill="#000000" font-family="sans-serif" font-size="13" lengthAdjust="spacingAndGlyphs" textLength="182" x="697" y="207.1919">GetCompositeSchedule.conf</text><polygon fill="#A80036" points="82,252.5234,72,256.5234,82,260.5234,78,256.5234" style="stroke: #A80036; stroke-width: 1.0;"/><line style="stroke: #A80036; stroke-width: 1.0;" x1="76" x2="669" y1="256.5234" y2="256.5234"/><text fill="#000000" font-family="sans-serif" font-size="13" lengthAdjust="spacingAndGlyphs" textLength="193" x="88" y="236.3247">POST https://client.com/12345</text><text fill="#000000" font-family="sans-serif" font-size="13" lengthAdjust="spacingAndGlyphs" textLength="393" x="88" y="251.4575">ActiveProfileResult(result = ACCEPTED, ActiveChargingProfile)</text><polygon fill="#A80036" points="663,266.5234,673,270.5234,663,274.5234,667,270.5234" style="stroke: #A80036; stroke-width: 1.0;"/><line style="stroke: #A80036; stroke-width: 1.0; stroke-dasharray: 2.0,2.0;" x1="66" x2="669" y1="270.5234" y2="270.5234"/></g></svg>