<?xml version="1.0" encoding="UTF-8" standalone="no"?><svg xmlns="http://www.w3.org/2000/svg" xmlns:xlink="http://www.w3.org/1999/xlink" contentScriptType="application/ecmascript" contentStyleType="text/css" height="657px" preserveAspectRatio="none" style="width:1263px;height:657px;" version="1.1" viewBox="0 0 1263 657" width="1263px" zoomAndPan="magnify"><defs><filter height="300%" id="f1ur5ro6eq1bqp" width="300%" x="-1" y="-1"><feGaussianBlur result="blurOut" stdDeviation="2.0"/><feColorMatrix in="blurOut" result="blurOut2" type="matrix" values="0 0 0 0 0 0 0 0 0 0 0 0 0 0 0 0 0 0 .4 0"/><feOffset dx="4.0" dy="4.0" in="blurOut2" result="blurOut3"/><feBlend in="SourceGraphic" in2="blurOut3" mode="normal"/></filter></defs><g><rect fill="#FFFFFF" filter="url(#f1ur5ro6eq1bqp)" height="233.1953" style="stroke: #A80036; stroke-width: 1.0;" width="10" x="37" y="219.7188"/><rect fill="#FFFFFF" filter="url(#f1ur5ro6eq1bqp)" height="14" style="stroke: #A80036; stroke-width: 1.0;" width="10" x="37" y="613.7109"/><rect fill="#FFFFFF" filter="url(#f1ur5ro6eq1bqp)" height="57.1328" style="stroke: #A80036; stroke-width: 1.0;" width="10" x="474" y="176.5859"/><rect fill="#FFFFFF" filter="url(#f1ur5ro6eq1bqp)" height="132.7969" style="stroke: #A80036; stroke-width: 1.0;" width="10" x="474" y="320.1172"/><rect fill="#FFFFFF" filter="url(#f1ur5ro6eq1bqp)" height="72.2656" style="stroke: #A80036; stroke-width: 1.0;" width="10" x="474" y="555.4453"/><rect fill="#FFFFFF" filter="url(#f1ur5ro6eq1bqp)" height="72.2656" style="stroke: #A80036; stroke-width: 1.0;" width="10" x="905" y="118.3203"/><rect fill="#FFFFFF" filter="url(#f1ur5ro6eq1bqp)" height="117.6641" style="stroke: #A80036; stroke-width: 1.0;" width="10" x="905" y="364.3828"/><rect fill="#FFFFFF" filter="url(#f1ur5ro6eq1bqp)" height="58.2656" style="stroke: #A80036; stroke-width: 1.0;" width="10" x="905" y="511.1797"/><rect fill="#FFFFFF" filter="url(#f1ur5ro6eq1bqp)" height="50.2656" style="stroke: #A80036; stroke-width: 1.0;" width="10" x="1198" y="97.1875"/><rect fill="#FFFFFF" filter="url(#f1ur5ro6eq1bqp)" height="29.1328" style="stroke: #A80036; stroke-width: 1.0;" width="10" x="1198" y="482.0469"/><line style="stroke: #A80036; stroke-width: 1.0; stroke-dasharray: 5.0,5.0;" x1="42" x2="42" y1="87.1875" y2="645.7109"/><line style="stroke: #A80036; stroke-width: 1.0; stroke-dasharray: 5.0,5.0;" x1="479" x2="479" y1="87.1875" y2="645.7109"/><line style="stroke: #A80036; stroke-width: 1.0; stroke-dasharray: 5.0,5.0;" x1="910" x2="910" y1="87.1875" y2="645.7109"/><line style="stroke: #A80036; stroke-width: 1.0; stroke-dasharray: 5.0,5.0;" x1="1202.5" x2="1202.5" y1="87.1875" y2="645.7109"/><rect fill="#FEFECE" filter="url(#f1ur5ro6eq1bqp)" height="46.5938" style="stroke: #A80036; stroke-width: 1.5;" width="64" x="8" y="35.5938"/><text fill="#000000" font-family="sans-serif" font-size="14" lengthAdjust="spacingAndGlyphs" textLength="37" x="21.5" y="55.5889">SCSP</text><text fill="#000000" font-family="sans-serif" font-size="14" lengthAdjust="spacingAndGlyphs" textLength="50" x="15" y="71.8857">Sender</text><rect fill="#FEFECE" filter="url(#f1ur5ro6eq1bqp)" height="79.1875" style="stroke: #A80036; stroke-width: 1.5;" width="74" x="440" y="3"/><text fill="#000000" font-family="sans-serif" font-size="14" lengthAdjust="spacingAndGlyphs" textLength="39" x="457.5" y="22.9951">eMSP</text><text fill="#000000" font-family="sans-serif" font-size="14" lengthAdjust="spacingAndGlyphs" textLength="50" x="452" y="39.292">Sender</text><text fill="#000000" font-family="sans-serif" font-size="14" lengthAdjust="spacingAndGlyphs" textLength="12" x="471" y="55.5889">&amp;</text><text fill="#000000" font-family="sans-serif" font-size="14" lengthAdjust="spacingAndGlyphs" textLength="60" x="447" y="71.8857">Receiver</text><rect fill="#FEFECE" filter="url(#f1ur5ro6eq1bqp)" height="46.5938" style="stroke: #A80036; stroke-width: 1.5;" width="74" x="871" y="35.5938"/><text fill="#000000" font-family="sans-serif" font-size="14" lengthAdjust="spacingAndGlyphs" textLength="30" x="893" y="55.5889">CPO</text><text fill="#000000" font-family="sans-serif" font-size="14" lengthAdjust="spacingAndGlyphs" textLength="60" x="878" y="71.8857">Receiver</text><rect fill="#FEFECE" filter="url(#f1ur5ro6eq1bqp)" height="30.2969" style="stroke: #A80036; stroke-width: 1.5;" width="103" x="1149.5" y="51.8906"/><text fill="#000000" font-family="sans-serif" font-size="14" lengthAdjust="spacingAndGlyphs" textLength="89" x="1156.5" y="71.8857">Charge Point</text><rect fill="#FFFFFF" filter="url(#f1ur5ro6eq1bqp)" height="233.1953" style="stroke: #A80036; stroke-width: 1.0;" width="10" x="37" y="219.7188"/><rect fill="#FFFFFF" filter="url(#f1ur5ro6eq1bqp)" height="14" style="stroke: #A80036; stroke-width: 1.0;" width="10" x="37" y="613.7109"/><rect fill="#FFFFFF" filter="url(#f1ur5ro6eq1bqp)" height="57.1328" style="stroke: #A80036; stroke-width: 1.0;" width="10" x="474" y="176.5859"/><rect fill="#FFFFFF" filter="url(#f1ur5ro6eq1bqp)" height="132.7969" style="stroke: #A80036; stroke-width: 1.0;" width="10" x="474" y="320.1172"/><rect fill="#FFFFFF" filter="url(#f1ur5ro6eq1bqp)" height="72.2656" style="stroke: #A80036; stroke-width: 1.0;" width="10" x="474" y="555.4453"/><rect fill="#FFFFFF" filter="url(#f1ur5ro6eq1bqp)" height="72.2656" style="stroke: #A80036; stroke-width: 1.0;" width="10" x="905" y="118.3203"/><rect fill="#FFFFFF" filter="url(#f1ur5ro6eq1bqp)" height="117.6641" style="stroke: #A80036; stroke-width: 1.0;" width="10" x="905" y="364.3828"/><rect fill="#FFFFFF" filter="url(#f1ur5ro6eq1bqp)" height="58.2656" style="stroke: #A80036; stroke-width: 1.0;" width="10" x="905" y="511.1797"/><rect fill="#FFFFFF" filter="url(#f1ur5ro6eq1bqp)" height="50.2656" style="stroke: #A80036; stroke-width: 1.0;" width="10" x="1198" y="97.1875"/><rect fill="#FFFFFF" filter="url(#f1ur5ro6eq1bqp)" height="29.1328" style="stroke: #A80036; stroke-width: 1.0;" width="10" x="1198" y="482.0469"/><polygon fill="#A80036" points="926,114.3203,916,118.3203,926,122.3203,922,118.3203" style="stroke: #A80036; stroke-width: 1.0;"/><line style="stroke: #A80036; stroke-width: 1.0;" x1="920" x2="1197" y1="118.3203" y2="118.3203"/><text fill="#000000" font-family="sans-serif" font-size="13" lengthAdjust="spacingAndGlyphs" textLength="214" x="932" y="113.2544">StartTransaction.req(Token=200)</text><polygon fill="#A80036" points="1191,143.4531,1201,147.4531,1191,151.4531,1195,147.4531" style="stroke: #A80036; stroke-width: 1.0;"/><line style="stroke: #A80036; stroke-width: 1.0;" x1="915" x2="1197" y1="147.4531" y2="147.4531"/><text fill="#000000" font-family="sans-serif" font-size="13" lengthAdjust="spacingAndGlyphs" textLength="259" x="922" y="142.3872">StartTransaction.conf(TransactionId=15)</text><polygon fill="#A80036" points="495,172.5859,485,176.5859,495,180.5859,491,176.5859" style="stroke: #A80036; stroke-width: 1.0;"/><line style="stroke: #A80036; stroke-width: 1.0;" x1="489" x2="904" y1="176.5859" y2="176.5859"/><text fill="#000000" font-family="sans-serif" font-size="13" lengthAdjust="spacingAndGlyphs" textLength="98" x="501" y="171.52">Session(id=15)</text><polygon fill="#A80036" points="898,186.5859,908,190.5859,898,194.5859,902,190.5859" style="stroke: #A80036; stroke-width: 1.0;"/><line style="stroke: #A80036; stroke-width: 1.0; stroke-dasharray: 2.0,2.0;" x1="484" x2="904" y1="190.5859" y2="190.5859"/><polygon fill="#A80036" points="58,215.7188,48,219.7188,58,223.7188,54,219.7188" style="stroke: #A80036; stroke-width: 1.0;"/><line style="stroke: #A80036; stroke-width: 1.0;" x1="52" x2="473" y1="219.7188" y2="219.7188"/><text fill="#000000" font-family="sans-serif" font-size="13" lengthAdjust="spacingAndGlyphs" textLength="98" x="64" y="214.6528">Session(id=15)</text><polygon fill="#A80036" points="467,229.7188,477,233.7188,467,237.7188,471,233.7188" style="stroke: #A80036; stroke-width: 1.0;"/><line style="stroke: #A80036; stroke-width: 1.0; stroke-dasharray: 2.0,2.0;" x1="47" x2="473" y1="233.7188" y2="233.7188"/><line style="stroke: #A80036; stroke-width: 1.0; stroke-dasharray: 2.0,2.0;" x1="47" x2="89" y1="262.8516" y2="262.8516"/><line style="stroke: #A80036; stroke-width: 1.0; stroke-dasharray: 2.0,2.0;" x1="89" x2="89" y1="262.8516" y2="275.8516"/><line style="stroke: #A80036; stroke-width: 1.0; stroke-dasharray: 2.0,2.0;" x1="48" x2="89" y1="275.8516" y2="275.8516"/><polygon fill="#A80036" points="58,271.8516,48,275.8516,58,279.8516,54,275.8516" style="stroke: #A80036; stroke-width: 1.0;"/><text fill="#000000" font-family="sans-serif" font-size="13" lengthAdjust="spacingAndGlyphs" textLength="159" x="54" y="257.7856">Calculate ChargingProfile</text><polygon fill="#A80036" points="462,316.1172,472,320.1172,462,324.1172,466,320.1172" style="stroke: #A80036; stroke-width: 1.0;"/><line style="stroke: #A80036; stroke-width: 1.0;" x1="47" x2="468" y1="320.1172" y2="320.1172"/><text fill="#000000" font-family="sans-serif" font-size="13" lengthAdjust="spacingAndGlyphs" textLength="321" x="54" y="299.9185">PUT https://emsp.com/ocpi/2.2/chargingprofiles/15</text><text fill="#000000" font-family="sans-serif" font-size="13" lengthAdjust="spacingAndGlyphs" textLength="376" x="86" y="315.0513">SetChargingProfile(response_url=https://client.com/12345)</text><polygon fill="#A80036" points="893,360.3828,903,364.3828,893,368.3828,897,364.3828" style="stroke: #A80036; stroke-width: 1.0;"/><line style="stroke: #A80036; stroke-width: 1.0;" x1="484" x2="899" y1="364.3828" y2="364.3828"/><text fill="#000000" font-family="sans-serif" font-size="13" lengthAdjust="spacingAndGlyphs" textLength="308" x="491" y="344.1841">PUT https://cpo.com/ocpi/2.2/chargingprofiles/15</text><text fill="#000000" font-family="sans-serif" font-size="13" lengthAdjust="spacingAndGlyphs" textLength="370" x="523" y="359.3169">SetChargingProfile(response_url=https://emsp.com/4567)</text><polygon fill="#A80036" points="495,404.6484,485,408.6484,495,412.6484,491,408.6484" style="stroke: #A80036; stroke-width: 1.0;"/><line style="stroke: #A80036; stroke-width: 1.0; stroke-dasharray: 2.0,2.0;" x1="489" x2="904" y1="408.6484" y2="408.6484"/><text fill="#000000" font-family="sans-serif" font-size="13" lengthAdjust="spacingAndGlyphs" textLength="133" x="501" y="388.4497">status_code = 1000,</text><text fill="#000000" font-family="sans-serif" font-size="13" lengthAdjust="spacingAndGlyphs" textLength="362" x="505" y="403.5825">data: {ChargingProfileResponse { result = ACCEPTED }}</text><polygon fill="#A80036" points="53,448.9141,43,452.9141,53,456.9141,49,452.9141" style="stroke: #A80036; stroke-width: 1.0;"/><line style="stroke: #A80036; stroke-width: 1.0; stroke-dasharray: 2.0,2.0;" x1="47" x2="478" y1="452.9141" y2="452.9141"/><text fill="#000000" font-family="sans-serif" font-size="13" lengthAdjust="spacingAndGlyphs" textLength="133" x="59" y="432.7153">status_code = 1000,</text><text fill="#000000" font-family="sans-serif" font-size="13" lengthAdjust="spacingAndGlyphs" textLength="362" x="63" y="447.8481">data: {ChargingProfileResponse { result = ACCEPTED }}</text><polygon fill="#A80036" points="1186,478.0469,1196,482.0469,1186,486.0469,1190,482.0469" style="stroke: #A80036; stroke-width: 1.0;"/><line style="stroke: #A80036; stroke-width: 1.0;" x1="910" x2="1192" y1="482.0469" y2="482.0469"/><text fill="#000000" font-family="sans-serif" font-size="13" lengthAdjust="spacingAndGlyphs" textLength="143" x="917" y="476.981">SetChargingProfile.req</text><polygon fill="#A80036" points="926,507.1797,916,511.1797,926,515.1797,922,511.1797" style="stroke: #A80036; stroke-width: 1.0;"/><line style="stroke: #A80036; stroke-width: 1.0;" x1="920" x2="1202" y1="511.1797" y2="511.1797"/><text fill="#000000" font-family="sans-serif" font-size="13" lengthAdjust="spacingAndGlyphs" textLength="149" x="932" y="506.1138">SetChargingProfile.conf</text><polygon fill="#A80036" points="495,551.4453,485,555.4453,495,559.4453,491,555.4453" style="stroke: #A80036; stroke-width: 1.0;"/><line style="stroke: #A80036; stroke-width: 1.0;" x1="489" x2="904" y1="555.4453" y2="555.4453"/><text fill="#000000" font-family="sans-serif" font-size="13" lengthAdjust="spacingAndGlyphs" textLength="187" x="501" y="535.2466">POST https://emsp.com/4567</text><text fill="#000000" font-family="sans-serif" font-size="13" lengthAdjust="spacingAndGlyphs" textLength="268" x="501" y="550.3794">ChargingProfileResult(result = ACCEPTED)</text><polygon fill="#A80036" points="898,565.4453,908,569.4453,898,573.4453,902,569.4453" style="stroke: #A80036; stroke-width: 1.0;"/><line style="stroke: #A80036; stroke-width: 1.0; stroke-dasharray: 2.0,2.0;" x1="484" x2="904" y1="569.4453" y2="569.4453"/><polygon fill="#A80036" points="58,609.7109,48,613.7109,58,617.7109,54,613.7109" style="stroke: #A80036; stroke-width: 1.0;"/><line style="stroke: #A80036; stroke-width: 1.0;" x1="52" x2="473" y1="613.7109" y2="613.7109"/><text fill="#000000" font-family="sans-serif" font-size="13" lengthAdjust="spacingAndGlyphs" textLength="193" x="64" y="593.5122">POST https://client.com/12345</text><text fill="#000000" font-family="sans-serif" font-size="13" lengthAdjust="spacingAndGlyphs" textLength="268" x="64" y="608.645">ChargingProfileResult(result = ACCEPTED)</text><polygon fill="#A80036" points="467,623.7109,477,627.7109,467,631.7109,471,627.7109" style="stroke: #A80036; stroke-width: 1.0;"/><line style="stroke: #A80036; stroke-width: 1.0; stroke-dasharray: 2.0,2.0;" x1="42" x2="473" y1="627.7109" y2="627.7109"/></g></svg>