<?xml version="1.0" encoding="UTF-8" standalone="no"?><svg xmlns="http://www.w3.org/2000/svg" xmlns:xlink="http://www.w3.org/1999/xlink" contentScriptType="application/ecmascript" contentStyleType="text/css" height="289px" preserveAspectRatio="none" style="width:701px;height:289px;" version="1.1" viewBox="0 0 701 289" width="701px" zoomAndPan="magnify"><defs><filter height="300%" id="fym9sfrwb82e1" width="300%" x="-1" y="-1"><feGaussianBlur result="blurOut" stdDeviation="2.0"/><feColorMatrix in="blurOut" result="blurOut2" type="matrix" values="0 0 0 0 0 0 0 0 0 0 0 0 0 0 0 0 0 0 .4 0"/><feOffset dx="4.0" dy="4.0" in="blurOut2" result="blurOut3"/><feBlend in="SourceGraphic" in2="blurOut3" mode="normal"/></filter></defs><g><!--cluster eMSPP1--><rect fill="#FFFFFF" filter="url(#fym9sfrwb82e1)" height="103" rx="4" ry="4" style="stroke: #000000; stroke-width: 1.5;" width="135" x="30" y="32"/><text fill="#000000" font-family="sans-serif" font-size="14" font-weight="bold" lengthAdjust="spacingAndGlyphs" textLength="84" x="55.5" y="46.9951">PLATFORM</text><!--cluster eMSPP2--><rect fill="#FFFFFF" filter="url(#fym9sfrwb82e1)" height="103" rx="4" ry="4" style="stroke: #000000; stroke-width: 1.5;" width="135" x="380" y="32"/><text fill="#000000" font-family="sans-serif" font-size="14" font-weight="bold" lengthAdjust="spacingAndGlyphs" textLength="84" x="405.5" y="46.9951">PLATFORM</text><!--cluster eMSPP3--><rect fill="#FFFFFF" filter="url(#fym9sfrwb82e1)" height="103" rx="4" ry="4" style="stroke: #000000; stroke-width: 1.5;" width="135" x="205" y="32"/><text fill="#000000" font-family="sans-serif" font-size="14" font-weight="bold" lengthAdjust="spacingAndGlyphs" textLength="84" x="230.5" y="46.9951">PLATFORM</text><!--cluster eMSPP4--><rect fill="#FFFFFF" filter="url(#fym9sfrwb82e1)" height="103" rx="4" ry="4" style="stroke: #000000; stroke-width: 1.5;" width="135" x="555" y="32"/><text fill="#000000" font-family="sans-serif" font-size="14" font-weight="bold" lengthAdjust="spacingAndGlyphs" textLength="84" x="580.5" y="46.9951">PLATFORM</text><!--cluster CPOP1--><rect fill="#FFFFFF" filter="url(#fym9sfrwb82e1)" height="103" rx="4" ry="4" style="stroke: #000000; stroke-width: 1.5;" width="127" x="378" y="175"/><text fill="#000000" font-family="sans-serif" font-size="14" font-weight="bold" lengthAdjust="spacingAndGlyphs" textLength="84" x="399.5" y="189.9951">PLATFORM</text><!--cluster CPOP2--><rect fill="#FFFFFF" filter="url(#fym9sfrwb82e1)" height="103" rx="4" ry="4" style="stroke: #000000; stroke-width: 1.5;" width="127" x="207" y="175"/><text fill="#000000" font-family="sans-serif" font-size="14" font-weight="bold" lengthAdjust="spacingAndGlyphs" textLength="84" x="228.5" y="189.9951">PLATFORM</text><!--cluster CPOP3--><rect fill="#FFFFFF" filter="url(#fym9sfrwb82e1)" height="103" rx="4" ry="4" style="stroke: #000000; stroke-width: 1.5;" width="127" x="551" y="175"/><text fill="#000000" font-family="sans-serif" font-size="14" font-weight="bold" lengthAdjust="spacingAndGlyphs" textLength="84" x="572.5" y="189.9951">PLATFORM</text><!--entity eMSP1--><rect fill="#FEFECE" filter="url(#fym9sfrwb82e1)" height="36.2969" rx="4" ry="4" style="stroke: #A80036; stroke-width: 1.5;" width="68" x="73" y="75"/><text fill="#000000" font-family="sans-serif" font-size="14" lengthAdjust="spacingAndGlyphs" textLength="48" x="83" y="97.9951">eMSP1</text><!--entity eMSP2--><rect fill="#FEFECE" filter="url(#fym9sfrwb82e1)" height="36.2969" rx="4" ry="4" style="stroke: #A80036; stroke-width: 1.5;" width="68" x="423" y="75"/><text fill="#000000" font-family="sans-serif" font-size="14" lengthAdjust="spacingAndGlyphs" textLength="48" x="433" y="97.9951">eMSP2</text><!--entity eMSP3--><rect fill="#FEFECE" filter="url(#fym9sfrwb82e1)" height="36.2969" rx="4" ry="4" style="stroke: #A80036; stroke-width: 1.5;" width="68" x="248" y="75"/><text fill="#000000" font-family="sans-serif" font-size="14" lengthAdjust="spacingAndGlyphs" textLength="48" x="258" y="97.9951">eMSP3</text><!--entity eMSP4--><rect fill="#FEFECE" filter="url(#fym9sfrwb82e1)" height="36.2969" rx="4" ry="4" style="stroke: #A80036; stroke-width: 1.5;" width="68" x="598" y="75"/><text fill="#000000" font-family="sans-serif" font-size="14" lengthAdjust="spacingAndGlyphs" textLength="48" x="608" y="97.9951">eMSP4</text><!--entity CPO1--><rect fill="#FEFECE" filter="url(#fym9sfrwb82e1)" height="36.2969" rx="4" ry="4" style="stroke: #A80036; stroke-width: 1.5;" width="59" x="421.5" y="218"/><text fill="#000000" font-family="sans-serif" font-size="14" lengthAdjust="spacingAndGlyphs" textLength="39" x="431.5" y="240.9951">CPO1</text><!--entity CPO2--><rect fill="#FEFECE" filter="url(#fym9sfrwb82e1)" height="36.2969" rx="4" ry="4" style="stroke: #A80036; stroke-width: 1.5;" width="59" x="250.5" y="218"/><text fill="#000000" font-family="sans-serif" font-size="14" lengthAdjust="spacingAndGlyphs" textLength="39" x="260.5" y="240.9951">CPO2</text><!--entity CPO3--><rect fill="#FEFECE" filter="url(#fym9sfrwb82e1)" height="36.2969" rx="4" ry="4" style="stroke: #A80036; stroke-width: 1.5;" width="59" x="594.5" y="218"/><text fill="#000000" font-family="sans-serif" font-size="14" lengthAdjust="spacingAndGlyphs" textLength="39" x="604.5" y="240.9951">CPO3</text><!--link eMSPP1 to CPOP1--><path d="M44.8733,135.1125 C44.9151,135.205 44.957,135.2973 44.9992,135.3894 C45.0836,135.5738 45.169,135.7577 45.2554,135.941 C48.0198,141.8079 51.8102,147.141 57,151 C80.9953,168.843 299.288,145.561 326,159 C344.6215,168.3685 359.2805,186.4923 369.4468,202.6917 C371.9883,206.7416 374.2491,210.6711 376.2208,214.3136 C376.7137,215.2242 377.1885,216.1168 377.6452,216.9889 C377.7594,217.207 377.8724,217.4237 377.9843,217.6391 " fill="none" id="eMSPP1-CPOP1" style="stroke: #A80036; stroke-width: 1.0;"/><!--link eMSPP2 to CPOP2--><path d="M379.9442,106.4077 C379.7209,106.724 379.4934,107.0445 379.2616,107.3687 C378.7982,108.0173 378.3182,108.6813 377.8219,109.3589 C375.8366,112.0692 373.5916,114.9963 371.1143,118.0181 C361.205,130.1053 347.5795,143.7065 332,151 C312.211,160.264 250.661,144.863 234,159 C230.7853,161.7279 228.0705,164.9095 225.7817,168.3951 C224.6373,170.1378 223.5995,171.9566 222.6588,173.8326 C222.5413,174.0671 222.4252,174.3024 222.3107,174.5387 C222.2534,174.6568 222.1965,174.7752 222.1399,174.8937 " fill="none" id="eMSPP2-CPOP2" style="stroke: #A80036; stroke-width: 1.0;"/><!--link eMSPP1 to CPOP2--><path d="M47.4893,135.221 C47.6545,135.5999 47.8226,135.9779 47.9936,136.3547 C48.3356,137.1082 48.6891,137.8572 49.0545,138.6001 C49.7853,140.0859 50.5637,141.5474 51.3929,142.9729 C53.0511,145.8239 54.912,148.5309 57,151 C82.2755,180.8893 120.9458,201.7052 153.7024,215.1386 C170.0807,221.8554 184.9806,226.7265 195.9885,229.9635 C198.7405,230.7727 201.2493,231.4798 203.4771,232.088 C204.591,232.3922 205.6346,232.6716 206.6033,232.9267 C206.7244,232.9586 206.8443,232.9901 206.963,233.0212 " fill="none" id="eMSPP1-CPOP2" style="stroke: #A80036; stroke-width: 1.0;"/><!--link eMSPP2 to CPOP1--><path d="M387.4089,135.6778 C387.4054,135.9237 387.4019,136.1702 387.3984,136.4173 C387.3844,137.4056 387.3703,138.4027 387.356,139.4076 C387.2419,147.4467 387.1208,155.9865 386.9996,164.5258 C386.9693,166.6606 386.939,168.7954 386.9089,170.9223 C386.8938,171.9858 386.8787,173.0473 386.8637,174.1058 C386.8599,174.3704 386.8562,174.6349 386.8524,174.8992 " fill="none" id="eMSPP2-CPOP1" style="stroke: #A80036; stroke-width: 1.0;"/><!--link eMSPP2 to CPOP3--><path d="M395.2011,135.126 C395.2848,135.3113 395.3695,135.4961 395.4552,135.6804 C398.1956,141.5786 401.9263,146.9898 407,151 C422.753,163.451 479.261,149.593 497,159 C515.6545,168.892 530.7838,187.0322 541.4261,203.1093 C544.0867,207.1285 546.4669,211.0188 548.5516,214.6191 C549.0728,215.5192 549.5755,216.4011 550.0595,217.2624 C550.3015,217.6931 550.5388,218.1185 550.7715,218.5385 C550.8296,218.6436 550.8875,218.7482 550.945,218.8525 " fill="none" id="eMSPP2-CPOP3" style="stroke: #A80036; stroke-width: 1.0;"/><!--link eMSPP3 to CPOP1--><path d="M220.1882,135.1427 C220.272,135.3279 220.3567,135.5126 220.4424,135.6969 C223.1843,141.5931 226.9188,146.9993 232,151 C248.472,163.969 307.539,149.065 326,159 C344.356,168.8785 359.0068,187.0183 369.235,203.0985 C371.7921,207.1185 374.0727,211.0099 376.0658,214.6112 C376.564,215.5116 377.0443,216.3938 377.5064,217.2554 C377.622,217.4708 377.7364,217.6849 377.8496,217.8976 " fill="none" id="eMSPP3-CPOP1" style="stroke: #A80036; stroke-width: 1.0;"/><!--link eMSPP3 to CPOP2--><path d="M213.5911,135.6778 C213.5946,135.9237 213.5981,136.1702 213.6016,136.4173 C213.6156,137.4056 213.6297,138.4027 213.644,139.4076 C213.7581,147.4467 213.8792,155.9865 214.0004,164.5258 C214.0307,166.6606 214.061,168.7954 214.0911,170.9223 C214.1062,171.9858 214.1213,173.0473 214.1363,174.1058 C214.1401,174.3704 214.1438,174.6349 214.1476,174.8992 " fill="none" id="eMSPP3-CPOP2" style="stroke: #A80036; stroke-width: 1.0;"/><!--link eMSPP4 to CPOP1--><path d="M554.9501,106.4197 C554.7269,106.7363 554.4995,107.0569 554.2679,107.3815 C553.8047,108.0305 553.3249,108.6951 552.8288,109.3731 C550.8445,112.0854 548.6003,115.0144 546.1236,118.0376 C536.217,130.1305 522.591,143.731 507,151 C486.393,160.607 422.36,144.317 405,159 C401.7809,161.7228 399.0628,164.9005 396.7715,168.3832 C395.6259,170.1245 394.587,171.9421 393.6456,173.8171 C393.5279,174.0515 393.4118,174.2868 393.2971,174.5229 C393.2398,174.641 393.1828,174.7593 393.1262,174.8778 " fill="none" id="eMSPP4-CPOP1" style="stroke: #A80036; stroke-width: 1.0;"/><!--link eMSPP4 to CPOP2--><path d="M554.868,106.8495 C554.8121,106.9301 554.7559,107.011 554.6995,107.0922 C554.5867,107.2545 554.4729,107.4178 554.358,107.582 C553.8984,108.239 553.4221,108.9114 552.9295,109.5972 C550.9591,112.3404 548.7279,115.2982 546.2614,118.3439 C536.3953,130.5265 522.764,144.115 507,151 C479.19,163.146 257.643,139.976 234,159 C230.7151,161.6431 227.9472,164.7606 225.6192,168.1987 C224.4552,169.9177 223.4012,171.717 222.4475,173.5771 C222.2091,174.0422 221.977,174.5111 221.7509,174.9834 " fill="none" id="eMSPP4-CPOP2" style="stroke: #A80036; stroke-width: 1.0;"/><!--link eMSPP4 to CPOP3--><path d="M561.8176,135.6778 C561.8107,135.9237 561.8037,136.1702 561.7967,136.4173 C561.7686,137.4056 561.7403,138.4027 561.7118,139.4076 C561.4838,147.4467 561.2415,155.9865 560.9993,164.5258 C560.9387,166.6606 560.8781,168.7954 560.8178,170.9223 C560.7876,171.9858 560.7575,173.0473 560.7275,174.1058 C560.72,174.3704 560.7125,174.6349 560.705,174.8992 " fill="none" id="eMSPP4-CPOP3" style="stroke: #A80036; stroke-width: 1.0;"/></g></svg>