<?xml version="1.0" encoding="UTF-8" standalone="no"?><svg xmlns="http://www.w3.org/2000/svg" xmlns:xlink="http://www.w3.org/1999/xlink" contentScriptType="application/ecmascript" contentStyleType="text/css" height="378px" preserveAspectRatio="none" style="width:353px;height:378px;" version="1.1" viewBox="0 0 353 378" width="353px" zoomAndPan="magnify"><defs><filter height="300%" id="fuf7qm4hck23" width="300%" x="-1" y="-1"><feGaussianBlur result="blurOut" stdDeviation="2.0"/><feColorMatrix in="blurOut" result="blurOut2" type="matrix" values="0 0 0 0 0 0 0 0 0 0 0 0 0 0 0 0 0 0 .4 0"/><feOffset dx="4.0" dy="4.0" in="blurOut2" result="blurOut3"/><feBlend in="SourceGraphic" in2="blurOut3" mode="normal"/></filter></defs><g><!--cluster CPOMSP1--><rect fill="#FFFFFF" filter="url(#fuf7qm4hck23)" height="335" rx="4" ry="4" style="stroke: #000000; stroke-width: 1.5;" width="116" x="30" y="32"/><text fill="#000000" font-family="sans-serif" font-size="14" font-weight="bold" lengthAdjust="spacingAndGlyphs" textLength="84" x="46" y="46.9951">PLATFORM</text><!--cluster CPOMSP2--><rect fill="#FFFFFF" filter="url(#fuf7qm4hck23)" height="335" rx="4" ry="4" style="stroke: #000000; stroke-width: 1.5;" width="116" x="226" y="32"/><text fill="#000000" font-family="sans-serif" font-size="14" font-weight="bold" lengthAdjust="spacingAndGlyphs" textLength="84" x="242" y="46.9951">PLATFORM</text><!--entity eMSP1--><rect fill="#FEFECE" filter="url(#fuf7qm4hck23)" height="36.2969" rx="4" ry="4" style="stroke: #A80036; stroke-width: 1.5;" width="68" x="54" y="94"/><text fill="#000000" font-family="sans-serif" font-size="14" lengthAdjust="spacingAndGlyphs" textLength="48" x="64" y="116.9951">eMSP1</text><!--entity eMSP2--><rect fill="#FEFECE" filter="url(#fuf7qm4hck23)" height="36.2969" rx="4" ry="4" style="stroke: #A80036; stroke-width: 1.5;" width="68" x="54" y="165"/><text fill="#000000" font-family="sans-serif" font-size="14" lengthAdjust="spacingAndGlyphs" textLength="48" x="64" y="187.9951">eMSP2</text><!--entity CPO1--><rect fill="#FEFECE" filter="url(#fuf7qm4hck23)" height="36.2969" rx="4" ry="4" style="stroke: #A80036; stroke-width: 1.5;" width="59" x="58.5" y="236"/><text fill="#000000" font-family="sans-serif" font-size="14" lengthAdjust="spacingAndGlyphs" textLength="39" x="68.5" y="258.9951">CPO1</text><!--entity CPO2--><rect fill="#FEFECE" filter="url(#fuf7qm4hck23)" height="36.2969" rx="4" ry="4" style="stroke: #A80036; stroke-width: 1.5;" width="59" x="58.5" y="307"/><text fill="#000000" font-family="sans-serif" font-size="14" lengthAdjust="spacingAndGlyphs" textLength="39" x="68.5" y="329.9951">CPO2</text><!--entity eMSP4--><rect fill="#FEFECE" filter="url(#fuf7qm4hck23)" height="36.2969" rx="4" ry="4" style="stroke: #A80036; stroke-width: 1.5;" width="68" x="250" y="94"/><text fill="#000000" font-family="sans-serif" font-size="14" lengthAdjust="spacingAndGlyphs" textLength="48" x="260" y="116.9951">eMSP4</text><!--entity CPO5--><rect fill="#FEFECE" filter="url(#fuf7qm4hck23)" height="36.2969" rx="4" ry="4" style="stroke: #A80036; stroke-width: 1.5;" width="59" x="254.5" y="165"/><text fill="#000000" font-family="sans-serif" font-size="14" lengthAdjust="spacingAndGlyphs" textLength="39" x="264.5" y="187.9951">CPO5</text><!--entity CPO6--><rect fill="#FEFECE" filter="url(#fuf7qm4hck23)" height="36.2969" rx="4" ry="4" style="stroke: #A80036; stroke-width: 1.5;" width="59" x="254.5" y="236"/><text fill="#000000" font-family="sans-serif" font-size="14" lengthAdjust="spacingAndGlyphs" textLength="39" x="264.5" y="258.9951">CPO6</text><!--entity CPO7--><rect fill="#FEFECE" filter="url(#fuf7qm4hck23)" height="36.2969" rx="4" ry="4" style="stroke: #A80036; stroke-width: 1.5;" width="59" x="254.5" y="307"/><text fill="#000000" font-family="sans-serif" font-size="14" lengthAdjust="spacingAndGlyphs" textLength="39" x="264.5" y="329.9951">CPO7</text><!--link CPOMSP1 to CPOMSP2--><path d="M146.344,59 C146.6824,59 147.0216,59 147.3615,59 C148.7213,59 150.0932,59 151.4758,59 C162.5367,59 174.2865,59 186.0356,59 C197.7846,59 209.533,59 220.5912,59 C221.9735,59 223.345,59 224.7043,59 C225.0442,59 225.3832,59 225.7215,59 " fill="none" id="CPOMSP1-CPOMSP2" style="stroke: #A80036; stroke-width: 1.0;"/><text fill="#000000" font-family="sans-serif" font-size="13" lengthAdjust="spacingAndGlyphs" textLength="30" x="171" y="55.0669">OCPI</text><!--link eMSP1 to eMSP4--><!--link CPO2 to CPO7--></g></svg>