<?xml version="1.0" encoding="UTF-8" standalone="no"?><svg xmlns="http://www.w3.org/2000/svg" xmlns:xlink="http://www.w3.org/1999/xlink" contentScriptType="application/ecmascript" contentStyleType="text/css" height="307px" preserveAspectRatio="none" style="width:344px;height:307px;" version="1.1" viewBox="0 0 344 307" width="344px" zoomAndPan="magnify"><defs><filter height="300%" id="fgvl4yzdm755e" width="300%" x="-1" y="-1"><feGaussianBlur result="blurOut" stdDeviation="2.0"/><feColorMatrix in="blurOut" result="blurOut2" type="matrix" values="0 0 0 0 0 0 0 0 0 0 0 0 0 0 0 0 0 0 .4 0"/><feOffset dx="4.0" dy="4.0" in="blurOut2" result="blurOut3"/><feBlend in="SourceGraphic" in2="blurOut3" mode="normal"/></filter></defs><g><!--cluster MSPPP--><rect fill="#FFFFFF" filter="url(#fgvl4yzdm755e)" height="264" rx="4" ry="4" style="stroke: #000000; stroke-width: 1.5;" width="116" x="30" y="32"/><text fill="#000000" font-family="sans-serif" font-size="14" font-weight="bold" lengthAdjust="spacingAndGlyphs" textLength="84" x="46" y="46.9951">PLATFORM</text><!--cluster CPOPP--><rect fill="#FFFFFF" filter="url(#fgvl4yzdm755e)" height="193" rx="4" ry="4" style="stroke: #000000; stroke-width: 1.5;" width="107" x="226" y="37"/><text fill="#000000" font-family="sans-serif" font-size="14" font-weight="bold" lengthAdjust="spacingAndGlyphs" textLength="84" x="237.5" y="51.9951">PLATFORM</text><!--entity eMSP1--><rect fill="#FEFECE" filter="url(#fgvl4yzdm755e)" height="36.2969" rx="4" ry="4" style="stroke: #A80036; stroke-width: 1.5;" width="68" x="54" y="94"/><text fill="#000000" font-family="sans-serif" font-size="14" lengthAdjust="spacingAndGlyphs" textLength="48" x="64" y="116.9951">eMSP1</text><!--entity eMSP2--><rect fill="#FEFECE" filter="url(#fgvl4yzdm755e)" height="36.2969" rx="4" ry="4" style="stroke: #A80036; stroke-width: 1.5;" width="68" x="54" y="165"/><text fill="#000000" font-family="sans-serif" font-size="14" lengthAdjust="spacingAndGlyphs" textLength="48" x="64" y="187.9951">eMSP2</text><!--entity eMSP3--><rect fill="#FEFECE" filter="url(#fgvl4yzdm755e)" height="36.2969" rx="4" ry="4" style="stroke: #A80036; stroke-width: 1.5;" width="68" x="54" y="236"/><text fill="#000000" font-family="sans-serif" font-size="14" lengthAdjust="spacingAndGlyphs" textLength="48" x="64" y="258.9951">eMSP3</text><!--entity CPO1--><rect fill="#FEFECE" filter="url(#fgvl4yzdm755e)" height="36.2969" rx="4" ry="4" style="stroke: #A80036; stroke-width: 1.5;" width="59" x="250" y="99"/><text fill="#000000" font-family="sans-serif" font-size="14" lengthAdjust="spacingAndGlyphs" textLength="39" x="260" y="121.9951">CPO1</text><!--entity CPO2--><rect fill="#FEFECE" filter="url(#fgvl4yzdm755e)" height="36.2969" rx="4" ry="4" style="stroke: #A80036; stroke-width: 1.5;" width="59" x="250" y="170"/><text fill="#000000" font-family="sans-serif" font-size="14" lengthAdjust="spacingAndGlyphs" textLength="39" x="260" y="192.9951">CPO2</text><!--link MSPPP to CPOPP--><path d="M146.0078,60.5045 C147.336,60.5395 148.676,60.5749 150.0266,60.6105 C160.8309,60.8955 172.3081,61.1983 183.7847,61.5011 C195.2612,61.8039 206.737,62.1067 217.5387,62.3916 C220.2391,62.4629 222.8974,62.533 225.503,62.6017 C225.6659,62.606 225.8285,62.6103 225.991,62.6146 " fill="none" id="MSPPP-CPOPP" style="stroke: #A80036; stroke-width: 1.0;"/><text fill="#000000" font-family="sans-serif" font-size="13" lengthAdjust="spacingAndGlyphs" textLength="30" x="171" y="58.0669">OCPI</text><!--link eMSP1 to CPO1--><!--link eMSP3 to CPO2--></g></svg>