<?xml version="1.0" encoding="UTF-8" standalone="no"?><svg xmlns="http://www.w3.org/2000/svg" xmlns:xlink="http://www.w3.org/1999/xlink" contentScriptType="application/ecmascript" contentStyleType="text/css" height="254px" preserveAspectRatio="none" style="width:353px;height:254px;" version="1.1" viewBox="0 0 353 254" width="353px" zoomAndPan="magnify"><defs><filter height="300%" id="f1bjzop427fszh" width="300%" x="-1" y="-1"><feGaussianBlur result="blurOut" stdDeviation="2.0"/><feColorMatrix in="blurOut" result="blurOut2" type="matrix" values="0 0 0 0 0 0 0 0 0 0 0 0 0 0 0 0 0 0 .4 0"/><feOffset dx="4.0" dy="4.0" in="blurOut2" result="blurOut3"/><feBlend in="SourceGraphic" in2="blurOut3" mode="normal"/></filter></defs><g><!--cluster CPOMSP1--><rect fill="#FFFFFF" filter="url(#f1bjzop427fszh)" height="211" rx="4" ry="4" style="stroke: #000000; stroke-width: 1.5;" width="116" x="30" y="32"/><text fill="#000000" font-family="sans-serif" font-size="14" font-weight="bold" lengthAdjust="spacingAndGlyphs" textLength="84" x="46" y="46.9951">PLATFORM</text><!--cluster CPOMSP2--><rect fill="#FFFFFF" filter="url(#f1bjzop427fszh)" height="193" rx="4" ry="4" style="stroke: #000000; stroke-width: 1.5;" width="116" x="226" y="34"/><text fill="#000000" font-family="sans-serif" font-size="14" font-weight="bold" lengthAdjust="spacingAndGlyphs" textLength="84" x="242" y="48.9951">PLATFORM</text><!--entity eMSP1--><rect fill="#FEFECE" filter="url(#f1bjzop427fszh)" height="36.2969" rx="4" ry="4" style="stroke: #A80036; stroke-width: 1.5;" width="68" x="54" y="94"/><text fill="#000000" font-family="sans-serif" font-size="14" lengthAdjust="spacingAndGlyphs" textLength="48" x="64" y="116.9951">eMSP1</text><!--entity CPO1--><rect fill="#FEFECE" filter="url(#f1bjzop427fszh)" height="36.2969" rx="4" ry="4" style="stroke: #A80036; stroke-width: 1.5;" width="59" x="58.5" y="183"/><text fill="#000000" font-family="sans-serif" font-size="14" lengthAdjust="spacingAndGlyphs" textLength="39" x="68.5" y="205.9951">CPO1</text><!--entity eMSP2--><rect fill="#FEFECE" filter="url(#f1bjzop427fszh)" height="36.2969" rx="4" ry="4" style="stroke: #A80036; stroke-width: 1.5;" width="68" x="250" y="96"/><text fill="#000000" font-family="sans-serif" font-size="14" lengthAdjust="spacingAndGlyphs" textLength="48" x="260" y="118.9951">eMSP2</text><!--entity CPO2--><rect fill="#FEFECE" filter="url(#f1bjzop427fszh)" height="36.2969" rx="4" ry="4" style="stroke: #A80036; stroke-width: 1.5;" width="59" x="254.5" y="167"/><text fill="#000000" font-family="sans-serif" font-size="14" lengthAdjust="spacingAndGlyphs" textLength="39" x="264.5" y="189.9951">CPO2</text><!--link CPOMSP1 to CPOMSP2--><path d="M146.344,59.5911 C146.6824,59.5946 147.0216,59.5981 147.3615,59.6016 C148.7213,59.6156 150.0932,59.6297 151.4758,59.644 C162.5367,59.7581 174.2865,59.8792 186.0356,60.0004 C197.7846,60.1215 209.533,60.2427 220.5912,60.3567 C221.9735,60.371 223.345,60.3851 224.7043,60.3991 C225.0442,60.4026 225.3832,60.4061 225.7215,60.4096 " fill="none" id="CPOMSP1-CPOMSP2" style="stroke: #A80036; stroke-width: 1.0;"/><text fill="#000000" font-family="sans-serif" font-size="13" lengthAdjust="spacingAndGlyphs" textLength="30" x="171" y="56.0669">OCPI</text><!--link CPO1 to CPO1--><!--link eMSP1 to eMSP2--></g></svg>