<?xml version="1.0" encoding="UTF-8" standalone="no"?><svg xmlns="http://www.w3.org/2000/svg" xmlns:xlink="http://www.w3.org/1999/xlink" contentScriptType="application/ecmascript" contentStyleType="text/css" height="167px" preserveAspectRatio="none" style="width:627px;height:167px;" version="1.1" viewBox="0 0 627 167" width="627px" zoomAndPan="magnify"><defs><filter height="300%" id="f19cu5oiufl0bs" width="300%" x="-1" y="-1"><feGaussianBlur result="blurOut" stdDeviation="2.0"/><feColorMatrix in="blurOut" result="blurOut2" type="matrix" values="0 0 0 0 0 0 0 0 0 0 0 0 0 0 0 0 0 0 .4 0"/><feOffset dx="4.0" dy="4.0" in="blurOut2" result="blurOut3"/><feBlend in="SourceGraphic" in2="blurOut3" mode="normal"/></filter></defs><g><rect fill="#FFFFFF" filter="url(#f19cu5oiufl0bs)" height="29.1328" style="stroke: #A80036; stroke-width: 1.0;" width="10" x="31.5" y="69.4297"/><rect fill="#FFFFFF" filter="url(#f19cu5oiufl0bs)" height="29.1328" style="stroke: #A80036; stroke-width: 1.0;" width="10" x="591.5" y="69.4297"/><line style="stroke: #A80036; stroke-width: 1.0; stroke-dasharray: 5.0,5.0;" x1="36" x2="36" y1="38.2969" y2="155.6953"/><line style="stroke: #A80036; stroke-width: 1.0; stroke-dasharray: 5.0,5.0;" x1="596.5" x2="596.5" y1="38.2969" y2="155.6953"/><rect fill="#FEFECE" filter="url(#f19cu5oiufl0bs)" height="30.2969" style="stroke: #A80036; stroke-width: 1.5;" width="53" x="8" y="3"/><text fill="#000000" font-family="sans-serif" font-size="14" lengthAdjust="spacingAndGlyphs" textLength="39" x="15" y="22.9951">eMSP</text><rect fill="#FEFECE" filter="url(#f19cu5oiufl0bs)" height="30.2969" style="stroke: #A80036; stroke-width: 1.5;" width="44" x="572.5" y="3"/><text fill="#000000" font-family="sans-serif" font-size="14" lengthAdjust="spacingAndGlyphs" textLength="30" x="579.5" y="22.9951">CPO</text><rect fill="#FFFFFF" filter="url(#f19cu5oiufl0bs)" height="29.1328" style="stroke: #A80036; stroke-width: 1.0;" width="10" x="31.5" y="69.4297"/><rect fill="#FFFFFF" filter="url(#f19cu5oiufl0bs)" height="29.1328" style="stroke: #A80036; stroke-width: 1.0;" width="10" x="591.5" y="69.4297"/><polygon fill="#A80036" points="579.5,65.4297,589.5,69.4297,579.5,73.4297,583.5,69.4297" style="stroke: #A80036; stroke-width: 1.0;"/><line style="stroke: #A80036; stroke-width: 1.0;" x1="41.5" x2="585.5" y1="69.4297" y2="69.4297"/><text fill="#000000" font-family="sans-serif" font-size="13" lengthAdjust="spacingAndGlyphs" textLength="536" x="48.5" y="64.3638">Command(UNLOCK_CONNECTOR, location_id=1234, evse_uid=1234, connector=1)</text><polygon fill="#A80036" points="47.5,94.5625,37.5,98.5625,47.5,102.5625,43.5,98.5625" style="stroke: #A80036; stroke-width: 1.0;"/><line style="stroke: #A80036; stroke-width: 1.0; stroke-dasharray: 2.0,2.0;" x1="41.5" x2="595.5" y1="98.5625" y2="98.5625"/><text fill="#000000" font-family="sans-serif" font-size="13" lengthAdjust="spacingAndGlyphs" textLength="463" x="53.5" y="93.4966">status_code = 2003, data: {CommandResponse { result = REJECTED }}</text><path d="M41,111.5625 L41,136.5625 L229,136.5625 L229,121.5625 L219,111.5625 L41,111.5625 " fill="#FBFB77" filter="url(#f19cu5oiufl0bs)" style="stroke: #A80036; stroke-width: 1.0;"/><path d="M219,111.5625 L219,121.5625 L229,121.5625 L219,111.5625 " fill="#FBFB77" style="stroke: #A80036; stroke-width: 1.0;"/><text fill="#000000" font-family="sans-serif" font-size="13" lengthAdjust="spacingAndGlyphs" textLength="167" x="47" y="128.6294">2003 = Unknown Location</text></g></svg>