<?xml version="1.0" encoding="UTF-8" standalone="no"?><svg xmlns="http://www.w3.org/2000/svg" xmlns:xlink="http://www.w3.org/1999/xlink" contentScriptType="application/ecmascript" contentStyleType="text/css" height="303px" preserveAspectRatio="none" style="width:220px;height:303px;" version="1.1" viewBox="0 0 220 303" width="220px" zoomAndPan="magnify"><defs><filter height="300%" id="f1pm1vw3d8gca5" width="300%" x="-1" y="-1"><feGaussianBlur result="blurOut" stdDeviation="2.0"/><feColorMatrix in="blurOut" result="blurOut2" type="matrix" values="0 0 0 0 0 0 0 0 0 0 0 0 0 0 0 0 0 0 .4 0"/><feOffset dx="4.0" dy="4.0" in="blurOut2" result="blurOut3"/><feBlend in="SourceGraphic" in2="blurOut3" mode="normal"/></filter></defs><g><text fill="#000000" font-family="sans-serif" font-size="18" lengthAdjust="spacingAndGlyphs" textLength="206" x="2" y="16.708">Locations class diagram</text><!--class Location--><rect fill="#FEFECE" filter="url(#f1pm1vw3d8gca5)" height="48" id="Location" style="stroke: #A80036; stroke-width: 1.5;" width="85" x="56.5" y="28.9531"/><ellipse cx="71.5" cy="44.9531" fill="#ADD1B2" rx="11" ry="11" style="stroke: #A80036; stroke-width: 1.0;"/><path d="M74.4688,50.5938 Q73.8906,50.8906 73.25,51.0313 Q72.6094,51.1875 71.9063,51.1875 Q69.4063,51.1875 68.0781,49.5469 Q66.7656,47.8906 66.7656,44.7656 Q66.7656,41.6406 68.0781,39.9844 Q69.4063,38.3281 71.9063,38.3281 Q72.6094,38.3281 73.25,38.4844 Q73.9063,38.6406 74.4688,38.9375 L74.4688,41.6563 Q73.8438,41.0781 73.25,40.8125 Q72.6563,40.5313 72.0313,40.5313 Q70.6875,40.5313 70,41.6094 Q69.3125,42.6719 69.3125,44.7656 Q69.3125,46.8594 70,47.9375 Q70.6875,49 72.0313,49 Q72.6563,49 73.25,48.7344 Q73.8438,48.4531 74.4688,47.875 L74.4688,50.5938 Z "/><text fill="#000000" font-family="sans-serif" font-size="12" lengthAdjust="spacingAndGlyphs" textLength="53" x="85.5" y="49.1074">Location</text><line style="stroke: #A80036; stroke-width: 1.5;" x1="57.5" x2="140.5" y1="60.9531" y2="60.9531"/><line style="stroke: #A80036; stroke-width: 1.5;" x1="57.5" x2="140.5" y1="68.9531" y2="68.9531"/><!--class EVSE--><rect fill="#FEFECE" filter="url(#f1pm1vw3d8gca5)" height="48" id="EVSE" style="stroke: #A80036; stroke-width: 1.5;" width="64" x="67" y="136.9531"/><ellipse cx="82" cy="152.9531" fill="#ADD1B2" rx="11" ry="11" style="stroke: #A80036; stroke-width: 1.0;"/><path d="M84.9688,158.5938 Q84.3906,158.8906 83.75,159.0313 Q83.1094,159.1875 82.4063,159.1875 Q79.9063,159.1875 78.5781,157.5469 Q77.2656,155.8906 77.2656,152.7656 Q77.2656,149.6406 78.5781,147.9844 Q79.9063,146.3281 82.4063,146.3281 Q83.1094,146.3281 83.75,146.4844 Q84.4063,146.6406 84.9688,146.9375 L84.9688,149.6563 Q84.3438,149.0781 83.75,148.8125 Q83.1563,148.5313 82.5313,148.5313 Q81.1875,148.5313 80.5,149.6094 Q79.8125,150.6719 79.8125,152.7656 Q79.8125,154.8594 80.5,155.9375 Q81.1875,157 82.5313,157 Q83.1563,157 83.75,156.7344 Q84.3438,156.4531 84.9688,155.875 L84.9688,158.5938 Z "/><text fill="#000000" font-family="sans-serif" font-size="12" lengthAdjust="spacingAndGlyphs" textLength="32" x="96" y="157.1074">EVSE</text><line style="stroke: #A80036; stroke-width: 1.5;" x1="68" x2="130" y1="168.9531" y2="168.9531"/><line style="stroke: #A80036; stroke-width: 1.5;" x1="68" x2="130" y1="176.9531" y2="176.9531"/><!--class Connector--><rect fill="#FEFECE" filter="url(#f1pm1vw3d8gca5)" height="48" id="Connector" style="stroke: #A80036; stroke-width: 1.5;" width="97" x="50.5" y="244.9531"/><ellipse cx="65.5" cy="260.9531" fill="#ADD1B2" rx="11" ry="11" style="stroke: #A80036; stroke-width: 1.0;"/><path d="M68.4688,266.5938 Q67.8906,266.8906 67.25,267.0313 Q66.6094,267.1875 65.9063,267.1875 Q63.4063,267.1875 62.0781,265.5469 Q60.7656,263.8906 60.7656,260.7656 Q60.7656,257.6406 62.0781,255.9844 Q63.4063,254.3281 65.9063,254.3281 Q66.6094,254.3281 67.25,254.4844 Q67.9063,254.6406 68.4688,254.9375 L68.4688,257.6563 Q67.8438,257.0781 67.25,256.8125 Q66.6563,256.5313 66.0313,256.5313 Q64.6875,256.5313 64,257.6094 Q63.3125,258.6719 63.3125,260.7656 Q63.3125,262.8594 64,263.9375 Q64.6875,265 66.0313,265 Q66.6563,265 67.25,264.7344 Q67.8438,264.4531 68.4688,263.875 L68.4688,266.5938 Z "/><text fill="#000000" font-family="sans-serif" font-size="12" lengthAdjust="spacingAndGlyphs" textLength="65" x="79.5" y="265.1074">Connector</text><line style="stroke: #A80036; stroke-width: 1.5;" x1="51.5" x2="146.5" y1="276.9531" y2="276.9531"/><line style="stroke: #A80036; stroke-width: 1.5;" x1="51.5" x2="146.5" y1="284.9531" y2="284.9531"/><!--link Location to EVSE--><path d="M99,90.2911 C99,105.6341 99,123.0511 99,136.6311 " fill="none" id="Location-EVSE" style="stroke: #A80036; stroke-width: 1.0;"/><polygon fill="#A80036" points="99,76.9531,95,82.9531,99,88.9531,103,82.9531,99,76.9531" style="stroke: #A80036; stroke-width: 1.0;"/><text fill="#000000" font-family="sans-serif" font-size="13" lengthAdjust="spacingAndGlyphs" textLength="8" x="89.975" y="97.1089">1</text><text fill="#000000" font-family="sans-serif" font-size="13" lengthAdjust="spacingAndGlyphs" textLength="24" x="72.075" y="125.9576">0..n</text><!--link EVSE to Connector--><path d="M99,198.2914 C99,213.6344 99,231.0511 99,244.6315 " fill="none" id="EVSE-Connector" style="stroke: #A80036; stroke-width: 1.0;"/><polygon fill="#A80036" points="99,184.9531,95,190.9531,99,196.9531,103,190.9531,99,184.9531" style="stroke: #A80036; stroke-width: 1.0;"/><text fill="#000000" font-family="sans-serif" font-size="13" lengthAdjust="spacingAndGlyphs" textLength="8" x="89.975" y="205.1089">1</text><text fill="#000000" font-family="sans-serif" font-size="13" lengthAdjust="spacingAndGlyphs" textLength="24" x="72.075" y="233.9581">1..n</text></g></svg>