<?xml version="1.0" encoding="UTF-8" standalone="no"?><svg xmlns="http://www.w3.org/2000/svg" xmlns:xlink="http://www.w3.org/1999/xlink" contentScriptType="application/ecmascript" contentStyleType="text/css" height="55px" preserveAspectRatio="none" style="width:388px;height:55px;" version="1.1" viewBox="0 0 388 55" width="388px" zoomAndPan="magnify"><defs><filter height="300%" id="f1hn7n4nlh3pek" width="300%" x="-1" y="-1"><feGaussianBlur result="blurOut" stdDeviation="2.0"/><feColorMatrix in="blurOut" result="blurOut2" type="matrix" values="0 0 0 0 0 0 0 0 0 0 0 0 0 0 0 0 0 0 .4 0"/><feOffset dx="4.0" dy="4.0" in="blurOut2" result="blurOut3"/><feBlend in="SourceGraphic" in2="blurOut3" mode="normal"/></filter></defs><g><!--entity eMSP--><rect fill="#FEFECE" filter="url(#f1hn7n4nlh3pek)" height="36.2969" style="stroke: #A80036; stroke-width: 1.5;" width="59" x="6" y="8"/><text fill="#000000" font-family="sans-serif" font-size="14" lengthAdjust="spacingAndGlyphs" textLength="39" x="16" y="30.9951">eMSP</text><!--entity CPO--><rect fill="#FEFECE" filter="url(#f1hn7n4nlh3pek)" height="36.2969" style="stroke: #A80036; stroke-width: 1.5;" width="50" x="157" y="8"/><text fill="#000000" font-family="sans-serif" font-size="14" lengthAdjust="spacingAndGlyphs" textLength="30" x="167" y="30.9951">CPO</text><!--entity CP--><rect fill="#FEFECE" filter="url(#f1hn7n4nlh3pek)" height="36.2969" style="stroke: #A80036; stroke-width: 1.5;" width="109" x="268" y="8"/><text fill="#000000" font-family="sans-serif" font-size="14" lengthAdjust="spacingAndGlyphs" textLength="89" x="278" y="30.9951">Charge Point</text><!--link eMSP to CPO--><path d="M70.2201,26 C94.8987,26 128.055,26 151.646,26 " fill="none" id="eMSP-CPO" style="stroke: #A80036; stroke-width: 1.0;"/><polygon fill="#A80036" points="156.827,26,147.827,22,151.827,26,147.827,30,156.827,26" style="stroke: #A80036; stroke-width: 1.0;"/><polygon fill="#A80036" points="65.0486,26,74.0486,30,70.0486,26,74.0486,22,65.0486,26" style="stroke: #A80036; stroke-width: 1.0;"/><text fill="#000000" font-family="sans-serif" font-size="13" lengthAdjust="spacingAndGlyphs" textLength="30" x="96" y="22.0669">OCPI</text><!--link CPO to CP--><path d="M212.41,26 C227.001,26 245.17,26 262.468,26 " fill="none" id="CPO-CP" style="stroke: #A80036; stroke-width: 1.0;"/><polygon fill="#A80036" points="267.804,26,258.804,22,262.804,26,258.804,30,267.804,26" style="stroke: #A80036; stroke-width: 1.0;"/><polygon fill="#A80036" points="207.125,26,216.125,30,212.125,26,216.125,22,207.125,26" style="stroke: #A80036; stroke-width: 1.0;"/></g></svg>