<?xml version="1.0" encoding="UTF-8" standalone="no"?><svg xmlns="http://www.w3.org/2000/svg" xmlns:xlink="http://www.w3.org/1999/xlink" contentScriptType="application/ecmascript" contentStyleType="text/css" height="126px" preserveAspectRatio="none" style="width:388px;height:126px;" version="1.1" viewBox="0 0 388 126" width="388px" zoomAndPan="magnify"><defs><filter height="300%" id="f1190gr1tl3cv8" width="300%" x="-1" y="-1"><feGaussianBlur result="blurOut" stdDeviation="2.0"/><feColorMatrix in="blurOut" result="blurOut2" type="matrix" values="0 0 0 0 0 0 0 0 0 0 0 0 0 0 0 0 0 0 .4 0"/><feOffset dx="4.0" dy="4.0" in="blurOut2" result="blurOut3"/><feBlend in="SourceGraphic" in2="blurOut3" mode="normal"/></filter></defs><g><!--entity eMSP--><rect fill="#FEFECE" filter="url(#f1190gr1tl3cv8)" height="36.2969" style="stroke: #A80036; stroke-width: 1.5;" width="59" x="6" y="8"/><text fill="#000000" font-family="sans-serif" font-size="14" lengthAdjust="spacingAndGlyphs" textLength="39" x="16" y="30.9951">eMSP</text><!--entity SCSP--><rect fill="#FEFECE" filter="url(#f1190gr1tl3cv8)" height="36.2969" style="stroke: #A80036; stroke-width: 1.5;" width="57" x="7" y="79"/><text fill="#000000" font-family="sans-serif" font-size="14" lengthAdjust="spacingAndGlyphs" textLength="37" x="17" y="101.9951">SCSP</text><!--entity CPO--><rect fill="#FEFECE" filter="url(#f1190gr1tl3cv8)" height="36.2969" style="stroke: #A80036; stroke-width: 1.5;" width="50" x="157" y="44"/><text fill="#000000" font-family="sans-serif" font-size="14" lengthAdjust="spacingAndGlyphs" textLength="30" x="167" y="66.9951">CPO</text><!--entity CP--><rect fill="#FEFECE" filter="url(#f1190gr1tl3cv8)" height="36.2969" style="stroke: #A80036; stroke-width: 1.5;" width="109" x="268" y="44"/><text fill="#000000" font-family="sans-serif" font-size="14" lengthAdjust="spacingAndGlyphs" textLength="89" x="278" y="66.9951">Charge Point</text><!--link eMSP to CPO--><path d="M70.2201,34.4009 C95.0024,40.575 128.334,48.879 151.943,54.7609 " fill="none" id="eMSP-CPO" style="stroke: #A80036; stroke-width: 1.0;"/><polygon fill="#A80036" points="156.827,55.9776,149.0607,49.9208,151.9753,54.769,147.127,57.6836,156.827,55.9776" style="stroke: #A80036; stroke-width: 1.0;"/><polygon fill="#A80036" points="65.0486,33.1124,72.8147,39.1694,69.9003,34.3211,74.7486,31.4067,65.0486,33.1124" style="stroke: #A80036; stroke-width: 1.0;"/><text fill="#000000" font-family="sans-serif" font-size="13" lengthAdjust="spacingAndGlyphs" textLength="30" x="96" y="37.0669">OCPI</text><!--link SCSP to CPO--><path d="M69.4846,95.353 C86.8412,93.8975 108.336,91.1573 127,86 C135.353,83.692 144.073,80.2941 152.008,76.777 " fill="none" id="SCSP-CPO" style="stroke: #A80036; stroke-width: 1.0;"/><polygon fill="#A80036" points="156.837,74.5803,146.9885,74.6653,152.2856,76.6503,150.3006,81.9475,156.837,74.5803" style="stroke: #A80036; stroke-width: 1.0;"/><polygon fill="#A80036" points="64.2386,95.7648,73.524,99.0482,69.2233,95.3735,72.898,91.0728,64.2386,95.7648" style="stroke: #A80036; stroke-width: 1.0;"/><text fill="#000000" font-family="sans-serif" font-size="13" lengthAdjust="spacingAndGlyphs" textLength="30" x="96" y="82.0669">OCPI</text><!--link CPO to CP--><path d="M212.41,62 C227.001,62 245.17,62 262.468,62 " fill="none" id="CPO-CP" style="stroke: #A80036; stroke-width: 1.0;"/><polygon fill="#A80036" points="267.804,62,258.804,58,262.804,62,258.804,66,267.804,62" style="stroke: #A80036; stroke-width: 1.0;"/><polygon fill="#A80036" points="207.125,62,216.125,66,212.125,62,216.125,58,207.125,62" style="stroke: #A80036; stroke-width: 1.0;"/></g></svg>