<?xml version="1.0" encoding="UTF-8" standalone="no"?><svg xmlns="http://www.w3.org/2000/svg" xmlns:xlink="http://www.w3.org/1999/xlink" contentScriptType="application/ecmascript" contentStyleType="text/css" height="600px" preserveAspectRatio="none" style="width:657px;height:600px;" version="1.1" viewBox="0 0 657 600" width="657px" zoomAndPan="magnify"><defs><filter height="300%" id="f1rzcjyvemqsrr" width="300%" x="-1" y="-1"><feGaussianBlur result="blurOut" stdDeviation="2.0"/><feColorMatrix in="blurOut" result="blurOut2" type="matrix" values="0 0 0 0 0 0 0 0 0 0 0 0 0 0 0 0 0 0 .4 0"/><feOffset dx="4.0" dy="4.0" in="blurOut2" result="blurOut3"/><feBlend in="SourceGraphic" in2="blurOut3" mode="normal"/></filter></defs><g><text fill="#000000" font-family="sans-serif" font-size="14" font-weight="bold" lengthAdjust="spacingAndGlyphs" textLength="167" x="245" y="22.9951">OCPI Update process</text><rect fill="#FFFFFF" filter="url(#f1rzcjyvemqsrr)" height="463.9922" style="stroke: #A80036; stroke-width: 1.0;" width="10" x="37" y="99.7266"/><rect fill="#FFFFFF" filter="url(#f1rzcjyvemqsrr)" height="29.1328" style="stroke: #A80036; stroke-width: 1.0;" width="10" x="315" y="99.7266"/><rect fill="#FFFFFF" filter="url(#f1rzcjyvemqsrr)" height="29.1328" style="stroke: #A80036; stroke-width: 1.0;" width="10" x="315" y="200.125"/><rect fill="#FFFFFF" filter="url(#f1rzcjyvemqsrr)" height="228.0625" style="stroke: #A80036; stroke-width: 1.0;" width="10" x="315" y="300.5234"/><line style="stroke: #A80036; stroke-width: 1.0; stroke-dasharray: 5.0,5.0;" x1="42" x2="42" y1="68.5938" y2="588.7188"/><line style="stroke: #A80036; stroke-width: 1.0; stroke-dasharray: 5.0,5.0;" x1="320" x2="320" y1="68.5938" y2="588.7188"/><rect fill="#FEFECE" filter="url(#f1rzcjyvemqsrr)" height="30.2969" style="stroke: #A80036; stroke-width: 1.5;" width="64" x="8" y="33.2969"/><text fill="#000000" font-family="sans-serif" font-size="14" lengthAdjust="spacingAndGlyphs" textLength="50" x="15" y="53.292">Sender</text><rect fill="#FEFECE" filter="url(#f1rzcjyvemqsrr)" height="30.2969" style="stroke: #A80036; stroke-width: 1.5;" width="74" x="281" y="33.2969"/><text fill="#000000" font-family="sans-serif" font-size="14" lengthAdjust="spacingAndGlyphs" textLength="60" x="288" y="53.292">Receiver</text><rect fill="#FFFFFF" filter="url(#f1rzcjyvemqsrr)" height="463.9922" style="stroke: #A80036; stroke-width: 1.0;" width="10" x="37" y="99.7266"/><rect fill="#FFFFFF" filter="url(#f1rzcjyvemqsrr)" height="29.1328" style="stroke: #A80036; stroke-width: 1.0;" width="10" x="315" y="99.7266"/><rect fill="#FFFFFF" filter="url(#f1rzcjyvemqsrr)" height="29.1328" style="stroke: #A80036; stroke-width: 1.0;" width="10" x="315" y="200.125"/><rect fill="#FFFFFF" filter="url(#f1rzcjyvemqsrr)" height="228.0625" style="stroke: #A80036; stroke-width: 1.0;" width="10" x="315" y="300.5234"/><polygon fill="#A80036" points="303,95.7266,313,99.7266,303,103.7266,307,99.7266" style="stroke: #A80036; stroke-width: 1.0;"/><line style="stroke: #A80036; stroke-width: 1.0;" x1="47" x2="309" y1="99.7266" y2="99.7266"/><text fill="#000000" font-family="sans-serif" font-size="13" lengthAdjust="spacingAndGlyphs" textLength="143" x="54" y="94.6606">GET /ocpi/cpo/versions</text><polygon fill="#A80036" points="58,124.8594,48,128.8594,58,132.8594,54,128.8594" style="stroke: #A80036; stroke-width: 1.0;"/><line style="stroke: #A80036; stroke-width: 1.0; stroke-dasharray: 2.0,2.0;" x1="52" x2="319" y1="128.8594" y2="128.8594"/><text fill="#000000" font-family="sans-serif" font-size="13" lengthAdjust="spacingAndGlyphs" textLength="114" x="64" y="123.7935">Available versions</text><line style="stroke: #A80036; stroke-width: 1.0;" x1="47" x2="89" y1="157.9922" y2="157.9922"/><line style="stroke: #A80036; stroke-width: 1.0;" x1="89" x2="89" y1="157.9922" y2="170.9922"/><line style="stroke: #A80036; stroke-width: 1.0;" x1="48" x2="89" y1="170.9922" y2="170.9922"/><polygon fill="#A80036" points="58,166.9922,48,170.9922,58,174.9922,54,170.9922" style="stroke: #A80036; stroke-width: 1.0;"/><text fill="#000000" font-family="sans-serif" font-size="13" lengthAdjust="spacingAndGlyphs" textLength="230" x="54" y="152.9263">Pick latest mutual version (e.g. 2.0).</text><polygon fill="#A80036" points="303,196.125,313,200.125,303,204.125,307,200.125" style="stroke: #A80036; stroke-width: 1.0;"/><line style="stroke: #A80036; stroke-width: 1.0;" x1="47" x2="309" y1="200.125" y2="200.125"/><text fill="#000000" font-family="sans-serif" font-size="13" lengthAdjust="spacingAndGlyphs" textLength="114" x="54" y="195.0591">GET /ocpi/cpo/2.0/</text><polygon fill="#A80036" points="58,225.2578,48,229.2578,58,233.2578,54,229.2578" style="stroke: #A80036; stroke-width: 1.0;"/><line style="stroke: #A80036; stroke-width: 1.0; stroke-dasharray: 2.0,2.0;" x1="52" x2="319" y1="229.2578" y2="229.2578"/><text fill="#000000" font-family="sans-serif" font-size="13" lengthAdjust="spacingAndGlyphs" textLength="176" x="64" y="224.1919">Available endpoints for v2.0</text><line style="stroke: #A80036; stroke-width: 1.0;" x1="47" x2="89" y1="258.3906" y2="258.3906"/><line style="stroke: #A80036; stroke-width: 1.0;" x1="89" x2="89" y1="258.3906" y2="271.3906"/><line style="stroke: #A80036; stroke-width: 1.0;" x1="48" x2="89" y1="271.3906" y2="271.3906"/><polygon fill="#A80036" points="58,267.3906,48,271.3906,58,275.3906,54,271.3906" style="stroke: #A80036; stroke-width: 1.0;"/><text fill="#000000" font-family="sans-serif" font-size="13" lengthAdjust="spacingAndGlyphs" textLength="180" x="54" y="253.3247">Store version and endpoints</text><polygon fill="#A80036" points="303,296.5234,313,300.5234,303,304.5234,307,300.5234" style="stroke: #A80036; stroke-width: 1.0;"/><line style="stroke: #A80036; stroke-width: 1.0;" x1="47" x2="309" y1="300.5234" y2="300.5234"/><text fill="#000000" font-family="sans-serif" font-size="13" lengthAdjust="spacingAndGlyphs" textLength="184" x="54" y="295.4575">PUT /ocpi/cpo/2.0/credentials</text><polygon fill="#A80036" points="58,325.6563,48,329.6563,58,333.6563,54,329.6563" style="stroke: #A80036; stroke-width: 1.0;"/><line style="stroke: #A80036; stroke-width: 1.0;" x1="52" x2="314" y1="329.6563" y2="329.6563"/><text fill="#000000" font-family="sans-serif" font-size="13" lengthAdjust="spacingAndGlyphs" textLength="156" x="64" y="324.5903">GET /ocpi/emsp/versions</text><polygon fill="#A80036" points="303,354.7891,313,358.7891,303,362.7891,307,358.7891" style="stroke: #A80036; stroke-width: 1.0;"/><line style="stroke: #A80036; stroke-width: 1.0; stroke-dasharray: 2.0,2.0;" x1="47" x2="309" y1="358.7891" y2="358.7891"/><text fill="#000000" font-family="sans-serif" font-size="13" lengthAdjust="spacingAndGlyphs" textLength="114" x="54" y="353.7231">Available versions</text><polygon fill="#A80036" points="58,383.9219,48,387.9219,58,391.9219,54,387.9219" style="stroke: #A80036; stroke-width: 1.0;"/><line style="stroke: #A80036; stroke-width: 1.0;" x1="52" x2="314" y1="387.9219" y2="387.9219"/><text fill="#000000" font-family="sans-serif" font-size="13" lengthAdjust="spacingAndGlyphs" textLength="127" x="64" y="382.856">GET /ocpi/emsp/2.0/</text><polygon fill="#A80036" points="303,433.1875,313,437.1875,303,441.1875,307,437.1875" style="stroke: #A80036; stroke-width: 1.0;"/><line style="stroke: #A80036; stroke-width: 1.0; stroke-dasharray: 2.0,2.0;" x1="47" x2="309" y1="437.1875" y2="437.1875"/><text fill="#000000" font-family="sans-serif" font-size="13" lengthAdjust="spacingAndGlyphs" textLength="176" x="54" y="432.1216">Available endpoints for v2.0</text><path d="M330,400.9219 L330,455.9219 L645,455.9219 L645,410.9219 L635,400.9219 L330,400.9219 " fill="#FBFB77" filter="url(#f1rzcjyvemqsrr)" style="stroke: #A80036; stroke-width: 1.0;"/><path d="M635,400.9219 L635,410.9219 L645,410.9219 L635,400.9219 " fill="#FBFB77" style="stroke: #A80036; stroke-width: 1.0;"/><text fill="#000000" font-family="sans-serif" font-size="13" lengthAdjust="spacingAndGlyphs" textLength="278" x="336" y="417.9888">The Receiver knows it's version 2.0 because</text><text fill="#000000" font-family="sans-serif" font-size="13" lengthAdjust="spacingAndGlyphs" textLength="294" x="336" y="433.1216">of the endpoint the Sender has used. The URL</text><text fill="#000000" font-family="sans-serif" font-size="13" lengthAdjust="spacingAndGlyphs" textLength="251" x="336" y="448.2544">is retrieved from the available versions.</text><line style="stroke: #A80036; stroke-width: 1.0;" x1="325" x2="367" y1="486.4531" y2="486.4531"/><line style="stroke: #A80036; stroke-width: 1.0;" x1="367" x2="367" y1="486.4531" y2="499.4531"/><line style="stroke: #A80036; stroke-width: 1.0;" x1="326" x2="367" y1="499.4531" y2="499.4531"/><polygon fill="#A80036" points="336,495.4531,326,499.4531,336,503.4531,332,499.4531" style="stroke: #A80036; stroke-width: 1.0;"/><text fill="#000000" font-family="sans-serif" font-size="13" lengthAdjust="spacingAndGlyphs" textLength="180" x="332" y="481.3872">Store version and endpoints</text><polygon fill="#A80036" points="58,524.5859,48,528.5859,58,532.5859,54,528.5859" style="stroke: #A80036; stroke-width: 1.0;"/><line style="stroke: #A80036; stroke-width: 1.0; stroke-dasharray: 2.0,2.0;" x1="52" x2="319" y1="528.5859" y2="528.5859"/><text fill="#000000" font-family="sans-serif" font-size="13" lengthAdjust="spacingAndGlyphs" textLength="244" x="64" y="523.52">Return updated credentials for Sender</text><line style="stroke: #A80036; stroke-width: 1.0;" x1="47" x2="89" y1="562.7188" y2="562.7188"/><line style="stroke: #A80036; stroke-width: 1.0;" x1="89" x2="89" y1="562.7188" y2="575.7188"/><line style="stroke: #A80036; stroke-width: 1.0;" x1="42" x2="89" y1="575.7188" y2="575.7188"/><polygon fill="#A80036" points="52,571.7188,42,575.7188,52,579.7188,48,575.7188" style="stroke: #A80036; stroke-width: 1.0;"/><text fill="#000000" font-family="sans-serif" font-size="13" lengthAdjust="spacingAndGlyphs" textLength="166" x="54" y="557.6528">Store updated credentials</text></g></svg>