<?xml version="1.0" encoding="UTF-8" standalone="no"?><svg xmlns="http://www.w3.org/2000/svg" xmlns:xlink="http://www.w3.org/1999/xlink" contentScriptType="application/ecmascript" contentStyleType="text/css" height="288px" preserveAspectRatio="none" style="width:910px;height:288px;" version="1.1" viewBox="0 0 910 288" width="910px" zoomAndPan="magnify"><defs><filter height="300%" id="f1m2rcfuul65ew" width="300%" x="-1" y="-1"><feGaussianBlur result="blurOut" stdDeviation="2.0"/><feColorMatrix in="blurOut" result="blurOut2" type="matrix" values="0 0 0 0 0 0 0 0 0 0 0 0 0 0 0 0 0 0 .4 0"/><feOffset dx="4.0" dy="4.0" in="blurOut2" result="blurOut3"/><feBlend in="SourceGraphic" in2="blurOut3" mode="normal"/></filter></defs><g><text fill="#000000" font-family="sans-serif" font-size="14" font-weight="bold" lengthAdjust="spacingAndGlyphs" textLength="627" x="143" y="22.9951">OCPI Command START_SESSION -&gt; REJECT by Charge Point: no cable plugged in</text><rect fill="#FFFFFF" filter="url(#f1m2rcfuul65ew)" height="29.1328" style="stroke: #A80036; stroke-width: 1.0;" width="10" x="31.5" y="138.7266"/><rect fill="#FFFFFF" filter="url(#f1m2rcfuul65ew)" height="14.1328" style="stroke: #A80036; stroke-width: 1.0;" width="10" x="31.5" y="255.2578"/><rect fill="#FFFFFF" filter="url(#f1m2rcfuul65ew)" height="58.2656" style="stroke: #A80036; stroke-width: 1.0;" width="10" x="535.5" y="138.7266"/><rect fill="#FFFFFF" filter="url(#f1m2rcfuul65ew)" height="43.2656" style="stroke: #A80036; stroke-width: 1.0;" width="10" x="535.5" y="226.125"/><rect fill="#FFFFFF" filter="url(#f1m2rcfuul65ew)" height="72.3984" style="stroke: #A80036; stroke-width: 1.0;" width="10" x="828.5" y="196.9922"/><line style="stroke: #A80036; stroke-width: 1.0; stroke-dasharray: 5.0,5.0;" x1="36" x2="36" y1="68.5938" y2="287.3906"/><line style="stroke: #A80036; stroke-width: 1.0; stroke-dasharray: 5.0,5.0;" x1="540.5" x2="540.5" y1="68.5938" y2="287.3906"/><line style="stroke: #A80036; stroke-width: 1.0; stroke-dasharray: 5.0,5.0;" x1="833" x2="833" y1="68.5938" y2="287.3906"/><rect fill="#FEFECE" filter="url(#f1m2rcfuul65ew)" height="30.2969" style="stroke: #A80036; stroke-width: 1.5;" width="53" x="8" y="33.2969"/><text fill="#000000" font-family="sans-serif" font-size="14" lengthAdjust="spacingAndGlyphs" textLength="39" x="15" y="53.292">eMSP</text><rect fill="#FEFECE" filter="url(#f1m2rcfuul65ew)" height="30.2969" style="stroke: #A80036; stroke-width: 1.5;" width="44" x="516.5" y="33.2969"/><text fill="#000000" font-family="sans-serif" font-size="14" lengthAdjust="spacingAndGlyphs" textLength="30" x="523.5" y="53.292">CPO</text><rect fill="#FEFECE" filter="url(#f1m2rcfuul65ew)" height="30.2969" style="stroke: #A80036; stroke-width: 1.5;" width="103" x="780" y="33.2969"/><text fill="#000000" font-family="sans-serif" font-size="14" lengthAdjust="spacingAndGlyphs" textLength="89" x="787" y="53.292">Charge Point</text><rect fill="#FFFFFF" filter="url(#f1m2rcfuul65ew)" height="29.1328" style="stroke: #A80036; stroke-width: 1.0;" width="10" x="31.5" y="138.7266"/><rect fill="#FFFFFF" filter="url(#f1m2rcfuul65ew)" height="14.1328" style="stroke: #A80036; stroke-width: 1.0;" width="10" x="31.5" y="255.2578"/><rect fill="#FFFFFF" filter="url(#f1m2rcfuul65ew)" height="58.2656" style="stroke: #A80036; stroke-width: 1.0;" width="10" x="535.5" y="138.7266"/><rect fill="#FFFFFF" filter="url(#f1m2rcfuul65ew)" height="43.2656" style="stroke: #A80036; stroke-width: 1.0;" width="10" x="535.5" y="226.125"/><rect fill="#FFFFFF" filter="url(#f1m2rcfuul65ew)" height="72.3984" style="stroke: #A80036; stroke-width: 1.0;" width="10" x="828.5" y="196.9922"/><polygon fill="#FBFB77" filter="url(#f1m2rcfuul65ew)" points="762,83.5938,762,108.5938,901,108.5938,901,93.5938,891,83.5938,762,83.5938" style="stroke: #A80036; stroke-width: 1.0;"/><line style="stroke: #A80036; stroke-width: 1.0;" x1="891" x2="891" y1="83.5938" y2="93.5938"/><line style="stroke: #A80036; stroke-width: 1.0;" x1="901" x2="891" y1="93.5938" y2="93.5938"/><text fill="#000000" font-family="sans-serif" font-size="13" lengthAdjust="spacingAndGlyphs" textLength="118" x="768" y="100.6606">EV NOT Plugged in</text><polygon fill="#A80036" points="523.5,134.7266,533.5,138.7266,523.5,142.7266,527.5,138.7266" style="stroke: #A80036; stroke-width: 1.0;"/><line style="stroke: #A80036; stroke-width: 1.0;" x1="41.5" x2="529.5" y1="138.7266" y2="138.7266"/><text fill="#000000" font-family="sans-serif" font-size="13" lengthAdjust="spacingAndGlyphs" textLength="380" x="48.5" y="133.7935">Command(START_SESSION, location_id=1234, token=200)</text><polygon fill="#A80036" points="47.5,163.8594,37.5,167.8594,47.5,171.8594,43.5,167.8594" style="stroke: #A80036; stroke-width: 1.0;"/><line style="stroke: #A80036; stroke-width: 1.0; stroke-dasharray: 2.0,2.0;" x1="41.5" x2="534.5" y1="167.8594" y2="167.8594"/><text fill="#000000" font-family="sans-serif" font-size="13" lengthAdjust="spacingAndGlyphs" textLength="470" x="53.5" y="162.9263">status_code = 1000, data: {CommandResponse { result = ACCEPTED }}</text><polygon fill="#A80036" points="816.5,192.9922,826.5,196.9922,816.5,200.9922,820.5,196.9922" style="stroke: #A80036; stroke-width: 1.0;"/><line style="stroke: #A80036; stroke-width: 1.0;" x1="540.5" x2="822.5" y1="196.9922" y2="196.9922"/><text fill="#000000" font-family="sans-serif" font-size="13" lengthAdjust="spacingAndGlyphs" textLength="264" x="547.5" y="192.0591">RemoteStartTransaction.req(Token=200)</text><polygon fill="#A80036" points="556.5,222.125,546.5,226.125,556.5,230.125,552.5,226.125" style="stroke: #A80036; stroke-width: 1.0;"/><line style="stroke: #A80036; stroke-width: 1.0;" x1="550.5" x2="827.5" y1="226.125" y2="226.125"/><text fill="#000000" font-family="sans-serif" font-size="13" lengthAdjust="spacingAndGlyphs" textLength="252" x="562.5" y="221.1919">RemoteStartTransaction.conf(Rejected)</text><polygon fill="#A80036" points="52.5,251.2578,42.5,255.2578,52.5,259.2578,48.5,255.2578" style="stroke: #A80036; stroke-width: 1.0;"/><line style="stroke: #A80036; stroke-width: 1.0;" x1="46.5" x2="534.5" y1="255.2578" y2="255.2578"/><text fill="#000000" font-family="sans-serif" font-size="13" lengthAdjust="spacingAndGlyphs" textLength="215" x="58.5" y="250.3247">CommandResult(result = FAILED)</text><polygon fill="#A80036" points="528.5,265.3906,538.5,269.3906,528.5,273.3906,532.5,269.3906" style="stroke: #A80036; stroke-width: 1.0;"/><line style="stroke: #A80036; stroke-width: 1.0; stroke-dasharray: 2.0,2.0;" x1="36.5" x2="534.5" y1="269.3906" y2="269.3906"/></g></svg>